G75*
%MOIN*%
%OFA0B0*%
%FSLAX25Y25*%
%IPPOS*%
%LPD*%
%AMOC8*
5,1,8,0,0,1.08239X$1,22.5*
%
%ADD10R,0.06699X0.07487*%
%ADD11R,0.07487X0.06699*%
%ADD12C,0.09000*%
%ADD13C,0.05124*%
%ADD14C,0.07800*%
%ADD15OC8,0.07800*%
%ADD16C,0.07800*%
%ADD17R,0.07800X0.07800*%
%ADD18R,0.05912X0.04337*%
%ADD19C,0.06400*%
%ADD20C,0.07000*%
%ADD21C,0.03400*%
%ADD22R,0.02600X0.05600*%
%ADD23R,0.07093X0.03746*%
%ADD24R,0.04337X0.05912*%
D10*
X0054488Y0081600D03*
X0065512Y0081600D03*
X0089488Y0081600D03*
X0100512Y0081600D03*
X0169488Y0136600D03*
X0180512Y0136600D03*
X0180512Y0211600D03*
X0180512Y0221600D03*
X0180512Y0231600D03*
X0169488Y0231600D03*
X0169488Y0221600D03*
X0169488Y0211600D03*
X0194488Y0231600D03*
X0205512Y0231600D03*
D11*
X0150000Y0132112D03*
X0150000Y0121088D03*
X0165000Y0064612D03*
X0165000Y0053588D03*
X0180000Y0053588D03*
X0180000Y0064612D03*
X0120000Y0211088D03*
X0120000Y0222112D03*
X0120000Y0236088D03*
X0120000Y0247112D03*
X0120000Y0261088D03*
X0120000Y0272112D03*
X0080000Y0272112D03*
X0080000Y0261088D03*
X0080000Y0247112D03*
X0080000Y0236088D03*
X0080000Y0222112D03*
X0080000Y0211088D03*
X0040000Y0266088D03*
X0040000Y0277112D03*
X0067500Y0144612D03*
X0067500Y0133588D03*
X0075000Y0047112D03*
X0075000Y0036088D03*
X0055000Y0036088D03*
X0055000Y0047112D03*
D12*
X0165315Y0251915D03*
X0175157Y0251915D03*
X0185000Y0271600D03*
X0194843Y0251915D03*
X0204685Y0251915D03*
D13*
X0204685Y0271600D03*
X0204685Y0281443D03*
X0185000Y0251915D03*
X0165315Y0271600D03*
X0165315Y0281443D03*
D14*
X0015000Y0011600D03*
X0015000Y0021600D03*
X0015000Y0031600D03*
X0015000Y0041600D03*
X0015000Y0051600D03*
X0015000Y0061600D03*
X0015000Y0071600D03*
X0015000Y0081600D03*
X0015000Y0091600D03*
X0015000Y0101600D03*
X0015000Y0116600D03*
X0015000Y0126600D03*
X0015000Y0136600D03*
X0015000Y0146600D03*
X0015000Y0156600D03*
X0015000Y0166600D03*
X0015000Y0176600D03*
X0015000Y0186600D03*
X0055000Y0154100D03*
X0055000Y0144100D03*
X0055000Y0134100D03*
X0055000Y0111600D03*
X0045000Y0111600D03*
X0055000Y0096600D03*
X0065000Y0096600D03*
X0075000Y0096600D03*
X0085000Y0096600D03*
X0095000Y0096600D03*
X0105000Y0096600D03*
X0085000Y0069100D03*
X0085000Y0056600D03*
X0075000Y0056600D03*
X0065000Y0056600D03*
X0065000Y0069100D03*
X0075000Y0069100D03*
X0065000Y0111600D03*
X0080000Y0161600D03*
X0090000Y0161600D03*
X0100000Y0161600D03*
X0110000Y0161600D03*
X0120000Y0161600D03*
X0130000Y0161600D03*
X0160000Y0161600D03*
X0170000Y0161600D03*
X0180000Y0161600D03*
X0180000Y0146600D03*
X0170000Y0146600D03*
X0160000Y0146600D03*
X0160000Y0176600D03*
X0170000Y0176600D03*
X0175000Y0189100D03*
X0170000Y0196600D03*
X0180000Y0196600D03*
X0180000Y0176600D03*
X0205000Y0176600D03*
X0205000Y0166600D03*
X0205000Y0156600D03*
X0205000Y0146600D03*
X0205000Y0136600D03*
X0205000Y0116600D03*
X0205000Y0106600D03*
X0205000Y0096600D03*
X0205000Y0086600D03*
X0205000Y0076600D03*
X0205000Y0066600D03*
X0205000Y0056600D03*
X0205000Y0046600D03*
X0205000Y0186600D03*
D15*
X0115000Y0186600D03*
X0115000Y0196600D03*
X0105000Y0196600D03*
X0105000Y0186600D03*
X0095000Y0186600D03*
X0095000Y0196600D03*
D16*
X0170000Y0110300D02*
X0170000Y0102900D01*
X0180000Y0102900D02*
X0180000Y0110300D01*
X0180000Y0085300D02*
X0180000Y0077900D01*
X0170000Y0077900D02*
X0170000Y0085300D01*
X0170000Y0040300D02*
X0170000Y0032900D01*
X0180000Y0032900D02*
X0180000Y0040300D01*
D17*
X0150000Y0146600D03*
X0055000Y0164100D03*
X0055000Y0069100D03*
X0055000Y0056600D03*
D18*
X0104331Y0212860D03*
X0104331Y0220340D03*
X0095669Y0216600D03*
X0104331Y0237860D03*
X0104331Y0245340D03*
X0095669Y0241600D03*
X0104331Y0262860D03*
X0104331Y0270340D03*
X0095669Y0266600D03*
D19*
X0142000Y0061600D02*
X0148000Y0061600D01*
X0148000Y0051600D02*
X0142000Y0051600D01*
X0142000Y0041600D02*
X0148000Y0041600D01*
D20*
X0137874Y0126600D03*
X0122126Y0126600D03*
D21*
X0037500Y0239100D03*
X0037500Y0251600D03*
X0140000Y0301600D03*
D22*
X0196300Y0217000D03*
X0200000Y0217000D03*
X0203700Y0217000D03*
X0203700Y0206200D03*
X0196300Y0206200D03*
D23*
X0149213Y0204474D03*
X0137402Y0212348D03*
X0149213Y0220222D03*
X0137402Y0228096D03*
X0149213Y0235970D03*
X0137402Y0243844D03*
X0149213Y0251718D03*
X0137402Y0259592D03*
X0149213Y0267466D03*
X0137402Y0275340D03*
X0062598Y0267466D03*
X0050787Y0259592D03*
X0062598Y0251718D03*
X0050787Y0243844D03*
X0062598Y0235970D03*
X0050787Y0228096D03*
X0062598Y0220222D03*
X0050787Y0212348D03*
X0062598Y0204474D03*
X0050787Y0275340D03*
D24*
X0126260Y0060931D03*
X0133740Y0060931D03*
X0130000Y0052269D03*
M02*
