G75*
%MOIN*%
%OFA0B0*%
%FSLAX25Y25*%
%IPPOS*%
%LPD*%
%AMOC8*
5,1,8,0,0,1.08239X$1,22.5*
%
%ADD10C,0.00000*%
%ADD11C,0.01000*%
%ADD12C,0.00500*%
%ADD13C,0.01200*%
%ADD14C,0.00200*%
%ADD15C,0.00300*%
%ADD16C,0.00600*%
%ADD17C,0.00800*%
%ADD18R,0.04000X0.40000*%
%ADD19C,0.00080*%
%ADD20C,0.00400*%
%ADD21C,0.00100*%
D10*
X0005000Y0001600D02*
X0005000Y0261600D01*
X0162953Y0271600D02*
X0162955Y0271697D01*
X0162961Y0271794D01*
X0162971Y0271890D01*
X0162985Y0271986D01*
X0163003Y0272082D01*
X0163024Y0272176D01*
X0163050Y0272270D01*
X0163079Y0272362D01*
X0163113Y0272453D01*
X0163149Y0272543D01*
X0163190Y0272631D01*
X0163234Y0272717D01*
X0163282Y0272802D01*
X0163333Y0272884D01*
X0163387Y0272965D01*
X0163445Y0273043D01*
X0163506Y0273118D01*
X0163569Y0273191D01*
X0163636Y0273262D01*
X0163706Y0273329D01*
X0163778Y0273394D01*
X0163853Y0273455D01*
X0163931Y0273514D01*
X0164010Y0273569D01*
X0164092Y0273621D01*
X0164176Y0273669D01*
X0164262Y0273714D01*
X0164350Y0273756D01*
X0164439Y0273794D01*
X0164530Y0273828D01*
X0164622Y0273858D01*
X0164715Y0273885D01*
X0164810Y0273907D01*
X0164905Y0273926D01*
X0165001Y0273941D01*
X0165097Y0273952D01*
X0165194Y0273959D01*
X0165291Y0273962D01*
X0165388Y0273961D01*
X0165485Y0273956D01*
X0165581Y0273947D01*
X0165677Y0273934D01*
X0165773Y0273917D01*
X0165868Y0273896D01*
X0165961Y0273872D01*
X0166054Y0273843D01*
X0166146Y0273811D01*
X0166236Y0273775D01*
X0166324Y0273736D01*
X0166411Y0273692D01*
X0166496Y0273646D01*
X0166579Y0273595D01*
X0166660Y0273542D01*
X0166738Y0273485D01*
X0166815Y0273425D01*
X0166888Y0273362D01*
X0166959Y0273296D01*
X0167027Y0273227D01*
X0167093Y0273155D01*
X0167155Y0273081D01*
X0167214Y0273004D01*
X0167270Y0272925D01*
X0167323Y0272843D01*
X0167373Y0272760D01*
X0167418Y0272674D01*
X0167461Y0272587D01*
X0167500Y0272498D01*
X0167535Y0272408D01*
X0167566Y0272316D01*
X0167593Y0272223D01*
X0167617Y0272129D01*
X0167637Y0272034D01*
X0167653Y0271938D01*
X0167665Y0271842D01*
X0167673Y0271745D01*
X0167677Y0271648D01*
X0167677Y0271552D01*
X0167673Y0271455D01*
X0167665Y0271358D01*
X0167653Y0271262D01*
X0167637Y0271166D01*
X0167617Y0271071D01*
X0167593Y0270977D01*
X0167566Y0270884D01*
X0167535Y0270792D01*
X0167500Y0270702D01*
X0167461Y0270613D01*
X0167418Y0270526D01*
X0167373Y0270440D01*
X0167323Y0270357D01*
X0167270Y0270275D01*
X0167214Y0270196D01*
X0167155Y0270119D01*
X0167093Y0270045D01*
X0167027Y0269973D01*
X0166959Y0269904D01*
X0166888Y0269838D01*
X0166815Y0269775D01*
X0166738Y0269715D01*
X0166660Y0269658D01*
X0166579Y0269605D01*
X0166496Y0269554D01*
X0166411Y0269508D01*
X0166324Y0269464D01*
X0166236Y0269425D01*
X0166146Y0269389D01*
X0166054Y0269357D01*
X0165961Y0269328D01*
X0165868Y0269304D01*
X0165773Y0269283D01*
X0165677Y0269266D01*
X0165581Y0269253D01*
X0165485Y0269244D01*
X0165388Y0269239D01*
X0165291Y0269238D01*
X0165194Y0269241D01*
X0165097Y0269248D01*
X0165001Y0269259D01*
X0164905Y0269274D01*
X0164810Y0269293D01*
X0164715Y0269315D01*
X0164622Y0269342D01*
X0164530Y0269372D01*
X0164439Y0269406D01*
X0164350Y0269444D01*
X0164262Y0269486D01*
X0164176Y0269531D01*
X0164092Y0269579D01*
X0164010Y0269631D01*
X0163931Y0269686D01*
X0163853Y0269745D01*
X0163778Y0269806D01*
X0163706Y0269871D01*
X0163636Y0269938D01*
X0163569Y0270009D01*
X0163506Y0270082D01*
X0163445Y0270157D01*
X0163387Y0270235D01*
X0163333Y0270316D01*
X0163282Y0270398D01*
X0163234Y0270483D01*
X0163190Y0270569D01*
X0163149Y0270657D01*
X0163113Y0270747D01*
X0163079Y0270838D01*
X0163050Y0270930D01*
X0163024Y0271024D01*
X0163003Y0271118D01*
X0162985Y0271214D01*
X0162971Y0271310D01*
X0162961Y0271406D01*
X0162955Y0271503D01*
X0162953Y0271600D01*
X0162953Y0281443D02*
X0162955Y0281540D01*
X0162961Y0281637D01*
X0162971Y0281733D01*
X0162985Y0281829D01*
X0163003Y0281925D01*
X0163024Y0282019D01*
X0163050Y0282113D01*
X0163079Y0282205D01*
X0163113Y0282296D01*
X0163149Y0282386D01*
X0163190Y0282474D01*
X0163234Y0282560D01*
X0163282Y0282645D01*
X0163333Y0282727D01*
X0163387Y0282808D01*
X0163445Y0282886D01*
X0163506Y0282961D01*
X0163569Y0283034D01*
X0163636Y0283105D01*
X0163706Y0283172D01*
X0163778Y0283237D01*
X0163853Y0283298D01*
X0163931Y0283357D01*
X0164010Y0283412D01*
X0164092Y0283464D01*
X0164176Y0283512D01*
X0164262Y0283557D01*
X0164350Y0283599D01*
X0164439Y0283637D01*
X0164530Y0283671D01*
X0164622Y0283701D01*
X0164715Y0283728D01*
X0164810Y0283750D01*
X0164905Y0283769D01*
X0165001Y0283784D01*
X0165097Y0283795D01*
X0165194Y0283802D01*
X0165291Y0283805D01*
X0165388Y0283804D01*
X0165485Y0283799D01*
X0165581Y0283790D01*
X0165677Y0283777D01*
X0165773Y0283760D01*
X0165868Y0283739D01*
X0165961Y0283715D01*
X0166054Y0283686D01*
X0166146Y0283654D01*
X0166236Y0283618D01*
X0166324Y0283579D01*
X0166411Y0283535D01*
X0166496Y0283489D01*
X0166579Y0283438D01*
X0166660Y0283385D01*
X0166738Y0283328D01*
X0166815Y0283268D01*
X0166888Y0283205D01*
X0166959Y0283139D01*
X0167027Y0283070D01*
X0167093Y0282998D01*
X0167155Y0282924D01*
X0167214Y0282847D01*
X0167270Y0282768D01*
X0167323Y0282686D01*
X0167373Y0282603D01*
X0167418Y0282517D01*
X0167461Y0282430D01*
X0167500Y0282341D01*
X0167535Y0282251D01*
X0167566Y0282159D01*
X0167593Y0282066D01*
X0167617Y0281972D01*
X0167637Y0281877D01*
X0167653Y0281781D01*
X0167665Y0281685D01*
X0167673Y0281588D01*
X0167677Y0281491D01*
X0167677Y0281395D01*
X0167673Y0281298D01*
X0167665Y0281201D01*
X0167653Y0281105D01*
X0167637Y0281009D01*
X0167617Y0280914D01*
X0167593Y0280820D01*
X0167566Y0280727D01*
X0167535Y0280635D01*
X0167500Y0280545D01*
X0167461Y0280456D01*
X0167418Y0280369D01*
X0167373Y0280283D01*
X0167323Y0280200D01*
X0167270Y0280118D01*
X0167214Y0280039D01*
X0167155Y0279962D01*
X0167093Y0279888D01*
X0167027Y0279816D01*
X0166959Y0279747D01*
X0166888Y0279681D01*
X0166815Y0279618D01*
X0166738Y0279558D01*
X0166660Y0279501D01*
X0166579Y0279448D01*
X0166496Y0279397D01*
X0166411Y0279351D01*
X0166324Y0279307D01*
X0166236Y0279268D01*
X0166146Y0279232D01*
X0166054Y0279200D01*
X0165961Y0279171D01*
X0165868Y0279147D01*
X0165773Y0279126D01*
X0165677Y0279109D01*
X0165581Y0279096D01*
X0165485Y0279087D01*
X0165388Y0279082D01*
X0165291Y0279081D01*
X0165194Y0279084D01*
X0165097Y0279091D01*
X0165001Y0279102D01*
X0164905Y0279117D01*
X0164810Y0279136D01*
X0164715Y0279158D01*
X0164622Y0279185D01*
X0164530Y0279215D01*
X0164439Y0279249D01*
X0164350Y0279287D01*
X0164262Y0279329D01*
X0164176Y0279374D01*
X0164092Y0279422D01*
X0164010Y0279474D01*
X0163931Y0279529D01*
X0163853Y0279588D01*
X0163778Y0279649D01*
X0163706Y0279714D01*
X0163636Y0279781D01*
X0163569Y0279852D01*
X0163506Y0279925D01*
X0163445Y0280000D01*
X0163387Y0280078D01*
X0163333Y0280159D01*
X0163282Y0280241D01*
X0163234Y0280326D01*
X0163190Y0280412D01*
X0163149Y0280500D01*
X0163113Y0280590D01*
X0163079Y0280681D01*
X0163050Y0280773D01*
X0163024Y0280867D01*
X0163003Y0280961D01*
X0162985Y0281057D01*
X0162971Y0281153D01*
X0162961Y0281249D01*
X0162955Y0281346D01*
X0162953Y0281443D01*
X0182638Y0251915D02*
X0182640Y0252012D01*
X0182646Y0252109D01*
X0182656Y0252205D01*
X0182670Y0252301D01*
X0182688Y0252397D01*
X0182709Y0252491D01*
X0182735Y0252585D01*
X0182764Y0252677D01*
X0182798Y0252768D01*
X0182834Y0252858D01*
X0182875Y0252946D01*
X0182919Y0253032D01*
X0182967Y0253117D01*
X0183018Y0253199D01*
X0183072Y0253280D01*
X0183130Y0253358D01*
X0183191Y0253433D01*
X0183254Y0253506D01*
X0183321Y0253577D01*
X0183391Y0253644D01*
X0183463Y0253709D01*
X0183538Y0253770D01*
X0183616Y0253829D01*
X0183695Y0253884D01*
X0183777Y0253936D01*
X0183861Y0253984D01*
X0183947Y0254029D01*
X0184035Y0254071D01*
X0184124Y0254109D01*
X0184215Y0254143D01*
X0184307Y0254173D01*
X0184400Y0254200D01*
X0184495Y0254222D01*
X0184590Y0254241D01*
X0184686Y0254256D01*
X0184782Y0254267D01*
X0184879Y0254274D01*
X0184976Y0254277D01*
X0185073Y0254276D01*
X0185170Y0254271D01*
X0185266Y0254262D01*
X0185362Y0254249D01*
X0185458Y0254232D01*
X0185553Y0254211D01*
X0185646Y0254187D01*
X0185739Y0254158D01*
X0185831Y0254126D01*
X0185921Y0254090D01*
X0186009Y0254051D01*
X0186096Y0254007D01*
X0186181Y0253961D01*
X0186264Y0253910D01*
X0186345Y0253857D01*
X0186423Y0253800D01*
X0186500Y0253740D01*
X0186573Y0253677D01*
X0186644Y0253611D01*
X0186712Y0253542D01*
X0186778Y0253470D01*
X0186840Y0253396D01*
X0186899Y0253319D01*
X0186955Y0253240D01*
X0187008Y0253158D01*
X0187058Y0253075D01*
X0187103Y0252989D01*
X0187146Y0252902D01*
X0187185Y0252813D01*
X0187220Y0252723D01*
X0187251Y0252631D01*
X0187278Y0252538D01*
X0187302Y0252444D01*
X0187322Y0252349D01*
X0187338Y0252253D01*
X0187350Y0252157D01*
X0187358Y0252060D01*
X0187362Y0251963D01*
X0187362Y0251867D01*
X0187358Y0251770D01*
X0187350Y0251673D01*
X0187338Y0251577D01*
X0187322Y0251481D01*
X0187302Y0251386D01*
X0187278Y0251292D01*
X0187251Y0251199D01*
X0187220Y0251107D01*
X0187185Y0251017D01*
X0187146Y0250928D01*
X0187103Y0250841D01*
X0187058Y0250755D01*
X0187008Y0250672D01*
X0186955Y0250590D01*
X0186899Y0250511D01*
X0186840Y0250434D01*
X0186778Y0250360D01*
X0186712Y0250288D01*
X0186644Y0250219D01*
X0186573Y0250153D01*
X0186500Y0250090D01*
X0186423Y0250030D01*
X0186345Y0249973D01*
X0186264Y0249920D01*
X0186181Y0249869D01*
X0186096Y0249823D01*
X0186009Y0249779D01*
X0185921Y0249740D01*
X0185831Y0249704D01*
X0185739Y0249672D01*
X0185646Y0249643D01*
X0185553Y0249619D01*
X0185458Y0249598D01*
X0185362Y0249581D01*
X0185266Y0249568D01*
X0185170Y0249559D01*
X0185073Y0249554D01*
X0184976Y0249553D01*
X0184879Y0249556D01*
X0184782Y0249563D01*
X0184686Y0249574D01*
X0184590Y0249589D01*
X0184495Y0249608D01*
X0184400Y0249630D01*
X0184307Y0249657D01*
X0184215Y0249687D01*
X0184124Y0249721D01*
X0184035Y0249759D01*
X0183947Y0249801D01*
X0183861Y0249846D01*
X0183777Y0249894D01*
X0183695Y0249946D01*
X0183616Y0250001D01*
X0183538Y0250060D01*
X0183463Y0250121D01*
X0183391Y0250186D01*
X0183321Y0250253D01*
X0183254Y0250324D01*
X0183191Y0250397D01*
X0183130Y0250472D01*
X0183072Y0250550D01*
X0183018Y0250631D01*
X0182967Y0250713D01*
X0182919Y0250798D01*
X0182875Y0250884D01*
X0182834Y0250972D01*
X0182798Y0251062D01*
X0182764Y0251153D01*
X0182735Y0251245D01*
X0182709Y0251339D01*
X0182688Y0251433D01*
X0182670Y0251529D01*
X0182656Y0251625D01*
X0182646Y0251721D01*
X0182640Y0251818D01*
X0182638Y0251915D01*
X0202323Y0271600D02*
X0202325Y0271697D01*
X0202331Y0271794D01*
X0202341Y0271890D01*
X0202355Y0271986D01*
X0202373Y0272082D01*
X0202394Y0272176D01*
X0202420Y0272270D01*
X0202449Y0272362D01*
X0202483Y0272453D01*
X0202519Y0272543D01*
X0202560Y0272631D01*
X0202604Y0272717D01*
X0202652Y0272802D01*
X0202703Y0272884D01*
X0202757Y0272965D01*
X0202815Y0273043D01*
X0202876Y0273118D01*
X0202939Y0273191D01*
X0203006Y0273262D01*
X0203076Y0273329D01*
X0203148Y0273394D01*
X0203223Y0273455D01*
X0203301Y0273514D01*
X0203380Y0273569D01*
X0203462Y0273621D01*
X0203546Y0273669D01*
X0203632Y0273714D01*
X0203720Y0273756D01*
X0203809Y0273794D01*
X0203900Y0273828D01*
X0203992Y0273858D01*
X0204085Y0273885D01*
X0204180Y0273907D01*
X0204275Y0273926D01*
X0204371Y0273941D01*
X0204467Y0273952D01*
X0204564Y0273959D01*
X0204661Y0273962D01*
X0204758Y0273961D01*
X0204855Y0273956D01*
X0204951Y0273947D01*
X0205047Y0273934D01*
X0205143Y0273917D01*
X0205238Y0273896D01*
X0205331Y0273872D01*
X0205424Y0273843D01*
X0205516Y0273811D01*
X0205606Y0273775D01*
X0205694Y0273736D01*
X0205781Y0273692D01*
X0205866Y0273646D01*
X0205949Y0273595D01*
X0206030Y0273542D01*
X0206108Y0273485D01*
X0206185Y0273425D01*
X0206258Y0273362D01*
X0206329Y0273296D01*
X0206397Y0273227D01*
X0206463Y0273155D01*
X0206525Y0273081D01*
X0206584Y0273004D01*
X0206640Y0272925D01*
X0206693Y0272843D01*
X0206743Y0272760D01*
X0206788Y0272674D01*
X0206831Y0272587D01*
X0206870Y0272498D01*
X0206905Y0272408D01*
X0206936Y0272316D01*
X0206963Y0272223D01*
X0206987Y0272129D01*
X0207007Y0272034D01*
X0207023Y0271938D01*
X0207035Y0271842D01*
X0207043Y0271745D01*
X0207047Y0271648D01*
X0207047Y0271552D01*
X0207043Y0271455D01*
X0207035Y0271358D01*
X0207023Y0271262D01*
X0207007Y0271166D01*
X0206987Y0271071D01*
X0206963Y0270977D01*
X0206936Y0270884D01*
X0206905Y0270792D01*
X0206870Y0270702D01*
X0206831Y0270613D01*
X0206788Y0270526D01*
X0206743Y0270440D01*
X0206693Y0270357D01*
X0206640Y0270275D01*
X0206584Y0270196D01*
X0206525Y0270119D01*
X0206463Y0270045D01*
X0206397Y0269973D01*
X0206329Y0269904D01*
X0206258Y0269838D01*
X0206185Y0269775D01*
X0206108Y0269715D01*
X0206030Y0269658D01*
X0205949Y0269605D01*
X0205866Y0269554D01*
X0205781Y0269508D01*
X0205694Y0269464D01*
X0205606Y0269425D01*
X0205516Y0269389D01*
X0205424Y0269357D01*
X0205331Y0269328D01*
X0205238Y0269304D01*
X0205143Y0269283D01*
X0205047Y0269266D01*
X0204951Y0269253D01*
X0204855Y0269244D01*
X0204758Y0269239D01*
X0204661Y0269238D01*
X0204564Y0269241D01*
X0204467Y0269248D01*
X0204371Y0269259D01*
X0204275Y0269274D01*
X0204180Y0269293D01*
X0204085Y0269315D01*
X0203992Y0269342D01*
X0203900Y0269372D01*
X0203809Y0269406D01*
X0203720Y0269444D01*
X0203632Y0269486D01*
X0203546Y0269531D01*
X0203462Y0269579D01*
X0203380Y0269631D01*
X0203301Y0269686D01*
X0203223Y0269745D01*
X0203148Y0269806D01*
X0203076Y0269871D01*
X0203006Y0269938D01*
X0202939Y0270009D01*
X0202876Y0270082D01*
X0202815Y0270157D01*
X0202757Y0270235D01*
X0202703Y0270316D01*
X0202652Y0270398D01*
X0202604Y0270483D01*
X0202560Y0270569D01*
X0202519Y0270657D01*
X0202483Y0270747D01*
X0202449Y0270838D01*
X0202420Y0270930D01*
X0202394Y0271024D01*
X0202373Y0271118D01*
X0202355Y0271214D01*
X0202341Y0271310D01*
X0202331Y0271406D01*
X0202325Y0271503D01*
X0202323Y0271600D01*
X0202323Y0281443D02*
X0202325Y0281540D01*
X0202331Y0281637D01*
X0202341Y0281733D01*
X0202355Y0281829D01*
X0202373Y0281925D01*
X0202394Y0282019D01*
X0202420Y0282113D01*
X0202449Y0282205D01*
X0202483Y0282296D01*
X0202519Y0282386D01*
X0202560Y0282474D01*
X0202604Y0282560D01*
X0202652Y0282645D01*
X0202703Y0282727D01*
X0202757Y0282808D01*
X0202815Y0282886D01*
X0202876Y0282961D01*
X0202939Y0283034D01*
X0203006Y0283105D01*
X0203076Y0283172D01*
X0203148Y0283237D01*
X0203223Y0283298D01*
X0203301Y0283357D01*
X0203380Y0283412D01*
X0203462Y0283464D01*
X0203546Y0283512D01*
X0203632Y0283557D01*
X0203720Y0283599D01*
X0203809Y0283637D01*
X0203900Y0283671D01*
X0203992Y0283701D01*
X0204085Y0283728D01*
X0204180Y0283750D01*
X0204275Y0283769D01*
X0204371Y0283784D01*
X0204467Y0283795D01*
X0204564Y0283802D01*
X0204661Y0283805D01*
X0204758Y0283804D01*
X0204855Y0283799D01*
X0204951Y0283790D01*
X0205047Y0283777D01*
X0205143Y0283760D01*
X0205238Y0283739D01*
X0205331Y0283715D01*
X0205424Y0283686D01*
X0205516Y0283654D01*
X0205606Y0283618D01*
X0205694Y0283579D01*
X0205781Y0283535D01*
X0205866Y0283489D01*
X0205949Y0283438D01*
X0206030Y0283385D01*
X0206108Y0283328D01*
X0206185Y0283268D01*
X0206258Y0283205D01*
X0206329Y0283139D01*
X0206397Y0283070D01*
X0206463Y0282998D01*
X0206525Y0282924D01*
X0206584Y0282847D01*
X0206640Y0282768D01*
X0206693Y0282686D01*
X0206743Y0282603D01*
X0206788Y0282517D01*
X0206831Y0282430D01*
X0206870Y0282341D01*
X0206905Y0282251D01*
X0206936Y0282159D01*
X0206963Y0282066D01*
X0206987Y0281972D01*
X0207007Y0281877D01*
X0207023Y0281781D01*
X0207035Y0281685D01*
X0207043Y0281588D01*
X0207047Y0281491D01*
X0207047Y0281395D01*
X0207043Y0281298D01*
X0207035Y0281201D01*
X0207023Y0281105D01*
X0207007Y0281009D01*
X0206987Y0280914D01*
X0206963Y0280820D01*
X0206936Y0280727D01*
X0206905Y0280635D01*
X0206870Y0280545D01*
X0206831Y0280456D01*
X0206788Y0280369D01*
X0206743Y0280283D01*
X0206693Y0280200D01*
X0206640Y0280118D01*
X0206584Y0280039D01*
X0206525Y0279962D01*
X0206463Y0279888D01*
X0206397Y0279816D01*
X0206329Y0279747D01*
X0206258Y0279681D01*
X0206185Y0279618D01*
X0206108Y0279558D01*
X0206030Y0279501D01*
X0205949Y0279448D01*
X0205866Y0279397D01*
X0205781Y0279351D01*
X0205694Y0279307D01*
X0205606Y0279268D01*
X0205516Y0279232D01*
X0205424Y0279200D01*
X0205331Y0279171D01*
X0205238Y0279147D01*
X0205143Y0279126D01*
X0205047Y0279109D01*
X0204951Y0279096D01*
X0204855Y0279087D01*
X0204758Y0279082D01*
X0204661Y0279081D01*
X0204564Y0279084D01*
X0204467Y0279091D01*
X0204371Y0279102D01*
X0204275Y0279117D01*
X0204180Y0279136D01*
X0204085Y0279158D01*
X0203992Y0279185D01*
X0203900Y0279215D01*
X0203809Y0279249D01*
X0203720Y0279287D01*
X0203632Y0279329D01*
X0203546Y0279374D01*
X0203462Y0279422D01*
X0203380Y0279474D01*
X0203301Y0279529D01*
X0203223Y0279588D01*
X0203148Y0279649D01*
X0203076Y0279714D01*
X0203006Y0279781D01*
X0202939Y0279852D01*
X0202876Y0279925D01*
X0202815Y0280000D01*
X0202757Y0280078D01*
X0202703Y0280159D01*
X0202652Y0280241D01*
X0202604Y0280326D01*
X0202560Y0280412D01*
X0202519Y0280500D01*
X0202483Y0280590D01*
X0202449Y0280681D01*
X0202420Y0280773D01*
X0202394Y0280867D01*
X0202373Y0280961D01*
X0202355Y0281057D01*
X0202341Y0281153D01*
X0202331Y0281249D01*
X0202325Y0281346D01*
X0202323Y0281443D01*
X0206100Y0212800D02*
X0206031Y0212798D01*
X0205963Y0212792D01*
X0205895Y0212782D01*
X0205828Y0212769D01*
X0205762Y0212751D01*
X0205697Y0212730D01*
X0205633Y0212705D01*
X0205571Y0212677D01*
X0205510Y0212645D01*
X0205451Y0212610D01*
X0205395Y0212571D01*
X0205340Y0212529D01*
X0205289Y0212484D01*
X0205239Y0212436D01*
X0205193Y0212386D01*
X0205150Y0212333D01*
X0205109Y0212277D01*
X0205072Y0212220D01*
X0205039Y0212160D01*
X0205008Y0212098D01*
X0204982Y0212035D01*
X0204959Y0211971D01*
X0204939Y0211905D01*
X0204924Y0211838D01*
X0204912Y0211771D01*
X0204904Y0211703D01*
X0204900Y0211634D01*
X0204900Y0211566D01*
X0204904Y0211497D01*
X0204912Y0211429D01*
X0204924Y0211362D01*
X0204939Y0211295D01*
X0204959Y0211229D01*
X0204982Y0211165D01*
X0205008Y0211102D01*
X0205039Y0211040D01*
X0205072Y0210980D01*
X0205109Y0210923D01*
X0205150Y0210867D01*
X0205193Y0210814D01*
X0205239Y0210764D01*
X0205289Y0210716D01*
X0205340Y0210671D01*
X0205395Y0210629D01*
X0205451Y0210590D01*
X0205510Y0210555D01*
X0205571Y0210523D01*
X0205633Y0210495D01*
X0205697Y0210470D01*
X0205762Y0210449D01*
X0205828Y0210431D01*
X0205895Y0210418D01*
X0205963Y0210408D01*
X0206031Y0210402D01*
X0206100Y0210400D01*
D11*
X0005000Y0306600D02*
X0005000Y0001600D01*
X0020000Y0001600D01*
X0025000Y0006600D01*
X0025000Y0011600D01*
X0035000Y0021600D01*
X0200000Y0021600D01*
X0215000Y0036600D01*
X0215000Y0291600D01*
X0200000Y0306600D01*
X0005000Y0306600D01*
D12*
X0026248Y0301255D02*
X0027599Y0299903D01*
X0027599Y0301705D01*
X0028950Y0301255D02*
X0026248Y0301255D01*
X0026698Y0298759D02*
X0027148Y0298759D01*
X0027599Y0298308D01*
X0028049Y0298759D01*
X0028500Y0298759D01*
X0028950Y0298308D01*
X0028950Y0297407D01*
X0028500Y0296957D01*
X0028500Y0295934D02*
X0028950Y0295934D01*
X0028950Y0295484D01*
X0028500Y0295484D01*
X0028500Y0295934D01*
X0027599Y0295934D02*
X0027599Y0295484D01*
X0027148Y0295484D01*
X0027148Y0295934D01*
X0027599Y0295934D01*
X0026698Y0296957D02*
X0026248Y0297407D01*
X0026248Y0298308D01*
X0026698Y0298759D01*
X0027599Y0298308D02*
X0027599Y0297858D01*
X0028049Y0294339D02*
X0027599Y0293888D01*
X0027599Y0292537D01*
X0028500Y0292537D01*
X0028950Y0292988D01*
X0028950Y0293888D01*
X0028500Y0294339D01*
X0028049Y0294339D01*
X0026698Y0293438D02*
X0027599Y0292537D01*
X0026698Y0293438D02*
X0026248Y0294339D01*
X0026248Y0290491D02*
X0028950Y0290491D01*
X0028950Y0289591D02*
X0028950Y0291392D01*
X0027148Y0289591D02*
X0026248Y0290491D01*
X0028950Y0285499D02*
X0028950Y0283698D01*
X0028950Y0284598D02*
X0026248Y0284598D01*
X0027148Y0283698D01*
X0027148Y0282553D02*
X0026698Y0282553D01*
X0026248Y0282102D01*
X0026248Y0281202D01*
X0026698Y0280751D01*
X0027599Y0279606D02*
X0027599Y0277805D01*
X0026698Y0276660D02*
X0028500Y0274858D01*
X0028950Y0274858D01*
X0028500Y0273713D02*
X0026698Y0273713D01*
X0028500Y0271912D01*
X0028950Y0272362D01*
X0028950Y0273263D01*
X0028500Y0273713D01*
X0028500Y0271912D02*
X0026698Y0271912D01*
X0026248Y0272362D01*
X0026248Y0273263D01*
X0026698Y0273713D01*
X0026248Y0274858D02*
X0026248Y0276660D01*
X0026698Y0276660D01*
X0028950Y0280751D02*
X0027148Y0282553D01*
X0028950Y0282553D02*
X0028950Y0280751D01*
X0027599Y0270767D02*
X0027599Y0268965D01*
X0027599Y0267820D02*
X0028500Y0267820D01*
X0028950Y0267370D01*
X0028950Y0266469D01*
X0028500Y0266019D01*
X0027599Y0266019D02*
X0027148Y0266919D01*
X0027148Y0267370D01*
X0027599Y0267820D01*
X0026248Y0267820D02*
X0026248Y0266019D01*
X0027599Y0266019D01*
X0028950Y0264874D02*
X0028950Y0263072D01*
X0028950Y0263973D02*
X0026248Y0263973D01*
X0027148Y0263072D01*
X0026698Y0261927D02*
X0028500Y0260125D01*
X0028950Y0260576D01*
X0028950Y0261477D01*
X0028500Y0261927D01*
X0026698Y0261927D01*
X0026248Y0261477D01*
X0026248Y0260576D01*
X0026698Y0260125D01*
X0028500Y0260125D01*
X0028950Y0258981D02*
X0028950Y0257179D01*
X0027148Y0258981D01*
X0026698Y0258981D01*
X0026248Y0258530D01*
X0026248Y0257629D01*
X0026698Y0257179D01*
X0020000Y0191600D02*
X0010000Y0191600D01*
X0010000Y0111600D01*
X0020000Y0111600D01*
X0020000Y0191600D01*
X0020000Y0106600D02*
X0010000Y0106600D01*
X0010000Y0006600D01*
X0020000Y0006600D01*
X0020000Y0106600D01*
X0091001Y0204350D02*
X0090250Y0205101D01*
X0091001Y0204350D02*
X0091751Y0204350D01*
X0092502Y0205101D01*
X0092502Y0208854D01*
X0091751Y0208854D02*
X0093253Y0208854D01*
X0094854Y0208854D02*
X0097106Y0208854D01*
X0097856Y0208103D01*
X0097856Y0206602D01*
X0097106Y0205851D01*
X0094854Y0205851D01*
X0094854Y0204350D02*
X0094854Y0208854D01*
X0099458Y0207353D02*
X0100959Y0208854D01*
X0100959Y0204350D01*
X0099458Y0204350D02*
X0102460Y0204350D01*
X0162899Y0112955D02*
X0162448Y0112505D01*
X0162448Y0111154D01*
X0164250Y0111154D01*
X0164250Y0110090D02*
X0164250Y0109190D01*
X0164250Y0109640D02*
X0161548Y0109640D01*
X0161548Y0109190D02*
X0161548Y0110090D01*
X0162899Y0112955D02*
X0164250Y0112955D01*
X0163349Y0105098D02*
X0161548Y0105098D01*
X0163349Y0105098D02*
X0164250Y0104197D01*
X0163349Y0103297D01*
X0161548Y0103297D01*
X0161548Y0102152D02*
X0161548Y0100350D01*
X0162899Y0100350D01*
X0162448Y0101251D01*
X0162448Y0101701D01*
X0162899Y0102152D01*
X0163800Y0102152D01*
X0164250Y0101701D01*
X0164250Y0100800D01*
X0163800Y0100350D01*
X0162948Y0089930D02*
X0162948Y0089029D01*
X0162498Y0089479D02*
X0164300Y0089479D01*
X0164750Y0089930D01*
X0164750Y0087884D02*
X0162948Y0087884D01*
X0162948Y0086083D02*
X0164300Y0086083D01*
X0164750Y0086533D01*
X0164750Y0087884D01*
X0164300Y0084938D02*
X0162498Y0084938D01*
X0162048Y0084487D01*
X0162048Y0083586D01*
X0162498Y0083136D01*
X0164300Y0083136D01*
X0164750Y0083586D01*
X0164750Y0084487D01*
X0164300Y0084938D01*
X0164300Y0079045D02*
X0162498Y0079045D01*
X0162048Y0078594D01*
X0162048Y0077243D01*
X0164750Y0077243D01*
X0164750Y0078594D01*
X0164300Y0079045D01*
X0164750Y0076098D02*
X0164750Y0074297D01*
X0162048Y0074297D01*
X0162048Y0076098D01*
X0163399Y0075197D02*
X0163399Y0074297D01*
X0164750Y0073152D02*
X0164750Y0071350D01*
X0162048Y0071350D01*
X0181750Y0071701D02*
X0183552Y0071701D01*
X0182651Y0072602D02*
X0182651Y0070800D01*
X0185151Y0045102D02*
X0185151Y0043300D01*
X0184250Y0044201D02*
X0186052Y0044201D01*
X0182302Y0028052D02*
X0182302Y0025350D01*
X0180500Y0028052D01*
X0180500Y0025350D01*
X0179437Y0025350D02*
X0178536Y0025350D01*
X0178986Y0025350D02*
X0178986Y0028052D01*
X0178536Y0028052D02*
X0179437Y0028052D01*
X0174445Y0028052D02*
X0174445Y0026251D01*
X0173544Y0025350D01*
X0172643Y0026251D01*
X0172643Y0028052D01*
X0171498Y0027602D02*
X0171048Y0028052D01*
X0170147Y0028052D01*
X0169697Y0027602D01*
X0171498Y0027602D02*
X0171498Y0027152D01*
X0169697Y0025350D01*
X0171498Y0025350D01*
X0168552Y0025350D02*
X0166750Y0025350D01*
X0167651Y0025350D02*
X0167651Y0028052D01*
X0166750Y0027152D01*
X0200000Y0041600D02*
X0200000Y0121600D01*
X0210000Y0121600D01*
X0210000Y0041600D01*
X0200000Y0041600D01*
X0183151Y0097800D02*
X0183151Y0099602D01*
X0182250Y0098701D02*
X0184052Y0098701D01*
X0200000Y0131600D02*
X0200000Y0191600D01*
X0210000Y0191600D01*
X0210000Y0131600D01*
X0200000Y0131600D01*
D13*
X0185000Y0116600D02*
X0160000Y0116600D01*
X0160000Y0096600D01*
X0185000Y0096600D01*
X0185000Y0116600D01*
X0185000Y0091600D02*
X0160000Y0091600D01*
X0160000Y0069100D01*
X0185000Y0069100D01*
X0185000Y0091600D01*
X0187500Y0046600D02*
X0162500Y0046600D01*
X0162500Y0024100D01*
X0187500Y0024100D01*
X0187500Y0046600D01*
D14*
X0130533Y0149200D02*
X0129065Y0149200D01*
X0128698Y0149567D01*
X0128698Y0150301D01*
X0129065Y0150668D01*
X0129799Y0150668D02*
X0129799Y0149934D01*
X0129799Y0150668D02*
X0130533Y0150668D01*
X0130900Y0150301D01*
X0130900Y0149567D01*
X0130533Y0149200D01*
X0130900Y0151410D02*
X0128698Y0151410D01*
X0130900Y0152878D01*
X0128698Y0152878D01*
X0128698Y0153620D02*
X0128698Y0154721D01*
X0129065Y0155088D01*
X0130533Y0155088D01*
X0130900Y0154721D01*
X0130900Y0153620D01*
X0128698Y0153620D01*
X0120900Y0152511D02*
X0120900Y0151777D01*
X0120533Y0151410D01*
X0120533Y0150668D02*
X0120900Y0150301D01*
X0120900Y0149567D01*
X0120533Y0149200D01*
X0119799Y0149567D02*
X0119799Y0150301D01*
X0120166Y0150668D01*
X0120533Y0150668D01*
X0119799Y0149567D02*
X0119432Y0149200D01*
X0119065Y0149200D01*
X0118698Y0149567D01*
X0118698Y0150301D01*
X0119065Y0150668D01*
X0119065Y0151410D02*
X0119432Y0151410D01*
X0119799Y0151777D01*
X0119799Y0152511D01*
X0120166Y0152878D01*
X0120533Y0152878D01*
X0120900Y0152511D01*
X0119065Y0152878D02*
X0118698Y0152511D01*
X0118698Y0151777D01*
X0119065Y0151410D01*
X0111400Y0151750D02*
X0111033Y0151383D01*
X0111400Y0151750D02*
X0111400Y0152484D01*
X0111033Y0152851D01*
X0110666Y0152851D01*
X0110299Y0152484D01*
X0110299Y0151750D01*
X0109932Y0151383D01*
X0109565Y0151383D01*
X0109198Y0151750D01*
X0109198Y0152484D01*
X0109565Y0152851D01*
X0109565Y0153593D02*
X0111033Y0153593D01*
X0111400Y0153960D01*
X0111400Y0154694D01*
X0111033Y0155061D01*
X0109565Y0155061D01*
X0109198Y0154694D01*
X0109198Y0153960D01*
X0109565Y0153593D01*
X0109198Y0150644D02*
X0109198Y0149910D01*
X0109198Y0150277D02*
X0111400Y0150277D01*
X0111400Y0149910D02*
X0111400Y0150644D01*
X0111400Y0149168D02*
X0109198Y0149168D01*
X0109932Y0148434D01*
X0109198Y0147700D01*
X0111400Y0147700D01*
X0100900Y0148200D02*
X0098698Y0148200D01*
X0099432Y0148934D01*
X0098698Y0149668D01*
X0100900Y0149668D01*
X0100533Y0150410D02*
X0100900Y0150777D01*
X0100900Y0151511D01*
X0100533Y0151878D01*
X0099065Y0151878D01*
X0098698Y0151511D01*
X0098698Y0150777D01*
X0099065Y0150410D01*
X0100533Y0150410D01*
X0100533Y0152620D02*
X0100900Y0152987D01*
X0100900Y0153721D01*
X0100533Y0154088D01*
X0100166Y0154088D01*
X0099799Y0153721D01*
X0099799Y0152987D01*
X0099432Y0152620D01*
X0099065Y0152620D01*
X0098698Y0152987D01*
X0098698Y0153721D01*
X0099065Y0154088D01*
X0098698Y0154830D02*
X0098698Y0155564D01*
X0098698Y0155197D02*
X0100900Y0155197D01*
X0100900Y0154830D02*
X0100900Y0155564D01*
X0090900Y0155088D02*
X0089799Y0153987D01*
X0090166Y0153620D02*
X0088698Y0155088D01*
X0088698Y0153620D02*
X0090900Y0153620D01*
X0090533Y0152878D02*
X0090900Y0152511D01*
X0090900Y0151777D01*
X0090533Y0151410D01*
X0089065Y0151410D01*
X0088698Y0151777D01*
X0088698Y0152511D01*
X0089065Y0152878D01*
X0089065Y0150668D02*
X0088698Y0150301D01*
X0088698Y0149567D01*
X0089065Y0149200D01*
X0089432Y0149200D01*
X0089799Y0149567D01*
X0089799Y0150301D01*
X0090166Y0150668D01*
X0090533Y0150668D01*
X0090900Y0150301D01*
X0090900Y0149567D01*
X0090533Y0149200D01*
X0081400Y0151567D02*
X0081033Y0151200D01*
X0081400Y0151567D02*
X0081400Y0152301D01*
X0081033Y0152668D01*
X0080299Y0152668D01*
X0079932Y0152301D01*
X0079932Y0151934D01*
X0080299Y0151200D01*
X0079198Y0151200D01*
X0079198Y0152668D01*
X0079198Y0153410D02*
X0080666Y0153410D01*
X0081400Y0154144D01*
X0080666Y0154878D01*
X0079198Y0154878D01*
X0090497Y0176300D02*
X0090497Y0178502D01*
X0091231Y0177768D01*
X0091965Y0178502D01*
X0091965Y0176300D01*
X0092707Y0176300D02*
X0093441Y0176300D01*
X0093074Y0176300D02*
X0093074Y0178502D01*
X0092707Y0178502D02*
X0093441Y0178502D01*
X0094180Y0178135D02*
X0094180Y0177768D01*
X0094547Y0177401D01*
X0095281Y0177401D01*
X0095648Y0177034D01*
X0095648Y0176667D01*
X0095281Y0176300D01*
X0094547Y0176300D01*
X0094180Y0176667D01*
X0094180Y0178135D02*
X0094547Y0178502D01*
X0095281Y0178502D01*
X0095648Y0178135D01*
X0096390Y0178135D02*
X0096390Y0176667D01*
X0096757Y0176300D01*
X0097491Y0176300D01*
X0097858Y0176667D01*
X0097858Y0178135D01*
X0097491Y0178502D01*
X0096757Y0178502D01*
X0096390Y0178135D01*
X0101970Y0178167D02*
X0102337Y0177800D01*
X0103071Y0177800D01*
X0103438Y0178167D01*
X0103438Y0178534D01*
X0103071Y0178901D01*
X0102337Y0178901D01*
X0101970Y0179268D01*
X0101970Y0179635D01*
X0102337Y0180002D01*
X0103071Y0180002D01*
X0103438Y0179635D01*
X0104180Y0179635D02*
X0104180Y0178167D01*
X0104547Y0177800D01*
X0105281Y0177800D01*
X0105648Y0178167D01*
X0106390Y0178534D02*
X0107858Y0180002D01*
X0106390Y0180002D02*
X0106390Y0177800D01*
X0106757Y0178901D02*
X0107858Y0177800D01*
X0105648Y0179635D02*
X0105281Y0180002D01*
X0104547Y0180002D01*
X0104180Y0179635D01*
X0103997Y0203300D02*
X0103997Y0205502D01*
X0104731Y0204768D01*
X0105465Y0205502D01*
X0105465Y0203300D01*
X0106207Y0203667D02*
X0106574Y0203300D01*
X0107308Y0203300D01*
X0107675Y0203667D01*
X0107675Y0205135D01*
X0107308Y0205502D01*
X0106574Y0205502D01*
X0106207Y0205135D01*
X0106207Y0203667D01*
X0108417Y0203667D02*
X0108784Y0203300D01*
X0109518Y0203300D01*
X0109885Y0203667D01*
X0109885Y0204034D01*
X0109518Y0204401D01*
X0108784Y0204401D01*
X0108417Y0204768D01*
X0108417Y0205135D01*
X0108784Y0205502D01*
X0109518Y0205502D01*
X0109885Y0205135D01*
X0110627Y0205502D02*
X0111361Y0205502D01*
X0110994Y0205502D02*
X0110994Y0203300D01*
X0110627Y0203300D02*
X0111361Y0203300D01*
X0121470Y0194635D02*
X0121470Y0193167D01*
X0121837Y0192800D01*
X0122571Y0192800D01*
X0122938Y0193167D01*
X0122938Y0193901D01*
X0122204Y0193901D01*
X0121470Y0194635D02*
X0121837Y0195002D01*
X0122571Y0195002D01*
X0122938Y0194635D01*
X0123680Y0195002D02*
X0125148Y0192800D01*
X0125148Y0195002D01*
X0125890Y0195002D02*
X0125890Y0192800D01*
X0126991Y0192800D01*
X0127358Y0193167D01*
X0127358Y0194635D01*
X0126991Y0195002D01*
X0125890Y0195002D01*
X0123680Y0195002D02*
X0123680Y0192800D01*
X0153598Y0172091D02*
X0153598Y0170990D01*
X0155800Y0170990D01*
X0155800Y0172091D01*
X0155433Y0172458D01*
X0153965Y0172458D01*
X0153598Y0172091D01*
X0153598Y0170248D02*
X0155800Y0170248D01*
X0153598Y0168780D01*
X0155800Y0168780D01*
X0155433Y0168038D02*
X0154699Y0168038D01*
X0154699Y0167304D01*
X0153965Y0166570D02*
X0155433Y0166570D01*
X0155800Y0166937D01*
X0155800Y0167671D01*
X0155433Y0168038D01*
X0153965Y0168038D02*
X0153598Y0167671D01*
X0153598Y0166937D01*
X0153965Y0166570D01*
X0153965Y0157458D02*
X0153598Y0157091D01*
X0153598Y0155990D01*
X0155800Y0155990D01*
X0155800Y0157091D01*
X0155433Y0157458D01*
X0153965Y0157458D01*
X0153598Y0155248D02*
X0155800Y0155248D01*
X0153598Y0153780D01*
X0155800Y0153780D01*
X0155433Y0153038D02*
X0154699Y0153038D01*
X0154699Y0152304D01*
X0153965Y0151570D02*
X0155433Y0151570D01*
X0155800Y0151937D01*
X0155800Y0152671D01*
X0155433Y0153038D01*
X0153965Y0153038D02*
X0153598Y0152671D01*
X0153598Y0151937D01*
X0153965Y0151570D01*
X0172598Y0152280D02*
X0172598Y0153381D01*
X0172965Y0153748D01*
X0174433Y0153748D01*
X0174800Y0153381D01*
X0174800Y0152280D01*
X0172598Y0152280D01*
X0173332Y0154490D02*
X0172598Y0155224D01*
X0173332Y0155958D01*
X0174800Y0155958D01*
X0173699Y0155958D02*
X0173699Y0154490D01*
X0173332Y0154490D02*
X0174800Y0154490D01*
X0183098Y0154490D02*
X0184566Y0154490D01*
X0185300Y0155224D01*
X0184566Y0155958D01*
X0183098Y0155958D01*
X0183098Y0153748D02*
X0183098Y0152280D01*
X0184199Y0152280D01*
X0183832Y0153014D01*
X0183832Y0153381D01*
X0184199Y0153748D01*
X0184933Y0153748D01*
X0185300Y0153381D01*
X0185300Y0152647D01*
X0184933Y0152280D01*
X0184933Y0167280D02*
X0185300Y0167647D01*
X0185300Y0168381D01*
X0184933Y0168748D01*
X0184199Y0168748D01*
X0183832Y0168381D01*
X0183832Y0168014D01*
X0184199Y0167280D01*
X0183098Y0167280D01*
X0183098Y0168748D01*
X0183098Y0169490D02*
X0184566Y0169490D01*
X0185300Y0170224D01*
X0184566Y0170958D01*
X0183098Y0170958D01*
X0174800Y0170958D02*
X0173332Y0170958D01*
X0172598Y0170224D01*
X0173332Y0169490D01*
X0174800Y0169490D01*
X0174433Y0168748D02*
X0172965Y0168748D01*
X0172598Y0168381D01*
X0172598Y0167280D01*
X0174800Y0167280D01*
X0174800Y0168381D01*
X0174433Y0168748D01*
X0173699Y0169490D02*
X0173699Y0170958D01*
X0171778Y0183700D02*
X0171778Y0185168D01*
X0171044Y0185902D01*
X0170310Y0185168D01*
X0170310Y0183700D01*
X0169568Y0184067D02*
X0169568Y0185535D01*
X0169201Y0185902D01*
X0168100Y0185902D01*
X0168100Y0183700D01*
X0169201Y0183700D01*
X0169568Y0184067D01*
X0170310Y0184801D02*
X0171778Y0184801D01*
X0168621Y0203700D02*
X0168988Y0204067D01*
X0168988Y0205535D01*
X0168621Y0205902D01*
X0167520Y0205902D01*
X0167520Y0203700D01*
X0168621Y0203700D01*
X0166778Y0203700D02*
X0166778Y0205902D01*
X0165310Y0205902D02*
X0166778Y0203700D01*
X0165310Y0203700D02*
X0165310Y0205902D01*
X0164568Y0205535D02*
X0164201Y0205902D01*
X0163467Y0205902D01*
X0163100Y0205535D01*
X0163100Y0204067D01*
X0163467Y0203700D01*
X0164201Y0203700D01*
X0164568Y0204067D01*
X0164568Y0204801D01*
X0163834Y0204801D01*
X0178600Y0204801D02*
X0179334Y0205168D01*
X0179701Y0205168D01*
X0180068Y0204801D01*
X0180068Y0204067D01*
X0179701Y0203700D01*
X0178967Y0203700D01*
X0178600Y0204067D01*
X0178600Y0204801D02*
X0178600Y0205902D01*
X0180068Y0205902D01*
X0180810Y0205902D02*
X0180810Y0204434D01*
X0181544Y0203700D01*
X0182278Y0204434D01*
X0182278Y0205902D01*
X0087358Y0194502D02*
X0087358Y0193034D01*
X0086624Y0192300D01*
X0085890Y0193034D01*
X0085890Y0194502D01*
X0085148Y0194502D02*
X0083680Y0194502D01*
X0083680Y0193401D01*
X0084414Y0193768D01*
X0084781Y0193768D01*
X0085148Y0193401D01*
X0085148Y0192667D01*
X0084781Y0192300D01*
X0084047Y0192300D01*
X0083680Y0192667D01*
X0048300Y0166591D02*
X0048300Y0165490D01*
X0046098Y0165490D01*
X0046098Y0166591D01*
X0046465Y0166958D01*
X0047933Y0166958D01*
X0048300Y0166591D01*
X0048300Y0164748D02*
X0046098Y0164748D01*
X0046098Y0163280D02*
X0048300Y0164748D01*
X0048300Y0163280D02*
X0046098Y0163280D01*
X0046465Y0162538D02*
X0046098Y0162171D01*
X0046098Y0161437D01*
X0046465Y0161070D01*
X0047933Y0161070D01*
X0048300Y0161437D01*
X0048300Y0162171D01*
X0047933Y0162538D01*
X0047199Y0162538D01*
X0047199Y0161804D01*
X0048400Y0157088D02*
X0048400Y0155620D01*
X0046198Y0155620D01*
X0046565Y0154878D02*
X0046198Y0154511D01*
X0046198Y0153777D01*
X0046565Y0153410D01*
X0048033Y0153410D01*
X0048400Y0153777D01*
X0048400Y0154511D01*
X0048033Y0154878D01*
X0048033Y0152668D02*
X0048400Y0152301D01*
X0048400Y0151567D01*
X0048033Y0151200D01*
X0047299Y0151567D02*
X0047299Y0152301D01*
X0047666Y0152668D01*
X0048033Y0152668D01*
X0047299Y0151567D02*
X0046932Y0151200D01*
X0046565Y0151200D01*
X0046198Y0151567D01*
X0046198Y0152301D01*
X0046565Y0152668D01*
X0047432Y0147088D02*
X0048900Y0147088D01*
X0047799Y0147088D02*
X0047799Y0145620D01*
X0047432Y0145620D02*
X0048900Y0145620D01*
X0048533Y0144878D02*
X0047065Y0144878D01*
X0046698Y0144511D01*
X0046698Y0143410D01*
X0048900Y0143410D01*
X0048900Y0144511D01*
X0048533Y0144878D01*
X0047432Y0145620D02*
X0046698Y0146354D01*
X0047432Y0147088D01*
X0047065Y0142668D02*
X0046698Y0142301D01*
X0046698Y0141567D01*
X0047065Y0141200D01*
X0047432Y0141200D01*
X0047799Y0141567D01*
X0047799Y0142301D01*
X0048166Y0142668D01*
X0048533Y0142668D01*
X0048900Y0142301D01*
X0048900Y0141567D01*
X0048533Y0141200D01*
X0048066Y0135958D02*
X0046598Y0135958D01*
X0046598Y0134490D02*
X0048066Y0134490D01*
X0048800Y0135224D01*
X0048066Y0135958D01*
X0047699Y0133748D02*
X0047332Y0133381D01*
X0047332Y0133014D01*
X0047699Y0132280D01*
X0046598Y0132280D01*
X0046598Y0133748D01*
X0047699Y0133748D02*
X0048433Y0133748D01*
X0048800Y0133381D01*
X0048800Y0132647D01*
X0048433Y0132280D01*
X0045933Y0123958D02*
X0044465Y0123958D01*
X0044098Y0123591D01*
X0044098Y0122490D01*
X0046300Y0122490D01*
X0046300Y0123591D01*
X0045933Y0123958D01*
X0046300Y0121748D02*
X0044098Y0121748D01*
X0044098Y0120280D02*
X0046300Y0121748D01*
X0046300Y0120280D02*
X0044098Y0120280D01*
X0044465Y0119538D02*
X0044098Y0119171D01*
X0044098Y0118437D01*
X0044465Y0118070D01*
X0045933Y0118070D01*
X0046300Y0118437D01*
X0046300Y0119171D01*
X0045933Y0119538D01*
X0045199Y0119538D01*
X0045199Y0118804D01*
X0054098Y0118881D02*
X0054098Y0117780D01*
X0056300Y0117780D01*
X0056300Y0118881D01*
X0055933Y0119248D01*
X0054465Y0119248D01*
X0054098Y0118881D01*
X0054832Y0119990D02*
X0054098Y0120724D01*
X0054832Y0121458D01*
X0056300Y0121458D01*
X0055199Y0121458D02*
X0055199Y0119990D01*
X0054832Y0119990D02*
X0056300Y0119990D01*
X0064098Y0119990D02*
X0065566Y0119990D01*
X0066300Y0120724D01*
X0065566Y0121458D01*
X0064098Y0121458D01*
X0064098Y0119248D02*
X0064098Y0117780D01*
X0065199Y0117780D01*
X0064832Y0118514D01*
X0064832Y0118881D01*
X0065199Y0119248D01*
X0065933Y0119248D01*
X0066300Y0118881D01*
X0066300Y0118147D01*
X0065933Y0117780D01*
X0070600Y0084588D02*
X0072068Y0084588D01*
X0072802Y0083854D01*
X0072068Y0083120D01*
X0070600Y0083120D01*
X0070967Y0082378D02*
X0072435Y0082378D01*
X0072802Y0082011D01*
X0072802Y0080910D01*
X0070600Y0080910D01*
X0070600Y0082011D01*
X0070967Y0082378D01*
X0071701Y0083120D02*
X0071701Y0084588D01*
X0071334Y0080168D02*
X0070967Y0080168D01*
X0070600Y0079801D01*
X0070600Y0079067D01*
X0070967Y0078700D01*
X0071701Y0079067D02*
X0071701Y0079801D01*
X0071334Y0080168D01*
X0072435Y0080168D02*
X0072802Y0079801D01*
X0072802Y0079067D01*
X0072435Y0078700D01*
X0072068Y0078700D01*
X0071701Y0079067D01*
X0089598Y0064458D02*
X0091066Y0064458D01*
X0091800Y0063724D01*
X0091066Y0062990D01*
X0089598Y0062990D01*
X0089598Y0062248D02*
X0089598Y0060780D01*
X0090699Y0060780D01*
X0090332Y0061514D01*
X0090332Y0061881D01*
X0090699Y0062248D01*
X0091433Y0062248D01*
X0091800Y0061881D01*
X0091800Y0061147D01*
X0091433Y0060780D01*
X0080900Y0051088D02*
X0079432Y0051088D01*
X0078698Y0050354D01*
X0079432Y0049620D01*
X0080900Y0049620D01*
X0080533Y0048878D02*
X0079065Y0048878D01*
X0078698Y0048511D01*
X0078698Y0047410D01*
X0080900Y0047410D01*
X0080900Y0048511D01*
X0080533Y0048878D01*
X0079799Y0049620D02*
X0079799Y0051088D01*
X0080166Y0046668D02*
X0079799Y0046301D01*
X0079799Y0045567D01*
X0079432Y0045200D01*
X0079065Y0045200D01*
X0078698Y0045567D01*
X0078698Y0046301D01*
X0079065Y0046668D01*
X0080166Y0046668D02*
X0080533Y0046668D01*
X0080900Y0046301D01*
X0080900Y0045567D01*
X0080533Y0045200D01*
X0065900Y0045567D02*
X0065533Y0045200D01*
X0065900Y0045567D02*
X0065900Y0046301D01*
X0065533Y0046668D01*
X0065166Y0046668D01*
X0064799Y0046301D01*
X0064799Y0045567D01*
X0064432Y0045200D01*
X0064065Y0045200D01*
X0063698Y0045567D01*
X0063698Y0046301D01*
X0064065Y0046668D01*
X0064065Y0047410D02*
X0065533Y0047410D01*
X0065900Y0047777D01*
X0065900Y0048511D01*
X0065533Y0048878D01*
X0065900Y0049620D02*
X0063698Y0049620D01*
X0064065Y0048878D02*
X0063698Y0048511D01*
X0063698Y0047777D01*
X0064065Y0047410D01*
X0065900Y0049620D02*
X0065900Y0051088D01*
X0048400Y0060067D02*
X0048400Y0060801D01*
X0048033Y0061168D01*
X0047299Y0061168D01*
X0047299Y0060434D01*
X0046565Y0061168D02*
X0046198Y0060801D01*
X0046198Y0060067D01*
X0046565Y0059700D01*
X0048033Y0059700D01*
X0048400Y0060067D01*
X0048400Y0061910D02*
X0046198Y0061910D01*
X0048400Y0063378D01*
X0046198Y0063378D01*
X0046198Y0064120D02*
X0046198Y0065221D01*
X0046565Y0065588D01*
X0048033Y0065588D01*
X0048400Y0065221D01*
X0048400Y0064120D01*
X0046198Y0064120D01*
X0047967Y0079200D02*
X0047600Y0079567D01*
X0047600Y0080301D01*
X0047967Y0080668D01*
X0048334Y0080668D01*
X0048701Y0080301D01*
X0048701Y0079567D01*
X0049068Y0079200D01*
X0049435Y0079200D01*
X0049802Y0079567D01*
X0049802Y0080301D01*
X0049435Y0080668D01*
X0049435Y0081410D02*
X0047967Y0081410D01*
X0047600Y0081777D01*
X0047600Y0082511D01*
X0047967Y0082878D01*
X0047600Y0083620D02*
X0047600Y0085088D01*
X0047600Y0083620D02*
X0049802Y0083620D01*
X0049435Y0082878D02*
X0049802Y0082511D01*
X0049802Y0081777D01*
X0049435Y0081410D01*
D15*
X0055150Y0086250D02*
X0055150Y0089152D01*
X0056601Y0089152D01*
X0057085Y0088669D01*
X0057085Y0087701D01*
X0056601Y0087217D01*
X0055150Y0087217D01*
X0056117Y0087217D02*
X0057085Y0086250D01*
X0058097Y0086250D02*
X0060031Y0086250D01*
X0059064Y0086250D02*
X0059064Y0089152D01*
X0058097Y0088185D01*
X0058448Y0084131D02*
X0060383Y0082197D01*
X0059899Y0082680D02*
X0061350Y0084131D01*
X0061350Y0082197D02*
X0058448Y0082197D01*
X0058448Y0080217D02*
X0061350Y0080217D01*
X0061350Y0079250D02*
X0061350Y0081185D01*
X0059415Y0079250D02*
X0058448Y0080217D01*
X0061527Y0086250D02*
X0061043Y0086734D01*
X0061043Y0087701D01*
X0062494Y0087701D01*
X0062978Y0087217D01*
X0062978Y0086734D01*
X0062494Y0086250D01*
X0061527Y0086250D01*
X0061043Y0087701D02*
X0062011Y0088669D01*
X0062978Y0089152D01*
X0072748Y0107950D02*
X0072748Y0109401D01*
X0073231Y0109885D01*
X0074199Y0109885D01*
X0074683Y0109401D01*
X0074683Y0107950D01*
X0075650Y0107950D02*
X0072748Y0107950D01*
X0072748Y0110897D02*
X0072748Y0111864D01*
X0072748Y0111380D02*
X0075650Y0111380D01*
X0075650Y0110897D02*
X0075650Y0111864D01*
X0075650Y0112861D02*
X0072748Y0112861D01*
X0072748Y0114312D01*
X0073231Y0114796D01*
X0074199Y0114796D01*
X0074683Y0114312D01*
X0074683Y0112861D01*
X0074683Y0113828D02*
X0075650Y0114796D01*
X0074566Y0128357D02*
X0072631Y0128357D01*
X0072148Y0128841D01*
X0072148Y0129808D01*
X0072631Y0130292D01*
X0072631Y0131303D02*
X0072148Y0131787D01*
X0072148Y0132755D01*
X0072631Y0133238D01*
X0073115Y0133238D01*
X0075050Y0131303D01*
X0075050Y0133238D01*
X0074566Y0130292D02*
X0075050Y0129808D01*
X0075050Y0128841D01*
X0074566Y0128357D01*
X0071490Y0137750D02*
X0071490Y0140652D01*
X0073425Y0140652D01*
X0072457Y0139201D02*
X0071490Y0139201D01*
X0070478Y0139685D02*
X0070478Y0137750D01*
X0069027Y0137750D01*
X0068543Y0138234D01*
X0068543Y0139685D01*
X0067531Y0140169D02*
X0065597Y0138234D01*
X0066080Y0137750D01*
X0067048Y0137750D01*
X0067531Y0138234D01*
X0067531Y0140169D01*
X0067048Y0140652D01*
X0066080Y0140652D01*
X0065597Y0140169D01*
X0065597Y0138234D01*
X0064585Y0137750D02*
X0062650Y0137750D01*
X0063617Y0137750D02*
X0063617Y0140652D01*
X0062650Y0139685D01*
X0062248Y0151450D02*
X0062248Y0153385D01*
X0062248Y0152417D02*
X0065150Y0152417D01*
X0063699Y0154397D02*
X0063699Y0156331D01*
X0064183Y0157343D02*
X0064183Y0158794D01*
X0063699Y0159278D01*
X0062731Y0159278D01*
X0062248Y0158794D01*
X0062248Y0157343D01*
X0065150Y0157343D01*
X0064183Y0158311D02*
X0065150Y0159278D01*
X0064666Y0160290D02*
X0065150Y0160773D01*
X0065150Y0161741D01*
X0064666Y0162225D01*
X0062731Y0162225D01*
X0062248Y0161741D01*
X0062248Y0160773D01*
X0062731Y0160290D01*
X0064666Y0160290D01*
X0065150Y0163236D02*
X0063215Y0163236D01*
X0062248Y0164204D01*
X0063215Y0165171D01*
X0065150Y0165171D01*
X0065150Y0166183D02*
X0065150Y0167634D01*
X0064666Y0168118D01*
X0062731Y0168118D01*
X0062248Y0167634D01*
X0062248Y0166183D01*
X0065150Y0166183D01*
X0063699Y0165171D02*
X0063699Y0163236D01*
X0072448Y0211750D02*
X0072448Y0213201D01*
X0072931Y0213685D01*
X0073899Y0213685D01*
X0074383Y0213201D01*
X0074383Y0211750D01*
X0075350Y0211750D02*
X0072448Y0211750D01*
X0074383Y0212717D02*
X0075350Y0213685D01*
X0075350Y0214697D02*
X0075350Y0216631D01*
X0074810Y0216985D02*
X0075778Y0217952D01*
X0075778Y0215050D01*
X0075350Y0215664D02*
X0072448Y0215664D01*
X0073415Y0214697D01*
X0074810Y0215050D02*
X0076745Y0215050D01*
X0077757Y0215534D02*
X0079692Y0217469D01*
X0079692Y0215534D01*
X0079208Y0215050D01*
X0078241Y0215050D01*
X0077757Y0215534D01*
X0077757Y0217469D01*
X0078241Y0217952D01*
X0079208Y0217952D01*
X0079692Y0217469D01*
X0080703Y0217952D02*
X0080703Y0215050D01*
X0080703Y0216017D02*
X0082638Y0217952D01*
X0081187Y0216501D02*
X0082638Y0215050D01*
X0075350Y0218127D02*
X0074866Y0217643D01*
X0075350Y0218127D02*
X0075350Y0219094D01*
X0074866Y0219578D01*
X0074383Y0219578D01*
X0073899Y0219094D01*
X0073899Y0218611D01*
X0073899Y0219094D02*
X0073415Y0219578D01*
X0072931Y0219578D01*
X0072448Y0219094D01*
X0072448Y0218127D01*
X0072931Y0217643D01*
X0075650Y0240250D02*
X0077585Y0240250D01*
X0076617Y0240250D02*
X0076617Y0243152D01*
X0075650Y0242185D01*
X0078597Y0242669D02*
X0079080Y0243152D01*
X0080048Y0243152D01*
X0080531Y0242669D01*
X0078597Y0240734D01*
X0079080Y0240250D01*
X0080048Y0240250D01*
X0080531Y0240734D01*
X0080531Y0242669D01*
X0081543Y0243152D02*
X0081543Y0240250D01*
X0081543Y0241217D02*
X0083478Y0243152D01*
X0084648Y0242308D02*
X0085131Y0242792D01*
X0086099Y0242792D01*
X0086583Y0242308D01*
X0086583Y0240857D01*
X0087550Y0240857D02*
X0084648Y0240857D01*
X0084648Y0242308D01*
X0086583Y0241824D02*
X0087550Y0242792D01*
X0086099Y0243803D02*
X0086099Y0245738D01*
X0087550Y0245255D02*
X0084648Y0245255D01*
X0086099Y0243803D01*
X0083478Y0240250D02*
X0082027Y0241701D01*
X0078597Y0240734D02*
X0078597Y0242669D01*
X0075350Y0258750D02*
X0072448Y0258750D01*
X0072448Y0260201D01*
X0072931Y0260685D01*
X0073899Y0260685D01*
X0074383Y0260201D01*
X0074383Y0258750D01*
X0074383Y0259717D02*
X0075350Y0260685D01*
X0075350Y0261697D02*
X0073415Y0263631D01*
X0072931Y0263631D01*
X0072448Y0263148D01*
X0072448Y0262180D01*
X0072931Y0261697D01*
X0075350Y0261697D02*
X0075350Y0263631D01*
X0075778Y0265050D02*
X0075778Y0267952D01*
X0074810Y0266985D01*
X0074810Y0265050D02*
X0076745Y0265050D01*
X0077757Y0265534D02*
X0079692Y0267469D01*
X0079692Y0265534D01*
X0079208Y0265050D01*
X0078241Y0265050D01*
X0077757Y0265534D01*
X0077757Y0267469D01*
X0078241Y0267952D01*
X0079208Y0267952D01*
X0079692Y0267469D01*
X0080703Y0267952D02*
X0080703Y0265050D01*
X0080703Y0266017D02*
X0082638Y0267952D01*
X0081187Y0266501D02*
X0082638Y0265050D01*
X0097257Y0274034D02*
X0097741Y0273550D01*
X0098708Y0273550D01*
X0099192Y0274034D01*
X0099192Y0275969D01*
X0098708Y0276452D01*
X0097741Y0276452D01*
X0097257Y0275969D01*
X0097257Y0274034D01*
X0098224Y0274517D02*
X0099192Y0273550D01*
X0100203Y0273550D02*
X0102138Y0273550D01*
X0101171Y0273550D02*
X0101171Y0276452D01*
X0100203Y0275485D01*
X0116150Y0267185D02*
X0117117Y0268152D01*
X0117117Y0265250D01*
X0116150Y0265250D02*
X0118085Y0265250D01*
X0119097Y0265734D02*
X0121031Y0267669D01*
X0121031Y0265734D01*
X0120548Y0265250D01*
X0119580Y0265250D01*
X0119097Y0265734D01*
X0119097Y0267669D01*
X0119580Y0268152D01*
X0120548Y0268152D01*
X0121031Y0267669D01*
X0122043Y0268152D02*
X0122043Y0265250D01*
X0122043Y0266217D02*
X0123978Y0268152D01*
X0124648Y0267308D02*
X0125131Y0267792D01*
X0126099Y0267792D01*
X0126583Y0267308D01*
X0126583Y0265857D01*
X0127550Y0265857D02*
X0124648Y0265857D01*
X0124648Y0267308D01*
X0125615Y0268803D02*
X0124648Y0269771D01*
X0127550Y0269771D01*
X0127550Y0270738D02*
X0127550Y0268803D01*
X0127550Y0267792D02*
X0126583Y0266824D01*
X0123978Y0265250D02*
X0122527Y0266701D01*
X0125131Y0249238D02*
X0125615Y0249238D01*
X0126099Y0248755D01*
X0126583Y0249238D01*
X0127066Y0249238D01*
X0127550Y0248755D01*
X0127550Y0247787D01*
X0127066Y0247303D01*
X0127550Y0246292D02*
X0126583Y0245324D01*
X0126583Y0245808D02*
X0126583Y0244357D01*
X0127550Y0244357D02*
X0124648Y0244357D01*
X0124648Y0245808D01*
X0125131Y0246292D01*
X0126099Y0246292D01*
X0126583Y0245808D01*
X0125131Y0247303D02*
X0124648Y0247787D01*
X0124648Y0248755D01*
X0125131Y0249238D01*
X0126099Y0248755D02*
X0126099Y0248271D01*
X0123478Y0243152D02*
X0121543Y0241217D01*
X0122027Y0241701D02*
X0123478Y0240250D01*
X0121543Y0240250D02*
X0121543Y0243152D01*
X0120531Y0242669D02*
X0118597Y0240734D01*
X0119080Y0240250D01*
X0120048Y0240250D01*
X0120531Y0240734D01*
X0120531Y0242669D01*
X0120048Y0243152D01*
X0119080Y0243152D01*
X0118597Y0242669D01*
X0118597Y0240734D01*
X0117585Y0240250D02*
X0115650Y0240250D01*
X0116617Y0240250D02*
X0116617Y0243152D01*
X0115650Y0242185D01*
X0102638Y0250550D02*
X0100703Y0250550D01*
X0102638Y0252485D01*
X0102638Y0252969D01*
X0102155Y0253452D01*
X0101187Y0253452D01*
X0100703Y0252969D01*
X0099692Y0252969D02*
X0099692Y0251034D01*
X0099208Y0250550D01*
X0098241Y0250550D01*
X0097757Y0251034D01*
X0097757Y0252969D01*
X0098241Y0253452D01*
X0099208Y0253452D01*
X0099692Y0252969D01*
X0098724Y0251517D02*
X0099692Y0250550D01*
X0098708Y0226452D02*
X0099192Y0225969D01*
X0099192Y0224034D01*
X0098708Y0223550D01*
X0097741Y0223550D01*
X0097257Y0224034D01*
X0097257Y0225969D01*
X0097741Y0226452D01*
X0098708Y0226452D01*
X0098224Y0224517D02*
X0099192Y0223550D01*
X0100203Y0225001D02*
X0102138Y0225001D01*
X0101655Y0223550D02*
X0101655Y0226452D01*
X0100203Y0225001D01*
X0115650Y0217185D02*
X0116617Y0218152D01*
X0116617Y0215250D01*
X0115650Y0215250D02*
X0117585Y0215250D01*
X0118597Y0215734D02*
X0120531Y0217669D01*
X0120531Y0215734D01*
X0120048Y0215250D01*
X0119080Y0215250D01*
X0118597Y0215734D01*
X0118597Y0217669D01*
X0119080Y0218152D01*
X0120048Y0218152D01*
X0120531Y0217669D01*
X0121543Y0218152D02*
X0121543Y0215250D01*
X0121543Y0216217D02*
X0123478Y0218152D01*
X0124648Y0219287D02*
X0125131Y0218803D01*
X0124648Y0219287D02*
X0124648Y0220255D01*
X0125131Y0220738D01*
X0125615Y0220738D01*
X0127550Y0218803D01*
X0127550Y0220738D01*
X0127550Y0217792D02*
X0127550Y0215857D01*
X0127550Y0216824D02*
X0124648Y0216824D01*
X0125615Y0215857D01*
X0125131Y0214845D02*
X0126099Y0214845D01*
X0126583Y0214362D01*
X0126583Y0212910D01*
X0127550Y0212910D02*
X0124648Y0212910D01*
X0124648Y0214362D01*
X0125131Y0214845D01*
X0123478Y0215250D02*
X0122027Y0216701D01*
X0126583Y0213878D02*
X0127550Y0214845D01*
X0127708Y0170452D02*
X0128192Y0169969D01*
X0128192Y0169485D01*
X0127708Y0169001D01*
X0126741Y0169001D01*
X0126257Y0169485D01*
X0126257Y0169969D01*
X0126741Y0170452D01*
X0127708Y0170452D01*
X0127708Y0169001D02*
X0128192Y0168517D01*
X0128192Y0168034D01*
X0127708Y0167550D01*
X0126741Y0167550D01*
X0126257Y0168034D01*
X0126257Y0168517D01*
X0126741Y0169001D01*
X0125245Y0169969D02*
X0125245Y0168034D01*
X0124762Y0167550D01*
X0123794Y0167550D01*
X0123310Y0168034D01*
X0125245Y0169969D01*
X0124762Y0170452D01*
X0123794Y0170452D01*
X0123310Y0169969D01*
X0123310Y0168034D01*
X0122299Y0168034D02*
X0121815Y0167550D01*
X0120848Y0167550D01*
X0120364Y0168034D01*
X0119352Y0168034D02*
X0118869Y0167550D01*
X0117901Y0167550D01*
X0117417Y0168034D01*
X0117901Y0169001D02*
X0118869Y0169001D01*
X0119352Y0168517D01*
X0119352Y0168034D01*
X0117901Y0169001D02*
X0117417Y0169485D01*
X0117417Y0169969D01*
X0117901Y0170452D01*
X0118869Y0170452D01*
X0119352Y0169969D01*
X0120364Y0169969D02*
X0120848Y0170452D01*
X0121815Y0170452D01*
X0122299Y0169969D01*
X0122299Y0169485D01*
X0121815Y0169001D01*
X0122299Y0168517D01*
X0122299Y0168034D01*
X0121815Y0169001D02*
X0121331Y0169001D01*
X0116406Y0167550D02*
X0116406Y0170452D01*
X0114471Y0170452D02*
X0114471Y0167550D01*
X0113459Y0168034D02*
X0113459Y0169969D01*
X0112976Y0170452D01*
X0111524Y0170452D01*
X0111524Y0167550D01*
X0112976Y0167550D01*
X0113459Y0168034D01*
X0114471Y0170452D02*
X0116406Y0167550D01*
X0110513Y0167550D02*
X0110513Y0169485D01*
X0109545Y0170452D01*
X0108578Y0169485D01*
X0108578Y0167550D01*
X0108578Y0169001D02*
X0110513Y0169001D01*
X0129203Y0168034D02*
X0131138Y0169969D01*
X0131138Y0168034D01*
X0130655Y0167550D01*
X0129687Y0167550D01*
X0129203Y0168034D01*
X0129203Y0169969D01*
X0129687Y0170452D01*
X0130655Y0170452D01*
X0131138Y0169969D01*
X0137348Y0164038D02*
X0137348Y0162103D01*
X0140250Y0162103D01*
X0139766Y0161092D02*
X0137831Y0161092D01*
X0137348Y0160608D01*
X0137348Y0159641D01*
X0137831Y0159157D01*
X0139766Y0159157D01*
X0140250Y0159641D01*
X0140250Y0160608D01*
X0139766Y0161092D01*
X0138799Y0162103D02*
X0138799Y0163071D01*
X0160148Y0187017D02*
X0160148Y0188952D01*
X0160148Y0187985D02*
X0163050Y0187985D01*
X0163050Y0189964D02*
X0160148Y0189964D01*
X0161115Y0190931D01*
X0160148Y0191899D01*
X0163050Y0191899D01*
X0163050Y0192910D02*
X0160148Y0192910D01*
X0160148Y0194362D01*
X0160631Y0194845D01*
X0161599Y0194845D01*
X0162083Y0194362D01*
X0162083Y0192910D01*
X0162566Y0195857D02*
X0163050Y0196341D01*
X0163050Y0197308D01*
X0162566Y0197792D01*
X0162083Y0197792D01*
X0161599Y0197308D01*
X0161599Y0196824D01*
X0161599Y0197308D02*
X0161115Y0197792D01*
X0160631Y0197792D01*
X0160148Y0197308D01*
X0160148Y0196341D01*
X0160631Y0195857D01*
X0161599Y0198803D02*
X0161599Y0200255D01*
X0162083Y0200738D01*
X0162566Y0200738D01*
X0163050Y0200255D01*
X0163050Y0199287D01*
X0162566Y0198803D01*
X0161599Y0198803D01*
X0160631Y0199771D01*
X0160148Y0200738D01*
X0162448Y0209250D02*
X0162448Y0210701D01*
X0162931Y0211185D01*
X0163899Y0211185D01*
X0164383Y0210701D01*
X0164383Y0209250D01*
X0165350Y0209250D02*
X0162448Y0209250D01*
X0164383Y0210217D02*
X0165350Y0211185D01*
X0164866Y0212197D02*
X0165350Y0212680D01*
X0165350Y0213648D01*
X0164866Y0214131D01*
X0164383Y0214131D01*
X0163899Y0213648D01*
X0163899Y0212197D01*
X0164866Y0212197D01*
X0163899Y0212197D02*
X0162931Y0213164D01*
X0162448Y0214131D01*
X0162448Y0219250D02*
X0162448Y0220701D01*
X0162931Y0221185D01*
X0163899Y0221185D01*
X0164383Y0220701D01*
X0164383Y0219250D01*
X0165350Y0219250D02*
X0162448Y0219250D01*
X0164383Y0220217D02*
X0165350Y0221185D01*
X0165350Y0222197D02*
X0164866Y0222197D01*
X0162931Y0224131D01*
X0162448Y0224131D01*
X0162448Y0222197D01*
X0162931Y0229250D02*
X0162448Y0229734D01*
X0162448Y0230701D01*
X0162931Y0231185D01*
X0163415Y0232197D02*
X0162448Y0233164D01*
X0165350Y0233164D01*
X0165350Y0232197D02*
X0165350Y0234131D01*
X0164866Y0231185D02*
X0165350Y0230701D01*
X0165350Y0229734D01*
X0164866Y0229250D01*
X0162931Y0229250D01*
X0173448Y0230180D02*
X0173448Y0231148D01*
X0173931Y0231631D01*
X0175866Y0229697D01*
X0176350Y0230180D01*
X0176350Y0231148D01*
X0175866Y0231631D01*
X0173931Y0231631D01*
X0174415Y0232643D02*
X0175866Y0232643D01*
X0176350Y0233127D01*
X0176350Y0234578D01*
X0174415Y0234578D01*
X0174899Y0235590D02*
X0174899Y0236557D01*
X0176350Y0235590D02*
X0173448Y0235590D01*
X0173448Y0237525D01*
X0173448Y0230180D02*
X0173931Y0229697D01*
X0175866Y0229697D01*
X0176350Y0228685D02*
X0176350Y0226750D01*
X0176350Y0227717D02*
X0173448Y0227717D01*
X0174415Y0226750D01*
X0173448Y0225578D02*
X0175383Y0223643D01*
X0174899Y0224127D02*
X0176350Y0225578D01*
X0176350Y0223643D02*
X0173448Y0223643D01*
X0173448Y0222631D02*
X0173448Y0220697D01*
X0174899Y0220697D01*
X0174415Y0221664D01*
X0174415Y0222148D01*
X0174899Y0222631D01*
X0175866Y0222631D01*
X0176350Y0222148D01*
X0176350Y0221180D01*
X0175866Y0220697D01*
X0173931Y0219685D02*
X0175866Y0217750D01*
X0176350Y0217750D01*
X0176350Y0215078D02*
X0174899Y0213627D01*
X0175383Y0213143D02*
X0173448Y0215078D01*
X0173448Y0213143D02*
X0176350Y0213143D01*
X0175866Y0212131D02*
X0174899Y0212131D01*
X0174415Y0211648D01*
X0174415Y0211164D01*
X0174899Y0210197D01*
X0173448Y0210197D01*
X0173448Y0212131D01*
X0175866Y0212131D02*
X0176350Y0211648D01*
X0176350Y0210680D01*
X0175866Y0210197D01*
X0173931Y0209185D02*
X0175866Y0207250D01*
X0176350Y0207250D01*
X0173448Y0207250D02*
X0173448Y0209185D01*
X0173931Y0209185D01*
X0173448Y0217750D02*
X0173448Y0219685D01*
X0173931Y0219685D01*
X0187431Y0200025D02*
X0188399Y0200025D01*
X0188883Y0199541D01*
X0188883Y0198090D01*
X0189850Y0198090D02*
X0186948Y0198090D01*
X0186948Y0199541D01*
X0187431Y0200025D01*
X0186948Y0197078D02*
X0189850Y0197078D01*
X0189850Y0195143D02*
X0186948Y0195143D01*
X0187915Y0196111D01*
X0186948Y0197078D01*
X0186948Y0194131D02*
X0186948Y0192197D01*
X0189850Y0192197D01*
X0189850Y0194131D01*
X0188399Y0193164D02*
X0188399Y0192197D01*
X0186948Y0191185D02*
X0186948Y0189250D01*
X0186948Y0190217D02*
X0189850Y0190217D01*
X0189666Y0179725D02*
X0187731Y0179725D01*
X0187248Y0179241D01*
X0187248Y0177790D01*
X0190150Y0177790D01*
X0190150Y0179241D01*
X0189666Y0179725D01*
X0190150Y0176778D02*
X0187248Y0176778D01*
X0188215Y0175811D01*
X0187248Y0174843D01*
X0190150Y0174843D01*
X0189666Y0173831D02*
X0187248Y0173831D01*
X0187248Y0171897D02*
X0189666Y0171897D01*
X0190150Y0172380D01*
X0190150Y0173348D01*
X0189666Y0173831D01*
X0190150Y0170885D02*
X0187248Y0170885D01*
X0188699Y0170885D02*
X0188699Y0168950D01*
X0190150Y0168950D02*
X0187248Y0168950D01*
X0187431Y0163596D02*
X0186948Y0163112D01*
X0186948Y0162145D01*
X0187431Y0161661D01*
X0189366Y0161661D01*
X0189850Y0162145D01*
X0189850Y0163112D01*
X0189366Y0163596D01*
X0189850Y0160664D02*
X0189850Y0159697D01*
X0189850Y0160180D02*
X0186948Y0160180D01*
X0186948Y0159697D02*
X0186948Y0160664D01*
X0186948Y0158685D02*
X0189850Y0158685D01*
X0189850Y0156750D02*
X0186948Y0156750D01*
X0187915Y0157717D01*
X0186948Y0158685D01*
X0187731Y0149278D02*
X0187248Y0148794D01*
X0187248Y0147343D01*
X0190150Y0147343D01*
X0190150Y0148794D01*
X0189666Y0149278D01*
X0187731Y0149278D01*
X0187248Y0146331D02*
X0189183Y0146331D01*
X0190150Y0145364D01*
X0189183Y0144397D01*
X0187248Y0144397D01*
X0187248Y0143385D02*
X0189666Y0143385D01*
X0190150Y0142901D01*
X0190150Y0141934D01*
X0189666Y0141450D01*
X0187248Y0141450D01*
X0187366Y0139131D02*
X0187850Y0138648D01*
X0187850Y0137680D01*
X0187366Y0137197D01*
X0186399Y0137197D02*
X0185915Y0138164D01*
X0185915Y0138648D01*
X0186399Y0139131D01*
X0187366Y0139131D01*
X0186399Y0137197D02*
X0184948Y0137197D01*
X0184948Y0139131D01*
X0185431Y0136185D02*
X0184948Y0135701D01*
X0184948Y0134734D01*
X0185431Y0134250D01*
X0187366Y0134250D01*
X0187850Y0134734D01*
X0187850Y0135701D01*
X0187366Y0136185D01*
X0176350Y0136148D02*
X0176350Y0135180D01*
X0175866Y0134697D01*
X0173931Y0136631D01*
X0175866Y0136631D01*
X0176350Y0136148D01*
X0175866Y0134697D02*
X0173931Y0134697D01*
X0173448Y0135180D01*
X0173448Y0136148D01*
X0173931Y0136631D01*
X0174415Y0137643D02*
X0175866Y0137643D01*
X0176350Y0138127D01*
X0176350Y0139578D01*
X0174415Y0139578D01*
X0174899Y0140590D02*
X0174899Y0141557D01*
X0176350Y0140590D02*
X0173448Y0140590D01*
X0173448Y0142525D01*
X0176350Y0133685D02*
X0176350Y0131750D01*
X0176350Y0132717D02*
X0173448Y0132717D01*
X0174415Y0131750D01*
X0153478Y0128152D02*
X0151543Y0126217D01*
X0152027Y0126701D02*
X0153478Y0125250D01*
X0151543Y0125250D02*
X0151543Y0128152D01*
X0150531Y0127669D02*
X0148597Y0125734D01*
X0149080Y0125250D01*
X0150048Y0125250D01*
X0150531Y0125734D01*
X0150531Y0127669D01*
X0150048Y0128152D01*
X0149080Y0128152D01*
X0148597Y0127669D01*
X0148597Y0125734D01*
X0147585Y0125250D02*
X0145650Y0125250D01*
X0146617Y0125250D02*
X0146617Y0128152D01*
X0145650Y0127185D01*
X0145150Y0116652D02*
X0146601Y0116652D01*
X0147085Y0116169D01*
X0147085Y0115201D01*
X0146601Y0114717D01*
X0145150Y0114717D01*
X0145150Y0113750D02*
X0145150Y0116652D01*
X0146117Y0114717D02*
X0147085Y0113750D01*
X0148097Y0113750D02*
X0150031Y0113750D01*
X0149064Y0113750D02*
X0149064Y0116652D01*
X0148097Y0115685D01*
X0151043Y0115201D02*
X0152011Y0115685D01*
X0152494Y0115685D01*
X0152978Y0115201D01*
X0152978Y0114234D01*
X0152494Y0113750D01*
X0151527Y0113750D01*
X0151043Y0114234D01*
X0151043Y0115201D02*
X0151043Y0116652D01*
X0152978Y0116652D01*
X0134104Y0122150D02*
X0132169Y0122150D01*
X0133620Y0123601D01*
X0133620Y0120699D01*
X0131157Y0120699D02*
X0129223Y0120699D01*
X0130190Y0120699D02*
X0130190Y0123601D01*
X0129223Y0122634D01*
X0128211Y0123118D02*
X0128211Y0122150D01*
X0127727Y0121666D01*
X0126276Y0121666D01*
X0126276Y0120699D02*
X0126276Y0123601D01*
X0127727Y0123601D01*
X0128211Y0123118D01*
X0127243Y0121666D02*
X0128211Y0120699D01*
X0114650Y0102689D02*
X0113683Y0101721D01*
X0113683Y0102205D02*
X0113683Y0100754D01*
X0114650Y0100754D02*
X0111748Y0100754D01*
X0111748Y0102205D01*
X0112231Y0102689D01*
X0113199Y0102689D01*
X0113683Y0102205D01*
X0113199Y0099742D02*
X0113199Y0097807D01*
X0112715Y0097807D02*
X0111748Y0098775D01*
X0112715Y0099742D01*
X0114650Y0099742D01*
X0114650Y0097807D02*
X0112715Y0097807D01*
X0112231Y0096796D02*
X0114166Y0096796D01*
X0114650Y0096312D01*
X0114650Y0094861D01*
X0111748Y0094861D01*
X0111748Y0096312D01*
X0112231Y0096796D01*
X0111748Y0093864D02*
X0111748Y0092897D01*
X0111748Y0093380D02*
X0114650Y0093380D01*
X0114650Y0092897D02*
X0114650Y0093864D01*
X0114650Y0091885D02*
X0114650Y0089950D01*
X0111748Y0089950D01*
X0096350Y0085590D02*
X0093448Y0085590D01*
X0093448Y0087525D01*
X0094899Y0086557D02*
X0094899Y0085590D01*
X0094415Y0084578D02*
X0096350Y0084578D01*
X0096350Y0083127D01*
X0095866Y0082643D01*
X0094415Y0082643D01*
X0093931Y0081631D02*
X0095866Y0079697D01*
X0096350Y0080180D01*
X0096350Y0081148D01*
X0095866Y0081631D01*
X0093931Y0081631D01*
X0093448Y0081148D01*
X0093448Y0080180D01*
X0093931Y0079697D01*
X0095866Y0079697D01*
X0096350Y0078685D02*
X0096350Y0076750D01*
X0096350Y0077717D02*
X0093448Y0077717D01*
X0094415Y0076750D01*
X0093248Y0073189D02*
X0093248Y0071254D01*
X0093248Y0072221D02*
X0096150Y0072221D01*
X0096150Y0070242D02*
X0093248Y0070242D01*
X0094699Y0070242D02*
X0094699Y0068307D01*
X0094699Y0067296D02*
X0094699Y0066328D01*
X0094699Y0067296D02*
X0095666Y0067296D01*
X0096150Y0066812D01*
X0096150Y0065845D01*
X0095666Y0065361D01*
X0093731Y0065361D01*
X0093248Y0065845D01*
X0093248Y0066812D01*
X0093731Y0067296D01*
X0093248Y0068307D02*
X0096150Y0068307D01*
X0096150Y0064364D02*
X0096150Y0063397D01*
X0096150Y0063880D02*
X0093248Y0063880D01*
X0093248Y0063397D02*
X0093248Y0064364D01*
X0096150Y0062385D02*
X0096150Y0060450D01*
X0093248Y0060450D01*
X0084866Y0079250D02*
X0082931Y0079250D01*
X0082448Y0079734D01*
X0082448Y0080701D01*
X0082931Y0081185D01*
X0082448Y0082197D02*
X0082448Y0084131D01*
X0082931Y0084131D01*
X0084866Y0082197D01*
X0085350Y0082197D01*
X0084866Y0081185D02*
X0085350Y0080701D01*
X0085350Y0079734D01*
X0084866Y0079250D01*
X0078978Y0043152D02*
X0077043Y0043152D01*
X0076031Y0043152D02*
X0074097Y0041217D01*
X0074580Y0041701D02*
X0076031Y0040250D01*
X0077043Y0040250D02*
X0077043Y0040734D01*
X0078978Y0042669D01*
X0078978Y0043152D01*
X0074097Y0043152D02*
X0074097Y0040250D01*
X0072601Y0040250D02*
X0072601Y0043152D01*
X0071150Y0041701D01*
X0073085Y0041701D01*
X0075150Y0032152D02*
X0076601Y0032152D01*
X0077085Y0031669D01*
X0077085Y0030701D01*
X0076601Y0030217D01*
X0075150Y0030217D01*
X0075150Y0029250D02*
X0075150Y0032152D01*
X0076117Y0030217D02*
X0077085Y0029250D01*
X0078097Y0029250D02*
X0080031Y0029250D01*
X0079064Y0029250D02*
X0079064Y0032152D01*
X0078097Y0031185D01*
X0081043Y0032152D02*
X0082978Y0032152D01*
X0082978Y0031669D01*
X0081043Y0029734D01*
X0081043Y0029250D01*
X0058978Y0029734D02*
X0058494Y0029250D01*
X0057527Y0029250D01*
X0057043Y0029734D01*
X0057043Y0030217D01*
X0057527Y0030701D01*
X0058494Y0030701D01*
X0058978Y0030217D01*
X0058978Y0029734D01*
X0058494Y0030701D02*
X0058978Y0031185D01*
X0058978Y0031669D01*
X0058494Y0032152D01*
X0057527Y0032152D01*
X0057043Y0031669D01*
X0057043Y0031185D01*
X0057527Y0030701D01*
X0056031Y0029250D02*
X0054097Y0029250D01*
X0055064Y0029250D02*
X0055064Y0032152D01*
X0054097Y0031185D01*
X0053085Y0031669D02*
X0053085Y0030701D01*
X0052601Y0030217D01*
X0051150Y0030217D01*
X0051150Y0029250D02*
X0051150Y0032152D01*
X0052601Y0032152D01*
X0053085Y0031669D01*
X0052117Y0030217D02*
X0053085Y0029250D01*
X0052601Y0040250D02*
X0052601Y0043152D01*
X0051150Y0041701D01*
X0053085Y0041701D01*
X0054097Y0041217D02*
X0056031Y0043152D01*
X0057043Y0043152D02*
X0058978Y0043152D01*
X0058978Y0042669D01*
X0057043Y0040734D01*
X0057043Y0040250D01*
X0056031Y0040250D02*
X0054580Y0041701D01*
X0054097Y0043152D02*
X0054097Y0040250D01*
X0120398Y0048571D02*
X0120398Y0050022D01*
X0120881Y0050506D01*
X0121365Y0050506D01*
X0121849Y0050022D01*
X0121849Y0048571D01*
X0123300Y0048571D02*
X0123300Y0050022D01*
X0122816Y0050506D01*
X0122333Y0050506D01*
X0121849Y0050022D01*
X0121365Y0051517D02*
X0121849Y0052001D01*
X0121849Y0052969D01*
X0122333Y0053452D01*
X0122816Y0053452D01*
X0123300Y0052969D01*
X0123300Y0052001D01*
X0122816Y0051517D01*
X0121365Y0051517D02*
X0120881Y0051517D01*
X0120398Y0052001D01*
X0120398Y0052969D01*
X0120881Y0053452D01*
X0120881Y0054464D02*
X0121365Y0054464D01*
X0121849Y0054948D01*
X0121849Y0055915D01*
X0122333Y0056399D01*
X0122816Y0056399D01*
X0123300Y0055915D01*
X0123300Y0054948D01*
X0122816Y0054464D01*
X0120881Y0054464D02*
X0120398Y0054948D01*
X0120398Y0055915D01*
X0120881Y0056399D01*
X0121365Y0057410D02*
X0120398Y0058378D01*
X0123300Y0058378D01*
X0123300Y0059345D02*
X0123300Y0057410D01*
X0122816Y0060357D02*
X0123300Y0060841D01*
X0123300Y0061808D01*
X0122816Y0062292D01*
X0122333Y0062292D01*
X0121849Y0061808D01*
X0121849Y0061324D01*
X0121849Y0061808D02*
X0121365Y0062292D01*
X0120881Y0062292D01*
X0120398Y0061808D01*
X0120398Y0060841D01*
X0120881Y0060357D01*
X0120881Y0063303D02*
X0121365Y0063303D01*
X0121849Y0063787D01*
X0121849Y0064755D01*
X0122333Y0065238D01*
X0122816Y0065238D01*
X0123300Y0064755D01*
X0123300Y0063787D01*
X0122816Y0063303D01*
X0122333Y0063303D01*
X0121849Y0063787D01*
X0121849Y0064755D02*
X0121365Y0065238D01*
X0120881Y0065238D01*
X0120398Y0064755D01*
X0120398Y0063787D01*
X0120881Y0063303D01*
X0120398Y0048571D02*
X0123300Y0048571D01*
X0126757Y0047969D02*
X0126757Y0046034D01*
X0127241Y0045550D01*
X0128208Y0045550D01*
X0128692Y0046034D01*
X0128692Y0047969D01*
X0128208Y0048452D01*
X0127241Y0048452D01*
X0126757Y0047969D01*
X0127724Y0046517D02*
X0128692Y0045550D01*
X0129703Y0046034D02*
X0130187Y0045550D01*
X0131155Y0045550D01*
X0131638Y0046034D01*
X0131638Y0047001D01*
X0131155Y0047485D01*
X0130671Y0047485D01*
X0129703Y0047001D01*
X0129703Y0048452D01*
X0131638Y0048452D01*
X0131150Y0029652D02*
X0133085Y0029652D01*
X0134097Y0029169D02*
X0134580Y0029652D01*
X0135548Y0029652D01*
X0136031Y0029169D01*
X0136031Y0027234D01*
X0135548Y0026750D01*
X0134580Y0026750D01*
X0134097Y0027234D01*
X0134097Y0029169D01*
X0135064Y0027717D02*
X0136031Y0026750D01*
X0137043Y0026750D02*
X0137043Y0029652D01*
X0138494Y0029652D01*
X0138978Y0029169D01*
X0138978Y0028201D01*
X0138494Y0027717D01*
X0137043Y0027717D01*
X0139990Y0027234D02*
X0140473Y0026750D01*
X0141441Y0026750D01*
X0141925Y0027234D01*
X0141925Y0027717D01*
X0141441Y0028201D01*
X0140957Y0028201D01*
X0141441Y0028201D02*
X0141925Y0028685D01*
X0141925Y0029169D01*
X0141441Y0029652D01*
X0140473Y0029652D01*
X0139990Y0029169D01*
X0142936Y0029169D02*
X0142936Y0027234D01*
X0144871Y0029169D01*
X0144871Y0027234D01*
X0144387Y0026750D01*
X0143420Y0026750D01*
X0142936Y0027234D01*
X0142936Y0029169D02*
X0143420Y0029652D01*
X0144387Y0029652D01*
X0144871Y0029169D01*
X0145883Y0029652D02*
X0145883Y0026750D01*
X0147818Y0026750D02*
X0145883Y0029652D01*
X0147818Y0029652D02*
X0147818Y0026750D01*
X0148829Y0027234D02*
X0150764Y0029169D01*
X0150764Y0027234D01*
X0150280Y0026750D01*
X0149313Y0026750D01*
X0148829Y0027234D01*
X0148829Y0029169D01*
X0149313Y0029652D01*
X0150280Y0029652D01*
X0150764Y0029169D01*
X0151776Y0028201D02*
X0151776Y0027234D01*
X0152259Y0026750D01*
X0153227Y0026750D01*
X0153711Y0027234D01*
X0153711Y0027717D01*
X0153227Y0028201D01*
X0151776Y0028201D01*
X0152743Y0029169D01*
X0153711Y0029652D01*
X0154722Y0029652D02*
X0154722Y0026750D01*
X0156657Y0026750D01*
X0169448Y0050250D02*
X0169448Y0051701D01*
X0169931Y0052185D01*
X0170899Y0052185D01*
X0171383Y0051701D01*
X0171383Y0050250D01*
X0172350Y0050250D02*
X0169448Y0050250D01*
X0171383Y0051217D02*
X0172350Y0052185D01*
X0171866Y0053197D02*
X0172350Y0053680D01*
X0172350Y0054648D01*
X0171866Y0055131D01*
X0169931Y0055131D01*
X0169448Y0054648D01*
X0169448Y0053680D01*
X0169931Y0053197D01*
X0170415Y0053197D01*
X0170899Y0053680D01*
X0170899Y0055131D01*
X0168138Y0057550D02*
X0166687Y0059001D01*
X0166203Y0058517D02*
X0168138Y0060452D01*
X0166203Y0060452D02*
X0166203Y0057550D01*
X0165192Y0058034D02*
X0164708Y0057550D01*
X0163741Y0057550D01*
X0163257Y0058034D01*
X0163257Y0059001D02*
X0164224Y0059485D01*
X0164708Y0059485D01*
X0165192Y0059001D01*
X0165192Y0058034D01*
X0163257Y0059001D02*
X0163257Y0060452D01*
X0165192Y0060452D01*
X0162245Y0060452D02*
X0162245Y0059969D01*
X0160310Y0058034D01*
X0160310Y0057550D01*
X0160310Y0060452D02*
X0162245Y0060452D01*
X0176150Y0059685D02*
X0177117Y0060652D01*
X0177117Y0057750D01*
X0176150Y0057750D02*
X0178085Y0057750D01*
X0179097Y0058234D02*
X0179580Y0057750D01*
X0180548Y0057750D01*
X0181031Y0058234D01*
X0181031Y0059201D01*
X0180548Y0059685D01*
X0180064Y0059685D01*
X0179097Y0059201D01*
X0179097Y0060652D01*
X0181031Y0060652D01*
X0182043Y0060652D02*
X0182043Y0057750D01*
X0182043Y0058717D02*
X0183978Y0060652D01*
X0182527Y0059201D02*
X0183978Y0057750D01*
X0184631Y0055238D02*
X0185115Y0055238D01*
X0185599Y0054755D01*
X0185599Y0053787D01*
X0185115Y0053303D01*
X0184631Y0053303D01*
X0184148Y0053787D01*
X0184148Y0054755D01*
X0184631Y0055238D01*
X0185599Y0054755D02*
X0186083Y0055238D01*
X0186566Y0055238D01*
X0187050Y0054755D01*
X0187050Y0053787D01*
X0186566Y0053303D01*
X0186083Y0053303D01*
X0185599Y0053787D01*
X0185599Y0052292D02*
X0186083Y0051808D01*
X0186083Y0050357D01*
X0187050Y0050357D02*
X0184148Y0050357D01*
X0184148Y0051808D01*
X0184631Y0052292D01*
X0185599Y0052292D01*
X0186083Y0051324D02*
X0187050Y0052292D01*
X0147031Y0074234D02*
X0146548Y0073750D01*
X0145580Y0073750D01*
X0145097Y0074234D01*
X0144085Y0074234D02*
X0143601Y0073750D01*
X0142634Y0073750D01*
X0142150Y0074234D01*
X0142150Y0076169D01*
X0142634Y0076652D01*
X0143601Y0076652D01*
X0144085Y0076169D01*
X0144085Y0074234D01*
X0144085Y0073750D02*
X0143117Y0074717D01*
X0145097Y0076169D02*
X0145580Y0076652D01*
X0146548Y0076652D01*
X0147031Y0076169D01*
X0147031Y0075685D01*
X0146548Y0075201D01*
X0147031Y0074717D01*
X0147031Y0074234D01*
X0146548Y0075201D02*
X0146064Y0075201D01*
X0131150Y0029652D02*
X0131150Y0026750D01*
X0131150Y0028201D02*
X0132117Y0028201D01*
X0206334Y0217014D02*
X0209470Y0220150D01*
X0209470Y0218582D02*
X0206334Y0218582D01*
X0206334Y0220150D02*
X0209470Y0217014D01*
X0207902Y0217014D02*
X0207902Y0220150D01*
X0209948Y0229250D02*
X0209948Y0230701D01*
X0210431Y0231185D01*
X0211399Y0231185D01*
X0211883Y0230701D01*
X0211883Y0229250D01*
X0212850Y0229250D02*
X0209948Y0229250D01*
X0211883Y0230217D02*
X0212850Y0231185D01*
X0212366Y0232197D02*
X0212850Y0232680D01*
X0212850Y0233648D01*
X0212366Y0234131D01*
X0211399Y0234131D01*
X0210915Y0233648D01*
X0210915Y0233164D01*
X0211399Y0232197D01*
X0209948Y0232197D01*
X0209948Y0234131D01*
X0201350Y0234094D02*
X0201350Y0233127D01*
X0200866Y0232643D01*
X0198931Y0234578D01*
X0200866Y0234578D01*
X0201350Y0234094D01*
X0201350Y0235590D02*
X0198448Y0235590D01*
X0198448Y0237041D01*
X0198931Y0237525D01*
X0199899Y0237525D01*
X0200383Y0237041D01*
X0200383Y0235590D01*
X0200383Y0236557D02*
X0201350Y0237525D01*
X0198931Y0234578D02*
X0198448Y0234094D01*
X0198448Y0233127D01*
X0198931Y0232643D01*
X0200866Y0232643D01*
X0200866Y0231631D02*
X0201350Y0231148D01*
X0201350Y0230180D01*
X0200866Y0229697D01*
X0200866Y0228685D02*
X0201350Y0228201D01*
X0201350Y0227234D01*
X0200866Y0226750D01*
X0199899Y0227717D02*
X0199899Y0228201D01*
X0200383Y0228685D01*
X0200866Y0228685D01*
X0199899Y0228201D02*
X0199415Y0228685D01*
X0198931Y0228685D01*
X0198448Y0228201D01*
X0198448Y0227234D01*
X0198931Y0226750D01*
X0198931Y0229697D02*
X0198448Y0230180D01*
X0198448Y0231148D01*
X0198931Y0231631D01*
X0199415Y0231631D01*
X0199899Y0231148D01*
X0200383Y0231631D01*
X0200866Y0231631D01*
X0199899Y0231148D02*
X0199899Y0230664D01*
X0195983Y0259250D02*
X0195983Y0262953D01*
X0194749Y0262953D02*
X0197218Y0262953D01*
X0193534Y0262953D02*
X0193534Y0259250D01*
X0191066Y0262953D01*
X0191066Y0259250D01*
X0189851Y0259250D02*
X0187383Y0259250D01*
X0187383Y0262953D01*
X0189851Y0262953D01*
X0188617Y0261102D02*
X0187383Y0261102D01*
X0186168Y0261102D02*
X0186168Y0262336D01*
X0185551Y0262953D01*
X0183699Y0262953D01*
X0183699Y0259250D01*
X0182485Y0259250D02*
X0181251Y0260484D01*
X0181868Y0260484D02*
X0180016Y0260484D01*
X0180016Y0259250D02*
X0180016Y0262953D01*
X0181868Y0262953D01*
X0182485Y0262336D01*
X0182485Y0261102D01*
X0181868Y0260484D01*
X0183699Y0260484D02*
X0185551Y0260484D01*
X0186168Y0261102D01*
X0184934Y0260484D02*
X0186168Y0259250D01*
X0178802Y0259867D02*
X0178802Y0262953D01*
X0176333Y0262953D02*
X0176333Y0259867D01*
X0176950Y0259250D01*
X0178185Y0259250D01*
X0178802Y0259867D01*
X0175119Y0259867D02*
X0174502Y0259250D01*
X0173267Y0259250D01*
X0172650Y0259867D01*
X0172650Y0262336D01*
X0173267Y0262953D01*
X0174502Y0262953D01*
X0175119Y0262336D01*
X0161834Y0300750D02*
X0160866Y0300750D01*
X0160383Y0301234D01*
X0160866Y0302201D02*
X0161834Y0302201D01*
X0162318Y0301717D01*
X0162318Y0301234D01*
X0161834Y0300750D01*
X0160866Y0302201D02*
X0160383Y0302685D01*
X0160383Y0303169D01*
X0160866Y0303652D01*
X0161834Y0303652D01*
X0162318Y0303169D01*
X0159371Y0303652D02*
X0157436Y0303652D01*
X0158404Y0303652D02*
X0158404Y0300750D01*
X0156425Y0300750D02*
X0155457Y0301717D01*
X0155941Y0301717D02*
X0154490Y0301717D01*
X0154490Y0300750D02*
X0154490Y0303652D01*
X0155941Y0303652D01*
X0156425Y0303169D01*
X0156425Y0302201D01*
X0155941Y0301717D01*
X0153478Y0302201D02*
X0151543Y0302201D01*
X0150531Y0301717D02*
X0150048Y0302201D01*
X0148597Y0302201D01*
X0150048Y0302201D02*
X0150531Y0302685D01*
X0150531Y0303169D01*
X0150048Y0303652D01*
X0148597Y0303652D01*
X0148597Y0300750D01*
X0150048Y0300750D01*
X0150531Y0301234D01*
X0150531Y0301717D01*
X0147585Y0300750D02*
X0145650Y0303652D01*
X0147585Y0303652D02*
X0145650Y0300750D01*
X0049211Y0235652D02*
X0047276Y0235652D01*
X0048243Y0235652D02*
X0048243Y0232750D01*
X0046264Y0232750D02*
X0044329Y0232750D01*
X0044329Y0235652D01*
X0046264Y0235652D01*
X0045297Y0234201D02*
X0044329Y0234201D01*
X0043318Y0233717D02*
X0043318Y0233234D01*
X0042834Y0232750D01*
X0041866Y0232750D01*
X0041383Y0233234D01*
X0041866Y0234201D02*
X0042834Y0234201D01*
X0043318Y0233717D01*
X0043318Y0235169D02*
X0042834Y0235652D01*
X0041866Y0235652D01*
X0041383Y0235169D01*
X0041383Y0234685D01*
X0041866Y0234201D01*
X0040371Y0232750D02*
X0038436Y0232750D01*
X0038436Y0235652D01*
X0040371Y0235652D01*
X0039404Y0234201D02*
X0038436Y0234201D01*
X0037425Y0234201D02*
X0036941Y0233717D01*
X0035490Y0233717D01*
X0035490Y0232750D02*
X0035490Y0235652D01*
X0036941Y0235652D01*
X0037425Y0235169D01*
X0037425Y0234201D01*
X0036457Y0233717D02*
X0037425Y0232750D01*
X0034478Y0234201D02*
X0032543Y0234201D01*
X0031531Y0233717D02*
X0031531Y0233234D01*
X0031048Y0232750D01*
X0029597Y0232750D01*
X0029597Y0235652D01*
X0031048Y0235652D01*
X0031531Y0235169D01*
X0031531Y0234685D01*
X0031048Y0234201D01*
X0029597Y0234201D01*
X0031048Y0234201D02*
X0031531Y0233717D01*
X0028585Y0232750D02*
X0026650Y0235652D01*
X0028585Y0235652D02*
X0026650Y0232750D01*
X0032846Y0254550D02*
X0032846Y0257452D01*
X0034297Y0257452D01*
X0034781Y0256969D01*
X0034781Y0256001D01*
X0034297Y0255517D01*
X0032846Y0255517D01*
X0033814Y0255517D02*
X0034781Y0254550D01*
X0035793Y0255034D02*
X0036276Y0254550D01*
X0037244Y0254550D01*
X0037728Y0255034D01*
X0037728Y0255517D01*
X0037244Y0256001D01*
X0036276Y0256001D01*
X0035793Y0256485D01*
X0035793Y0256969D01*
X0036276Y0257452D01*
X0037244Y0257452D01*
X0037728Y0256969D01*
X0038739Y0256969D02*
X0038739Y0256485D01*
X0039223Y0256001D01*
X0040190Y0256001D01*
X0040674Y0255517D01*
X0040674Y0255034D01*
X0040190Y0254550D01*
X0039223Y0254550D01*
X0038739Y0255034D01*
X0038739Y0256969D02*
X0039223Y0257452D01*
X0040190Y0257452D01*
X0040674Y0256969D01*
X0041686Y0257452D02*
X0042653Y0257452D01*
X0042169Y0257452D02*
X0042169Y0254550D01*
X0041686Y0254550D02*
X0042653Y0254550D01*
X0044931Y0263250D02*
X0046866Y0263250D01*
X0047350Y0263734D01*
X0047350Y0264701D01*
X0046866Y0265185D01*
X0046866Y0266197D02*
X0047350Y0266680D01*
X0047350Y0267648D01*
X0046866Y0268131D01*
X0046383Y0268131D01*
X0045899Y0267648D01*
X0045899Y0266197D01*
X0046866Y0266197D01*
X0045899Y0266197D02*
X0044931Y0267164D01*
X0044448Y0268131D01*
X0042703Y0270050D02*
X0042703Y0272952D01*
X0044638Y0272952D01*
X0043671Y0271501D02*
X0042703Y0271501D01*
X0041692Y0271985D02*
X0041692Y0270050D01*
X0040241Y0270050D01*
X0039757Y0270534D01*
X0039757Y0271985D01*
X0038745Y0272469D02*
X0038745Y0270534D01*
X0038262Y0270050D01*
X0037294Y0270050D01*
X0036810Y0270534D01*
X0038745Y0272469D01*
X0038262Y0272952D01*
X0037294Y0272952D01*
X0036810Y0272469D01*
X0036810Y0270534D01*
X0035799Y0270050D02*
X0033864Y0270050D01*
X0034831Y0270050D02*
X0034831Y0272952D01*
X0033864Y0271985D01*
X0044448Y0264701D02*
X0044448Y0263734D01*
X0044931Y0263250D01*
X0044448Y0264701D02*
X0044931Y0265185D01*
D16*
X0023334Y0270886D02*
X0023334Y0271453D01*
X0022767Y0272020D01*
X0019931Y0272020D01*
X0019931Y0270319D01*
X0020499Y0269752D01*
X0021633Y0269752D01*
X0022200Y0270319D01*
X0022200Y0272020D01*
X0022200Y0273435D02*
X0018797Y0273435D01*
X0019931Y0274002D02*
X0019931Y0275136D01*
X0020499Y0275703D01*
X0022200Y0275703D01*
X0021633Y0277685D02*
X0022200Y0278252D01*
X0021633Y0277685D02*
X0019364Y0277685D01*
X0019931Y0277118D02*
X0019931Y0278252D01*
X0020499Y0279573D02*
X0019931Y0280140D01*
X0019931Y0281275D01*
X0020499Y0281842D01*
X0021066Y0281842D01*
X0021066Y0279573D01*
X0021633Y0279573D02*
X0020499Y0279573D01*
X0021633Y0279573D02*
X0022200Y0280140D01*
X0022200Y0281275D01*
X0022200Y0283256D02*
X0019931Y0283256D01*
X0021066Y0283256D02*
X0019931Y0284391D01*
X0019931Y0284958D01*
X0022767Y0286326D02*
X0022767Y0288594D01*
X0022200Y0291143D02*
X0019931Y0292278D01*
X0019931Y0293692D02*
X0018797Y0294826D01*
X0022200Y0294826D01*
X0022200Y0293692D02*
X0022200Y0295961D01*
X0022200Y0297375D02*
X0022200Y0297942D01*
X0021633Y0297942D01*
X0021633Y0297375D01*
X0022200Y0297375D01*
X0021633Y0299217D02*
X0019364Y0301485D01*
X0021633Y0301485D01*
X0022200Y0300918D01*
X0022200Y0299784D01*
X0021633Y0299217D01*
X0019364Y0299217D01*
X0018797Y0299784D01*
X0018797Y0300918D01*
X0019364Y0301485D01*
X0022200Y0291143D02*
X0019931Y0290009D01*
X0019931Y0274002D02*
X0020499Y0273435D01*
X0022200Y0268430D02*
X0022200Y0267296D01*
X0022200Y0267863D02*
X0019931Y0267863D01*
X0019931Y0267296D01*
X0018797Y0267863D02*
X0018230Y0267863D01*
X0018797Y0265882D02*
X0018797Y0263613D01*
X0022200Y0263613D01*
X0022767Y0262199D02*
X0022767Y0259930D01*
X0022200Y0258609D02*
X0021633Y0258042D01*
X0019364Y0258042D01*
X0019931Y0258609D02*
X0019931Y0257474D01*
X0020499Y0256060D02*
X0021066Y0256060D01*
X0021066Y0253791D01*
X0021633Y0253791D02*
X0020499Y0253791D01*
X0019931Y0254358D01*
X0019931Y0255493D01*
X0020499Y0256060D01*
X0022200Y0255493D02*
X0022200Y0254358D01*
X0021633Y0253791D01*
X0021066Y0252377D02*
X0021066Y0250108D01*
X0021633Y0250108D02*
X0020499Y0250108D01*
X0019931Y0250675D01*
X0019931Y0251810D01*
X0020499Y0252377D01*
X0021066Y0252377D01*
X0022200Y0251810D02*
X0022200Y0250675D01*
X0021633Y0250108D01*
X0019931Y0248740D02*
X0019931Y0248173D01*
X0021066Y0247039D01*
X0022200Y0247039D02*
X0019931Y0247039D01*
X0019931Y0245718D02*
X0019931Y0244583D01*
X0019364Y0245151D02*
X0021633Y0245151D01*
X0022200Y0245718D01*
X0021633Y0243169D02*
X0022200Y0242602D01*
X0022200Y0241467D01*
X0021633Y0240900D01*
X0020499Y0241467D02*
X0020499Y0242602D01*
X0021066Y0243169D01*
X0021633Y0243169D01*
X0020499Y0241467D02*
X0019931Y0240900D01*
X0019364Y0240900D01*
X0018797Y0241467D01*
X0018797Y0242602D01*
X0019364Y0243169D01*
X0020499Y0263613D02*
X0020499Y0264747D01*
X0020300Y0188303D02*
X0022001Y0188303D01*
X0022569Y0187736D01*
X0022569Y0186601D01*
X0022001Y0186034D01*
X0020300Y0186034D01*
X0020300Y0184900D02*
X0020300Y0188303D01*
X0021434Y0186034D02*
X0022569Y0184900D01*
X0023983Y0184900D02*
X0026252Y0188303D01*
X0027666Y0187736D02*
X0028233Y0188303D01*
X0029368Y0188303D01*
X0029935Y0187736D01*
X0027666Y0185467D01*
X0028233Y0184900D01*
X0029368Y0184900D01*
X0029935Y0185467D01*
X0029935Y0187736D01*
X0027666Y0187736D02*
X0027666Y0185467D01*
X0026252Y0184900D02*
X0023983Y0188303D01*
X0023983Y0178303D02*
X0026252Y0174900D01*
X0027666Y0174900D02*
X0029935Y0174900D01*
X0028801Y0174900D02*
X0028801Y0178303D01*
X0027666Y0177169D01*
X0026252Y0178303D02*
X0023983Y0174900D01*
X0022569Y0178303D02*
X0020300Y0178303D01*
X0021434Y0178303D02*
X0021434Y0174900D01*
X0020867Y0168303D02*
X0020300Y0167736D01*
X0020300Y0167169D01*
X0020867Y0166601D01*
X0022001Y0166601D01*
X0022569Y0166034D01*
X0022569Y0165467D01*
X0022001Y0164900D01*
X0020867Y0164900D01*
X0020300Y0165467D01*
X0020867Y0168303D02*
X0022001Y0168303D01*
X0022569Y0167736D01*
X0023983Y0168303D02*
X0023983Y0164900D01*
X0025685Y0164900D01*
X0026252Y0165467D01*
X0026252Y0167736D01*
X0025685Y0168303D01*
X0023983Y0168303D01*
X0027666Y0167169D02*
X0027666Y0164900D01*
X0027666Y0166601D02*
X0029935Y0166601D01*
X0029935Y0167169D02*
X0029935Y0164900D01*
X0031349Y0164900D02*
X0033618Y0167169D01*
X0033618Y0167736D01*
X0033051Y0168303D01*
X0031917Y0168303D01*
X0031349Y0167736D01*
X0029935Y0167169D02*
X0028801Y0168303D01*
X0027666Y0167169D01*
X0031349Y0164900D02*
X0033618Y0164900D01*
X0033051Y0158303D02*
X0031917Y0158303D01*
X0031349Y0157736D01*
X0032484Y0156601D02*
X0033051Y0156601D01*
X0033618Y0156034D01*
X0033618Y0155467D01*
X0033051Y0154900D01*
X0031917Y0154900D01*
X0031349Y0155467D01*
X0029935Y0154900D02*
X0027666Y0154900D01*
X0027666Y0158303D01*
X0026252Y0157736D02*
X0025685Y0158303D01*
X0024550Y0158303D01*
X0023983Y0157736D01*
X0023983Y0155467D01*
X0024550Y0154900D01*
X0025685Y0154900D01*
X0026252Y0155467D01*
X0022569Y0155467D02*
X0022001Y0154900D01*
X0020867Y0154900D01*
X0020300Y0155467D01*
X0020867Y0156601D02*
X0022001Y0156601D01*
X0022569Y0156034D01*
X0022569Y0155467D01*
X0020867Y0156601D02*
X0020300Y0157169D01*
X0020300Y0157736D01*
X0020867Y0158303D01*
X0022001Y0158303D01*
X0022569Y0157736D01*
X0022001Y0148303D02*
X0020300Y0148303D01*
X0020300Y0144900D01*
X0022001Y0144900D01*
X0022569Y0145467D01*
X0022569Y0147736D01*
X0022001Y0148303D01*
X0023983Y0146601D02*
X0026252Y0146601D01*
X0025685Y0144900D02*
X0025685Y0148303D01*
X0023983Y0146601D01*
X0027666Y0148303D02*
X0028233Y0148870D01*
X0029368Y0147736D01*
X0029935Y0148303D01*
X0033051Y0156601D02*
X0033618Y0157169D01*
X0033618Y0157736D01*
X0033051Y0158303D01*
X0035033Y0157736D02*
X0037301Y0155467D01*
X0036167Y0155467D02*
X0036167Y0157736D01*
X0037301Y0157736D02*
X0035033Y0155467D01*
X0035033Y0156601D02*
X0037301Y0156601D01*
X0029935Y0137736D02*
X0027666Y0135467D01*
X0027666Y0136601D02*
X0029935Y0136601D01*
X0029935Y0135467D02*
X0027666Y0137736D01*
X0028801Y0137736D02*
X0028801Y0135467D01*
X0026252Y0135467D02*
X0026252Y0136601D01*
X0025685Y0137169D01*
X0025117Y0137169D01*
X0023983Y0136601D01*
X0023983Y0138303D01*
X0026252Y0138303D01*
X0026252Y0135467D02*
X0025685Y0134900D01*
X0024550Y0134900D01*
X0023983Y0135467D01*
X0022569Y0135467D02*
X0022569Y0137736D01*
X0022001Y0138303D01*
X0020300Y0138303D01*
X0020300Y0134900D01*
X0022001Y0134900D01*
X0022569Y0135467D01*
X0022001Y0128303D02*
X0020300Y0128303D01*
X0020300Y0124900D01*
X0022001Y0124900D01*
X0022569Y0125467D01*
X0022569Y0127736D01*
X0022001Y0128303D01*
X0023983Y0126601D02*
X0023983Y0125467D01*
X0024550Y0124900D01*
X0025685Y0124900D01*
X0026252Y0125467D01*
X0026252Y0126034D01*
X0025685Y0126601D01*
X0023983Y0126601D01*
X0025117Y0127736D01*
X0026252Y0128303D01*
X0027666Y0128303D02*
X0028233Y0128870D01*
X0029368Y0127736D01*
X0029935Y0128303D01*
X0025685Y0118303D02*
X0024550Y0118303D01*
X0023983Y0117736D01*
X0023983Y0117169D01*
X0024550Y0116601D01*
X0025685Y0116601D01*
X0026252Y0116034D01*
X0026252Y0115467D01*
X0025685Y0114900D01*
X0024550Y0114900D01*
X0023983Y0115467D01*
X0022569Y0114900D02*
X0022569Y0118303D01*
X0022569Y0116601D02*
X0020300Y0116601D01*
X0020300Y0114900D02*
X0020300Y0118303D01*
X0025685Y0118303D02*
X0026252Y0117736D01*
X0025685Y0103303D02*
X0026252Y0102736D01*
X0026252Y0102169D01*
X0025685Y0101601D01*
X0024550Y0101601D01*
X0023983Y0102169D01*
X0023983Y0102736D01*
X0024550Y0103303D01*
X0025685Y0103303D01*
X0025685Y0101601D02*
X0026252Y0101034D01*
X0026252Y0100467D01*
X0025685Y0099900D01*
X0024550Y0099900D01*
X0023983Y0100467D01*
X0023983Y0101034D01*
X0024550Y0101601D01*
X0022569Y0100467D02*
X0022569Y0102736D01*
X0022001Y0103303D01*
X0020300Y0103303D01*
X0020300Y0099900D01*
X0022001Y0099900D01*
X0022569Y0100467D01*
X0027666Y0100467D02*
X0029935Y0102736D01*
X0028801Y0102736D02*
X0028801Y0100467D01*
X0029935Y0100467D02*
X0027666Y0102736D01*
X0027666Y0101601D02*
X0029935Y0101601D01*
X0031349Y0103303D02*
X0031917Y0103870D01*
X0033051Y0102736D01*
X0033618Y0103303D01*
X0031917Y0093870D02*
X0033051Y0092736D01*
X0033618Y0093303D01*
X0031917Y0093870D02*
X0031349Y0093303D01*
X0029935Y0092736D02*
X0027666Y0090467D01*
X0027666Y0091601D02*
X0029935Y0091601D01*
X0029935Y0090467D02*
X0027666Y0092736D01*
X0028801Y0092736D02*
X0028801Y0090467D01*
X0026252Y0090467D02*
X0026252Y0092736D01*
X0025685Y0093303D01*
X0024550Y0093303D01*
X0023983Y0092736D01*
X0023983Y0092169D01*
X0024550Y0091601D01*
X0026252Y0091601D01*
X0026252Y0090467D02*
X0025685Y0089900D01*
X0024550Y0089900D01*
X0023983Y0090467D01*
X0022569Y0090467D02*
X0022569Y0092736D01*
X0022001Y0093303D01*
X0020300Y0093303D01*
X0020300Y0089900D01*
X0022001Y0089900D01*
X0022569Y0090467D01*
X0022001Y0083303D02*
X0020300Y0083303D01*
X0020300Y0079900D01*
X0022001Y0079900D01*
X0022569Y0080467D01*
X0022569Y0082736D01*
X0022001Y0083303D01*
X0023983Y0082169D02*
X0025117Y0083303D01*
X0025117Y0079900D01*
X0023983Y0079900D02*
X0026252Y0079900D01*
X0027666Y0080467D02*
X0029935Y0082736D01*
X0029935Y0080467D01*
X0029368Y0079900D01*
X0028233Y0079900D01*
X0027666Y0080467D01*
X0027666Y0082736D01*
X0028233Y0083303D01*
X0029368Y0083303D01*
X0029935Y0082736D01*
X0031349Y0082736D02*
X0033618Y0080467D01*
X0032484Y0080467D02*
X0032484Y0082736D01*
X0033618Y0082736D02*
X0031349Y0080467D01*
X0031349Y0081601D02*
X0033618Y0081601D01*
X0035033Y0083303D02*
X0035600Y0083870D01*
X0036734Y0082736D01*
X0037301Y0083303D01*
X0028801Y0073303D02*
X0028801Y0069900D01*
X0029935Y0069900D02*
X0027666Y0069900D01*
X0026252Y0069900D02*
X0023983Y0069900D01*
X0025117Y0069900D02*
X0025117Y0073303D01*
X0023983Y0072169D01*
X0022569Y0072736D02*
X0022569Y0070467D01*
X0022001Y0069900D01*
X0020300Y0069900D01*
X0020300Y0073303D01*
X0022001Y0073303D01*
X0022569Y0072736D01*
X0027666Y0072169D02*
X0028801Y0073303D01*
X0031917Y0063870D02*
X0033051Y0062736D01*
X0033618Y0063303D01*
X0031917Y0063870D02*
X0031349Y0063303D01*
X0029935Y0062736D02*
X0029368Y0063303D01*
X0028233Y0063303D01*
X0027666Y0062736D01*
X0029935Y0062736D02*
X0029935Y0062169D01*
X0027666Y0059900D01*
X0029935Y0059900D01*
X0026252Y0059900D02*
X0023983Y0059900D01*
X0025117Y0059900D02*
X0025117Y0063303D01*
X0023983Y0062169D01*
X0022569Y0062736D02*
X0022569Y0060467D01*
X0022001Y0059900D01*
X0020300Y0059900D01*
X0020300Y0063303D01*
X0022001Y0063303D01*
X0022569Y0062736D01*
X0022001Y0053303D02*
X0020300Y0053303D01*
X0020300Y0049900D01*
X0022001Y0049900D01*
X0022569Y0050467D01*
X0022569Y0052736D01*
X0022001Y0053303D01*
X0023983Y0052169D02*
X0025117Y0053303D01*
X0025117Y0049900D01*
X0023983Y0049900D02*
X0026252Y0049900D01*
X0027666Y0050467D02*
X0028233Y0049900D01*
X0029368Y0049900D01*
X0029935Y0050467D01*
X0029935Y0051034D01*
X0029368Y0051601D01*
X0028801Y0051601D01*
X0029368Y0051601D02*
X0029935Y0052169D01*
X0029935Y0052736D01*
X0029368Y0053303D01*
X0028233Y0053303D01*
X0027666Y0052736D01*
X0031349Y0052736D02*
X0033618Y0050467D01*
X0032484Y0050467D02*
X0032484Y0052736D01*
X0033618Y0052736D02*
X0031349Y0050467D01*
X0031349Y0051601D02*
X0033618Y0051601D01*
X0038716Y0049900D02*
X0040984Y0049900D01*
X0038716Y0049900D02*
X0038716Y0053303D01*
X0029368Y0043303D02*
X0029935Y0042736D01*
X0029935Y0040467D01*
X0029368Y0039900D01*
X0027666Y0039900D01*
X0027666Y0043303D01*
X0029368Y0043303D01*
X0026252Y0043303D02*
X0026252Y0039900D01*
X0023983Y0043303D01*
X0023983Y0039900D01*
X0022569Y0040467D02*
X0022569Y0041601D01*
X0021434Y0041601D01*
X0020300Y0040467D02*
X0020867Y0039900D01*
X0022001Y0039900D01*
X0022569Y0040467D01*
X0022569Y0042736D02*
X0022001Y0043303D01*
X0020867Y0043303D01*
X0020300Y0042736D01*
X0020300Y0040467D01*
X0021434Y0033303D02*
X0022569Y0032169D01*
X0022569Y0029900D01*
X0023983Y0029900D02*
X0023983Y0032169D01*
X0025117Y0032169D02*
X0025685Y0032169D01*
X0025117Y0032169D02*
X0023983Y0031034D01*
X0022569Y0031601D02*
X0020300Y0031601D01*
X0020300Y0032169D02*
X0021434Y0033303D01*
X0020300Y0032169D02*
X0020300Y0029900D01*
X0020867Y0023303D02*
X0020300Y0022736D01*
X0020300Y0022169D01*
X0020867Y0021601D01*
X0022001Y0021601D01*
X0022569Y0021034D01*
X0022569Y0020467D01*
X0022001Y0019900D01*
X0020867Y0019900D01*
X0020300Y0020467D01*
X0020867Y0023303D02*
X0022001Y0023303D01*
X0022569Y0022736D01*
X0023983Y0023303D02*
X0023983Y0019900D01*
X0025685Y0019900D01*
X0026252Y0020467D01*
X0026252Y0022736D01*
X0025685Y0023303D01*
X0023983Y0023303D01*
X0027666Y0022169D02*
X0027666Y0019900D01*
X0027666Y0021601D02*
X0029935Y0021601D01*
X0029935Y0022169D02*
X0029935Y0019900D01*
X0029935Y0022169D02*
X0028801Y0023303D01*
X0027666Y0022169D01*
X0027620Y0029900D02*
X0027052Y0030467D01*
X0027052Y0031601D01*
X0027620Y0032169D01*
X0028754Y0032169D01*
X0029321Y0031601D01*
X0029321Y0031034D01*
X0027052Y0031034D01*
X0027620Y0029900D02*
X0028754Y0029900D01*
X0031303Y0029900D02*
X0031303Y0032736D01*
X0031870Y0033303D01*
X0031870Y0031601D02*
X0030736Y0031601D01*
X0027666Y0013303D02*
X0027666Y0009900D01*
X0029935Y0009900D01*
X0026252Y0010467D02*
X0025685Y0009900D01*
X0024550Y0009900D01*
X0023983Y0010467D01*
X0023983Y0012736D01*
X0024550Y0013303D01*
X0025685Y0013303D01*
X0026252Y0012736D01*
X0022569Y0012736D02*
X0022001Y0013303D01*
X0020867Y0013303D01*
X0020300Y0012736D01*
X0020300Y0012169D01*
X0020867Y0011601D01*
X0022001Y0011601D01*
X0022569Y0011034D01*
X0022569Y0010467D01*
X0022001Y0009900D01*
X0020867Y0009900D01*
X0020300Y0010467D01*
X0124400Y0054000D02*
X0135600Y0054000D01*
X0135600Y0059200D01*
X0124400Y0059200D01*
X0124400Y0054000D01*
X0183254Y0064900D02*
X0184388Y0064900D01*
X0183821Y0064900D02*
X0183821Y0068303D01*
X0183254Y0068303D02*
X0184388Y0068303D01*
X0185709Y0067736D02*
X0185709Y0065467D01*
X0186276Y0064900D01*
X0187410Y0064900D01*
X0187978Y0065467D01*
X0187978Y0067736D01*
X0187410Y0068303D01*
X0186276Y0068303D01*
X0185709Y0067736D01*
X0189392Y0067169D02*
X0189392Y0064900D01*
X0189392Y0066034D02*
X0190526Y0067169D01*
X0191094Y0067169D01*
X0192461Y0066601D02*
X0193029Y0067169D01*
X0194163Y0067169D01*
X0194730Y0066601D01*
X0194730Y0066034D01*
X0192461Y0066034D01*
X0192461Y0065467D02*
X0192461Y0066601D01*
X0192461Y0065467D02*
X0193029Y0064900D01*
X0194163Y0064900D01*
X0196712Y0064900D02*
X0196712Y0067736D01*
X0197279Y0068303D01*
X0197279Y0066601D02*
X0196145Y0066601D01*
X0196618Y0074900D02*
X0195484Y0074900D01*
X0194917Y0075467D01*
X0193502Y0076034D02*
X0193502Y0078303D01*
X0194917Y0077736D02*
X0195484Y0078303D01*
X0196618Y0078303D01*
X0197185Y0077736D01*
X0197185Y0077169D01*
X0196618Y0076601D01*
X0197185Y0076034D01*
X0197185Y0075467D01*
X0196618Y0074900D01*
X0196618Y0076601D02*
X0196051Y0076601D01*
X0193502Y0076034D02*
X0192368Y0074900D01*
X0191234Y0076034D01*
X0191234Y0078303D01*
X0189819Y0077736D02*
X0189819Y0077169D01*
X0189252Y0076601D01*
X0189819Y0076034D01*
X0189819Y0075467D01*
X0189252Y0074900D01*
X0188118Y0074900D01*
X0187551Y0075467D01*
X0188685Y0076601D02*
X0189252Y0076601D01*
X0189819Y0077736D02*
X0189252Y0078303D01*
X0188118Y0078303D01*
X0187551Y0077736D01*
X0191801Y0084900D02*
X0191234Y0085467D01*
X0191801Y0084900D02*
X0192935Y0084900D01*
X0193502Y0085467D01*
X0193502Y0086601D01*
X0192935Y0087169D01*
X0192368Y0087169D01*
X0191234Y0086601D01*
X0191234Y0088303D01*
X0193502Y0088303D01*
X0194917Y0088303D02*
X0194917Y0086034D01*
X0196051Y0084900D01*
X0197185Y0086034D01*
X0197185Y0088303D01*
X0196618Y0094900D02*
X0194917Y0094900D01*
X0194917Y0098303D01*
X0196618Y0098303D01*
X0197185Y0097736D01*
X0197185Y0095467D01*
X0196618Y0094900D01*
X0193502Y0094900D02*
X0193502Y0098303D01*
X0191234Y0098303D02*
X0191234Y0094900D01*
X0189819Y0095467D02*
X0189819Y0096601D01*
X0188685Y0096601D01*
X0189819Y0095467D02*
X0189252Y0094900D01*
X0188118Y0094900D01*
X0187551Y0095467D01*
X0187551Y0097736D01*
X0188118Y0098303D01*
X0189252Y0098303D01*
X0189819Y0097736D01*
X0191234Y0098303D02*
X0193502Y0094900D01*
X0193502Y0104900D02*
X0193502Y0108303D01*
X0194917Y0108303D02*
X0196618Y0108303D01*
X0197185Y0107736D01*
X0197185Y0105467D01*
X0196618Y0104900D01*
X0194917Y0104900D01*
X0194917Y0108303D01*
X0191234Y0108303D02*
X0191234Y0104900D01*
X0189819Y0105467D02*
X0189819Y0106601D01*
X0188685Y0106601D01*
X0189819Y0105467D02*
X0189252Y0104900D01*
X0188118Y0104900D01*
X0187551Y0105467D01*
X0187551Y0107736D01*
X0188118Y0108303D01*
X0189252Y0108303D01*
X0189819Y0107736D01*
X0191234Y0108303D02*
X0193502Y0104900D01*
X0193596Y0114900D02*
X0192461Y0114900D01*
X0193029Y0114900D02*
X0193029Y0117169D01*
X0192461Y0117169D01*
X0193029Y0118303D02*
X0193029Y0118870D01*
X0191047Y0118303D02*
X0191047Y0116034D01*
X0189913Y0114900D01*
X0188778Y0116034D01*
X0188778Y0118303D01*
X0194917Y0117169D02*
X0194917Y0114900D01*
X0194917Y0117169D02*
X0196618Y0117169D01*
X0197185Y0116601D01*
X0197185Y0114900D01*
X0196618Y0134900D02*
X0195484Y0134900D01*
X0194917Y0135467D01*
X0197185Y0137736D01*
X0197185Y0135467D01*
X0196618Y0134900D01*
X0194917Y0135467D02*
X0194917Y0137736D01*
X0195484Y0138303D01*
X0196618Y0138303D01*
X0197185Y0137736D01*
X0193502Y0137169D02*
X0193502Y0134900D01*
X0193502Y0136601D02*
X0191234Y0136601D01*
X0191234Y0137169D02*
X0192368Y0138303D01*
X0193502Y0137169D01*
X0191234Y0137169D02*
X0191234Y0134900D01*
X0191234Y0144900D02*
X0191234Y0147169D01*
X0192368Y0148303D01*
X0193502Y0147169D01*
X0193502Y0144900D01*
X0194917Y0144900D02*
X0197185Y0144900D01*
X0196051Y0144900D02*
X0196051Y0148303D01*
X0194917Y0147169D01*
X0193502Y0146601D02*
X0191234Y0146601D01*
X0191234Y0154900D02*
X0191234Y0157169D01*
X0192368Y0158303D01*
X0193502Y0157169D01*
X0193502Y0154900D01*
X0194917Y0154900D02*
X0197185Y0157169D01*
X0197185Y0157736D01*
X0196618Y0158303D01*
X0195484Y0158303D01*
X0194917Y0157736D01*
X0193502Y0156601D02*
X0191234Y0156601D01*
X0194917Y0154900D02*
X0197185Y0154900D01*
X0196618Y0164900D02*
X0195484Y0164900D01*
X0194917Y0165467D01*
X0193502Y0164900D02*
X0193502Y0167169D01*
X0192368Y0168303D01*
X0191234Y0167169D01*
X0191234Y0164900D01*
X0191234Y0166601D02*
X0193502Y0166601D01*
X0194917Y0167736D02*
X0195484Y0168303D01*
X0196618Y0168303D01*
X0197185Y0167736D01*
X0197185Y0167169D01*
X0196618Y0166601D01*
X0197185Y0166034D01*
X0197185Y0165467D01*
X0196618Y0164900D01*
X0196618Y0166601D02*
X0196051Y0166601D01*
X0196618Y0174900D02*
X0196618Y0178303D01*
X0194917Y0176601D01*
X0197185Y0176601D01*
X0193502Y0176601D02*
X0191234Y0176601D01*
X0191234Y0177169D02*
X0192368Y0178303D01*
X0193502Y0177169D01*
X0193502Y0174900D01*
X0191234Y0174900D02*
X0191234Y0177169D01*
X0191234Y0184900D02*
X0191234Y0187169D01*
X0192368Y0188303D01*
X0193502Y0187169D01*
X0193502Y0184900D01*
X0194917Y0185467D02*
X0195484Y0184900D01*
X0196618Y0184900D01*
X0197185Y0185467D01*
X0197185Y0186601D01*
X0196618Y0187169D01*
X0196051Y0187169D01*
X0194917Y0186601D01*
X0194917Y0188303D01*
X0197185Y0188303D01*
X0193502Y0186601D02*
X0191234Y0186601D01*
X0193900Y0209100D02*
X0193900Y0214100D01*
X0198700Y0208100D02*
X0201300Y0208100D01*
X0206100Y0209100D02*
X0206100Y0210400D01*
X0206100Y0212800D01*
X0206100Y0214100D01*
X0102600Y0211000D02*
X0097400Y0211000D01*
X0097400Y0222200D01*
X0102600Y0222200D01*
X0102600Y0211000D01*
X0102600Y0236000D02*
X0097400Y0236000D01*
X0097400Y0247200D01*
X0102600Y0247200D01*
X0102600Y0236000D01*
X0102600Y0261000D02*
X0097400Y0261000D01*
X0097400Y0272200D01*
X0102600Y0272200D01*
X0102600Y0261000D01*
X0188778Y0058303D02*
X0190480Y0058303D01*
X0191047Y0057736D01*
X0191047Y0056601D01*
X0190480Y0056034D01*
X0188778Y0056034D01*
X0188778Y0054900D02*
X0188778Y0058303D01*
X0189913Y0056034D02*
X0191047Y0054900D01*
X0192461Y0054900D02*
X0194163Y0054900D01*
X0194730Y0055467D01*
X0194163Y0056034D01*
X0193029Y0056034D01*
X0192461Y0056601D01*
X0193029Y0057169D01*
X0194730Y0057169D01*
X0196145Y0057169D02*
X0197279Y0057169D01*
X0196712Y0057736D02*
X0196712Y0055467D01*
X0197279Y0054900D01*
X0196618Y0048303D02*
X0195484Y0048303D01*
X0194917Y0047736D01*
X0194917Y0045467D01*
X0195484Y0044900D01*
X0196618Y0044900D01*
X0197185Y0045467D01*
X0197185Y0047736D02*
X0196618Y0048303D01*
X0193502Y0048303D02*
X0193502Y0044900D01*
X0191234Y0048303D01*
X0191234Y0044900D01*
D17*
X0157000Y0031600D02*
X0153000Y0031600D01*
X0153000Y0071600D01*
X0157000Y0071600D01*
X0157000Y0031600D01*
X0153000Y0031600D02*
X0143500Y0031600D01*
X0143385Y0031599D01*
X0143270Y0031602D01*
X0143155Y0031609D01*
X0143040Y0031620D01*
X0142926Y0031635D01*
X0142812Y0031653D01*
X0142699Y0031675D01*
X0142586Y0031701D01*
X0142475Y0031731D01*
X0142365Y0031765D01*
X0142255Y0031802D01*
X0142148Y0031843D01*
X0142041Y0031888D01*
X0141937Y0031936D01*
X0141833Y0031988D01*
X0141732Y0032043D01*
X0141633Y0032102D01*
X0141535Y0032163D01*
X0141440Y0032229D01*
X0141347Y0032297D01*
X0141257Y0032368D01*
X0141169Y0032443D01*
X0141083Y0032520D01*
X0141000Y0032600D01*
X0140920Y0032683D01*
X0140843Y0032769D01*
X0140768Y0032857D01*
X0140697Y0032947D01*
X0140629Y0033040D01*
X0140563Y0033135D01*
X0140502Y0033233D01*
X0140443Y0033332D01*
X0140388Y0033433D01*
X0140336Y0033537D01*
X0140288Y0033641D01*
X0140243Y0033748D01*
X0140202Y0033855D01*
X0140165Y0033965D01*
X0140131Y0034075D01*
X0140101Y0034186D01*
X0140075Y0034299D01*
X0140053Y0034412D01*
X0140035Y0034526D01*
X0140020Y0034640D01*
X0140009Y0034755D01*
X0140002Y0034870D01*
X0139999Y0034985D01*
X0140000Y0035100D01*
X0140000Y0036600D01*
X0140000Y0066600D02*
X0140000Y0068100D01*
X0139999Y0068215D01*
X0140002Y0068330D01*
X0140009Y0068445D01*
X0140020Y0068560D01*
X0140035Y0068674D01*
X0140053Y0068788D01*
X0140075Y0068901D01*
X0140101Y0069014D01*
X0140131Y0069125D01*
X0140165Y0069235D01*
X0140202Y0069345D01*
X0140243Y0069452D01*
X0140288Y0069559D01*
X0140336Y0069663D01*
X0140388Y0069767D01*
X0140443Y0069868D01*
X0140502Y0069967D01*
X0140563Y0070065D01*
X0140629Y0070160D01*
X0140697Y0070253D01*
X0140768Y0070343D01*
X0140843Y0070431D01*
X0140920Y0070517D01*
X0141000Y0070600D01*
X0141083Y0070680D01*
X0141169Y0070757D01*
X0141257Y0070832D01*
X0141347Y0070903D01*
X0141440Y0070971D01*
X0141535Y0071037D01*
X0141633Y0071098D01*
X0141732Y0071157D01*
X0141833Y0071212D01*
X0141937Y0071264D01*
X0142041Y0071312D01*
X0142148Y0071357D01*
X0142255Y0071398D01*
X0142365Y0071435D01*
X0142475Y0071469D01*
X0142586Y0071499D01*
X0142699Y0071525D01*
X0142812Y0071547D01*
X0142926Y0071565D01*
X0143040Y0071580D01*
X0143155Y0071591D01*
X0143270Y0071598D01*
X0143385Y0071601D01*
X0143500Y0071600D01*
X0153000Y0071600D01*
X0133937Y0118726D02*
X0126063Y0118726D01*
X0126063Y0118725D02*
X0125914Y0118738D01*
X0125766Y0118754D01*
X0125617Y0118774D01*
X0125470Y0118798D01*
X0125323Y0118826D01*
X0125177Y0118857D01*
X0125032Y0118893D01*
X0124888Y0118932D01*
X0124744Y0118976D01*
X0124603Y0119023D01*
X0124462Y0119073D01*
X0124323Y0119128D01*
X0124185Y0119186D01*
X0124049Y0119247D01*
X0123914Y0119312D01*
X0123781Y0119381D01*
X0123651Y0119453D01*
X0123522Y0119529D01*
X0123395Y0119608D01*
X0123270Y0119690D01*
X0123147Y0119776D01*
X0123027Y0119865D01*
X0122909Y0119957D01*
X0122794Y0120052D01*
X0122681Y0120150D01*
X0122571Y0120251D01*
X0122463Y0120355D01*
X0122359Y0120462D01*
X0122257Y0120571D01*
X0122158Y0120683D01*
X0122062Y0120798D01*
X0121969Y0120915D01*
X0121879Y0121034D01*
X0121793Y0121156D01*
X0121709Y0121280D01*
X0121629Y0121406D01*
X0121553Y0121535D01*
X0121479Y0121665D01*
X0121410Y0121797D01*
X0121343Y0121931D01*
X0121281Y0122067D01*
X0121222Y0122204D01*
X0121166Y0122343D01*
X0121114Y0122483D01*
X0121066Y0122625D01*
X0121022Y0122768D01*
X0120981Y0122911D01*
X0120945Y0123056D01*
X0120945Y0130143D02*
X0120981Y0130288D01*
X0121022Y0130432D01*
X0121066Y0130574D01*
X0121114Y0130716D01*
X0121166Y0130856D01*
X0121222Y0130995D01*
X0121281Y0131132D01*
X0121343Y0131268D01*
X0121410Y0131402D01*
X0121480Y0131534D01*
X0121553Y0131664D01*
X0121629Y0131793D01*
X0121710Y0131919D01*
X0121793Y0132043D01*
X0121879Y0132165D01*
X0121969Y0132284D01*
X0122062Y0132401D01*
X0122158Y0132516D01*
X0122257Y0132628D01*
X0122359Y0132737D01*
X0122464Y0132844D01*
X0122571Y0132948D01*
X0122681Y0133049D01*
X0122794Y0133147D01*
X0122909Y0133242D01*
X0123027Y0133334D01*
X0123147Y0133423D01*
X0123270Y0133508D01*
X0123395Y0133591D01*
X0123522Y0133670D01*
X0123651Y0133746D01*
X0123781Y0133818D01*
X0123914Y0133886D01*
X0124049Y0133952D01*
X0124185Y0134013D01*
X0124323Y0134071D01*
X0124462Y0134126D01*
X0124602Y0134176D01*
X0124744Y0134223D01*
X0124887Y0134267D01*
X0125032Y0134306D01*
X0125177Y0134342D01*
X0125323Y0134373D01*
X0125470Y0134401D01*
X0125617Y0134425D01*
X0125765Y0134445D01*
X0125914Y0134461D01*
X0126063Y0134474D01*
X0133937Y0134474D01*
X0133937Y0134475D02*
X0134086Y0134462D01*
X0134234Y0134446D01*
X0134383Y0134426D01*
X0134530Y0134402D01*
X0134677Y0134374D01*
X0134823Y0134343D01*
X0134968Y0134307D01*
X0135112Y0134268D01*
X0135256Y0134224D01*
X0135397Y0134177D01*
X0135538Y0134127D01*
X0135677Y0134072D01*
X0135815Y0134014D01*
X0135951Y0133953D01*
X0136086Y0133888D01*
X0136219Y0133819D01*
X0136349Y0133747D01*
X0136478Y0133671D01*
X0136605Y0133592D01*
X0136730Y0133510D01*
X0136853Y0133424D01*
X0136973Y0133335D01*
X0137091Y0133243D01*
X0137206Y0133148D01*
X0137319Y0133050D01*
X0137429Y0132949D01*
X0137537Y0132845D01*
X0137641Y0132738D01*
X0137743Y0132629D01*
X0137842Y0132517D01*
X0137938Y0132402D01*
X0138031Y0132285D01*
X0138121Y0132166D01*
X0138207Y0132044D01*
X0138291Y0131920D01*
X0138371Y0131794D01*
X0138447Y0131665D01*
X0138521Y0131535D01*
X0138590Y0131403D01*
X0138657Y0131269D01*
X0138719Y0131133D01*
X0138778Y0130996D01*
X0138834Y0130857D01*
X0138886Y0130717D01*
X0138934Y0130575D01*
X0138978Y0130432D01*
X0139019Y0130289D01*
X0139055Y0130144D01*
X0139055Y0123057D02*
X0139019Y0122912D01*
X0138978Y0122768D01*
X0138934Y0122626D01*
X0138886Y0122484D01*
X0138834Y0122344D01*
X0138778Y0122205D01*
X0138719Y0122068D01*
X0138657Y0121932D01*
X0138590Y0121798D01*
X0138520Y0121666D01*
X0138447Y0121536D01*
X0138371Y0121407D01*
X0138290Y0121281D01*
X0138207Y0121157D01*
X0138121Y0121035D01*
X0138031Y0120916D01*
X0137938Y0120799D01*
X0137842Y0120684D01*
X0137743Y0120572D01*
X0137641Y0120463D01*
X0137536Y0120356D01*
X0137429Y0120252D01*
X0137319Y0120151D01*
X0137206Y0120053D01*
X0137091Y0119958D01*
X0136973Y0119866D01*
X0136853Y0119777D01*
X0136730Y0119692D01*
X0136605Y0119609D01*
X0136478Y0119530D01*
X0136349Y0119454D01*
X0136219Y0119382D01*
X0136086Y0119314D01*
X0135951Y0119248D01*
X0135815Y0119187D01*
X0135677Y0119129D01*
X0135538Y0119074D01*
X0135398Y0119024D01*
X0135256Y0118977D01*
X0135113Y0118933D01*
X0134968Y0118894D01*
X0134823Y0118858D01*
X0134677Y0118827D01*
X0134530Y0118799D01*
X0134383Y0118775D01*
X0134235Y0118755D01*
X0134086Y0118739D01*
X0133937Y0118726D01*
X0147500Y0141600D02*
X0152500Y0141600D01*
X0155000Y0144100D01*
X0157500Y0141600D01*
X0162500Y0141600D01*
X0165000Y0144100D01*
X0167500Y0141600D01*
X0172500Y0141600D01*
X0175000Y0144100D01*
X0177500Y0141600D01*
X0182500Y0141600D01*
X0185000Y0144100D01*
X0185000Y0149100D01*
X0182500Y0151600D01*
X0177500Y0151600D01*
X0175000Y0149100D01*
X0172500Y0151600D01*
X0167500Y0151600D01*
X0165000Y0149100D01*
X0162500Y0151600D01*
X0157500Y0151600D01*
X0155000Y0149100D01*
X0152500Y0151600D01*
X0147500Y0151600D01*
X0145000Y0149100D01*
X0145000Y0144100D01*
X0147500Y0141600D01*
X0157500Y0156600D02*
X0162500Y0156600D01*
X0165000Y0159100D01*
X0167500Y0156600D01*
X0172500Y0156600D01*
X0175000Y0159100D01*
X0177500Y0156600D01*
X0182500Y0156600D01*
X0185000Y0159100D01*
X0185000Y0164100D01*
X0182500Y0166600D01*
X0177500Y0166600D01*
X0175000Y0164100D01*
X0172500Y0166600D01*
X0167500Y0166600D01*
X0165000Y0164100D01*
X0162500Y0166600D01*
X0157500Y0166600D01*
X0155000Y0164100D01*
X0155000Y0159100D01*
X0157500Y0156600D01*
X0157500Y0171600D02*
X0162500Y0171600D01*
X0165000Y0174100D01*
X0167500Y0171600D01*
X0172500Y0171600D01*
X0175000Y0174100D01*
X0177500Y0171600D01*
X0182500Y0171600D01*
X0185000Y0174100D01*
X0185000Y0179100D01*
X0182500Y0181600D01*
X0177500Y0181600D01*
X0175000Y0179100D01*
X0172500Y0181600D01*
X0167500Y0181600D01*
X0165000Y0179100D01*
X0162500Y0181600D01*
X0157500Y0181600D01*
X0155000Y0179100D01*
X0155000Y0174100D01*
X0157500Y0171600D01*
X0148228Y0196600D02*
X0051772Y0196600D01*
X0051772Y0199553D01*
X0061614Y0199553D01*
X0061614Y0201718D01*
X0051772Y0201718D02*
X0051772Y0199553D01*
X0052500Y0169100D02*
X0050000Y0166600D01*
X0050000Y0161600D01*
X0052500Y0159100D01*
X0050000Y0156600D01*
X0050000Y0151600D01*
X0052500Y0149100D01*
X0050000Y0146600D01*
X0050000Y0141600D01*
X0052500Y0139100D01*
X0050000Y0136600D01*
X0050000Y0131600D01*
X0052500Y0129100D01*
X0057500Y0129100D01*
X0060000Y0131600D01*
X0060000Y0136600D01*
X0057500Y0139100D01*
X0060000Y0141600D01*
X0060000Y0146600D01*
X0057500Y0149100D01*
X0060000Y0151600D01*
X0060000Y0156600D01*
X0057500Y0159100D01*
X0060000Y0161600D01*
X0060000Y0166600D01*
X0057500Y0169100D01*
X0052500Y0169100D01*
X0075000Y0164100D02*
X0075000Y0159100D01*
X0077500Y0156600D01*
X0082500Y0156600D01*
X0085000Y0159100D01*
X0087500Y0156600D01*
X0092500Y0156600D01*
X0095000Y0159100D01*
X0097500Y0156600D01*
X0102500Y0156600D01*
X0105000Y0159100D01*
X0107500Y0156600D01*
X0112500Y0156600D01*
X0115000Y0159100D01*
X0117500Y0156600D01*
X0122500Y0156600D01*
X0125000Y0159100D01*
X0127500Y0156600D01*
X0132500Y0156600D01*
X0135000Y0159100D01*
X0135000Y0164100D01*
X0132500Y0166600D01*
X0127500Y0166600D01*
X0125000Y0164100D01*
X0122500Y0166600D01*
X0117500Y0166600D01*
X0115000Y0164100D01*
X0112500Y0166600D01*
X0107500Y0166600D01*
X0105000Y0164100D01*
X0102500Y0166600D01*
X0097500Y0166600D01*
X0095000Y0164100D01*
X0092500Y0166600D01*
X0087500Y0166600D01*
X0085000Y0164100D01*
X0082500Y0166600D01*
X0077500Y0166600D01*
X0075000Y0164100D01*
X0092500Y0181600D02*
X0090000Y0184100D01*
X0090000Y0199100D01*
X0092500Y0201600D01*
X0097500Y0201600D01*
X0100000Y0199100D01*
X0100000Y0184100D01*
X0102500Y0181600D01*
X0107500Y0181600D01*
X0110000Y0184100D01*
X0110000Y0199100D01*
X0112500Y0201600D01*
X0117500Y0201600D01*
X0120000Y0199100D01*
X0120000Y0184100D01*
X0117500Y0181600D01*
X0112500Y0181600D01*
X0110000Y0184100D01*
X0100000Y0184100D02*
X0097500Y0181600D01*
X0092500Y0181600D01*
X0092500Y0180281D02*
X0097500Y0180281D01*
X0100000Y0199100D02*
X0102500Y0201600D01*
X0107500Y0201600D01*
X0110000Y0199100D01*
X0138386Y0199553D02*
X0148228Y0199553D01*
X0148228Y0201718D01*
X0148228Y0199553D02*
X0148228Y0196600D01*
X0138386Y0199553D02*
X0138386Y0201718D01*
X0164548Y0197600D02*
X0166127Y0197600D01*
X0166754Y0203100D02*
X0183246Y0203100D01*
X0183873Y0197600D02*
X0185452Y0197600D01*
X0176127Y0197600D02*
X0173873Y0197600D01*
X0161378Y0242072D02*
X0161378Y0246009D01*
X0161378Y0242072D02*
X0208622Y0242072D01*
X0208622Y0246009D01*
X0208622Y0257820D02*
X0208622Y0285380D01*
X0161378Y0285380D01*
X0161378Y0257820D01*
X0148228Y0277702D02*
X0148228Y0280261D01*
X0138386Y0280261D01*
X0138386Y0277702D01*
X0148228Y0280261D02*
X0119685Y0305261D01*
X0080315Y0305261D01*
X0051772Y0280261D01*
X0051772Y0277702D01*
X0051772Y0280261D02*
X0061614Y0280261D01*
X0061614Y0277702D01*
X0013100Y0278379D02*
X0012399Y0277678D01*
X0010998Y0277678D01*
X0010298Y0278379D01*
X0010298Y0279780D01*
X0010998Y0280481D01*
X0012399Y0280481D01*
X0013100Y0279780D01*
X0013100Y0278379D01*
X0013100Y0275877D02*
X0008896Y0275877D01*
X0010298Y0274476D01*
X0008896Y0273074D01*
X0013100Y0273074D01*
X0013100Y0266802D02*
X0013100Y0265401D01*
X0013100Y0266102D02*
X0008896Y0266102D01*
X0008896Y0265401D01*
X0010298Y0263666D02*
X0010298Y0262966D01*
X0011699Y0261565D01*
X0013100Y0261565D02*
X0010298Y0261565D01*
X0010998Y0259763D02*
X0010298Y0259062D01*
X0010298Y0257661D01*
X0011699Y0257661D02*
X0011699Y0259763D01*
X0010998Y0259763D02*
X0013100Y0259763D01*
X0013100Y0257661D01*
X0012399Y0256961D01*
X0011699Y0257661D01*
X0013100Y0255159D02*
X0010998Y0253057D01*
X0011699Y0252357D02*
X0008896Y0255159D01*
X0008896Y0252357D02*
X0013100Y0252357D01*
X0013100Y0282282D02*
X0008896Y0282282D01*
X0010298Y0282983D02*
X0010298Y0284384D01*
X0010998Y0285085D01*
X0013100Y0285085D01*
X0013100Y0286886D02*
X0010298Y0286886D01*
X0011699Y0286886D02*
X0010298Y0288287D01*
X0010298Y0288988D01*
X0010298Y0290723D02*
X0010298Y0291423D01*
X0013100Y0291423D01*
X0013100Y0290723D02*
X0013100Y0292124D01*
X0013100Y0293792D02*
X0010298Y0293792D01*
X0010298Y0295894D01*
X0010998Y0296594D01*
X0013100Y0296594D01*
X0012399Y0298396D02*
X0013100Y0299097D01*
X0013100Y0301198D01*
X0013801Y0301198D02*
X0010298Y0301198D01*
X0010298Y0299097D01*
X0010998Y0298396D01*
X0012399Y0298396D01*
X0014501Y0299797D02*
X0014501Y0300498D01*
X0013801Y0301198D01*
X0008896Y0291423D02*
X0008196Y0291423D01*
X0010298Y0282983D02*
X0010998Y0282282D01*
X0042500Y0116600D02*
X0040000Y0114100D01*
X0040000Y0109100D01*
X0042500Y0106600D01*
X0047500Y0106600D01*
X0050000Y0109100D01*
X0052500Y0106600D01*
X0057500Y0106600D01*
X0060000Y0109100D01*
X0062500Y0106600D01*
X0067500Y0106600D01*
X0070000Y0109100D01*
X0070000Y0114100D01*
X0067500Y0116600D01*
X0062500Y0116600D01*
X0060000Y0114100D01*
X0057500Y0116600D01*
X0052500Y0116600D01*
X0050000Y0114100D01*
X0047500Y0116600D01*
X0042500Y0116600D01*
X0052500Y0101600D02*
X0050000Y0099100D01*
X0050000Y0094100D01*
X0052500Y0091600D01*
X0057500Y0091600D01*
X0060000Y0094100D01*
X0062500Y0091600D01*
X0067500Y0091600D01*
X0070000Y0094100D01*
X0072500Y0091600D01*
X0077500Y0091600D01*
X0080000Y0094100D01*
X0082500Y0091600D01*
X0087500Y0091600D01*
X0090000Y0094100D01*
X0092500Y0091600D01*
X0097500Y0091600D01*
X0100000Y0094100D01*
X0102500Y0091600D01*
X0107500Y0091600D01*
X0110000Y0094100D01*
X0110000Y0099100D01*
X0107500Y0101600D01*
X0102500Y0101600D01*
X0100000Y0099100D01*
X0097500Y0101600D01*
X0092500Y0101600D01*
X0090000Y0099100D01*
X0087500Y0101600D01*
X0082500Y0101600D01*
X0080000Y0099100D01*
X0077500Y0101600D01*
X0072500Y0101600D01*
X0070000Y0099100D01*
X0067500Y0101600D01*
X0062500Y0101600D01*
X0060000Y0099100D01*
X0057500Y0101600D01*
X0052500Y0101600D01*
X0052500Y0074100D02*
X0050000Y0071600D01*
X0050000Y0066600D01*
X0052500Y0064100D01*
X0057500Y0064100D01*
X0060000Y0066600D01*
X0062500Y0064100D01*
X0067500Y0064100D01*
X0070000Y0066600D01*
X0072500Y0064100D01*
X0077500Y0064100D01*
X0080000Y0066600D01*
X0082500Y0064100D01*
X0087500Y0064100D01*
X0090000Y0066600D01*
X0090000Y0071600D01*
X0087500Y0074100D01*
X0082500Y0074100D01*
X0080000Y0071600D01*
X0077500Y0074100D01*
X0072500Y0074100D01*
X0070000Y0071600D01*
X0067500Y0074100D01*
X0062500Y0074100D01*
X0060000Y0071600D01*
X0057500Y0074100D01*
X0052500Y0074100D01*
X0052500Y0061600D02*
X0050000Y0059100D01*
X0050000Y0054100D01*
X0052500Y0051600D01*
X0057500Y0051600D01*
X0060000Y0054100D01*
X0062500Y0051600D01*
X0067500Y0051600D01*
X0070000Y0054100D01*
X0072500Y0051600D01*
X0077500Y0051600D01*
X0080000Y0054100D01*
X0082500Y0051600D01*
X0087500Y0051600D01*
X0090000Y0054100D01*
X0090000Y0059100D01*
X0087500Y0061600D01*
X0082500Y0061600D01*
X0080000Y0059100D01*
X0077500Y0061600D01*
X0072500Y0061600D01*
X0070000Y0059100D01*
X0067500Y0061600D01*
X0062500Y0061600D01*
X0060000Y0059100D01*
X0057500Y0061600D01*
X0052500Y0061600D01*
D18*
X0155000Y0051600D03*
D19*
X0178239Y0186235D02*
X0178027Y0186923D01*
X0178028Y0186923D02*
X0178263Y0186999D01*
X0178497Y0187082D01*
X0178729Y0187170D01*
X0178958Y0187264D01*
X0179185Y0187364D01*
X0179409Y0187469D01*
X0179631Y0187579D01*
X0179850Y0187695D01*
X0180067Y0187817D01*
X0180280Y0187943D01*
X0180490Y0188075D01*
X0180697Y0188211D01*
X0180900Y0188353D01*
X0181100Y0188500D01*
X0181296Y0188651D01*
X0181488Y0188808D01*
X0181677Y0188969D01*
X0181861Y0189134D01*
X0182042Y0189304D01*
X0182218Y0189478D01*
X0182390Y0189657D01*
X0182557Y0189839D01*
X0182720Y0190026D01*
X0182879Y0190217D01*
X0183032Y0190411D01*
X0183181Y0190610D01*
X0183325Y0190811D01*
X0183464Y0191017D01*
X0183598Y0191225D01*
X0183727Y0191437D01*
X0183851Y0191652D01*
X0183969Y0191870D01*
X0184082Y0192090D01*
X0184189Y0192314D01*
X0184291Y0192539D01*
X0184388Y0192768D01*
X0184479Y0192998D01*
X0184564Y0193231D01*
X0184643Y0193466D01*
X0184717Y0193703D01*
X0184785Y0193941D01*
X0184847Y0194181D01*
X0184903Y0194422D01*
X0184954Y0194665D01*
X0184998Y0194909D01*
X0185036Y0195154D01*
X0185069Y0195400D01*
X0185095Y0195646D01*
X0185115Y0195893D01*
X0185130Y0196140D01*
X0185138Y0196388D01*
X0185140Y0196636D01*
X0185136Y0196884D01*
X0185126Y0197132D01*
X0185110Y0197379D01*
X0185088Y0197626D01*
X0185060Y0197872D01*
X0185026Y0198118D01*
X0184986Y0198362D01*
X0184940Y0198606D01*
X0184888Y0198848D01*
X0184830Y0199089D01*
X0184766Y0199329D01*
X0184696Y0199566D01*
X0184621Y0199803D01*
X0184540Y0200037D01*
X0184453Y0200269D01*
X0184360Y0200499D01*
X0184262Y0200727D01*
X0184159Y0200952D01*
X0184050Y0201174D01*
X0183935Y0201394D01*
X0183815Y0201611D01*
X0183690Y0201825D01*
X0183560Y0202036D01*
X0183424Y0202243D01*
X0183284Y0202448D01*
X0183139Y0202648D01*
X0182988Y0202846D01*
X0183553Y0203291D01*
X0183554Y0203291D01*
X0183715Y0203080D01*
X0183871Y0202865D01*
X0184021Y0202646D01*
X0184166Y0202424D01*
X0184306Y0202198D01*
X0184440Y0201969D01*
X0184568Y0201737D01*
X0184691Y0201501D01*
X0184808Y0201263D01*
X0184919Y0201021D01*
X0185024Y0200778D01*
X0185123Y0200531D01*
X0185217Y0200283D01*
X0185304Y0200032D01*
X0185384Y0199779D01*
X0185459Y0199524D01*
X0185527Y0199267D01*
X0185589Y0199009D01*
X0185645Y0198750D01*
X0185695Y0198489D01*
X0185737Y0198227D01*
X0185774Y0197964D01*
X0185804Y0197700D01*
X0185828Y0197435D01*
X0185845Y0197170D01*
X0185856Y0196905D01*
X0185860Y0196640D01*
X0185858Y0196374D01*
X0185849Y0196109D01*
X0185834Y0195843D01*
X0185812Y0195579D01*
X0185784Y0195315D01*
X0185749Y0195052D01*
X0185708Y0194789D01*
X0185660Y0194528D01*
X0185607Y0194268D01*
X0185546Y0194009D01*
X0185480Y0193752D01*
X0185407Y0193497D01*
X0185328Y0193243D01*
X0185243Y0192992D01*
X0185152Y0192742D01*
X0185054Y0192495D01*
X0184951Y0192251D01*
X0184842Y0192009D01*
X0184727Y0191770D01*
X0184606Y0191533D01*
X0184479Y0191300D01*
X0184346Y0191070D01*
X0184208Y0190843D01*
X0184065Y0190619D01*
X0183916Y0190400D01*
X0183762Y0190183D01*
X0183602Y0189971D01*
X0183438Y0189763D01*
X0183268Y0189559D01*
X0183093Y0189359D01*
X0182914Y0189163D01*
X0182730Y0188972D01*
X0182541Y0188785D01*
X0182347Y0188603D01*
X0182150Y0188426D01*
X0181948Y0188253D01*
X0181742Y0188086D01*
X0181531Y0187924D01*
X0181317Y0187766D01*
X0181099Y0187615D01*
X0180878Y0187468D01*
X0180653Y0187327D01*
X0180425Y0187192D01*
X0180193Y0187062D01*
X0179958Y0186938D01*
X0179720Y0186820D01*
X0179480Y0186707D01*
X0179237Y0186600D01*
X0178991Y0186500D01*
X0178743Y0186405D01*
X0178492Y0186317D01*
X0178240Y0186235D01*
X0178218Y0186306D01*
X0178469Y0186388D01*
X0178717Y0186476D01*
X0178964Y0186570D01*
X0179208Y0186670D01*
X0179449Y0186775D01*
X0179688Y0186887D01*
X0179924Y0187005D01*
X0180157Y0187128D01*
X0180387Y0187257D01*
X0180614Y0187391D01*
X0180838Y0187531D01*
X0181057Y0187677D01*
X0181274Y0187828D01*
X0181486Y0187984D01*
X0181695Y0188145D01*
X0181900Y0188311D01*
X0182100Y0188482D01*
X0182297Y0188658D01*
X0182489Y0188839D01*
X0182676Y0189024D01*
X0182859Y0189214D01*
X0183037Y0189409D01*
X0183211Y0189607D01*
X0183379Y0189810D01*
X0183543Y0190017D01*
X0183701Y0190228D01*
X0183854Y0190442D01*
X0184002Y0190661D01*
X0184145Y0190883D01*
X0184282Y0191108D01*
X0184413Y0191337D01*
X0184539Y0191568D01*
X0184659Y0191803D01*
X0184774Y0192041D01*
X0184882Y0192281D01*
X0184985Y0192524D01*
X0185082Y0192769D01*
X0185172Y0193017D01*
X0185257Y0193266D01*
X0185335Y0193518D01*
X0185408Y0193772D01*
X0185474Y0194027D01*
X0185533Y0194284D01*
X0185587Y0194542D01*
X0185634Y0194802D01*
X0185675Y0195062D01*
X0185709Y0195324D01*
X0185737Y0195586D01*
X0185759Y0195849D01*
X0185774Y0196112D01*
X0185783Y0196375D01*
X0185785Y0196639D01*
X0185781Y0196903D01*
X0185770Y0197166D01*
X0185753Y0197429D01*
X0185730Y0197692D01*
X0185700Y0197954D01*
X0185663Y0198215D01*
X0185621Y0198475D01*
X0185572Y0198735D01*
X0185516Y0198992D01*
X0185455Y0199249D01*
X0185387Y0199504D01*
X0185313Y0199757D01*
X0185232Y0200008D01*
X0185146Y0200257D01*
X0185054Y0200504D01*
X0184955Y0200749D01*
X0184851Y0200991D01*
X0184740Y0201230D01*
X0184624Y0201467D01*
X0184502Y0201701D01*
X0184375Y0201932D01*
X0184242Y0202159D01*
X0184103Y0202384D01*
X0183959Y0202604D01*
X0183810Y0202822D01*
X0183655Y0203035D01*
X0183495Y0203245D01*
X0183436Y0203198D01*
X0183595Y0202990D01*
X0183748Y0202778D01*
X0183897Y0202562D01*
X0184040Y0202343D01*
X0184178Y0202120D01*
X0184310Y0201894D01*
X0184437Y0201665D01*
X0184558Y0201433D01*
X0184673Y0201198D01*
X0184782Y0200960D01*
X0184886Y0200720D01*
X0184984Y0200477D01*
X0185076Y0200231D01*
X0185161Y0199984D01*
X0185241Y0199735D01*
X0185315Y0199483D01*
X0185382Y0199230D01*
X0185443Y0198976D01*
X0185498Y0198720D01*
X0185547Y0198462D01*
X0185589Y0198204D01*
X0185625Y0197945D01*
X0185655Y0197684D01*
X0185678Y0197424D01*
X0185695Y0197162D01*
X0185706Y0196901D01*
X0185710Y0196639D01*
X0185708Y0196377D01*
X0185699Y0196115D01*
X0185684Y0195854D01*
X0185663Y0195593D01*
X0185635Y0195332D01*
X0185601Y0195073D01*
X0185560Y0194814D01*
X0185513Y0194556D01*
X0185460Y0194300D01*
X0185401Y0194045D01*
X0185335Y0193792D01*
X0185263Y0193540D01*
X0185186Y0193290D01*
X0185102Y0193042D01*
X0185012Y0192796D01*
X0184916Y0192552D01*
X0184814Y0192311D01*
X0184706Y0192072D01*
X0184592Y0191836D01*
X0184473Y0191603D01*
X0184348Y0191373D01*
X0184217Y0191146D01*
X0184081Y0190922D01*
X0183940Y0190702D01*
X0183793Y0190485D01*
X0183641Y0190272D01*
X0183484Y0190063D01*
X0183321Y0189857D01*
X0183154Y0189656D01*
X0182982Y0189459D01*
X0182805Y0189266D01*
X0182623Y0189077D01*
X0182437Y0188893D01*
X0182246Y0188713D01*
X0182051Y0188539D01*
X0181852Y0188369D01*
X0181649Y0188204D01*
X0181441Y0188044D01*
X0181230Y0187889D01*
X0181016Y0187739D01*
X0180797Y0187595D01*
X0180575Y0187456D01*
X0180350Y0187322D01*
X0180122Y0187194D01*
X0179890Y0187072D01*
X0179656Y0186955D01*
X0179418Y0186844D01*
X0179179Y0186739D01*
X0178936Y0186640D01*
X0178692Y0186546D01*
X0178445Y0186459D01*
X0178196Y0186378D01*
X0178174Y0186450D01*
X0178421Y0186530D01*
X0178666Y0186617D01*
X0178909Y0186709D01*
X0179150Y0186808D01*
X0179388Y0186912D01*
X0179623Y0187022D01*
X0179856Y0187138D01*
X0180086Y0187260D01*
X0180313Y0187387D01*
X0180536Y0187520D01*
X0180757Y0187658D01*
X0180974Y0187801D01*
X0181187Y0187950D01*
X0181396Y0188104D01*
X0181602Y0188263D01*
X0181804Y0188426D01*
X0182002Y0188595D01*
X0182196Y0188769D01*
X0182385Y0188947D01*
X0182570Y0189130D01*
X0182750Y0189317D01*
X0182926Y0189509D01*
X0183097Y0189705D01*
X0183263Y0189905D01*
X0183424Y0190109D01*
X0183580Y0190317D01*
X0183731Y0190528D01*
X0183877Y0190744D01*
X0184018Y0190962D01*
X0184153Y0191184D01*
X0184283Y0191410D01*
X0184407Y0191638D01*
X0184525Y0191870D01*
X0184638Y0192104D01*
X0184745Y0192341D01*
X0184846Y0192581D01*
X0184941Y0192822D01*
X0185031Y0193067D01*
X0185114Y0193313D01*
X0185192Y0193561D01*
X0185263Y0193811D01*
X0185328Y0194063D01*
X0185387Y0194316D01*
X0185440Y0194571D01*
X0185486Y0194827D01*
X0185526Y0195083D01*
X0185560Y0195341D01*
X0185588Y0195600D01*
X0185609Y0195859D01*
X0185624Y0196119D01*
X0185633Y0196378D01*
X0185635Y0196638D01*
X0185631Y0196898D01*
X0185620Y0197158D01*
X0185604Y0197418D01*
X0185580Y0197677D01*
X0185551Y0197935D01*
X0185515Y0198193D01*
X0185473Y0198449D01*
X0185425Y0198705D01*
X0185370Y0198959D01*
X0185309Y0199212D01*
X0185242Y0199463D01*
X0185169Y0199712D01*
X0185090Y0199960D01*
X0185005Y0200206D01*
X0184914Y0200449D01*
X0184817Y0200691D01*
X0184714Y0200929D01*
X0184605Y0201165D01*
X0184491Y0201399D01*
X0184371Y0201630D01*
X0184245Y0201857D01*
X0184113Y0202082D01*
X0183977Y0202303D01*
X0183835Y0202520D01*
X0183687Y0202735D01*
X0183535Y0202945D01*
X0183377Y0203152D01*
X0183318Y0203106D01*
X0183475Y0202900D01*
X0183626Y0202691D01*
X0183773Y0202478D01*
X0183914Y0202262D01*
X0184049Y0202043D01*
X0184180Y0201820D01*
X0184305Y0201594D01*
X0184424Y0201365D01*
X0184538Y0201133D01*
X0184646Y0200899D01*
X0184748Y0200662D01*
X0184844Y0200422D01*
X0184935Y0200180D01*
X0185019Y0199936D01*
X0185098Y0199690D01*
X0185170Y0199443D01*
X0185237Y0199193D01*
X0185297Y0198942D01*
X0185351Y0198690D01*
X0185399Y0198436D01*
X0185441Y0198181D01*
X0185476Y0197925D01*
X0185506Y0197669D01*
X0185529Y0197412D01*
X0185545Y0197154D01*
X0185556Y0196896D01*
X0185560Y0196638D01*
X0185558Y0196380D01*
X0185549Y0196122D01*
X0185534Y0195864D01*
X0185513Y0195607D01*
X0185486Y0195350D01*
X0185452Y0195094D01*
X0185412Y0194839D01*
X0185366Y0194585D01*
X0185314Y0194332D01*
X0185255Y0194081D01*
X0185190Y0193831D01*
X0185120Y0193583D01*
X0185043Y0193336D01*
X0184960Y0193092D01*
X0184871Y0192849D01*
X0184777Y0192609D01*
X0184676Y0192371D01*
X0184570Y0192136D01*
X0184458Y0191903D01*
X0184340Y0191673D01*
X0184217Y0191446D01*
X0184088Y0191223D01*
X0183954Y0191002D01*
X0183815Y0190785D01*
X0183670Y0190571D01*
X0183520Y0190361D01*
X0183365Y0190155D01*
X0183205Y0189952D01*
X0183040Y0189753D01*
X0182870Y0189559D01*
X0182696Y0189369D01*
X0182516Y0189183D01*
X0182333Y0189001D01*
X0182145Y0188824D01*
X0181953Y0188652D01*
X0181756Y0188484D01*
X0181556Y0188321D01*
X0181352Y0188164D01*
X0181143Y0188011D01*
X0180932Y0187863D01*
X0180716Y0187721D01*
X0180497Y0187584D01*
X0180275Y0187452D01*
X0180050Y0187326D01*
X0179822Y0187205D01*
X0179591Y0187090D01*
X0179357Y0186981D01*
X0179121Y0186877D01*
X0178882Y0186779D01*
X0178640Y0186687D01*
X0178397Y0186601D01*
X0178152Y0186521D01*
X0178129Y0186593D01*
X0178373Y0186672D01*
X0178615Y0186758D01*
X0178854Y0186849D01*
X0179092Y0186946D01*
X0179326Y0187049D01*
X0179558Y0187158D01*
X0179788Y0187272D01*
X0180015Y0187392D01*
X0180238Y0187517D01*
X0180459Y0187648D01*
X0180676Y0187784D01*
X0180890Y0187925D01*
X0181100Y0188072D01*
X0181307Y0188224D01*
X0181509Y0188380D01*
X0181708Y0188542D01*
X0181903Y0188708D01*
X0182094Y0188879D01*
X0182281Y0189055D01*
X0182463Y0189235D01*
X0182641Y0189420D01*
X0182814Y0189609D01*
X0182983Y0189802D01*
X0183147Y0189999D01*
X0183305Y0190200D01*
X0183459Y0190405D01*
X0183608Y0190614D01*
X0183752Y0190826D01*
X0183891Y0191042D01*
X0184024Y0191261D01*
X0184152Y0191483D01*
X0184274Y0191708D01*
X0184391Y0191937D01*
X0184502Y0192168D01*
X0184608Y0192401D01*
X0184707Y0192637D01*
X0184801Y0192876D01*
X0184889Y0193116D01*
X0184972Y0193359D01*
X0185048Y0193604D01*
X0185118Y0193850D01*
X0185182Y0194099D01*
X0185240Y0194348D01*
X0185292Y0194599D01*
X0185338Y0194852D01*
X0185378Y0195105D01*
X0185411Y0195359D01*
X0185439Y0195614D01*
X0185460Y0195869D01*
X0185474Y0196125D01*
X0185483Y0196381D01*
X0185485Y0196638D01*
X0185481Y0196894D01*
X0185471Y0197150D01*
X0185454Y0197406D01*
X0185431Y0197661D01*
X0185402Y0197916D01*
X0185367Y0198170D01*
X0185325Y0198423D01*
X0185278Y0198675D01*
X0185224Y0198925D01*
X0185164Y0199175D01*
X0185098Y0199422D01*
X0185026Y0199668D01*
X0184948Y0199912D01*
X0184864Y0200155D01*
X0184774Y0200395D01*
X0184679Y0200632D01*
X0184577Y0200868D01*
X0184470Y0201101D01*
X0184357Y0201331D01*
X0184239Y0201558D01*
X0184115Y0201783D01*
X0183985Y0202004D01*
X0183850Y0202222D01*
X0183710Y0202437D01*
X0183565Y0202648D01*
X0183415Y0202855D01*
X0183259Y0203059D01*
X0183200Y0203013D01*
X0183355Y0202810D01*
X0183504Y0202604D01*
X0183648Y0202395D01*
X0183787Y0202181D01*
X0183921Y0201965D01*
X0184050Y0201745D01*
X0184173Y0201523D01*
X0184290Y0201297D01*
X0184402Y0201068D01*
X0184509Y0200837D01*
X0184609Y0200603D01*
X0184704Y0200367D01*
X0184794Y0200129D01*
X0184877Y0199889D01*
X0184954Y0199646D01*
X0185026Y0199402D01*
X0185091Y0199156D01*
X0185151Y0198908D01*
X0185204Y0198660D01*
X0185252Y0198410D01*
X0185293Y0198158D01*
X0185328Y0197906D01*
X0185357Y0197654D01*
X0185379Y0197400D01*
X0185396Y0197146D01*
X0185406Y0196892D01*
X0185410Y0196637D01*
X0185408Y0196383D01*
X0185399Y0196129D01*
X0185385Y0195874D01*
X0185364Y0195621D01*
X0185337Y0195368D01*
X0185304Y0195115D01*
X0185264Y0194864D01*
X0185219Y0194614D01*
X0185167Y0194364D01*
X0185109Y0194117D01*
X0185046Y0193870D01*
X0184976Y0193625D01*
X0184900Y0193382D01*
X0184819Y0193141D01*
X0184731Y0192902D01*
X0184638Y0192666D01*
X0184539Y0192431D01*
X0184434Y0192199D01*
X0184324Y0191970D01*
X0184208Y0191743D01*
X0184086Y0191520D01*
X0183959Y0191299D01*
X0183827Y0191082D01*
X0183690Y0190868D01*
X0183547Y0190657D01*
X0183399Y0190450D01*
X0183246Y0190246D01*
X0183088Y0190047D01*
X0182926Y0189851D01*
X0182758Y0189659D01*
X0182586Y0189472D01*
X0182410Y0189288D01*
X0182229Y0189109D01*
X0182044Y0188935D01*
X0181854Y0188765D01*
X0181661Y0188600D01*
X0181463Y0188439D01*
X0181262Y0188284D01*
X0181056Y0188133D01*
X0180848Y0187988D01*
X0180635Y0187847D01*
X0180420Y0187712D01*
X0180201Y0187582D01*
X0179979Y0187458D01*
X0179754Y0187339D01*
X0179526Y0187225D01*
X0179296Y0187118D01*
X0179062Y0187015D01*
X0178827Y0186919D01*
X0178589Y0186828D01*
X0178349Y0186743D01*
X0178107Y0186665D01*
X0178085Y0186736D01*
X0178325Y0186815D01*
X0178564Y0186899D01*
X0178800Y0186989D01*
X0179033Y0187085D01*
X0179265Y0187186D01*
X0179494Y0187293D01*
X0179720Y0187406D01*
X0179943Y0187524D01*
X0180164Y0187647D01*
X0180381Y0187776D01*
X0180595Y0187910D01*
X0180806Y0188050D01*
X0181013Y0188194D01*
X0181217Y0188344D01*
X0181417Y0188498D01*
X0181613Y0188657D01*
X0181805Y0188821D01*
X0181993Y0188990D01*
X0182177Y0189163D01*
X0182357Y0189341D01*
X0182532Y0189523D01*
X0182703Y0189709D01*
X0182869Y0189900D01*
X0183030Y0190094D01*
X0183187Y0190292D01*
X0183339Y0190494D01*
X0183485Y0190700D01*
X0183627Y0190909D01*
X0183764Y0191122D01*
X0183895Y0191337D01*
X0184021Y0191556D01*
X0184141Y0191778D01*
X0184257Y0192003D01*
X0184366Y0192231D01*
X0184470Y0192461D01*
X0184568Y0192694D01*
X0184661Y0192929D01*
X0184748Y0193166D01*
X0184829Y0193406D01*
X0184904Y0193647D01*
X0184973Y0193890D01*
X0185037Y0194134D01*
X0185094Y0194380D01*
X0185145Y0194628D01*
X0185190Y0194876D01*
X0185229Y0195126D01*
X0185262Y0195377D01*
X0185289Y0195628D01*
X0185310Y0195880D01*
X0185324Y0196132D01*
X0185333Y0196384D01*
X0185335Y0196637D01*
X0185331Y0196890D01*
X0185321Y0197142D01*
X0185304Y0197394D01*
X0185282Y0197646D01*
X0185253Y0197897D01*
X0185219Y0198147D01*
X0185178Y0198396D01*
X0185131Y0198645D01*
X0185078Y0198892D01*
X0185019Y0199137D01*
X0184954Y0199382D01*
X0184883Y0199624D01*
X0184806Y0199865D01*
X0184723Y0200103D01*
X0184635Y0200340D01*
X0184540Y0200574D01*
X0184440Y0200806D01*
X0184335Y0201036D01*
X0184223Y0201263D01*
X0184107Y0201487D01*
X0183984Y0201708D01*
X0183857Y0201926D01*
X0183724Y0202141D01*
X0183586Y0202353D01*
X0183443Y0202561D01*
X0183295Y0202765D01*
X0183141Y0202966D01*
X0183083Y0202920D01*
X0183235Y0202720D01*
X0183382Y0202517D01*
X0183524Y0202311D01*
X0183661Y0202101D01*
X0183793Y0201887D01*
X0183919Y0201671D01*
X0184041Y0201451D01*
X0184157Y0201229D01*
X0184267Y0201004D01*
X0184372Y0200776D01*
X0184471Y0200545D01*
X0184565Y0200313D01*
X0184653Y0200078D01*
X0184735Y0199841D01*
X0184811Y0199602D01*
X0184881Y0199361D01*
X0184946Y0199119D01*
X0185005Y0198875D01*
X0185057Y0198630D01*
X0185104Y0198383D01*
X0185144Y0198136D01*
X0185179Y0197887D01*
X0185207Y0197638D01*
X0185230Y0197388D01*
X0185246Y0197138D01*
X0185256Y0196887D01*
X0185260Y0196637D01*
X0185258Y0196386D01*
X0185249Y0196135D01*
X0185235Y0195885D01*
X0185214Y0195635D01*
X0185188Y0195385D01*
X0185155Y0195137D01*
X0185116Y0194889D01*
X0185071Y0194642D01*
X0185021Y0194397D01*
X0184964Y0194152D01*
X0184901Y0193909D01*
X0184832Y0193668D01*
X0184758Y0193429D01*
X0184677Y0193191D01*
X0184591Y0192956D01*
X0184499Y0192722D01*
X0184401Y0192491D01*
X0184298Y0192263D01*
X0184189Y0192037D01*
X0184075Y0191813D01*
X0183955Y0191593D01*
X0183830Y0191376D01*
X0183700Y0191161D01*
X0183564Y0190950D01*
X0183424Y0190743D01*
X0183278Y0190539D01*
X0183127Y0190338D01*
X0182972Y0190141D01*
X0182812Y0189948D01*
X0182647Y0189759D01*
X0182477Y0189574D01*
X0182303Y0189394D01*
X0182125Y0189217D01*
X0181942Y0189045D01*
X0181756Y0188878D01*
X0181565Y0188715D01*
X0181370Y0188557D01*
X0181172Y0188404D01*
X0180969Y0188255D01*
X0180764Y0188112D01*
X0180555Y0187974D01*
X0180342Y0187840D01*
X0180126Y0187712D01*
X0179908Y0187590D01*
X0179686Y0187473D01*
X0179461Y0187361D01*
X0179234Y0187254D01*
X0179004Y0187154D01*
X0178772Y0187059D01*
X0178538Y0186969D01*
X0178301Y0186886D01*
X0178063Y0186808D01*
X0178041Y0186880D01*
X0178278Y0186957D01*
X0178512Y0187040D01*
X0178745Y0187129D01*
X0178975Y0187223D01*
X0179203Y0187323D01*
X0179429Y0187428D01*
X0179652Y0187539D01*
X0179872Y0187656D01*
X0180089Y0187778D01*
X0180303Y0187905D01*
X0180514Y0188037D01*
X0180722Y0188174D01*
X0180926Y0188316D01*
X0181127Y0188464D01*
X0181324Y0188616D01*
X0181517Y0188773D01*
X0181706Y0188935D01*
X0181892Y0189101D01*
X0182073Y0189271D01*
X0182250Y0189447D01*
X0182423Y0189626D01*
X0182591Y0189809D01*
X0182755Y0189997D01*
X0182914Y0190189D01*
X0183068Y0190384D01*
X0183218Y0190583D01*
X0183362Y0190786D01*
X0183502Y0190992D01*
X0183636Y0191201D01*
X0183766Y0191414D01*
X0183890Y0191630D01*
X0184009Y0191849D01*
X0184122Y0192070D01*
X0184230Y0192294D01*
X0184333Y0192521D01*
X0184430Y0192751D01*
X0184521Y0192982D01*
X0184606Y0193216D01*
X0184686Y0193452D01*
X0184760Y0193690D01*
X0184829Y0193929D01*
X0184891Y0194170D01*
X0184947Y0194413D01*
X0184998Y0194656D01*
X0185042Y0194901D01*
X0185081Y0195147D01*
X0185113Y0195394D01*
X0185140Y0195642D01*
X0185160Y0195890D01*
X0185175Y0196138D01*
X0185183Y0196387D01*
X0185185Y0196636D01*
X0185181Y0196885D01*
X0185171Y0197134D01*
X0185155Y0197382D01*
X0185133Y0197630D01*
X0185105Y0197878D01*
X0185070Y0198124D01*
X0185030Y0198370D01*
X0184984Y0198615D01*
X0184932Y0198858D01*
X0184873Y0199100D01*
X0184809Y0199341D01*
X0184739Y0199580D01*
X0184664Y0199817D01*
X0184582Y0200052D01*
X0184495Y0200285D01*
X0184402Y0200516D01*
X0184303Y0200745D01*
X0184199Y0200971D01*
X0184090Y0201195D01*
X0183975Y0201415D01*
X0183854Y0201633D01*
X0183729Y0201848D01*
X0183598Y0202060D01*
X0183462Y0202269D01*
X0183321Y0202474D01*
X0183175Y0202675D01*
X0183024Y0202873D01*
X0166447Y0203291D02*
X0167012Y0202845D01*
X0167012Y0202846D02*
X0166862Y0202649D01*
X0166716Y0202448D01*
X0166576Y0202244D01*
X0166440Y0202036D01*
X0166310Y0201825D01*
X0166185Y0201611D01*
X0166065Y0201394D01*
X0165950Y0201174D01*
X0165841Y0200952D01*
X0165738Y0200727D01*
X0165640Y0200499D01*
X0165547Y0200269D01*
X0165460Y0200037D01*
X0165379Y0199803D01*
X0165304Y0199567D01*
X0165234Y0199329D01*
X0165170Y0199089D01*
X0165112Y0198848D01*
X0165060Y0198606D01*
X0165014Y0198362D01*
X0164974Y0198118D01*
X0164940Y0197872D01*
X0164912Y0197626D01*
X0164890Y0197379D01*
X0164874Y0197132D01*
X0164864Y0196884D01*
X0164860Y0196636D01*
X0164862Y0196388D01*
X0164870Y0196141D01*
X0164885Y0195893D01*
X0164905Y0195646D01*
X0164931Y0195400D01*
X0164964Y0195154D01*
X0165002Y0194909D01*
X0165046Y0194665D01*
X0165097Y0194422D01*
X0165153Y0194181D01*
X0165215Y0193941D01*
X0165283Y0193703D01*
X0165356Y0193466D01*
X0165436Y0193231D01*
X0165521Y0192998D01*
X0165612Y0192768D01*
X0165708Y0192540D01*
X0165811Y0192314D01*
X0165918Y0192090D01*
X0166031Y0191870D01*
X0166149Y0191652D01*
X0166273Y0191437D01*
X0166402Y0191225D01*
X0166536Y0191017D01*
X0166675Y0190811D01*
X0166819Y0190610D01*
X0166967Y0190412D01*
X0167121Y0190217D01*
X0167279Y0190026D01*
X0167442Y0189840D01*
X0167610Y0189657D01*
X0167782Y0189478D01*
X0167958Y0189304D01*
X0168139Y0189134D01*
X0168323Y0188969D01*
X0168512Y0188808D01*
X0168704Y0188651D01*
X0168900Y0188500D01*
X0169100Y0188353D01*
X0169303Y0188211D01*
X0169510Y0188075D01*
X0169720Y0187943D01*
X0169933Y0187817D01*
X0170149Y0187695D01*
X0170369Y0187580D01*
X0170590Y0187469D01*
X0170815Y0187364D01*
X0171042Y0187264D01*
X0171271Y0187170D01*
X0171503Y0187082D01*
X0171737Y0186999D01*
X0171972Y0186923D01*
X0171760Y0186235D01*
X0171507Y0186317D01*
X0171257Y0186405D01*
X0171009Y0186500D01*
X0170763Y0186601D01*
X0170520Y0186707D01*
X0170279Y0186820D01*
X0170042Y0186938D01*
X0169807Y0187062D01*
X0169575Y0187192D01*
X0169347Y0187327D01*
X0169122Y0187468D01*
X0168900Y0187615D01*
X0168683Y0187767D01*
X0168469Y0187924D01*
X0168258Y0188086D01*
X0168052Y0188253D01*
X0167850Y0188426D01*
X0167652Y0188603D01*
X0167459Y0188785D01*
X0167270Y0188972D01*
X0167086Y0189163D01*
X0166907Y0189359D01*
X0166732Y0189559D01*
X0166562Y0189763D01*
X0166398Y0189971D01*
X0166238Y0190184D01*
X0166084Y0190400D01*
X0165935Y0190620D01*
X0165792Y0190843D01*
X0165654Y0191070D01*
X0165521Y0191300D01*
X0165394Y0191533D01*
X0165273Y0191770D01*
X0165158Y0192009D01*
X0165049Y0192251D01*
X0164945Y0192496D01*
X0164848Y0192743D01*
X0164757Y0192992D01*
X0164672Y0193243D01*
X0164593Y0193497D01*
X0164520Y0193752D01*
X0164454Y0194009D01*
X0164393Y0194268D01*
X0164339Y0194528D01*
X0164292Y0194789D01*
X0164251Y0195052D01*
X0164216Y0195315D01*
X0164188Y0195579D01*
X0164166Y0195844D01*
X0164151Y0196109D01*
X0164142Y0196374D01*
X0164140Y0196640D01*
X0164144Y0196905D01*
X0164155Y0197171D01*
X0164172Y0197435D01*
X0164196Y0197700D01*
X0164226Y0197964D01*
X0164263Y0198227D01*
X0164306Y0198489D01*
X0164355Y0198750D01*
X0164411Y0199009D01*
X0164473Y0199268D01*
X0164541Y0199524D01*
X0164616Y0199779D01*
X0164697Y0200032D01*
X0164784Y0200283D01*
X0164877Y0200531D01*
X0164976Y0200778D01*
X0165081Y0201022D01*
X0165192Y0201263D01*
X0165309Y0201501D01*
X0165432Y0201737D01*
X0165560Y0201969D01*
X0165694Y0202198D01*
X0165834Y0202424D01*
X0165979Y0202647D01*
X0166130Y0202865D01*
X0166285Y0203080D01*
X0166446Y0203291D01*
X0166505Y0203245D01*
X0166345Y0203035D01*
X0166191Y0202822D01*
X0166041Y0202605D01*
X0165897Y0202384D01*
X0165758Y0202159D01*
X0165625Y0201932D01*
X0165498Y0201701D01*
X0165376Y0201467D01*
X0165260Y0201230D01*
X0165149Y0200991D01*
X0165045Y0200749D01*
X0164946Y0200504D01*
X0164854Y0200257D01*
X0164768Y0200008D01*
X0164687Y0199757D01*
X0164613Y0199504D01*
X0164545Y0199249D01*
X0164484Y0198993D01*
X0164428Y0198735D01*
X0164379Y0198476D01*
X0164337Y0198215D01*
X0164300Y0197954D01*
X0164270Y0197692D01*
X0164247Y0197430D01*
X0164230Y0197166D01*
X0164219Y0196903D01*
X0164215Y0196639D01*
X0164217Y0196376D01*
X0164226Y0196112D01*
X0164241Y0195849D01*
X0164263Y0195586D01*
X0164291Y0195324D01*
X0164325Y0195062D01*
X0164366Y0194802D01*
X0164413Y0194542D01*
X0164467Y0194284D01*
X0164526Y0194027D01*
X0164592Y0193772D01*
X0164665Y0193518D01*
X0164743Y0193267D01*
X0164828Y0193017D01*
X0164918Y0192769D01*
X0165015Y0192524D01*
X0165118Y0192281D01*
X0165226Y0192041D01*
X0165341Y0191803D01*
X0165461Y0191568D01*
X0165587Y0191337D01*
X0165718Y0191108D01*
X0165855Y0190883D01*
X0165998Y0190661D01*
X0166145Y0190443D01*
X0166299Y0190228D01*
X0166457Y0190017D01*
X0166621Y0189810D01*
X0166789Y0189607D01*
X0166962Y0189409D01*
X0167141Y0189214D01*
X0167324Y0189024D01*
X0167511Y0188839D01*
X0167703Y0188658D01*
X0167899Y0188482D01*
X0168100Y0188311D01*
X0168305Y0188145D01*
X0168513Y0187984D01*
X0168726Y0187828D01*
X0168942Y0187677D01*
X0169162Y0187531D01*
X0169386Y0187391D01*
X0169613Y0187257D01*
X0169843Y0187128D01*
X0170076Y0187005D01*
X0170312Y0186887D01*
X0170551Y0186776D01*
X0170792Y0186670D01*
X0171036Y0186570D01*
X0171283Y0186476D01*
X0171531Y0186388D01*
X0171782Y0186306D01*
X0171804Y0186378D01*
X0171555Y0186459D01*
X0171308Y0186546D01*
X0171064Y0186640D01*
X0170821Y0186739D01*
X0170581Y0186844D01*
X0170344Y0186955D01*
X0170110Y0187072D01*
X0169878Y0187194D01*
X0169650Y0187322D01*
X0169425Y0187456D01*
X0169203Y0187595D01*
X0168984Y0187739D01*
X0168770Y0187889D01*
X0168558Y0188044D01*
X0168351Y0188204D01*
X0168148Y0188369D01*
X0167949Y0188539D01*
X0167754Y0188714D01*
X0167563Y0188893D01*
X0167377Y0189077D01*
X0167195Y0189266D01*
X0167018Y0189459D01*
X0166846Y0189656D01*
X0166679Y0189858D01*
X0166516Y0190063D01*
X0166359Y0190272D01*
X0166207Y0190485D01*
X0166060Y0190702D01*
X0165919Y0190923D01*
X0165783Y0191146D01*
X0165652Y0191373D01*
X0165527Y0191603D01*
X0165408Y0191836D01*
X0165294Y0192072D01*
X0165186Y0192311D01*
X0165084Y0192552D01*
X0164988Y0192796D01*
X0164898Y0193042D01*
X0164814Y0193290D01*
X0164736Y0193540D01*
X0164665Y0193792D01*
X0164599Y0194045D01*
X0164540Y0194300D01*
X0164487Y0194557D01*
X0164440Y0194814D01*
X0164399Y0195073D01*
X0164365Y0195333D01*
X0164337Y0195593D01*
X0164316Y0195854D01*
X0164301Y0196115D01*
X0164292Y0196377D01*
X0164290Y0196639D01*
X0164294Y0196901D01*
X0164305Y0197162D01*
X0164322Y0197424D01*
X0164345Y0197685D01*
X0164375Y0197945D01*
X0164411Y0198204D01*
X0164453Y0198462D01*
X0164502Y0198720D01*
X0164557Y0198976D01*
X0164618Y0199230D01*
X0164685Y0199483D01*
X0164759Y0199735D01*
X0164839Y0199984D01*
X0164925Y0200232D01*
X0165016Y0200477D01*
X0165114Y0200720D01*
X0165218Y0200960D01*
X0165327Y0201198D01*
X0165443Y0201433D01*
X0165564Y0201665D01*
X0165690Y0201895D01*
X0165822Y0202121D01*
X0165960Y0202343D01*
X0166103Y0202563D01*
X0166252Y0202778D01*
X0166405Y0202990D01*
X0166564Y0203199D01*
X0166623Y0203152D01*
X0166465Y0202945D01*
X0166313Y0202735D01*
X0166165Y0202521D01*
X0166023Y0202303D01*
X0165887Y0202082D01*
X0165755Y0201857D01*
X0165630Y0201630D01*
X0165509Y0201399D01*
X0165395Y0201166D01*
X0165286Y0200929D01*
X0165183Y0200691D01*
X0165086Y0200450D01*
X0164995Y0200206D01*
X0164910Y0199960D01*
X0164831Y0199713D01*
X0164758Y0199463D01*
X0164691Y0199212D01*
X0164630Y0198959D01*
X0164575Y0198705D01*
X0164527Y0198449D01*
X0164485Y0198193D01*
X0164449Y0197935D01*
X0164420Y0197677D01*
X0164396Y0197418D01*
X0164380Y0197158D01*
X0164369Y0196899D01*
X0164365Y0196639D01*
X0164367Y0196379D01*
X0164376Y0196119D01*
X0164391Y0195859D01*
X0164412Y0195600D01*
X0164440Y0195341D01*
X0164474Y0195084D01*
X0164514Y0194827D01*
X0164560Y0194571D01*
X0164613Y0194316D01*
X0164672Y0194063D01*
X0164737Y0193811D01*
X0164808Y0193561D01*
X0164886Y0193313D01*
X0164969Y0193067D01*
X0165058Y0192823D01*
X0165154Y0192581D01*
X0165255Y0192341D01*
X0165362Y0192104D01*
X0165475Y0191870D01*
X0165593Y0191638D01*
X0165717Y0191410D01*
X0165847Y0191185D01*
X0165982Y0190962D01*
X0166123Y0190744D01*
X0166269Y0190528D01*
X0166420Y0190317D01*
X0166576Y0190109D01*
X0166737Y0189905D01*
X0166903Y0189705D01*
X0167074Y0189509D01*
X0167250Y0189317D01*
X0167430Y0189130D01*
X0167615Y0188947D01*
X0167804Y0188769D01*
X0167998Y0188595D01*
X0168196Y0188427D01*
X0168398Y0188263D01*
X0168603Y0188104D01*
X0168813Y0187950D01*
X0169026Y0187801D01*
X0169243Y0187658D01*
X0169464Y0187520D01*
X0169687Y0187387D01*
X0169914Y0187260D01*
X0170144Y0187138D01*
X0170377Y0187023D01*
X0170612Y0186912D01*
X0170850Y0186808D01*
X0171091Y0186709D01*
X0171334Y0186617D01*
X0171579Y0186530D01*
X0171826Y0186450D01*
X0171848Y0186521D01*
X0171603Y0186601D01*
X0171360Y0186687D01*
X0171118Y0186779D01*
X0170879Y0186877D01*
X0170643Y0186981D01*
X0170409Y0187090D01*
X0170178Y0187205D01*
X0169950Y0187326D01*
X0169724Y0187452D01*
X0169502Y0187584D01*
X0169284Y0187721D01*
X0169068Y0187863D01*
X0168857Y0188011D01*
X0168648Y0188164D01*
X0168444Y0188322D01*
X0168244Y0188484D01*
X0168047Y0188652D01*
X0167855Y0188824D01*
X0167667Y0189001D01*
X0167483Y0189183D01*
X0167304Y0189369D01*
X0167130Y0189559D01*
X0166960Y0189754D01*
X0166795Y0189952D01*
X0166635Y0190155D01*
X0166480Y0190361D01*
X0166330Y0190571D01*
X0166185Y0190785D01*
X0166046Y0191002D01*
X0165912Y0191223D01*
X0165783Y0191447D01*
X0165660Y0191673D01*
X0165542Y0191903D01*
X0165430Y0192136D01*
X0165324Y0192371D01*
X0165223Y0192609D01*
X0165129Y0192849D01*
X0165040Y0193092D01*
X0164957Y0193336D01*
X0164880Y0193583D01*
X0164810Y0193831D01*
X0164745Y0194081D01*
X0164686Y0194332D01*
X0164634Y0194585D01*
X0164588Y0194839D01*
X0164548Y0195094D01*
X0164514Y0195350D01*
X0164487Y0195607D01*
X0164466Y0195864D01*
X0164451Y0196122D01*
X0164442Y0196380D01*
X0164440Y0196638D01*
X0164444Y0196896D01*
X0164455Y0197154D01*
X0164471Y0197412D01*
X0164494Y0197669D01*
X0164524Y0197926D01*
X0164559Y0198181D01*
X0164601Y0198436D01*
X0164649Y0198690D01*
X0164703Y0198942D01*
X0164763Y0199193D01*
X0164830Y0199443D01*
X0164902Y0199691D01*
X0164981Y0199936D01*
X0165065Y0200180D01*
X0165156Y0200422D01*
X0165252Y0200662D01*
X0165355Y0200899D01*
X0165463Y0201133D01*
X0165576Y0201365D01*
X0165696Y0201594D01*
X0165820Y0201820D01*
X0165951Y0202043D01*
X0166087Y0202262D01*
X0166228Y0202479D01*
X0166374Y0202691D01*
X0166525Y0202900D01*
X0166682Y0203106D01*
X0166741Y0203059D01*
X0166585Y0202855D01*
X0166435Y0202648D01*
X0166290Y0202437D01*
X0166150Y0202222D01*
X0166015Y0202004D01*
X0165885Y0201783D01*
X0165762Y0201558D01*
X0165643Y0201331D01*
X0165530Y0201101D01*
X0165423Y0200868D01*
X0165322Y0200633D01*
X0165226Y0200395D01*
X0165136Y0200155D01*
X0165052Y0199913D01*
X0164974Y0199668D01*
X0164902Y0199422D01*
X0164836Y0199175D01*
X0164776Y0198925D01*
X0164722Y0198675D01*
X0164675Y0198423D01*
X0164633Y0198170D01*
X0164598Y0197916D01*
X0164569Y0197661D01*
X0164546Y0197406D01*
X0164529Y0197150D01*
X0164519Y0196894D01*
X0164515Y0196638D01*
X0164517Y0196382D01*
X0164526Y0196125D01*
X0164540Y0195869D01*
X0164561Y0195614D01*
X0164589Y0195359D01*
X0164622Y0195105D01*
X0164662Y0194852D01*
X0164708Y0194599D01*
X0164760Y0194348D01*
X0164818Y0194099D01*
X0164882Y0193851D01*
X0164952Y0193604D01*
X0165028Y0193359D01*
X0165111Y0193117D01*
X0165199Y0192876D01*
X0165293Y0192637D01*
X0165392Y0192401D01*
X0165498Y0192168D01*
X0165609Y0191937D01*
X0165726Y0191709D01*
X0165848Y0191483D01*
X0165976Y0191261D01*
X0166109Y0191042D01*
X0166248Y0190826D01*
X0166392Y0190614D01*
X0166540Y0190405D01*
X0166694Y0190201D01*
X0166853Y0189999D01*
X0167017Y0189802D01*
X0167186Y0189609D01*
X0167359Y0189420D01*
X0167537Y0189236D01*
X0167719Y0189055D01*
X0167906Y0188880D01*
X0168096Y0188708D01*
X0168291Y0188542D01*
X0168490Y0188380D01*
X0168693Y0188224D01*
X0168900Y0188072D01*
X0169110Y0187926D01*
X0169324Y0187784D01*
X0169541Y0187648D01*
X0169762Y0187517D01*
X0169985Y0187392D01*
X0170212Y0187272D01*
X0170441Y0187158D01*
X0170674Y0187049D01*
X0170908Y0186946D01*
X0171146Y0186849D01*
X0171385Y0186758D01*
X0171627Y0186672D01*
X0171871Y0186593D01*
X0171893Y0186665D01*
X0171651Y0186744D01*
X0171411Y0186828D01*
X0171173Y0186919D01*
X0170937Y0187015D01*
X0170704Y0187118D01*
X0170474Y0187225D01*
X0170246Y0187339D01*
X0170021Y0187458D01*
X0169799Y0187582D01*
X0169580Y0187712D01*
X0169365Y0187847D01*
X0169152Y0187988D01*
X0168943Y0188133D01*
X0168738Y0188284D01*
X0168537Y0188439D01*
X0168339Y0188600D01*
X0168146Y0188765D01*
X0167956Y0188935D01*
X0167771Y0189109D01*
X0167590Y0189288D01*
X0167414Y0189472D01*
X0167242Y0189659D01*
X0167074Y0189851D01*
X0166912Y0190047D01*
X0166754Y0190246D01*
X0166601Y0190450D01*
X0166453Y0190657D01*
X0166310Y0190868D01*
X0166173Y0191082D01*
X0166041Y0191299D01*
X0165914Y0191520D01*
X0165792Y0191744D01*
X0165676Y0191970D01*
X0165566Y0192199D01*
X0165461Y0192431D01*
X0165362Y0192666D01*
X0165269Y0192903D01*
X0165181Y0193142D01*
X0165100Y0193383D01*
X0165024Y0193626D01*
X0164954Y0193870D01*
X0164891Y0194117D01*
X0164833Y0194365D01*
X0164781Y0194614D01*
X0164736Y0194864D01*
X0164696Y0195116D01*
X0164663Y0195368D01*
X0164636Y0195621D01*
X0164615Y0195875D01*
X0164601Y0196129D01*
X0164592Y0196383D01*
X0164590Y0196638D01*
X0164594Y0196892D01*
X0164604Y0197146D01*
X0164621Y0197400D01*
X0164643Y0197654D01*
X0164672Y0197907D01*
X0164707Y0198159D01*
X0164749Y0198410D01*
X0164796Y0198660D01*
X0164849Y0198909D01*
X0164909Y0199156D01*
X0164974Y0199402D01*
X0165046Y0199646D01*
X0165123Y0199889D01*
X0165206Y0200129D01*
X0165296Y0200368D01*
X0165391Y0200604D01*
X0165491Y0200837D01*
X0165598Y0201068D01*
X0165710Y0201297D01*
X0165827Y0201523D01*
X0165951Y0201745D01*
X0166079Y0201965D01*
X0166213Y0202182D01*
X0166352Y0202395D01*
X0166496Y0202604D01*
X0166645Y0202810D01*
X0166800Y0203013D01*
X0166859Y0202966D01*
X0166706Y0202766D01*
X0166557Y0202561D01*
X0166414Y0202353D01*
X0166276Y0202141D01*
X0166143Y0201926D01*
X0166016Y0201708D01*
X0165893Y0201487D01*
X0165777Y0201263D01*
X0165665Y0201036D01*
X0165560Y0200807D01*
X0165460Y0200575D01*
X0165366Y0200340D01*
X0165277Y0200104D01*
X0165194Y0199865D01*
X0165117Y0199624D01*
X0165046Y0199382D01*
X0164981Y0199138D01*
X0164922Y0198892D01*
X0164869Y0198645D01*
X0164822Y0198397D01*
X0164781Y0198147D01*
X0164747Y0197897D01*
X0164718Y0197646D01*
X0164696Y0197394D01*
X0164679Y0197142D01*
X0164669Y0196890D01*
X0164665Y0196637D01*
X0164667Y0196385D01*
X0164676Y0196132D01*
X0164690Y0195880D01*
X0164711Y0195628D01*
X0164738Y0195377D01*
X0164771Y0195126D01*
X0164810Y0194877D01*
X0164855Y0194628D01*
X0164906Y0194381D01*
X0164963Y0194135D01*
X0165027Y0193890D01*
X0165096Y0193647D01*
X0165171Y0193406D01*
X0165252Y0193166D01*
X0165339Y0192929D01*
X0165431Y0192694D01*
X0165530Y0192461D01*
X0165634Y0192231D01*
X0165743Y0192003D01*
X0165859Y0191779D01*
X0165979Y0191557D01*
X0166105Y0191338D01*
X0166236Y0191122D01*
X0166373Y0190909D01*
X0166515Y0190700D01*
X0166661Y0190494D01*
X0166813Y0190292D01*
X0166970Y0190094D01*
X0167131Y0189900D01*
X0167297Y0189709D01*
X0167468Y0189523D01*
X0167643Y0189341D01*
X0167823Y0189163D01*
X0168007Y0188990D01*
X0168195Y0188822D01*
X0168387Y0188658D01*
X0168583Y0188498D01*
X0168783Y0188344D01*
X0168987Y0188194D01*
X0169194Y0188050D01*
X0169405Y0187910D01*
X0169619Y0187776D01*
X0169836Y0187647D01*
X0170057Y0187524D01*
X0170280Y0187406D01*
X0170506Y0187293D01*
X0170735Y0187186D01*
X0170966Y0187085D01*
X0171200Y0186989D01*
X0171436Y0186899D01*
X0171675Y0186815D01*
X0171915Y0186736D01*
X0171937Y0186808D01*
X0171698Y0186886D01*
X0171462Y0186969D01*
X0171228Y0187059D01*
X0170995Y0187154D01*
X0170766Y0187254D01*
X0170539Y0187361D01*
X0170314Y0187473D01*
X0170092Y0187590D01*
X0169874Y0187712D01*
X0169658Y0187840D01*
X0169445Y0187974D01*
X0169236Y0188112D01*
X0169030Y0188255D01*
X0168828Y0188404D01*
X0168630Y0188557D01*
X0168435Y0188715D01*
X0168244Y0188878D01*
X0168058Y0189046D01*
X0167875Y0189218D01*
X0167697Y0189394D01*
X0167523Y0189575D01*
X0167353Y0189759D01*
X0167188Y0189948D01*
X0167028Y0190141D01*
X0166872Y0190338D01*
X0166722Y0190539D01*
X0166576Y0190743D01*
X0166436Y0190950D01*
X0166300Y0191162D01*
X0166170Y0191376D01*
X0166045Y0191593D01*
X0165925Y0191814D01*
X0165811Y0192037D01*
X0165702Y0192263D01*
X0165599Y0192491D01*
X0165501Y0192722D01*
X0165409Y0192956D01*
X0165323Y0193191D01*
X0165242Y0193429D01*
X0165168Y0193668D01*
X0165099Y0193910D01*
X0165036Y0194152D01*
X0164979Y0194397D01*
X0164929Y0194642D01*
X0164884Y0194889D01*
X0164845Y0195137D01*
X0164812Y0195386D01*
X0164785Y0195635D01*
X0164765Y0195885D01*
X0164751Y0196135D01*
X0164742Y0196386D01*
X0164740Y0196637D01*
X0164744Y0196888D01*
X0164754Y0197138D01*
X0164770Y0197388D01*
X0164793Y0197638D01*
X0164821Y0197887D01*
X0164856Y0198136D01*
X0164896Y0198383D01*
X0164943Y0198630D01*
X0164995Y0198875D01*
X0165054Y0199119D01*
X0165119Y0199361D01*
X0165189Y0199602D01*
X0165265Y0199841D01*
X0165347Y0200078D01*
X0165435Y0200313D01*
X0165529Y0200546D01*
X0165628Y0200776D01*
X0165733Y0201004D01*
X0165844Y0201229D01*
X0165959Y0201451D01*
X0166081Y0201671D01*
X0166207Y0201887D01*
X0166339Y0202101D01*
X0166476Y0202311D01*
X0166618Y0202517D01*
X0166766Y0202721D01*
X0166918Y0202920D01*
X0166977Y0202874D01*
X0166826Y0202676D01*
X0166679Y0202474D01*
X0166538Y0202269D01*
X0166402Y0202060D01*
X0166271Y0201849D01*
X0166146Y0201634D01*
X0166025Y0201416D01*
X0165910Y0201195D01*
X0165801Y0200971D01*
X0165697Y0200745D01*
X0165598Y0200517D01*
X0165505Y0200286D01*
X0165418Y0200052D01*
X0165336Y0199817D01*
X0165261Y0199580D01*
X0165191Y0199341D01*
X0165127Y0199100D01*
X0165069Y0198858D01*
X0165016Y0198615D01*
X0164970Y0198370D01*
X0164930Y0198125D01*
X0164895Y0197878D01*
X0164867Y0197631D01*
X0164845Y0197383D01*
X0164829Y0197134D01*
X0164819Y0196885D01*
X0164815Y0196636D01*
X0164817Y0196387D01*
X0164825Y0196139D01*
X0164840Y0195890D01*
X0164860Y0195642D01*
X0164887Y0195394D01*
X0164919Y0195148D01*
X0164958Y0194902D01*
X0165002Y0194657D01*
X0165053Y0194413D01*
X0165109Y0194170D01*
X0165171Y0193929D01*
X0165240Y0193690D01*
X0165314Y0193452D01*
X0165394Y0193216D01*
X0165479Y0192982D01*
X0165570Y0192751D01*
X0165667Y0192522D01*
X0165770Y0192295D01*
X0165878Y0192070D01*
X0165991Y0191849D01*
X0166110Y0191630D01*
X0166234Y0191414D01*
X0166364Y0191201D01*
X0166498Y0190992D01*
X0166638Y0190786D01*
X0166782Y0190583D01*
X0166932Y0190384D01*
X0167086Y0190189D01*
X0167245Y0189997D01*
X0167409Y0189810D01*
X0167577Y0189626D01*
X0167750Y0189447D01*
X0167927Y0189272D01*
X0168108Y0189101D01*
X0168294Y0188935D01*
X0168483Y0188773D01*
X0168676Y0188616D01*
X0168873Y0188464D01*
X0169074Y0188317D01*
X0169278Y0188174D01*
X0169486Y0188037D01*
X0169697Y0187905D01*
X0169911Y0187778D01*
X0170128Y0187656D01*
X0170348Y0187539D01*
X0170571Y0187428D01*
X0170796Y0187323D01*
X0171025Y0187223D01*
X0171255Y0187129D01*
X0171488Y0187040D01*
X0171722Y0186957D01*
X0171959Y0186880D01*
D20*
X0208097Y0209000D02*
X0211099Y0209000D01*
X0211700Y0209601D01*
X0211700Y0210802D01*
X0211099Y0211402D01*
X0208097Y0211402D01*
X0208697Y0212683D02*
X0208097Y0213284D01*
X0208097Y0214485D01*
X0208697Y0215085D01*
X0209298Y0215085D01*
X0211700Y0212683D01*
X0211700Y0215085D01*
X0096499Y0053268D02*
X0097100Y0052668D01*
X0097100Y0051467D01*
X0096499Y0050866D01*
X0094097Y0050866D01*
X0093497Y0051467D01*
X0093497Y0052668D01*
X0094097Y0053268D01*
X0093497Y0049585D02*
X0093497Y0047183D01*
X0093497Y0048384D02*
X0097100Y0048384D01*
X0097100Y0045902D02*
X0095899Y0044701D01*
X0095899Y0045302D02*
X0095899Y0043500D01*
X0097100Y0043500D02*
X0093497Y0043500D01*
X0093497Y0045302D01*
X0094097Y0045902D01*
X0095298Y0045902D01*
X0095899Y0045302D01*
D21*
X0076113Y0201650D02*
X0075613Y0201650D01*
X0075363Y0201900D01*
X0074890Y0201900D02*
X0074640Y0201650D01*
X0073890Y0201650D01*
X0073890Y0203151D01*
X0074640Y0203151D01*
X0074890Y0202901D01*
X0074890Y0202651D01*
X0074640Y0202401D01*
X0073890Y0202401D01*
X0073417Y0202651D02*
X0073417Y0202901D01*
X0073167Y0203151D01*
X0072666Y0203151D01*
X0072416Y0202901D01*
X0071944Y0202401D02*
X0070943Y0202401D01*
X0070471Y0203151D02*
X0069470Y0203151D01*
X0069470Y0201650D01*
X0070471Y0201650D01*
X0069970Y0202401D02*
X0069470Y0202401D01*
X0068997Y0203151D02*
X0067997Y0203151D01*
X0067997Y0201650D01*
X0068997Y0201650D01*
X0068497Y0202401D02*
X0067997Y0202401D01*
X0067524Y0202651D02*
X0067274Y0202401D01*
X0066523Y0202401D01*
X0066523Y0203151D02*
X0067274Y0203151D01*
X0067524Y0202901D01*
X0067524Y0202651D01*
X0067274Y0202401D02*
X0067524Y0202150D01*
X0067524Y0201900D01*
X0067274Y0201650D01*
X0066523Y0201650D01*
X0066523Y0203151D01*
X0066051Y0203151D02*
X0065050Y0201650D01*
X0066051Y0201650D02*
X0065050Y0203151D01*
X0065050Y0206650D02*
X0066051Y0208151D01*
X0066523Y0208151D02*
X0067274Y0208151D01*
X0067524Y0207901D01*
X0067524Y0207651D01*
X0067274Y0207401D01*
X0066523Y0207401D01*
X0066523Y0208151D02*
X0066523Y0206650D01*
X0067274Y0206650D01*
X0067524Y0206900D01*
X0067524Y0207150D01*
X0067274Y0207401D01*
X0067997Y0207401D02*
X0068497Y0207401D01*
X0068997Y0208151D02*
X0067997Y0208151D01*
X0067997Y0206650D01*
X0068997Y0206650D01*
X0069470Y0206650D02*
X0070471Y0206650D01*
X0069970Y0207401D02*
X0069470Y0207401D01*
X0069470Y0208151D02*
X0069470Y0206650D01*
X0069470Y0208151D02*
X0070471Y0208151D01*
X0066051Y0206650D02*
X0065050Y0208151D01*
X0072416Y0201650D02*
X0073417Y0202651D01*
X0073417Y0201650D02*
X0072416Y0201650D01*
X0074640Y0202401D02*
X0074890Y0202150D01*
X0074890Y0201900D01*
X0075863Y0202401D02*
X0076113Y0202401D01*
X0076364Y0202150D01*
X0076364Y0201900D01*
X0076113Y0201650D01*
X0076113Y0202401D02*
X0076364Y0202651D01*
X0076364Y0202901D01*
X0076113Y0203151D01*
X0075613Y0203151D01*
X0075363Y0202901D01*
M02*
