%
M48
M72
T01C0.02000
T02C0.03150
T03C0.03200
T04C0.04000
T05C0.04400
T06C0.04724
T07C0.05118
%
T01
X35000Y31600
X45000Y34100
X45000Y51600
X30000Y61600
X35000Y79100
X40000Y81600
X30000Y106600
X30000Y121600
X42500Y146600
X55000Y176600
X70000Y156600
X85000Y171600
X72500Y194100
X82500Y204100
X87500Y231600
X95000Y251600
X87500Y256600
X105000Y256600
X105000Y231600
X127500Y229100
X127500Y254100
X110000Y281600
X70000Y274100
X67500Y301600
X40000Y286600
X32500Y261600
X12500Y239100
X25000Y221600
X32500Y206600
X37500Y216600
X90000Y136600
X102500Y111600
X120000Y141600
X125000Y181600
X127500Y201600
X155000Y186600
X150000Y161600
X162500Y131600
X145000Y96600
X120000Y76600
X105000Y56600
X105000Y31600
X70000Y29100
X62500Y46600
X155000Y226600
X162500Y239100
X190000Y221600
X195000Y241600
X205000Y196600
X165000Y296600
X195000Y36600
T02
X137874Y126600
X122126Y126600
T03
X170000Y196600
X175000Y189100
X180000Y196600
T04
X15000Y11600
X15000Y21600
X15000Y31600
X15000Y41600
X15000Y51600
X15000Y61600
X15000Y71600
X15000Y81600
X15000Y91600
X15000Y101600
X15000Y116600
X15000Y126600
X15000Y136600
X15000Y146600
X15000Y156600
X15000Y166600
X15000Y176600
X15000Y186600
X55000Y164100
X55000Y154100
X55000Y144100
X55000Y134100
X55000Y111600
X45000Y111600
X55000Y96600
X65000Y96600
X75000Y96600
X85000Y96600
X95000Y96600
X105000Y96600
X85000Y69100
X85000Y56600
X75000Y56600
X65000Y56600
X65000Y69100
X75000Y69100
X55000Y69100
X55000Y56600
X65000Y111600
X80000Y161600
X90000Y161600
X100000Y161600
X110000Y161600
X120000Y161600
X130000Y161600
X115000Y186600
X115000Y196600
X105000Y196600
X105000Y186600
X95000Y186600
X95000Y196600
X150000Y146600
X160000Y146600
X170000Y146600
X180000Y146600
X180000Y161600
X170000Y161600
X160000Y161600
X160000Y176600
X170000Y176600
X180000Y176600
X205000Y176600
X205000Y166600
X205000Y156600
X205000Y146600
X205000Y136600
X205000Y116600
X205000Y106600
X205000Y96600
X205000Y86600
X205000Y76600
X205000Y66600
X205000Y56600
X205000Y46600
X145000Y41600
X145000Y51600
X145000Y61600
X205000Y186600
T05
X180000Y106600
X170000Y106600
X170000Y81600
X180000Y81600
X180000Y36600
X170000Y36600
T06
X185000Y251915
X165315Y271600
X165315Y281443
X204685Y281443
X204685Y271600
T07
X204685Y251915
X194843Y251915
X185000Y271600
X175157Y251915
X165315Y251915
M30
