G75*
%MOIN*%
%OFA0B0*%
%FSLAX25Y25*%
%IPPOS*%
%LPD*%
%AMOC8*
5,1,8,0,0,1.08239X$1,22.5*
%
%ADD10C,0.00000*%
%ADD11C,0.01000*%
%ADD12C,0.00200*%
%ADD13C,0.00800*%
%ADD14C,0.00600*%
D10*
X0005000Y0001600D02*
X0005000Y0261600D01*
X0162953Y0271600D02*
X0162955Y0271697D01*
X0162961Y0271794D01*
X0162971Y0271890D01*
X0162985Y0271986D01*
X0163003Y0272082D01*
X0163024Y0272176D01*
X0163050Y0272270D01*
X0163079Y0272362D01*
X0163113Y0272453D01*
X0163149Y0272543D01*
X0163190Y0272631D01*
X0163234Y0272717D01*
X0163282Y0272802D01*
X0163333Y0272884D01*
X0163387Y0272965D01*
X0163445Y0273043D01*
X0163506Y0273118D01*
X0163569Y0273191D01*
X0163636Y0273262D01*
X0163706Y0273329D01*
X0163778Y0273394D01*
X0163853Y0273455D01*
X0163931Y0273514D01*
X0164010Y0273569D01*
X0164092Y0273621D01*
X0164176Y0273669D01*
X0164262Y0273714D01*
X0164350Y0273756D01*
X0164439Y0273794D01*
X0164530Y0273828D01*
X0164622Y0273858D01*
X0164715Y0273885D01*
X0164810Y0273907D01*
X0164905Y0273926D01*
X0165001Y0273941D01*
X0165097Y0273952D01*
X0165194Y0273959D01*
X0165291Y0273962D01*
X0165388Y0273961D01*
X0165485Y0273956D01*
X0165581Y0273947D01*
X0165677Y0273934D01*
X0165773Y0273917D01*
X0165868Y0273896D01*
X0165961Y0273872D01*
X0166054Y0273843D01*
X0166146Y0273811D01*
X0166236Y0273775D01*
X0166324Y0273736D01*
X0166411Y0273692D01*
X0166496Y0273646D01*
X0166579Y0273595D01*
X0166660Y0273542D01*
X0166738Y0273485D01*
X0166815Y0273425D01*
X0166888Y0273362D01*
X0166959Y0273296D01*
X0167027Y0273227D01*
X0167093Y0273155D01*
X0167155Y0273081D01*
X0167214Y0273004D01*
X0167270Y0272925D01*
X0167323Y0272843D01*
X0167373Y0272760D01*
X0167418Y0272674D01*
X0167461Y0272587D01*
X0167500Y0272498D01*
X0167535Y0272408D01*
X0167566Y0272316D01*
X0167593Y0272223D01*
X0167617Y0272129D01*
X0167637Y0272034D01*
X0167653Y0271938D01*
X0167665Y0271842D01*
X0167673Y0271745D01*
X0167677Y0271648D01*
X0167677Y0271552D01*
X0167673Y0271455D01*
X0167665Y0271358D01*
X0167653Y0271262D01*
X0167637Y0271166D01*
X0167617Y0271071D01*
X0167593Y0270977D01*
X0167566Y0270884D01*
X0167535Y0270792D01*
X0167500Y0270702D01*
X0167461Y0270613D01*
X0167418Y0270526D01*
X0167373Y0270440D01*
X0167323Y0270357D01*
X0167270Y0270275D01*
X0167214Y0270196D01*
X0167155Y0270119D01*
X0167093Y0270045D01*
X0167027Y0269973D01*
X0166959Y0269904D01*
X0166888Y0269838D01*
X0166815Y0269775D01*
X0166738Y0269715D01*
X0166660Y0269658D01*
X0166579Y0269605D01*
X0166496Y0269554D01*
X0166411Y0269508D01*
X0166324Y0269464D01*
X0166236Y0269425D01*
X0166146Y0269389D01*
X0166054Y0269357D01*
X0165961Y0269328D01*
X0165868Y0269304D01*
X0165773Y0269283D01*
X0165677Y0269266D01*
X0165581Y0269253D01*
X0165485Y0269244D01*
X0165388Y0269239D01*
X0165291Y0269238D01*
X0165194Y0269241D01*
X0165097Y0269248D01*
X0165001Y0269259D01*
X0164905Y0269274D01*
X0164810Y0269293D01*
X0164715Y0269315D01*
X0164622Y0269342D01*
X0164530Y0269372D01*
X0164439Y0269406D01*
X0164350Y0269444D01*
X0164262Y0269486D01*
X0164176Y0269531D01*
X0164092Y0269579D01*
X0164010Y0269631D01*
X0163931Y0269686D01*
X0163853Y0269745D01*
X0163778Y0269806D01*
X0163706Y0269871D01*
X0163636Y0269938D01*
X0163569Y0270009D01*
X0163506Y0270082D01*
X0163445Y0270157D01*
X0163387Y0270235D01*
X0163333Y0270316D01*
X0163282Y0270398D01*
X0163234Y0270483D01*
X0163190Y0270569D01*
X0163149Y0270657D01*
X0163113Y0270747D01*
X0163079Y0270838D01*
X0163050Y0270930D01*
X0163024Y0271024D01*
X0163003Y0271118D01*
X0162985Y0271214D01*
X0162971Y0271310D01*
X0162961Y0271406D01*
X0162955Y0271503D01*
X0162953Y0271600D01*
X0162953Y0281443D02*
X0162955Y0281540D01*
X0162961Y0281637D01*
X0162971Y0281733D01*
X0162985Y0281829D01*
X0163003Y0281925D01*
X0163024Y0282019D01*
X0163050Y0282113D01*
X0163079Y0282205D01*
X0163113Y0282296D01*
X0163149Y0282386D01*
X0163190Y0282474D01*
X0163234Y0282560D01*
X0163282Y0282645D01*
X0163333Y0282727D01*
X0163387Y0282808D01*
X0163445Y0282886D01*
X0163506Y0282961D01*
X0163569Y0283034D01*
X0163636Y0283105D01*
X0163706Y0283172D01*
X0163778Y0283237D01*
X0163853Y0283298D01*
X0163931Y0283357D01*
X0164010Y0283412D01*
X0164092Y0283464D01*
X0164176Y0283512D01*
X0164262Y0283557D01*
X0164350Y0283599D01*
X0164439Y0283637D01*
X0164530Y0283671D01*
X0164622Y0283701D01*
X0164715Y0283728D01*
X0164810Y0283750D01*
X0164905Y0283769D01*
X0165001Y0283784D01*
X0165097Y0283795D01*
X0165194Y0283802D01*
X0165291Y0283805D01*
X0165388Y0283804D01*
X0165485Y0283799D01*
X0165581Y0283790D01*
X0165677Y0283777D01*
X0165773Y0283760D01*
X0165868Y0283739D01*
X0165961Y0283715D01*
X0166054Y0283686D01*
X0166146Y0283654D01*
X0166236Y0283618D01*
X0166324Y0283579D01*
X0166411Y0283535D01*
X0166496Y0283489D01*
X0166579Y0283438D01*
X0166660Y0283385D01*
X0166738Y0283328D01*
X0166815Y0283268D01*
X0166888Y0283205D01*
X0166959Y0283139D01*
X0167027Y0283070D01*
X0167093Y0282998D01*
X0167155Y0282924D01*
X0167214Y0282847D01*
X0167270Y0282768D01*
X0167323Y0282686D01*
X0167373Y0282603D01*
X0167418Y0282517D01*
X0167461Y0282430D01*
X0167500Y0282341D01*
X0167535Y0282251D01*
X0167566Y0282159D01*
X0167593Y0282066D01*
X0167617Y0281972D01*
X0167637Y0281877D01*
X0167653Y0281781D01*
X0167665Y0281685D01*
X0167673Y0281588D01*
X0167677Y0281491D01*
X0167677Y0281395D01*
X0167673Y0281298D01*
X0167665Y0281201D01*
X0167653Y0281105D01*
X0167637Y0281009D01*
X0167617Y0280914D01*
X0167593Y0280820D01*
X0167566Y0280727D01*
X0167535Y0280635D01*
X0167500Y0280545D01*
X0167461Y0280456D01*
X0167418Y0280369D01*
X0167373Y0280283D01*
X0167323Y0280200D01*
X0167270Y0280118D01*
X0167214Y0280039D01*
X0167155Y0279962D01*
X0167093Y0279888D01*
X0167027Y0279816D01*
X0166959Y0279747D01*
X0166888Y0279681D01*
X0166815Y0279618D01*
X0166738Y0279558D01*
X0166660Y0279501D01*
X0166579Y0279448D01*
X0166496Y0279397D01*
X0166411Y0279351D01*
X0166324Y0279307D01*
X0166236Y0279268D01*
X0166146Y0279232D01*
X0166054Y0279200D01*
X0165961Y0279171D01*
X0165868Y0279147D01*
X0165773Y0279126D01*
X0165677Y0279109D01*
X0165581Y0279096D01*
X0165485Y0279087D01*
X0165388Y0279082D01*
X0165291Y0279081D01*
X0165194Y0279084D01*
X0165097Y0279091D01*
X0165001Y0279102D01*
X0164905Y0279117D01*
X0164810Y0279136D01*
X0164715Y0279158D01*
X0164622Y0279185D01*
X0164530Y0279215D01*
X0164439Y0279249D01*
X0164350Y0279287D01*
X0164262Y0279329D01*
X0164176Y0279374D01*
X0164092Y0279422D01*
X0164010Y0279474D01*
X0163931Y0279529D01*
X0163853Y0279588D01*
X0163778Y0279649D01*
X0163706Y0279714D01*
X0163636Y0279781D01*
X0163569Y0279852D01*
X0163506Y0279925D01*
X0163445Y0280000D01*
X0163387Y0280078D01*
X0163333Y0280159D01*
X0163282Y0280241D01*
X0163234Y0280326D01*
X0163190Y0280412D01*
X0163149Y0280500D01*
X0163113Y0280590D01*
X0163079Y0280681D01*
X0163050Y0280773D01*
X0163024Y0280867D01*
X0163003Y0280961D01*
X0162985Y0281057D01*
X0162971Y0281153D01*
X0162961Y0281249D01*
X0162955Y0281346D01*
X0162953Y0281443D01*
X0182638Y0251915D02*
X0182640Y0252012D01*
X0182646Y0252109D01*
X0182656Y0252205D01*
X0182670Y0252301D01*
X0182688Y0252397D01*
X0182709Y0252491D01*
X0182735Y0252585D01*
X0182764Y0252677D01*
X0182798Y0252768D01*
X0182834Y0252858D01*
X0182875Y0252946D01*
X0182919Y0253032D01*
X0182967Y0253117D01*
X0183018Y0253199D01*
X0183072Y0253280D01*
X0183130Y0253358D01*
X0183191Y0253433D01*
X0183254Y0253506D01*
X0183321Y0253577D01*
X0183391Y0253644D01*
X0183463Y0253709D01*
X0183538Y0253770D01*
X0183616Y0253829D01*
X0183695Y0253884D01*
X0183777Y0253936D01*
X0183861Y0253984D01*
X0183947Y0254029D01*
X0184035Y0254071D01*
X0184124Y0254109D01*
X0184215Y0254143D01*
X0184307Y0254173D01*
X0184400Y0254200D01*
X0184495Y0254222D01*
X0184590Y0254241D01*
X0184686Y0254256D01*
X0184782Y0254267D01*
X0184879Y0254274D01*
X0184976Y0254277D01*
X0185073Y0254276D01*
X0185170Y0254271D01*
X0185266Y0254262D01*
X0185362Y0254249D01*
X0185458Y0254232D01*
X0185553Y0254211D01*
X0185646Y0254187D01*
X0185739Y0254158D01*
X0185831Y0254126D01*
X0185921Y0254090D01*
X0186009Y0254051D01*
X0186096Y0254007D01*
X0186181Y0253961D01*
X0186264Y0253910D01*
X0186345Y0253857D01*
X0186423Y0253800D01*
X0186500Y0253740D01*
X0186573Y0253677D01*
X0186644Y0253611D01*
X0186712Y0253542D01*
X0186778Y0253470D01*
X0186840Y0253396D01*
X0186899Y0253319D01*
X0186955Y0253240D01*
X0187008Y0253158D01*
X0187058Y0253075D01*
X0187103Y0252989D01*
X0187146Y0252902D01*
X0187185Y0252813D01*
X0187220Y0252723D01*
X0187251Y0252631D01*
X0187278Y0252538D01*
X0187302Y0252444D01*
X0187322Y0252349D01*
X0187338Y0252253D01*
X0187350Y0252157D01*
X0187358Y0252060D01*
X0187362Y0251963D01*
X0187362Y0251867D01*
X0187358Y0251770D01*
X0187350Y0251673D01*
X0187338Y0251577D01*
X0187322Y0251481D01*
X0187302Y0251386D01*
X0187278Y0251292D01*
X0187251Y0251199D01*
X0187220Y0251107D01*
X0187185Y0251017D01*
X0187146Y0250928D01*
X0187103Y0250841D01*
X0187058Y0250755D01*
X0187008Y0250672D01*
X0186955Y0250590D01*
X0186899Y0250511D01*
X0186840Y0250434D01*
X0186778Y0250360D01*
X0186712Y0250288D01*
X0186644Y0250219D01*
X0186573Y0250153D01*
X0186500Y0250090D01*
X0186423Y0250030D01*
X0186345Y0249973D01*
X0186264Y0249920D01*
X0186181Y0249869D01*
X0186096Y0249823D01*
X0186009Y0249779D01*
X0185921Y0249740D01*
X0185831Y0249704D01*
X0185739Y0249672D01*
X0185646Y0249643D01*
X0185553Y0249619D01*
X0185458Y0249598D01*
X0185362Y0249581D01*
X0185266Y0249568D01*
X0185170Y0249559D01*
X0185073Y0249554D01*
X0184976Y0249553D01*
X0184879Y0249556D01*
X0184782Y0249563D01*
X0184686Y0249574D01*
X0184590Y0249589D01*
X0184495Y0249608D01*
X0184400Y0249630D01*
X0184307Y0249657D01*
X0184215Y0249687D01*
X0184124Y0249721D01*
X0184035Y0249759D01*
X0183947Y0249801D01*
X0183861Y0249846D01*
X0183777Y0249894D01*
X0183695Y0249946D01*
X0183616Y0250001D01*
X0183538Y0250060D01*
X0183463Y0250121D01*
X0183391Y0250186D01*
X0183321Y0250253D01*
X0183254Y0250324D01*
X0183191Y0250397D01*
X0183130Y0250472D01*
X0183072Y0250550D01*
X0183018Y0250631D01*
X0182967Y0250713D01*
X0182919Y0250798D01*
X0182875Y0250884D01*
X0182834Y0250972D01*
X0182798Y0251062D01*
X0182764Y0251153D01*
X0182735Y0251245D01*
X0182709Y0251339D01*
X0182688Y0251433D01*
X0182670Y0251529D01*
X0182656Y0251625D01*
X0182646Y0251721D01*
X0182640Y0251818D01*
X0182638Y0251915D01*
X0202323Y0271600D02*
X0202325Y0271697D01*
X0202331Y0271794D01*
X0202341Y0271890D01*
X0202355Y0271986D01*
X0202373Y0272082D01*
X0202394Y0272176D01*
X0202420Y0272270D01*
X0202449Y0272362D01*
X0202483Y0272453D01*
X0202519Y0272543D01*
X0202560Y0272631D01*
X0202604Y0272717D01*
X0202652Y0272802D01*
X0202703Y0272884D01*
X0202757Y0272965D01*
X0202815Y0273043D01*
X0202876Y0273118D01*
X0202939Y0273191D01*
X0203006Y0273262D01*
X0203076Y0273329D01*
X0203148Y0273394D01*
X0203223Y0273455D01*
X0203301Y0273514D01*
X0203380Y0273569D01*
X0203462Y0273621D01*
X0203546Y0273669D01*
X0203632Y0273714D01*
X0203720Y0273756D01*
X0203809Y0273794D01*
X0203900Y0273828D01*
X0203992Y0273858D01*
X0204085Y0273885D01*
X0204180Y0273907D01*
X0204275Y0273926D01*
X0204371Y0273941D01*
X0204467Y0273952D01*
X0204564Y0273959D01*
X0204661Y0273962D01*
X0204758Y0273961D01*
X0204855Y0273956D01*
X0204951Y0273947D01*
X0205047Y0273934D01*
X0205143Y0273917D01*
X0205238Y0273896D01*
X0205331Y0273872D01*
X0205424Y0273843D01*
X0205516Y0273811D01*
X0205606Y0273775D01*
X0205694Y0273736D01*
X0205781Y0273692D01*
X0205866Y0273646D01*
X0205949Y0273595D01*
X0206030Y0273542D01*
X0206108Y0273485D01*
X0206185Y0273425D01*
X0206258Y0273362D01*
X0206329Y0273296D01*
X0206397Y0273227D01*
X0206463Y0273155D01*
X0206525Y0273081D01*
X0206584Y0273004D01*
X0206640Y0272925D01*
X0206693Y0272843D01*
X0206743Y0272760D01*
X0206788Y0272674D01*
X0206831Y0272587D01*
X0206870Y0272498D01*
X0206905Y0272408D01*
X0206936Y0272316D01*
X0206963Y0272223D01*
X0206987Y0272129D01*
X0207007Y0272034D01*
X0207023Y0271938D01*
X0207035Y0271842D01*
X0207043Y0271745D01*
X0207047Y0271648D01*
X0207047Y0271552D01*
X0207043Y0271455D01*
X0207035Y0271358D01*
X0207023Y0271262D01*
X0207007Y0271166D01*
X0206987Y0271071D01*
X0206963Y0270977D01*
X0206936Y0270884D01*
X0206905Y0270792D01*
X0206870Y0270702D01*
X0206831Y0270613D01*
X0206788Y0270526D01*
X0206743Y0270440D01*
X0206693Y0270357D01*
X0206640Y0270275D01*
X0206584Y0270196D01*
X0206525Y0270119D01*
X0206463Y0270045D01*
X0206397Y0269973D01*
X0206329Y0269904D01*
X0206258Y0269838D01*
X0206185Y0269775D01*
X0206108Y0269715D01*
X0206030Y0269658D01*
X0205949Y0269605D01*
X0205866Y0269554D01*
X0205781Y0269508D01*
X0205694Y0269464D01*
X0205606Y0269425D01*
X0205516Y0269389D01*
X0205424Y0269357D01*
X0205331Y0269328D01*
X0205238Y0269304D01*
X0205143Y0269283D01*
X0205047Y0269266D01*
X0204951Y0269253D01*
X0204855Y0269244D01*
X0204758Y0269239D01*
X0204661Y0269238D01*
X0204564Y0269241D01*
X0204467Y0269248D01*
X0204371Y0269259D01*
X0204275Y0269274D01*
X0204180Y0269293D01*
X0204085Y0269315D01*
X0203992Y0269342D01*
X0203900Y0269372D01*
X0203809Y0269406D01*
X0203720Y0269444D01*
X0203632Y0269486D01*
X0203546Y0269531D01*
X0203462Y0269579D01*
X0203380Y0269631D01*
X0203301Y0269686D01*
X0203223Y0269745D01*
X0203148Y0269806D01*
X0203076Y0269871D01*
X0203006Y0269938D01*
X0202939Y0270009D01*
X0202876Y0270082D01*
X0202815Y0270157D01*
X0202757Y0270235D01*
X0202703Y0270316D01*
X0202652Y0270398D01*
X0202604Y0270483D01*
X0202560Y0270569D01*
X0202519Y0270657D01*
X0202483Y0270747D01*
X0202449Y0270838D01*
X0202420Y0270930D01*
X0202394Y0271024D01*
X0202373Y0271118D01*
X0202355Y0271214D01*
X0202341Y0271310D01*
X0202331Y0271406D01*
X0202325Y0271503D01*
X0202323Y0271600D01*
X0202323Y0281443D02*
X0202325Y0281540D01*
X0202331Y0281637D01*
X0202341Y0281733D01*
X0202355Y0281829D01*
X0202373Y0281925D01*
X0202394Y0282019D01*
X0202420Y0282113D01*
X0202449Y0282205D01*
X0202483Y0282296D01*
X0202519Y0282386D01*
X0202560Y0282474D01*
X0202604Y0282560D01*
X0202652Y0282645D01*
X0202703Y0282727D01*
X0202757Y0282808D01*
X0202815Y0282886D01*
X0202876Y0282961D01*
X0202939Y0283034D01*
X0203006Y0283105D01*
X0203076Y0283172D01*
X0203148Y0283237D01*
X0203223Y0283298D01*
X0203301Y0283357D01*
X0203380Y0283412D01*
X0203462Y0283464D01*
X0203546Y0283512D01*
X0203632Y0283557D01*
X0203720Y0283599D01*
X0203809Y0283637D01*
X0203900Y0283671D01*
X0203992Y0283701D01*
X0204085Y0283728D01*
X0204180Y0283750D01*
X0204275Y0283769D01*
X0204371Y0283784D01*
X0204467Y0283795D01*
X0204564Y0283802D01*
X0204661Y0283805D01*
X0204758Y0283804D01*
X0204855Y0283799D01*
X0204951Y0283790D01*
X0205047Y0283777D01*
X0205143Y0283760D01*
X0205238Y0283739D01*
X0205331Y0283715D01*
X0205424Y0283686D01*
X0205516Y0283654D01*
X0205606Y0283618D01*
X0205694Y0283579D01*
X0205781Y0283535D01*
X0205866Y0283489D01*
X0205949Y0283438D01*
X0206030Y0283385D01*
X0206108Y0283328D01*
X0206185Y0283268D01*
X0206258Y0283205D01*
X0206329Y0283139D01*
X0206397Y0283070D01*
X0206463Y0282998D01*
X0206525Y0282924D01*
X0206584Y0282847D01*
X0206640Y0282768D01*
X0206693Y0282686D01*
X0206743Y0282603D01*
X0206788Y0282517D01*
X0206831Y0282430D01*
X0206870Y0282341D01*
X0206905Y0282251D01*
X0206936Y0282159D01*
X0206963Y0282066D01*
X0206987Y0281972D01*
X0207007Y0281877D01*
X0207023Y0281781D01*
X0207035Y0281685D01*
X0207043Y0281588D01*
X0207047Y0281491D01*
X0207047Y0281395D01*
X0207043Y0281298D01*
X0207035Y0281201D01*
X0207023Y0281105D01*
X0207007Y0281009D01*
X0206987Y0280914D01*
X0206963Y0280820D01*
X0206936Y0280727D01*
X0206905Y0280635D01*
X0206870Y0280545D01*
X0206831Y0280456D01*
X0206788Y0280369D01*
X0206743Y0280283D01*
X0206693Y0280200D01*
X0206640Y0280118D01*
X0206584Y0280039D01*
X0206525Y0279962D01*
X0206463Y0279888D01*
X0206397Y0279816D01*
X0206329Y0279747D01*
X0206258Y0279681D01*
X0206185Y0279618D01*
X0206108Y0279558D01*
X0206030Y0279501D01*
X0205949Y0279448D01*
X0205866Y0279397D01*
X0205781Y0279351D01*
X0205694Y0279307D01*
X0205606Y0279268D01*
X0205516Y0279232D01*
X0205424Y0279200D01*
X0205331Y0279171D01*
X0205238Y0279147D01*
X0205143Y0279126D01*
X0205047Y0279109D01*
X0204951Y0279096D01*
X0204855Y0279087D01*
X0204758Y0279082D01*
X0204661Y0279081D01*
X0204564Y0279084D01*
X0204467Y0279091D01*
X0204371Y0279102D01*
X0204275Y0279117D01*
X0204180Y0279136D01*
X0204085Y0279158D01*
X0203992Y0279185D01*
X0203900Y0279215D01*
X0203809Y0279249D01*
X0203720Y0279287D01*
X0203632Y0279329D01*
X0203546Y0279374D01*
X0203462Y0279422D01*
X0203380Y0279474D01*
X0203301Y0279529D01*
X0203223Y0279588D01*
X0203148Y0279649D01*
X0203076Y0279714D01*
X0203006Y0279781D01*
X0202939Y0279852D01*
X0202876Y0279925D01*
X0202815Y0280000D01*
X0202757Y0280078D01*
X0202703Y0280159D01*
X0202652Y0280241D01*
X0202604Y0280326D01*
X0202560Y0280412D01*
X0202519Y0280500D01*
X0202483Y0280590D01*
X0202449Y0280681D01*
X0202420Y0280773D01*
X0202394Y0280867D01*
X0202373Y0280961D01*
X0202355Y0281057D01*
X0202341Y0281153D01*
X0202331Y0281249D01*
X0202325Y0281346D01*
X0202323Y0281443D01*
D11*
X0005000Y0306600D02*
X0005000Y0001600D01*
X0020000Y0001600D01*
X0025000Y0006600D01*
X0025000Y0011600D01*
X0035000Y0021600D01*
X0200000Y0021600D01*
X0215000Y0036600D01*
X0215000Y0291600D01*
X0200000Y0306600D01*
X0005000Y0306600D01*
D12*
X0047600Y0085088D02*
X0047600Y0083620D01*
X0049802Y0083620D01*
X0049435Y0082878D02*
X0049802Y0082511D01*
X0049802Y0081777D01*
X0049435Y0081410D01*
X0047967Y0081410D01*
X0047600Y0081777D01*
X0047600Y0082511D01*
X0047967Y0082878D01*
X0047967Y0080668D02*
X0047600Y0080301D01*
X0047600Y0079567D01*
X0047967Y0079200D01*
X0048701Y0079567D02*
X0048701Y0080301D01*
X0048334Y0080668D01*
X0047967Y0080668D01*
X0048701Y0079567D02*
X0049068Y0079200D01*
X0049435Y0079200D01*
X0049802Y0079567D01*
X0049802Y0080301D01*
X0049435Y0080668D01*
X0070600Y0080910D02*
X0070600Y0082011D01*
X0070967Y0082378D01*
X0072435Y0082378D01*
X0072802Y0082011D01*
X0072802Y0080910D01*
X0070600Y0080910D01*
X0070967Y0080168D02*
X0070600Y0079801D01*
X0070600Y0079067D01*
X0070967Y0078700D01*
X0071701Y0079067D02*
X0071701Y0079801D01*
X0071334Y0080168D01*
X0070967Y0080168D01*
X0071701Y0079067D02*
X0072068Y0078700D01*
X0072435Y0078700D01*
X0072802Y0079067D01*
X0072802Y0079801D01*
X0072435Y0080168D01*
X0072068Y0083120D02*
X0072802Y0083854D01*
X0072068Y0084588D01*
X0070600Y0084588D01*
X0071701Y0084588D02*
X0071701Y0083120D01*
X0072068Y0083120D02*
X0070600Y0083120D01*
D13*
X0071000Y0084850D02*
X0071000Y0078350D01*
X0071002Y0078290D01*
X0071007Y0078229D01*
X0071016Y0078170D01*
X0071029Y0078111D01*
X0071045Y0078052D01*
X0071065Y0077995D01*
X0071088Y0077940D01*
X0071115Y0077885D01*
X0071144Y0077833D01*
X0071177Y0077782D01*
X0071213Y0077733D01*
X0071251Y0077687D01*
X0071293Y0077643D01*
X0071337Y0077601D01*
X0071383Y0077563D01*
X0071432Y0077527D01*
X0071483Y0077494D01*
X0071535Y0077465D01*
X0071590Y0077438D01*
X0071645Y0077415D01*
X0071702Y0077395D01*
X0071761Y0077379D01*
X0071820Y0077366D01*
X0071879Y0077357D01*
X0071940Y0077352D01*
X0072000Y0077350D01*
X0069000Y0078350D02*
X0069000Y0084850D01*
X0068998Y0084910D01*
X0068993Y0084971D01*
X0068984Y0085030D01*
X0068971Y0085089D01*
X0068955Y0085148D01*
X0068935Y0085205D01*
X0068912Y0085260D01*
X0068885Y0085315D01*
X0068856Y0085367D01*
X0068823Y0085418D01*
X0068787Y0085467D01*
X0068749Y0085513D01*
X0068707Y0085557D01*
X0068663Y0085599D01*
X0068617Y0085637D01*
X0068568Y0085673D01*
X0068517Y0085706D01*
X0068465Y0085735D01*
X0068410Y0085762D01*
X0068355Y0085785D01*
X0068298Y0085805D01*
X0068239Y0085821D01*
X0068180Y0085834D01*
X0068121Y0085843D01*
X0068060Y0085848D01*
X0068000Y0085850D01*
X0071000Y0084850D02*
X0071002Y0084910D01*
X0071007Y0084971D01*
X0071016Y0085030D01*
X0071029Y0085089D01*
X0071045Y0085148D01*
X0071065Y0085205D01*
X0071088Y0085260D01*
X0071115Y0085315D01*
X0071144Y0085367D01*
X0071177Y0085418D01*
X0071213Y0085467D01*
X0071251Y0085513D01*
X0071293Y0085557D01*
X0071337Y0085599D01*
X0071383Y0085637D01*
X0071432Y0085673D01*
X0071483Y0085706D01*
X0071535Y0085735D01*
X0071590Y0085762D01*
X0071645Y0085785D01*
X0071702Y0085805D01*
X0071761Y0085821D01*
X0071820Y0085834D01*
X0071879Y0085843D01*
X0071940Y0085848D01*
X0072000Y0085850D01*
X0069000Y0078350D02*
X0068998Y0078290D01*
X0068993Y0078229D01*
X0068984Y0078170D01*
X0068971Y0078111D01*
X0068955Y0078052D01*
X0068935Y0077995D01*
X0068912Y0077940D01*
X0068885Y0077885D01*
X0068856Y0077833D01*
X0068823Y0077782D01*
X0068787Y0077733D01*
X0068749Y0077687D01*
X0068707Y0077643D01*
X0068663Y0077601D01*
X0068617Y0077563D01*
X0068568Y0077527D01*
X0068517Y0077494D01*
X0068465Y0077465D01*
X0068410Y0077438D01*
X0068355Y0077415D01*
X0068298Y0077395D01*
X0068239Y0077379D01*
X0068180Y0077366D01*
X0068121Y0077357D01*
X0068060Y0077352D01*
X0068000Y0077350D01*
X0062000Y0077350D02*
X0061940Y0077352D01*
X0061879Y0077357D01*
X0061820Y0077366D01*
X0061761Y0077379D01*
X0061702Y0077395D01*
X0061645Y0077415D01*
X0061590Y0077438D01*
X0061535Y0077465D01*
X0061483Y0077494D01*
X0061432Y0077527D01*
X0061383Y0077563D01*
X0061337Y0077601D01*
X0061293Y0077643D01*
X0061251Y0077687D01*
X0061213Y0077733D01*
X0061177Y0077782D01*
X0061144Y0077833D01*
X0061115Y0077885D01*
X0061088Y0077940D01*
X0061065Y0077995D01*
X0061045Y0078052D01*
X0061029Y0078111D01*
X0061016Y0078170D01*
X0061007Y0078229D01*
X0061002Y0078290D01*
X0061000Y0078350D01*
X0061000Y0084850D01*
X0061002Y0084910D01*
X0061007Y0084971D01*
X0061016Y0085030D01*
X0061029Y0085089D01*
X0061045Y0085148D01*
X0061065Y0085205D01*
X0061088Y0085260D01*
X0061115Y0085315D01*
X0061144Y0085367D01*
X0061177Y0085418D01*
X0061213Y0085467D01*
X0061251Y0085513D01*
X0061293Y0085557D01*
X0061337Y0085599D01*
X0061383Y0085637D01*
X0061432Y0085673D01*
X0061483Y0085706D01*
X0061535Y0085735D01*
X0061590Y0085762D01*
X0061645Y0085785D01*
X0061702Y0085805D01*
X0061761Y0085821D01*
X0061820Y0085834D01*
X0061879Y0085843D01*
X0061940Y0085848D01*
X0062000Y0085850D01*
X0078000Y0085850D02*
X0078060Y0085848D01*
X0078121Y0085843D01*
X0078180Y0085834D01*
X0078239Y0085821D01*
X0078298Y0085805D01*
X0078355Y0085785D01*
X0078410Y0085762D01*
X0078465Y0085735D01*
X0078517Y0085706D01*
X0078568Y0085673D01*
X0078617Y0085637D01*
X0078663Y0085599D01*
X0078707Y0085557D01*
X0078749Y0085513D01*
X0078787Y0085467D01*
X0078823Y0085418D01*
X0078856Y0085367D01*
X0078885Y0085315D01*
X0078912Y0085260D01*
X0078935Y0085205D01*
X0078955Y0085148D01*
X0078971Y0085089D01*
X0078984Y0085030D01*
X0078993Y0084971D01*
X0078998Y0084910D01*
X0079000Y0084850D01*
X0079000Y0078350D01*
X0078998Y0078290D01*
X0078993Y0078229D01*
X0078984Y0078170D01*
X0078971Y0078111D01*
X0078955Y0078052D01*
X0078935Y0077995D01*
X0078912Y0077940D01*
X0078885Y0077885D01*
X0078856Y0077833D01*
X0078823Y0077782D01*
X0078787Y0077733D01*
X0078749Y0077687D01*
X0078707Y0077643D01*
X0078663Y0077601D01*
X0078617Y0077563D01*
X0078568Y0077527D01*
X0078517Y0077494D01*
X0078465Y0077465D01*
X0078410Y0077438D01*
X0078355Y0077415D01*
X0078298Y0077395D01*
X0078239Y0077379D01*
X0078180Y0077366D01*
X0078121Y0077357D01*
X0078060Y0077352D01*
X0078000Y0077350D01*
D14*
X0043000Y0130600D02*
X0037000Y0130600D01*
X0036940Y0130602D01*
X0036879Y0130607D01*
X0036820Y0130616D01*
X0036761Y0130629D01*
X0036702Y0130645D01*
X0036645Y0130665D01*
X0036590Y0130688D01*
X0036535Y0130715D01*
X0036483Y0130744D01*
X0036432Y0130777D01*
X0036383Y0130813D01*
X0036337Y0130851D01*
X0036293Y0130893D01*
X0036251Y0130937D01*
X0036213Y0130983D01*
X0036177Y0131032D01*
X0036144Y0131083D01*
X0036115Y0131135D01*
X0036088Y0131190D01*
X0036065Y0131245D01*
X0036045Y0131302D01*
X0036029Y0131361D01*
X0036016Y0131420D01*
X0036007Y0131479D01*
X0036002Y0131540D01*
X0036000Y0131600D01*
X0036000Y0141600D01*
X0036002Y0141660D01*
X0036007Y0141721D01*
X0036016Y0141780D01*
X0036029Y0141839D01*
X0036045Y0141898D01*
X0036065Y0141955D01*
X0036088Y0142010D01*
X0036115Y0142065D01*
X0036144Y0142117D01*
X0036177Y0142168D01*
X0036213Y0142217D01*
X0036251Y0142263D01*
X0036293Y0142307D01*
X0036337Y0142349D01*
X0036383Y0142387D01*
X0036432Y0142423D01*
X0036483Y0142456D01*
X0036535Y0142485D01*
X0036590Y0142512D01*
X0036645Y0142535D01*
X0036702Y0142555D01*
X0036761Y0142571D01*
X0036820Y0142584D01*
X0036879Y0142593D01*
X0036940Y0142598D01*
X0037000Y0142600D01*
X0043000Y0142600D01*
X0043060Y0142598D01*
X0043121Y0142593D01*
X0043180Y0142584D01*
X0043239Y0142571D01*
X0043298Y0142555D01*
X0043355Y0142535D01*
X0043410Y0142512D01*
X0043465Y0142485D01*
X0043517Y0142456D01*
X0043568Y0142423D01*
X0043617Y0142387D01*
X0043663Y0142349D01*
X0043707Y0142307D01*
X0043749Y0142263D01*
X0043787Y0142217D01*
X0043823Y0142168D01*
X0043856Y0142117D01*
X0043885Y0142065D01*
X0043912Y0142010D01*
X0043935Y0141955D01*
X0043955Y0141898D01*
X0043971Y0141839D01*
X0043984Y0141780D01*
X0043993Y0141721D01*
X0043998Y0141660D01*
X0044000Y0141600D01*
X0044000Y0131600D01*
X0043998Y0131540D01*
X0043993Y0131479D01*
X0043984Y0131420D01*
X0043971Y0131361D01*
X0043955Y0131302D01*
X0043935Y0131245D01*
X0043912Y0131190D01*
X0043885Y0131135D01*
X0043856Y0131083D01*
X0043823Y0131032D01*
X0043787Y0130983D01*
X0043749Y0130937D01*
X0043707Y0130893D01*
X0043663Y0130851D01*
X0043617Y0130813D01*
X0043568Y0130777D01*
X0043517Y0130744D01*
X0043465Y0130715D01*
X0043410Y0130688D01*
X0043355Y0130665D01*
X0043298Y0130645D01*
X0043239Y0130629D01*
X0043180Y0130616D01*
X0043121Y0130607D01*
X0043060Y0130602D01*
X0043000Y0130600D01*
X0043000Y0150600D02*
X0037000Y0150600D01*
X0036940Y0150602D01*
X0036879Y0150607D01*
X0036820Y0150616D01*
X0036761Y0150629D01*
X0036702Y0150645D01*
X0036645Y0150665D01*
X0036590Y0150688D01*
X0036535Y0150715D01*
X0036483Y0150744D01*
X0036432Y0150777D01*
X0036383Y0150813D01*
X0036337Y0150851D01*
X0036293Y0150893D01*
X0036251Y0150937D01*
X0036213Y0150983D01*
X0036177Y0151032D01*
X0036144Y0151083D01*
X0036115Y0151135D01*
X0036088Y0151190D01*
X0036065Y0151245D01*
X0036045Y0151302D01*
X0036029Y0151361D01*
X0036016Y0151420D01*
X0036007Y0151479D01*
X0036002Y0151540D01*
X0036000Y0151600D01*
X0036000Y0161600D01*
X0036002Y0161660D01*
X0036007Y0161721D01*
X0036016Y0161780D01*
X0036029Y0161839D01*
X0036045Y0161898D01*
X0036065Y0161955D01*
X0036088Y0162010D01*
X0036115Y0162065D01*
X0036144Y0162117D01*
X0036177Y0162168D01*
X0036213Y0162217D01*
X0036251Y0162263D01*
X0036293Y0162307D01*
X0036337Y0162349D01*
X0036383Y0162387D01*
X0036432Y0162423D01*
X0036483Y0162456D01*
X0036535Y0162485D01*
X0036590Y0162512D01*
X0036645Y0162535D01*
X0036702Y0162555D01*
X0036761Y0162571D01*
X0036820Y0162584D01*
X0036879Y0162593D01*
X0036940Y0162598D01*
X0037000Y0162600D01*
X0043000Y0162600D01*
X0043060Y0162598D01*
X0043121Y0162593D01*
X0043180Y0162584D01*
X0043239Y0162571D01*
X0043298Y0162555D01*
X0043355Y0162535D01*
X0043410Y0162512D01*
X0043465Y0162485D01*
X0043517Y0162456D01*
X0043568Y0162423D01*
X0043617Y0162387D01*
X0043663Y0162349D01*
X0043707Y0162307D01*
X0043749Y0162263D01*
X0043787Y0162217D01*
X0043823Y0162168D01*
X0043856Y0162117D01*
X0043885Y0162065D01*
X0043912Y0162010D01*
X0043935Y0161955D01*
X0043955Y0161898D01*
X0043971Y0161839D01*
X0043984Y0161780D01*
X0043993Y0161721D01*
X0043998Y0161660D01*
X0044000Y0161600D01*
X0044000Y0151600D01*
X0043998Y0151540D01*
X0043993Y0151479D01*
X0043984Y0151420D01*
X0043971Y0151361D01*
X0043955Y0151302D01*
X0043935Y0151245D01*
X0043912Y0151190D01*
X0043885Y0151135D01*
X0043856Y0151083D01*
X0043823Y0151032D01*
X0043787Y0150983D01*
X0043749Y0150937D01*
X0043707Y0150893D01*
X0043663Y0150851D01*
X0043617Y0150813D01*
X0043568Y0150777D01*
X0043517Y0150744D01*
X0043465Y0150715D01*
X0043410Y0150688D01*
X0043355Y0150665D01*
X0043298Y0150645D01*
X0043239Y0150629D01*
X0043180Y0150616D01*
X0043121Y0150607D01*
X0043060Y0150602D01*
X0043000Y0150600D01*
M02*
