G75*
%MOIN*%
%OFA0B0*%
%FSLAX25Y25*%
%IPPOS*%
%LPD*%
%AMOC8*
5,1,8,0,0,1.08239X$1,22.5*
%
%ADD10C,0.08600*%
%ADD11C,0.07400*%
%ADD12OC8,0.07400*%
%ADD13C,0.07400*%
%ADD14R,0.07400X0.07400*%
%ADD15C,0.06000*%
%ADD16C,0.06600*%
%ADD17C,0.00800*%
%ADD18R,0.05000X0.02500*%
%ADD19C,0.03200*%
%ADD20C,0.03200*%
%ADD21C,0.02400*%
%ADD22C,0.01000*%
%ADD23C,0.04000*%
%ADD24C,0.01200*%
D10*
X0165315Y0251915D03*
X0175157Y0251915D03*
X0185000Y0271600D03*
X0194843Y0251915D03*
X0204685Y0251915D03*
D11*
X0180000Y0196600D03*
X0175000Y0189100D03*
X0170000Y0196600D03*
X0170000Y0176600D03*
X0160000Y0176600D03*
X0160000Y0161600D03*
X0170000Y0161600D03*
X0180000Y0161600D03*
X0180000Y0146600D03*
X0170000Y0146600D03*
X0160000Y0146600D03*
X0180000Y0176600D03*
X0205000Y0176600D03*
X0205000Y0166600D03*
X0205000Y0156600D03*
X0205000Y0146600D03*
X0205000Y0136600D03*
X0205000Y0116600D03*
X0205000Y0106600D03*
X0205000Y0096600D03*
X0205000Y0086600D03*
X0205000Y0076600D03*
X0205000Y0066600D03*
X0205000Y0056600D03*
X0205000Y0046600D03*
X0130000Y0161600D03*
X0120000Y0161600D03*
X0110000Y0161600D03*
X0100000Y0161600D03*
X0090000Y0161600D03*
X0080000Y0161600D03*
X0055000Y0154100D03*
X0055000Y0144100D03*
X0055000Y0134100D03*
X0055000Y0111600D03*
X0045000Y0111600D03*
X0055000Y0096600D03*
X0065000Y0096600D03*
X0075000Y0096600D03*
X0085000Y0096600D03*
X0095000Y0096600D03*
X0105000Y0096600D03*
X0085000Y0069100D03*
X0085000Y0056600D03*
X0075000Y0056600D03*
X0065000Y0056600D03*
X0065000Y0069100D03*
X0075000Y0069100D03*
X0065000Y0111600D03*
X0015000Y0116600D03*
X0015000Y0126600D03*
X0015000Y0136600D03*
X0015000Y0146600D03*
X0015000Y0156600D03*
X0015000Y0166600D03*
X0015000Y0176600D03*
X0015000Y0186600D03*
X0015000Y0101600D03*
X0015000Y0091600D03*
X0015000Y0081600D03*
X0015000Y0071600D03*
X0015000Y0061600D03*
X0015000Y0051600D03*
X0015000Y0041600D03*
X0015000Y0031600D03*
X0015000Y0021600D03*
X0015000Y0011600D03*
X0205000Y0186600D03*
D12*
X0115000Y0186600D03*
X0115000Y0196600D03*
X0105000Y0196600D03*
X0105000Y0186600D03*
X0095000Y0186600D03*
X0095000Y0196600D03*
D13*
X0170000Y0110300D02*
X0170000Y0102900D01*
X0180000Y0102900D02*
X0180000Y0110300D01*
X0180000Y0085300D02*
X0180000Y0077900D01*
X0170000Y0077900D02*
X0170000Y0085300D01*
X0170000Y0040300D02*
X0170000Y0032900D01*
X0180000Y0032900D02*
X0180000Y0040300D01*
D14*
X0150000Y0146600D03*
X0055000Y0164100D03*
X0055000Y0069100D03*
X0055000Y0056600D03*
D15*
X0142000Y0051600D02*
X0148000Y0051600D01*
X0148000Y0041600D02*
X0142000Y0041600D01*
X0142000Y0061600D02*
X0148000Y0061600D01*
D16*
X0137874Y0126600D03*
X0122126Y0126600D03*
D17*
X0075000Y0083100D02*
X0075000Y0080100D01*
X0065000Y0080100D02*
X0065000Y0083100D01*
X0040000Y0136600D02*
X0040000Y0139100D01*
X0040000Y0156600D02*
X0040000Y0159100D01*
D18*
X0040000Y0159800D03*
X0040000Y0156600D03*
X0040000Y0153400D03*
X0040000Y0139800D03*
X0040000Y0136600D03*
X0040000Y0133400D03*
X0065000Y0083600D03*
X0065000Y0079600D03*
X0075000Y0079600D03*
X0075000Y0083600D03*
D19*
X0075000Y0069100D02*
X0075000Y0056600D01*
X0065000Y0046600D01*
X0062500Y0046600D01*
X0070000Y0029100D02*
X0050000Y0029100D01*
X0045000Y0034100D01*
D20*
X0045000Y0034100D03*
X0035000Y0031600D03*
X0045000Y0051600D03*
X0030000Y0061600D03*
X0035000Y0079100D03*
X0040000Y0081600D03*
X0030000Y0106600D03*
X0030000Y0121600D03*
X0042500Y0146600D03*
X0055000Y0176600D03*
X0070000Y0156600D03*
X0085000Y0171600D03*
X0072500Y0194100D03*
X0082500Y0204100D03*
X0087500Y0231600D03*
X0095000Y0251600D03*
X0087500Y0256600D03*
X0105000Y0256600D03*
X0105000Y0231600D03*
X0127500Y0229100D03*
X0127500Y0254100D03*
X0110000Y0281600D03*
X0070000Y0274100D03*
X0067500Y0301600D03*
X0040000Y0286600D03*
X0032500Y0261600D03*
X0012500Y0239100D03*
X0025000Y0221600D03*
X0032500Y0206600D03*
X0037500Y0216600D03*
X0090000Y0136600D03*
X0102500Y0111600D03*
X0120000Y0141600D03*
X0125000Y0181600D03*
X0127500Y0201600D03*
X0155000Y0186600D03*
X0150000Y0161600D03*
X0162500Y0131600D03*
X0145000Y0096600D03*
X0120000Y0076600D03*
X0105000Y0056600D03*
X0105000Y0031600D03*
X0070000Y0029100D03*
X0062500Y0046600D03*
X0155000Y0226600D03*
X0162500Y0239100D03*
X0190000Y0221600D03*
X0195000Y0241600D03*
X0205000Y0196600D03*
X0165000Y0296600D03*
X0195000Y0036600D03*
D21*
X0145000Y0061600D02*
X0145000Y0079100D01*
X0102500Y0121600D01*
X0042500Y0121600D01*
X0037500Y0126600D01*
X0015000Y0126600D01*
X0030000Y0121600D02*
X0035000Y0116600D01*
X0035000Y0079100D01*
X0045000Y0079100D02*
X0032500Y0066600D01*
X0022500Y0066600D01*
X0017500Y0061600D01*
X0015000Y0061600D01*
X0045000Y0079100D02*
X0045000Y0099100D01*
X0050000Y0104100D01*
X0095000Y0104100D01*
X0102500Y0111600D01*
X0075000Y0096600D02*
X0075000Y0083600D01*
X0075000Y0079600D02*
X0075000Y0069100D01*
X0065000Y0069100D02*
X0065000Y0079600D01*
X0065000Y0083600D02*
X0065000Y0096600D01*
X0060000Y0126600D02*
X0050000Y0126600D01*
X0047500Y0129100D01*
X0047500Y0134100D01*
X0045000Y0136600D01*
X0040000Y0136600D01*
X0040000Y0139800D02*
X0040000Y0141600D01*
X0025000Y0156600D01*
X0015000Y0156600D01*
X0015000Y0166600D02*
X0033200Y0166600D01*
X0040000Y0159800D01*
X0040000Y0156600D02*
X0045000Y0156600D01*
X0047500Y0154100D01*
X0047500Y0146600D01*
X0050000Y0144100D01*
X0055000Y0144100D01*
X0062500Y0149100D02*
X0062500Y0129100D01*
X0060000Y0126600D01*
X0062500Y0149100D02*
X0057500Y0154100D01*
X0055000Y0154100D01*
X0042500Y0150900D02*
X0042500Y0146600D01*
X0042500Y0150900D02*
X0040000Y0153400D01*
X0072500Y0194100D02*
X0082500Y0204100D01*
X0085000Y0199100D02*
X0090000Y0204100D01*
X0100000Y0204100D01*
X0105000Y0199100D01*
X0105000Y0196600D01*
X0095000Y0186600D02*
X0095000Y0176600D01*
X0110000Y0161600D01*
X0100000Y0161600D02*
X0100000Y0164100D01*
X0085000Y0179100D01*
X0085000Y0199100D01*
X0085000Y0229100D02*
X0065000Y0229100D01*
X0042500Y0206600D01*
X0032500Y0206600D01*
X0037500Y0216600D02*
X0037500Y0219100D01*
X0072500Y0254100D01*
X0085000Y0254100D01*
X0087500Y0256600D01*
X0095000Y0251600D02*
X0095000Y0264100D01*
X0085000Y0274100D01*
X0070000Y0274100D01*
X0087500Y0231600D02*
X0085000Y0229100D01*
X0155000Y0246600D02*
X0162500Y0239100D01*
X0155000Y0246600D02*
X0155000Y0254100D01*
X0167500Y0266600D01*
X0180000Y0266600D01*
X0185000Y0271600D01*
X0170000Y0259100D02*
X0200000Y0259100D01*
X0204685Y0254415D01*
X0204685Y0251915D01*
X0170000Y0259100D02*
X0165315Y0254415D01*
X0165315Y0251915D01*
X0175000Y0189100D02*
X0182500Y0189100D01*
X0195000Y0176600D01*
X0205000Y0176600D01*
X0202500Y0169100D02*
X0205000Y0166600D01*
X0202500Y0169100D02*
X0175000Y0169100D01*
X0170000Y0174100D01*
X0170000Y0176600D01*
X0170000Y0161600D02*
X0170000Y0159100D01*
X0175000Y0154100D01*
X0202500Y0154100D01*
X0205000Y0156600D01*
X0205000Y0146600D02*
X0202500Y0146600D01*
X0195000Y0139100D01*
X0175000Y0139100D01*
X0170000Y0144100D01*
X0170000Y0146600D01*
X0162500Y0131600D02*
X0165000Y0129100D01*
X0195000Y0129100D01*
X0202500Y0136600D01*
X0205000Y0136600D01*
D22*
X0075000Y0083600D02*
X0075000Y0079600D01*
X0065000Y0079600D02*
X0065000Y0083600D01*
D23*
X0140000Y0141600D02*
X0140000Y0189100D01*
X0127500Y0201600D01*
X0127500Y0229100D01*
X0127500Y0254100D01*
X0127500Y0289100D01*
X0122500Y0294100D01*
X0047500Y0294100D01*
X0040000Y0286600D01*
X0140000Y0141600D02*
X0155000Y0126600D01*
X0155000Y0071600D01*
X0165000Y0061600D01*
X0190000Y0061600D01*
X0205000Y0076600D01*
X0190293Y0106893D02*
X0200000Y0116600D01*
X0205000Y0116600D01*
X0190293Y0106893D02*
X0190249Y0106851D01*
X0190203Y0106813D01*
X0190154Y0106777D01*
X0190103Y0106744D01*
X0190051Y0106715D01*
X0189996Y0106688D01*
X0189941Y0106665D01*
X0189884Y0106645D01*
X0189825Y0106629D01*
X0189766Y0106616D01*
X0189707Y0106607D01*
X0189646Y0106602D01*
X0189586Y0106600D01*
X0180000Y0106600D01*
D24*
X0007700Y0004300D02*
X0007700Y0303900D01*
X0198882Y0303900D01*
X0212300Y0290482D01*
X0212300Y0037718D01*
X0198882Y0024300D01*
X0034463Y0024300D01*
X0033471Y0023889D01*
X0032711Y0023129D01*
X0022711Y0013129D01*
X0022300Y0012137D01*
X0022300Y0007718D01*
X0018882Y0004300D01*
X0007700Y0004300D01*
X0007700Y0005196D02*
X0019777Y0005196D01*
X0020976Y0006394D02*
X0017849Y0006394D01*
X0018342Y0006598D02*
X0020002Y0008258D01*
X0020900Y0010426D01*
X0020900Y0012774D01*
X0020002Y0014942D01*
X0018344Y0016600D01*
X0020002Y0018258D01*
X0020900Y0020426D01*
X0020900Y0022774D01*
X0020002Y0024942D01*
X0018344Y0026600D01*
X0020002Y0028258D01*
X0020900Y0030426D01*
X0020900Y0032774D01*
X0020002Y0034942D01*
X0018342Y0036602D01*
X0017527Y0036939D01*
X0017778Y0037067D01*
X0018453Y0037557D01*
X0019043Y0038147D01*
X0019533Y0038822D01*
X0019912Y0039566D01*
X0020169Y0040359D01*
X0020300Y0041183D01*
X0020300Y0041200D01*
X0015400Y0041200D01*
X0015400Y0042000D01*
X0020300Y0042000D01*
X0020300Y0042017D01*
X0020169Y0042841D01*
X0019912Y0043634D01*
X0019533Y0044378D01*
X0019043Y0045053D01*
X0018453Y0045643D01*
X0017778Y0046133D01*
X0017527Y0046261D01*
X0018342Y0046598D01*
X0020002Y0048258D01*
X0020900Y0050426D01*
X0020900Y0052774D01*
X0020002Y0054942D01*
X0018344Y0056600D01*
X0020002Y0058258D01*
X0020734Y0060026D01*
X0023908Y0063200D01*
X0033176Y0063200D01*
X0034426Y0063718D01*
X0035382Y0064674D01*
X0047882Y0077174D01*
X0048400Y0078424D01*
X0048400Y0097692D01*
X0051408Y0100700D01*
X0051626Y0100700D01*
X0051547Y0100643D01*
X0050957Y0100053D01*
X0050467Y0099378D01*
X0050088Y0098634D01*
X0049830Y0097841D01*
X0049700Y0097017D01*
X0049700Y0097000D01*
X0054600Y0097000D01*
X0054600Y0096200D01*
X0055400Y0096200D01*
X0055400Y0091300D01*
X0055417Y0091300D01*
X0056241Y0091430D01*
X0057034Y0091688D01*
X0057778Y0092067D01*
X0058453Y0092557D01*
X0059043Y0093147D01*
X0059533Y0093822D01*
X0059661Y0094073D01*
X0059998Y0093258D01*
X0061600Y0091656D01*
X0061600Y0087050D01*
X0061589Y0087050D01*
X0060300Y0085761D01*
X0060300Y0077439D01*
X0061589Y0076150D01*
X0061600Y0076150D01*
X0061600Y0074044D01*
X0060300Y0072744D01*
X0060300Y0073011D01*
X0060191Y0073418D01*
X0059980Y0073782D01*
X0059682Y0074080D01*
X0059318Y0074291D01*
X0058911Y0074400D01*
X0055400Y0074400D01*
X0055400Y0069500D01*
X0054600Y0069500D01*
X0054600Y0074400D01*
X0051089Y0074400D01*
X0050682Y0074291D01*
X0050318Y0074080D01*
X0050020Y0073782D01*
X0049809Y0073418D01*
X0049700Y0073011D01*
X0049700Y0069500D01*
X0054600Y0069500D01*
X0054600Y0068700D01*
X0055400Y0068700D01*
X0055400Y0063800D01*
X0058911Y0063800D01*
X0059318Y0063909D01*
X0059682Y0064120D01*
X0059980Y0064418D01*
X0060191Y0064782D01*
X0060300Y0065189D01*
X0060300Y0065456D01*
X0061658Y0064098D01*
X0063826Y0063200D01*
X0066174Y0063200D01*
X0068342Y0064098D01*
X0070000Y0065756D01*
X0071200Y0064556D01*
X0071200Y0061144D01*
X0070000Y0059944D01*
X0068342Y0061602D01*
X0066174Y0062500D01*
X0063826Y0062500D01*
X0061658Y0061602D01*
X0060300Y0060244D01*
X0060300Y0060511D01*
X0060191Y0060918D01*
X0059980Y0061282D01*
X0059682Y0061580D01*
X0059318Y0061791D01*
X0058911Y0061900D01*
X0055400Y0061900D01*
X0055400Y0057000D01*
X0054600Y0057000D01*
X0054600Y0061900D01*
X0051089Y0061900D01*
X0050682Y0061791D01*
X0050318Y0061580D01*
X0050020Y0061282D01*
X0049809Y0060918D01*
X0049700Y0060511D01*
X0049700Y0057000D01*
X0054600Y0057000D01*
X0054600Y0056200D01*
X0055400Y0056200D01*
X0055400Y0051300D01*
X0058911Y0051300D01*
X0059318Y0051409D01*
X0059682Y0051620D01*
X0059980Y0051918D01*
X0060191Y0052282D01*
X0060300Y0052689D01*
X0060300Y0052956D01*
X0061658Y0051598D01*
X0063755Y0050729D01*
X0063426Y0050400D01*
X0061744Y0050400D01*
X0060347Y0049821D01*
X0059279Y0048753D01*
X0058700Y0047356D01*
X0058700Y0045844D01*
X0059279Y0044447D01*
X0060347Y0043379D01*
X0061744Y0042800D01*
X0065756Y0042800D01*
X0067153Y0043379D01*
X0074474Y0050700D01*
X0076174Y0050700D01*
X0078342Y0051598D01*
X0080000Y0053256D01*
X0081658Y0051598D01*
X0083826Y0050700D01*
X0086174Y0050700D01*
X0088342Y0051598D01*
X0090002Y0053258D01*
X0090900Y0055426D01*
X0090900Y0057774D01*
X0090002Y0059942D01*
X0088342Y0061602D01*
X0086174Y0062500D01*
X0083826Y0062500D01*
X0081658Y0061602D01*
X0080000Y0059944D01*
X0078800Y0061144D01*
X0078800Y0064556D01*
X0080000Y0065756D01*
X0081658Y0064098D01*
X0083826Y0063200D01*
X0086174Y0063200D01*
X0088342Y0064098D01*
X0090002Y0065758D01*
X0090900Y0067926D01*
X0090900Y0070274D01*
X0090002Y0072442D01*
X0088342Y0074102D01*
X0086174Y0075000D01*
X0083826Y0075000D01*
X0081658Y0074102D01*
X0080000Y0072444D01*
X0078400Y0074044D01*
X0078400Y0076150D01*
X0078411Y0076150D01*
X0079700Y0077439D01*
X0079700Y0085761D01*
X0078411Y0087050D01*
X0078400Y0087050D01*
X0078400Y0091656D01*
X0080000Y0093256D01*
X0081658Y0091598D01*
X0083826Y0090700D01*
X0086174Y0090700D01*
X0088342Y0091598D01*
X0090000Y0093256D01*
X0091658Y0091598D01*
X0093826Y0090700D01*
X0096174Y0090700D01*
X0098342Y0091598D01*
X0100000Y0093256D01*
X0101658Y0091598D01*
X0103826Y0090700D01*
X0106174Y0090700D01*
X0108342Y0091598D01*
X0110002Y0093258D01*
X0110900Y0095426D01*
X0110900Y0097774D01*
X0110002Y0099942D01*
X0108342Y0101602D01*
X0106174Y0102500D01*
X0103826Y0102500D01*
X0101658Y0101602D01*
X0100000Y0099944D01*
X0098342Y0101602D01*
X0097612Y0101904D01*
X0097882Y0102174D01*
X0103687Y0107979D01*
X0104653Y0108379D01*
X0105721Y0109447D01*
X0106300Y0110844D01*
X0106300Y0112356D01*
X0105850Y0113441D01*
X0141600Y0077692D01*
X0141600Y0066800D01*
X0140966Y0066800D01*
X0139054Y0066008D01*
X0137592Y0064546D01*
X0136800Y0062634D01*
X0136800Y0060566D01*
X0137592Y0058654D01*
X0139054Y0057192D01*
X0140483Y0056600D01*
X0139054Y0056008D01*
X0137592Y0054546D01*
X0136800Y0052634D01*
X0136800Y0050566D01*
X0137592Y0048654D01*
X0139054Y0047192D01*
X0140966Y0046400D01*
X0149034Y0046400D01*
X0150946Y0047192D01*
X0152408Y0048654D01*
X0153200Y0050566D01*
X0153200Y0052634D01*
X0152408Y0054546D01*
X0150946Y0056008D01*
X0149517Y0056600D01*
X0150946Y0057192D01*
X0152408Y0058654D01*
X0153200Y0060566D01*
X0153200Y0062634D01*
X0152408Y0064546D01*
X0150946Y0066008D01*
X0149034Y0066800D01*
X0148400Y0066800D01*
X0148400Y0079776D01*
X0147882Y0081026D01*
X0146926Y0081982D01*
X0105382Y0123526D01*
X0104426Y0124482D01*
X0103176Y0125000D01*
X0063208Y0125000D01*
X0065382Y0127174D01*
X0065900Y0128424D01*
X0065900Y0149776D01*
X0065382Y0151026D01*
X0064426Y0151982D01*
X0060734Y0155674D01*
X0060002Y0157442D01*
X0058644Y0158800D01*
X0058911Y0158800D01*
X0059318Y0158909D01*
X0059682Y0159120D01*
X0059980Y0159418D01*
X0060191Y0159782D01*
X0060300Y0160189D01*
X0060300Y0163700D01*
X0055400Y0163700D01*
X0055400Y0164500D01*
X0054600Y0164500D01*
X0054600Y0169400D01*
X0051089Y0169400D01*
X0050682Y0169291D01*
X0050318Y0169080D01*
X0050020Y0168782D01*
X0049809Y0168418D01*
X0049700Y0168011D01*
X0049700Y0164500D01*
X0054600Y0164500D01*
X0054600Y0163700D01*
X0049700Y0163700D01*
X0049700Y0160189D01*
X0049809Y0159782D01*
X0050020Y0159418D01*
X0050318Y0159120D01*
X0050682Y0158909D01*
X0051089Y0158800D01*
X0051356Y0158800D01*
X0049998Y0157442D01*
X0049696Y0156712D01*
X0049426Y0156982D01*
X0046926Y0159482D01*
X0045676Y0160000D01*
X0044700Y0160000D01*
X0044700Y0161961D01*
X0043411Y0163250D01*
X0041358Y0163250D01*
X0035126Y0169482D01*
X0033876Y0170000D01*
X0032524Y0170000D01*
X0019944Y0170000D01*
X0018344Y0171600D01*
X0020002Y0173258D01*
X0020900Y0175426D01*
X0020900Y0177774D01*
X0020002Y0179942D01*
X0018344Y0181600D01*
X0020002Y0183258D01*
X0020900Y0185426D01*
X0020900Y0187774D01*
X0020002Y0189942D01*
X0018342Y0191602D01*
X0016174Y0192500D01*
X0013826Y0192500D01*
X0011658Y0191602D01*
X0009998Y0189942D01*
X0009100Y0187774D01*
X0009100Y0185426D01*
X0009998Y0183258D01*
X0011656Y0181600D01*
X0009998Y0179942D01*
X0009100Y0177774D01*
X0009100Y0175426D01*
X0009998Y0173258D01*
X0011656Y0171600D01*
X0009998Y0169942D01*
X0009100Y0167774D01*
X0009100Y0165426D01*
X0009998Y0163258D01*
X0011656Y0161600D01*
X0009998Y0159942D01*
X0009100Y0157774D01*
X0009100Y0155426D01*
X0009998Y0153258D01*
X0011656Y0151600D01*
X0009998Y0149942D01*
X0009100Y0147774D01*
X0009100Y0145426D01*
X0009998Y0143258D01*
X0011656Y0141600D01*
X0009998Y0139942D01*
X0009100Y0137774D01*
X0009100Y0135426D01*
X0009998Y0133258D01*
X0011656Y0131600D01*
X0009998Y0129942D01*
X0009100Y0127774D01*
X0009100Y0125426D01*
X0009998Y0123258D01*
X0011656Y0121600D01*
X0009998Y0119942D01*
X0009100Y0117774D01*
X0009100Y0115426D01*
X0009998Y0113258D01*
X0011658Y0111598D01*
X0013826Y0110700D01*
X0016174Y0110700D01*
X0018342Y0111598D01*
X0020002Y0113258D01*
X0020900Y0115426D01*
X0020900Y0117774D01*
X0020002Y0119942D01*
X0018344Y0121600D01*
X0019944Y0123200D01*
X0026550Y0123200D01*
X0026200Y0122356D01*
X0026200Y0120844D01*
X0026779Y0119447D01*
X0027847Y0118379D01*
X0028813Y0117979D01*
X0031600Y0115192D01*
X0031600Y0080822D01*
X0031200Y0079856D01*
X0031200Y0078344D01*
X0031779Y0076947D01*
X0032847Y0075879D01*
X0034244Y0075300D01*
X0035756Y0075300D01*
X0036841Y0075750D01*
X0031092Y0070000D01*
X0021824Y0070000D01*
X0020574Y0069482D01*
X0020463Y0069371D01*
X0020900Y0070426D01*
X0020900Y0072774D01*
X0020002Y0074942D01*
X0018344Y0076600D01*
X0020002Y0078258D01*
X0020900Y0080426D01*
X0020900Y0082774D01*
X0020002Y0084942D01*
X0018344Y0086600D01*
X0020002Y0088258D01*
X0020900Y0090426D01*
X0020900Y0092774D01*
X0020002Y0094942D01*
X0018344Y0096600D01*
X0020002Y0098258D01*
X0020900Y0100426D01*
X0020900Y0102774D01*
X0020002Y0104942D01*
X0018342Y0106602D01*
X0016174Y0107500D01*
X0013826Y0107500D01*
X0011658Y0106602D01*
X0009998Y0104942D01*
X0009100Y0102774D01*
X0009100Y0100426D01*
X0009998Y0098258D01*
X0011656Y0096600D01*
X0009998Y0094942D01*
X0009100Y0092774D01*
X0009100Y0090426D01*
X0009998Y0088258D01*
X0011656Y0086600D01*
X0009998Y0084942D01*
X0009100Y0082774D01*
X0009100Y0080426D01*
X0009998Y0078258D01*
X0011656Y0076600D01*
X0009998Y0074942D01*
X0009100Y0072774D01*
X0009100Y0070426D01*
X0009998Y0068258D01*
X0011656Y0066600D01*
X0009998Y0064942D01*
X0009100Y0062774D01*
X0009100Y0060426D01*
X0009998Y0058258D01*
X0011656Y0056600D01*
X0009998Y0054942D01*
X0009100Y0052774D01*
X0009100Y0050426D01*
X0009998Y0048258D01*
X0011658Y0046598D01*
X0012473Y0046261D01*
X0012222Y0046133D01*
X0011547Y0045643D01*
X0010957Y0045053D01*
X0010467Y0044378D01*
X0010088Y0043634D01*
X0009830Y0042841D01*
X0009700Y0042017D01*
X0009700Y0042000D01*
X0014600Y0042000D01*
X0014600Y0041200D01*
X0009700Y0041200D01*
X0009700Y0041183D01*
X0009830Y0040359D01*
X0010088Y0039566D01*
X0010467Y0038822D01*
X0010957Y0038147D01*
X0011547Y0037557D01*
X0012222Y0037067D01*
X0012473Y0036939D01*
X0011658Y0036602D01*
X0009998Y0034942D01*
X0009100Y0032774D01*
X0009100Y0030426D01*
X0009998Y0028258D01*
X0011656Y0026600D01*
X0009998Y0024942D01*
X0009100Y0022774D01*
X0009100Y0020426D01*
X0009998Y0018258D01*
X0011656Y0016600D01*
X0009998Y0014942D01*
X0009100Y0012774D01*
X0009100Y0010426D01*
X0009998Y0008258D01*
X0011658Y0006598D01*
X0013826Y0005700D01*
X0016174Y0005700D01*
X0018342Y0006598D01*
X0019336Y0007593D02*
X0022174Y0007593D01*
X0022300Y0008791D02*
X0020223Y0008791D01*
X0020719Y0009990D02*
X0022300Y0009990D01*
X0022300Y0011188D02*
X0020900Y0011188D01*
X0020900Y0012387D02*
X0022403Y0012387D01*
X0023167Y0013585D02*
X0020564Y0013585D01*
X0020067Y0014784D02*
X0024365Y0014784D01*
X0025564Y0015982D02*
X0018962Y0015982D01*
X0018924Y0017181D02*
X0026762Y0017181D01*
X0027961Y0018379D02*
X0020052Y0018379D01*
X0020548Y0019578D02*
X0029159Y0019578D01*
X0030358Y0020776D02*
X0020900Y0020776D01*
X0020900Y0021975D02*
X0031556Y0021975D01*
X0032711Y0023129D02*
X0032711Y0023129D01*
X0032755Y0023173D02*
X0020734Y0023173D01*
X0020238Y0024372D02*
X0198953Y0024372D01*
X0200152Y0025570D02*
X0071408Y0025570D01*
X0070756Y0025300D02*
X0050756Y0025300D01*
X0049244Y0025300D01*
X0047847Y0025879D01*
X0042847Y0030879D01*
X0041779Y0031947D01*
X0041200Y0033344D01*
X0041200Y0034856D01*
X0041779Y0036253D01*
X0042847Y0037321D01*
X0044244Y0037900D01*
X0045756Y0037900D01*
X0047153Y0037321D01*
X0048221Y0036253D01*
X0051574Y0032900D01*
X0070756Y0032900D01*
X0072153Y0032321D01*
X0073221Y0031253D01*
X0073800Y0029856D01*
X0073800Y0028344D01*
X0073221Y0026947D01*
X0072153Y0025879D01*
X0070756Y0025300D01*
X0073043Y0026769D02*
X0201350Y0026769D01*
X0202549Y0027967D02*
X0183411Y0027967D01*
X0183342Y0027898D02*
X0185002Y0029558D01*
X0185900Y0031726D01*
X0185900Y0041474D01*
X0185002Y0043642D01*
X0183342Y0045302D01*
X0181174Y0046200D01*
X0178826Y0046200D01*
X0176658Y0045302D01*
X0174998Y0043642D01*
X0174661Y0042827D01*
X0174533Y0043078D01*
X0174043Y0043753D01*
X0173453Y0044343D01*
X0172778Y0044833D01*
X0172034Y0045212D01*
X0171241Y0045469D01*
X0170500Y0045587D01*
X0170500Y0037100D01*
X0169500Y0037100D01*
X0169500Y0045587D01*
X0168759Y0045469D01*
X0167966Y0045212D01*
X0167222Y0044833D01*
X0166547Y0044343D01*
X0165957Y0043753D01*
X0165467Y0043078D01*
X0165088Y0042334D01*
X0164830Y0041541D01*
X0164700Y0040717D01*
X0164700Y0037100D01*
X0169500Y0037100D01*
X0169500Y0036100D01*
X0170500Y0036100D01*
X0170500Y0027613D01*
X0171241Y0027730D01*
X0172034Y0027988D01*
X0172778Y0028367D01*
X0173453Y0028857D01*
X0174043Y0029447D01*
X0174533Y0030122D01*
X0174661Y0030373D01*
X0174998Y0029558D01*
X0176658Y0027898D01*
X0178826Y0027000D01*
X0181174Y0027000D01*
X0183342Y0027898D01*
X0184610Y0029166D02*
X0203747Y0029166D01*
X0204946Y0030364D02*
X0185336Y0030364D01*
X0185832Y0031563D02*
X0206144Y0031563D01*
X0207343Y0032761D02*
X0185900Y0032761D01*
X0185900Y0033960D02*
X0208541Y0033960D01*
X0209740Y0035158D02*
X0185900Y0035158D01*
X0185900Y0036357D02*
X0210938Y0036357D01*
X0212137Y0037555D02*
X0185900Y0037555D01*
X0185900Y0038754D02*
X0212300Y0038754D01*
X0212300Y0039952D02*
X0185900Y0039952D01*
X0185900Y0041151D02*
X0202738Y0041151D01*
X0201658Y0041598D02*
X0203826Y0040700D01*
X0206174Y0040700D01*
X0208342Y0041598D01*
X0210002Y0043258D01*
X0210900Y0045426D01*
X0210900Y0047774D01*
X0210002Y0049942D01*
X0208344Y0051600D01*
X0210002Y0053258D01*
X0210900Y0055426D01*
X0210900Y0057774D01*
X0210002Y0059942D01*
X0208344Y0061600D01*
X0210002Y0063258D01*
X0210900Y0065426D01*
X0210900Y0067774D01*
X0210002Y0069942D01*
X0208344Y0071600D01*
X0210002Y0073258D01*
X0210900Y0075426D01*
X0210900Y0077774D01*
X0210002Y0079942D01*
X0208344Y0081600D01*
X0210002Y0083258D01*
X0210900Y0085426D01*
X0210900Y0087774D01*
X0210002Y0089942D01*
X0208342Y0091602D01*
X0207527Y0091939D01*
X0207778Y0092067D01*
X0208453Y0092557D01*
X0209043Y0093147D01*
X0209533Y0093822D01*
X0209912Y0094566D01*
X0210169Y0095359D01*
X0210300Y0096183D01*
X0210300Y0096200D01*
X0205400Y0096200D01*
X0205400Y0097000D01*
X0210300Y0097000D01*
X0210300Y0097017D01*
X0210169Y0097841D01*
X0209912Y0098634D01*
X0209533Y0099378D01*
X0209043Y0100053D01*
X0208453Y0100643D01*
X0207778Y0101133D01*
X0207034Y0101512D01*
X0206763Y0101600D01*
X0207034Y0101688D01*
X0207778Y0102067D01*
X0208453Y0102557D01*
X0209043Y0103147D01*
X0209533Y0103822D01*
X0209912Y0104566D01*
X0210169Y0105359D01*
X0210300Y0106183D01*
X0210300Y0106200D01*
X0205400Y0106200D01*
X0205400Y0107000D01*
X0210300Y0107000D01*
X0210300Y0107017D01*
X0210169Y0107841D01*
X0209912Y0108634D01*
X0209533Y0109378D01*
X0209043Y0110053D01*
X0208453Y0110643D01*
X0207778Y0111133D01*
X0207527Y0111261D01*
X0208342Y0111598D01*
X0210002Y0113258D01*
X0210900Y0115426D01*
X0210900Y0117774D01*
X0210002Y0119942D01*
X0208342Y0121602D01*
X0206174Y0122500D01*
X0203826Y0122500D01*
X0201658Y0121602D01*
X0200856Y0120800D01*
X0199165Y0120800D01*
X0197621Y0120161D01*
X0196439Y0118979D01*
X0188260Y0110800D01*
X0185900Y0110800D01*
X0185900Y0111474D01*
X0185002Y0113642D01*
X0183342Y0115302D01*
X0181174Y0116200D01*
X0178826Y0116200D01*
X0176658Y0115302D01*
X0174998Y0113642D01*
X0174661Y0112827D01*
X0174533Y0113078D01*
X0174043Y0113753D01*
X0173453Y0114343D01*
X0172778Y0114833D01*
X0172034Y0115212D01*
X0171241Y0115469D01*
X0170500Y0115587D01*
X0170500Y0107100D01*
X0169500Y0107100D01*
X0169500Y0115587D01*
X0168759Y0115469D01*
X0167966Y0115212D01*
X0167222Y0114833D01*
X0166547Y0114343D01*
X0165957Y0113753D01*
X0165467Y0113078D01*
X0165088Y0112334D01*
X0164830Y0111541D01*
X0164700Y0110717D01*
X0164700Y0107100D01*
X0169500Y0107100D01*
X0169500Y0106100D01*
X0170500Y0106100D01*
X0170500Y0097613D01*
X0171241Y0097730D01*
X0172034Y0097988D01*
X0172778Y0098367D01*
X0173453Y0098857D01*
X0174043Y0099447D01*
X0174533Y0100122D01*
X0174661Y0100373D01*
X0174998Y0099558D01*
X0176658Y0097898D01*
X0178826Y0097000D01*
X0181174Y0097000D01*
X0183342Y0097898D01*
X0185002Y0099558D01*
X0185900Y0101726D01*
X0185900Y0102400D01*
X0190620Y0102400D01*
X0192531Y0103192D01*
X0192672Y0103332D01*
X0193311Y0103972D01*
X0193853Y0104514D01*
X0201298Y0111958D01*
X0201658Y0111598D01*
X0202473Y0111261D01*
X0202222Y0111133D01*
X0201547Y0110643D01*
X0200957Y0110053D01*
X0200467Y0109378D01*
X0200088Y0108634D01*
X0199830Y0107841D01*
X0199700Y0107017D01*
X0199700Y0107000D01*
X0204600Y0107000D01*
X0204600Y0106200D01*
X0199700Y0106200D01*
X0199700Y0106183D01*
X0199830Y0105359D01*
X0200088Y0104566D01*
X0200467Y0103822D01*
X0200957Y0103147D01*
X0201547Y0102557D01*
X0202222Y0102067D01*
X0202966Y0101688D01*
X0203237Y0101600D01*
X0202966Y0101512D01*
X0202222Y0101133D01*
X0201547Y0100643D01*
X0200957Y0100053D01*
X0200467Y0099378D01*
X0200088Y0098634D01*
X0199830Y0097841D01*
X0199700Y0097017D01*
X0199700Y0097000D01*
X0204600Y0097000D01*
X0204600Y0106200D01*
X0205400Y0106200D01*
X0205400Y0101300D01*
X0205400Y0097000D01*
X0204600Y0097000D01*
X0204600Y0096200D01*
X0199700Y0096200D01*
X0199700Y0096183D01*
X0199830Y0095359D01*
X0200088Y0094566D01*
X0200467Y0093822D01*
X0200957Y0093147D01*
X0201547Y0092557D01*
X0202222Y0092067D01*
X0202473Y0091939D01*
X0201658Y0091602D01*
X0199998Y0089942D01*
X0199100Y0087774D01*
X0199100Y0085426D01*
X0199998Y0083258D01*
X0201656Y0081600D01*
X0199998Y0079942D01*
X0199100Y0077774D01*
X0199100Y0076640D01*
X0188260Y0065800D01*
X0166740Y0065800D01*
X0159200Y0073340D01*
X0159200Y0127435D01*
X0158561Y0128979D01*
X0146240Y0141300D01*
X0149600Y0141300D01*
X0149600Y0146200D01*
X0150400Y0146200D01*
X0150400Y0141300D01*
X0153911Y0141300D01*
X0154318Y0141409D01*
X0154682Y0141620D01*
X0154980Y0141918D01*
X0155191Y0142282D01*
X0155300Y0142689D01*
X0155300Y0142956D01*
X0156658Y0141598D01*
X0158826Y0140700D01*
X0161174Y0140700D01*
X0163342Y0141598D01*
X0165000Y0143256D01*
X0166658Y0141598D01*
X0168426Y0140866D01*
X0172118Y0137174D01*
X0173074Y0136218D01*
X0174324Y0135700D01*
X0195676Y0135700D01*
X0196926Y0136218D01*
X0199537Y0138829D01*
X0199266Y0138174D01*
X0193592Y0132500D01*
X0166408Y0132500D01*
X0166121Y0132787D01*
X0165721Y0133753D01*
X0164653Y0134821D01*
X0163256Y0135400D01*
X0161744Y0135400D01*
X0160347Y0134821D01*
X0159279Y0133753D01*
X0158700Y0132356D01*
X0158700Y0130844D01*
X0159279Y0129447D01*
X0160347Y0128379D01*
X0161313Y0127979D01*
X0163074Y0126218D01*
X0164324Y0125700D01*
X0195676Y0125700D01*
X0196926Y0126218D01*
X0202117Y0131408D01*
X0203826Y0130700D01*
X0206174Y0130700D01*
X0208342Y0131598D01*
X0210002Y0133258D01*
X0210900Y0135426D01*
X0210900Y0137774D01*
X0210002Y0139942D01*
X0208344Y0141600D01*
X0210002Y0143258D01*
X0210900Y0145426D01*
X0210900Y0147774D01*
X0210002Y0149942D01*
X0208344Y0151600D01*
X0210002Y0153258D01*
X0210900Y0155426D01*
X0210900Y0157774D01*
X0210002Y0159942D01*
X0208344Y0161600D01*
X0210002Y0163258D01*
X0210900Y0165426D01*
X0210900Y0167774D01*
X0210002Y0169942D01*
X0208344Y0171600D01*
X0210002Y0173258D01*
X0210900Y0175426D01*
X0210900Y0177774D01*
X0210002Y0179942D01*
X0208344Y0181600D01*
X0210002Y0183258D01*
X0210900Y0185426D01*
X0210900Y0187774D01*
X0210002Y0189942D01*
X0208342Y0191602D01*
X0206174Y0192500D01*
X0203826Y0192500D01*
X0201658Y0191602D01*
X0199998Y0189942D01*
X0199100Y0187774D01*
X0199100Y0185426D01*
X0199998Y0183258D01*
X0201656Y0181600D01*
X0200056Y0180000D01*
X0196408Y0180000D01*
X0184426Y0191982D01*
X0183931Y0192187D01*
X0185002Y0193258D01*
X0185900Y0195426D01*
X0185900Y0197774D01*
X0185002Y0199942D01*
X0183342Y0201602D01*
X0181174Y0202500D01*
X0178826Y0202500D01*
X0176658Y0201602D01*
X0174998Y0199942D01*
X0174661Y0199127D01*
X0174533Y0199378D01*
X0174043Y0200053D01*
X0173453Y0200643D01*
X0172778Y0201133D01*
X0172034Y0201512D01*
X0171241Y0201769D01*
X0170417Y0201900D01*
X0170200Y0201900D01*
X0170200Y0196800D01*
X0169800Y0196800D01*
X0169800Y0201900D01*
X0169583Y0201900D01*
X0168759Y0201769D01*
X0167966Y0201512D01*
X0167222Y0201133D01*
X0166547Y0200643D01*
X0165957Y0200053D01*
X0165467Y0199378D01*
X0165088Y0198634D01*
X0164830Y0197841D01*
X0164700Y0197017D01*
X0164700Y0196800D01*
X0169800Y0196800D01*
X0169800Y0196400D01*
X0164700Y0196400D01*
X0164700Y0196183D01*
X0164830Y0195359D01*
X0165088Y0194566D01*
X0165467Y0193822D01*
X0165957Y0193147D01*
X0166547Y0192557D01*
X0167222Y0192067D01*
X0167966Y0191688D01*
X0168759Y0191430D01*
X0169529Y0191309D01*
X0169100Y0190274D01*
X0169100Y0187926D01*
X0169998Y0185758D01*
X0171658Y0184098D01*
X0173826Y0183200D01*
X0176174Y0183200D01*
X0178342Y0184098D01*
X0179944Y0185700D01*
X0181092Y0185700D01*
X0192118Y0174674D01*
X0193074Y0173718D01*
X0194324Y0173200D01*
X0200056Y0173200D01*
X0200756Y0172500D01*
X0184244Y0172500D01*
X0185002Y0173258D01*
X0185900Y0175426D01*
X0185900Y0177774D01*
X0185002Y0179942D01*
X0183342Y0181602D01*
X0181174Y0182500D01*
X0178826Y0182500D01*
X0176658Y0181602D01*
X0175000Y0179944D01*
X0173342Y0181602D01*
X0171174Y0182500D01*
X0168826Y0182500D01*
X0166658Y0181602D01*
X0164998Y0179942D01*
X0164661Y0179127D01*
X0164533Y0179378D01*
X0164043Y0180053D01*
X0163453Y0180643D01*
X0162778Y0181133D01*
X0162034Y0181512D01*
X0161241Y0181769D01*
X0160417Y0181900D01*
X0160400Y0181900D01*
X0160400Y0177000D01*
X0159600Y0177000D01*
X0159600Y0181900D01*
X0159583Y0181900D01*
X0158759Y0181769D01*
X0157966Y0181512D01*
X0157222Y0181133D01*
X0156547Y0180643D01*
X0155957Y0180053D01*
X0155467Y0179378D01*
X0155088Y0178634D01*
X0154830Y0177841D01*
X0154700Y0177017D01*
X0154700Y0177000D01*
X0159600Y0177000D01*
X0159600Y0176200D01*
X0154700Y0176200D01*
X0154700Y0176183D01*
X0154830Y0175359D01*
X0155088Y0174566D01*
X0155467Y0173822D01*
X0155957Y0173147D01*
X0156547Y0172557D01*
X0157222Y0172067D01*
X0157966Y0171688D01*
X0158759Y0171430D01*
X0159583Y0171300D01*
X0159600Y0171300D01*
X0159600Y0176200D01*
X0160400Y0176200D01*
X0160400Y0171300D01*
X0160417Y0171300D01*
X0161241Y0171430D01*
X0162034Y0171688D01*
X0162778Y0172067D01*
X0163453Y0172557D01*
X0164043Y0173147D01*
X0164533Y0173822D01*
X0164661Y0174073D01*
X0164998Y0173258D01*
X0166658Y0171598D01*
X0168426Y0170866D01*
X0172118Y0167174D01*
X0172229Y0167063D01*
X0171174Y0167500D01*
X0168826Y0167500D01*
X0166658Y0166602D01*
X0164998Y0164942D01*
X0164661Y0164127D01*
X0164533Y0164378D01*
X0164043Y0165053D01*
X0163453Y0165643D01*
X0162778Y0166133D01*
X0162034Y0166512D01*
X0161241Y0166769D01*
X0160417Y0166900D01*
X0160400Y0166900D01*
X0160400Y0162000D01*
X0159600Y0162000D01*
X0159600Y0166900D01*
X0159583Y0166900D01*
X0158759Y0166769D01*
X0157966Y0166512D01*
X0157222Y0166133D01*
X0156547Y0165643D01*
X0155957Y0165053D01*
X0155467Y0164378D01*
X0155088Y0163634D01*
X0154830Y0162841D01*
X0154700Y0162017D01*
X0154700Y0162000D01*
X0159600Y0162000D01*
X0159600Y0161200D01*
X0160400Y0161200D01*
X0160400Y0156300D01*
X0160417Y0156300D01*
X0161241Y0156430D01*
X0162034Y0156688D01*
X0162778Y0157067D01*
X0163453Y0157557D01*
X0164043Y0158147D01*
X0164533Y0158822D01*
X0164661Y0159073D01*
X0164998Y0158258D01*
X0166658Y0156598D01*
X0168426Y0155866D01*
X0172118Y0152174D01*
X0172229Y0152063D01*
X0171174Y0152500D01*
X0168826Y0152500D01*
X0166658Y0151602D01*
X0165000Y0149944D01*
X0163342Y0151602D01*
X0161174Y0152500D01*
X0158826Y0152500D01*
X0156658Y0151602D01*
X0155300Y0150244D01*
X0155300Y0150511D01*
X0155191Y0150918D01*
X0154980Y0151282D01*
X0154682Y0151580D01*
X0154318Y0151791D01*
X0153911Y0151900D01*
X0150400Y0151900D01*
X0150400Y0147000D01*
X0149600Y0147000D01*
X0149600Y0151900D01*
X0146089Y0151900D01*
X0145682Y0151791D01*
X0145318Y0151580D01*
X0145020Y0151282D01*
X0144809Y0150918D01*
X0144700Y0150511D01*
X0144700Y0147000D01*
X0149600Y0147000D01*
X0149600Y0146200D01*
X0144700Y0146200D01*
X0144700Y0142840D01*
X0144200Y0143340D01*
X0144200Y0189935D01*
X0143561Y0191479D01*
X0131700Y0203340D01*
X0131700Y0289935D01*
X0131061Y0291479D01*
X0126061Y0296479D01*
X0124879Y0297661D01*
X0123335Y0298300D01*
X0046665Y0298300D01*
X0045121Y0297661D01*
X0036439Y0288979D01*
X0035800Y0287435D01*
X0035800Y0285765D01*
X0036439Y0284221D01*
X0037621Y0283039D01*
X0039165Y0282400D01*
X0040835Y0282400D01*
X0042379Y0283039D01*
X0049240Y0289900D01*
X0120760Y0289900D01*
X0123300Y0287360D01*
X0123300Y0200765D01*
X0123939Y0199221D01*
X0135800Y0187360D01*
X0135800Y0140765D01*
X0136439Y0139221D01*
X0137621Y0138039D01*
X0150800Y0124860D01*
X0150800Y0070765D01*
X0151439Y0069221D01*
X0152621Y0068039D01*
X0162621Y0058039D01*
X0164165Y0057400D01*
X0190835Y0057400D01*
X0192379Y0058039D01*
X0193561Y0059221D01*
X0199295Y0064955D01*
X0199998Y0063258D01*
X0201656Y0061600D01*
X0199998Y0059942D01*
X0199100Y0057774D01*
X0199100Y0055426D01*
X0199998Y0053258D01*
X0201656Y0051600D01*
X0199998Y0049942D01*
X0199100Y0047774D01*
X0199100Y0045426D01*
X0199998Y0043258D01*
X0201658Y0041598D01*
X0200907Y0042349D02*
X0185537Y0042349D01*
X0185041Y0043548D02*
X0199878Y0043548D01*
X0199382Y0044746D02*
X0183897Y0044746D01*
X0181789Y0045945D02*
X0199100Y0045945D01*
X0199100Y0047143D02*
X0150829Y0047143D01*
X0150411Y0045534D02*
X0149766Y0045863D01*
X0149077Y0046087D01*
X0148362Y0046200D01*
X0145400Y0046200D01*
X0145400Y0042000D01*
X0144600Y0042000D01*
X0144600Y0046200D01*
X0141638Y0046200D01*
X0140923Y0046087D01*
X0140234Y0045863D01*
X0139589Y0045534D01*
X0139003Y0045109D01*
X0138491Y0044597D01*
X0138066Y0044011D01*
X0137737Y0043366D01*
X0137513Y0042677D01*
X0137406Y0042000D01*
X0144600Y0042000D01*
X0144600Y0041200D01*
X0145400Y0041200D01*
X0145400Y0042000D01*
X0152594Y0042000D01*
X0152487Y0042677D01*
X0152263Y0043366D01*
X0151934Y0044011D01*
X0151509Y0044597D01*
X0150997Y0045109D01*
X0150411Y0045534D01*
X0149514Y0045945D02*
X0178211Y0045945D01*
X0176103Y0044746D02*
X0172897Y0044746D01*
X0174191Y0043548D02*
X0174959Y0043548D01*
X0170500Y0043548D02*
X0169500Y0043548D01*
X0169500Y0044746D02*
X0170500Y0044746D01*
X0170500Y0042349D02*
X0169500Y0042349D01*
X0169500Y0041151D02*
X0170500Y0041151D01*
X0170500Y0039952D02*
X0169500Y0039952D01*
X0169500Y0038754D02*
X0170500Y0038754D01*
X0170500Y0037555D02*
X0169500Y0037555D01*
X0169500Y0036357D02*
X0048117Y0036357D01*
X0049316Y0035158D02*
X0164700Y0035158D01*
X0164700Y0036100D02*
X0164700Y0032483D01*
X0164830Y0031659D01*
X0165088Y0030866D01*
X0165467Y0030122D01*
X0165957Y0029447D01*
X0166547Y0028857D01*
X0167222Y0028367D01*
X0167966Y0027988D01*
X0168759Y0027730D01*
X0169500Y0027613D01*
X0169500Y0036100D01*
X0164700Y0036100D01*
X0164700Y0037555D02*
X0150194Y0037555D01*
X0150411Y0037666D02*
X0150997Y0038091D01*
X0151509Y0038603D01*
X0151934Y0039189D01*
X0152263Y0039834D01*
X0152487Y0040523D01*
X0152594Y0041200D01*
X0145400Y0041200D01*
X0145400Y0037000D01*
X0148362Y0037000D01*
X0149077Y0037113D01*
X0149766Y0037337D01*
X0150411Y0037666D01*
X0151618Y0038754D02*
X0164700Y0038754D01*
X0164700Y0039952D02*
X0152301Y0039952D01*
X0152586Y0041151D02*
X0164769Y0041151D01*
X0165096Y0042349D02*
X0152539Y0042349D01*
X0152170Y0043548D02*
X0165809Y0043548D01*
X0167103Y0044746D02*
X0151359Y0044746D01*
X0152096Y0048342D02*
X0199335Y0048342D01*
X0199832Y0049540D02*
X0152775Y0049540D01*
X0153200Y0050739D02*
X0200795Y0050739D01*
X0201319Y0051937D02*
X0153200Y0051937D01*
X0152992Y0053136D02*
X0200120Y0053136D01*
X0199552Y0054334D02*
X0152496Y0054334D01*
X0151421Y0055533D02*
X0199100Y0055533D01*
X0199100Y0056732D02*
X0149835Y0056732D01*
X0151684Y0057930D02*
X0162885Y0057930D01*
X0161532Y0059129D02*
X0152605Y0059129D01*
X0153101Y0060327D02*
X0160333Y0060327D01*
X0159135Y0061526D02*
X0153200Y0061526D01*
X0153163Y0062724D02*
X0157936Y0062724D01*
X0156738Y0063923D02*
X0152666Y0063923D01*
X0151833Y0065121D02*
X0155539Y0065121D01*
X0154341Y0066320D02*
X0150194Y0066320D01*
X0148400Y0067518D02*
X0153142Y0067518D01*
X0151944Y0068717D02*
X0148400Y0068717D01*
X0148400Y0069915D02*
X0151152Y0069915D01*
X0150800Y0071114D02*
X0148400Y0071114D01*
X0148400Y0072312D02*
X0150800Y0072312D01*
X0150800Y0073511D02*
X0148400Y0073511D01*
X0148400Y0074709D02*
X0150800Y0074709D01*
X0150800Y0075908D02*
X0148400Y0075908D01*
X0148400Y0077106D02*
X0150800Y0077106D01*
X0150800Y0078305D02*
X0148400Y0078305D01*
X0148400Y0079503D02*
X0150800Y0079503D01*
X0150800Y0080702D02*
X0148017Y0080702D01*
X0147008Y0081900D02*
X0150800Y0081900D01*
X0150800Y0083099D02*
X0145810Y0083099D01*
X0144611Y0084297D02*
X0150800Y0084297D01*
X0150800Y0085496D02*
X0143413Y0085496D01*
X0142214Y0086694D02*
X0150800Y0086694D01*
X0150800Y0087893D02*
X0141015Y0087893D01*
X0139817Y0089091D02*
X0150800Y0089091D01*
X0150800Y0090290D02*
X0138618Y0090290D01*
X0137420Y0091488D02*
X0150800Y0091488D01*
X0150800Y0092687D02*
X0136221Y0092687D01*
X0135023Y0093885D02*
X0150800Y0093885D01*
X0150800Y0095084D02*
X0133824Y0095084D01*
X0132626Y0096282D02*
X0150800Y0096282D01*
X0150800Y0097481D02*
X0131427Y0097481D01*
X0130229Y0098679D02*
X0150800Y0098679D01*
X0150800Y0099878D02*
X0129030Y0099878D01*
X0127832Y0101076D02*
X0150800Y0101076D01*
X0150800Y0102275D02*
X0126633Y0102275D01*
X0125435Y0103473D02*
X0150800Y0103473D01*
X0150800Y0104672D02*
X0124236Y0104672D01*
X0123038Y0105870D02*
X0150800Y0105870D01*
X0150800Y0107069D02*
X0121839Y0107069D01*
X0120641Y0108268D02*
X0150800Y0108268D01*
X0150800Y0109466D02*
X0119442Y0109466D01*
X0118244Y0110665D02*
X0150800Y0110665D01*
X0150800Y0111863D02*
X0117045Y0111863D01*
X0115847Y0113062D02*
X0150800Y0113062D01*
X0150800Y0114260D02*
X0114648Y0114260D01*
X0113450Y0115459D02*
X0150800Y0115459D01*
X0150800Y0116657D02*
X0112251Y0116657D01*
X0111053Y0117856D02*
X0150800Y0117856D01*
X0150800Y0119054D02*
X0109854Y0119054D01*
X0108656Y0120253D02*
X0150800Y0120253D01*
X0150800Y0121451D02*
X0139816Y0121451D01*
X0138968Y0121100D02*
X0140990Y0121937D01*
X0142537Y0123484D01*
X0143374Y0125506D01*
X0143374Y0127694D01*
X0142537Y0129715D01*
X0140990Y0131263D01*
X0138968Y0132100D01*
X0136780Y0132100D01*
X0134759Y0131263D01*
X0133211Y0129715D01*
X0132374Y0127694D01*
X0132374Y0125506D01*
X0133211Y0123484D01*
X0134759Y0121937D01*
X0136780Y0121100D01*
X0138968Y0121100D01*
X0141702Y0122650D02*
X0150800Y0122650D01*
X0150800Y0123848D02*
X0142687Y0123848D01*
X0143184Y0125047D02*
X0150614Y0125047D01*
X0149415Y0126245D02*
X0143374Y0126245D01*
X0143374Y0127444D02*
X0148217Y0127444D01*
X0147018Y0128642D02*
X0142981Y0128642D01*
X0142411Y0129841D02*
X0145820Y0129841D01*
X0144621Y0131039D02*
X0141213Y0131039D01*
X0143423Y0132238D02*
X0065900Y0132238D01*
X0065900Y0133436D02*
X0142224Y0133436D01*
X0141026Y0134635D02*
X0065900Y0134635D01*
X0065900Y0135833D02*
X0139827Y0135833D01*
X0138629Y0137032D02*
X0065900Y0137032D01*
X0065900Y0138230D02*
X0137430Y0138230D01*
X0136353Y0139429D02*
X0065900Y0139429D01*
X0065900Y0140627D02*
X0135857Y0140627D01*
X0135800Y0141826D02*
X0065900Y0141826D01*
X0065900Y0143024D02*
X0135800Y0143024D01*
X0135800Y0144223D02*
X0065900Y0144223D01*
X0065900Y0145421D02*
X0135800Y0145421D01*
X0135800Y0146620D02*
X0065900Y0146620D01*
X0065900Y0147818D02*
X0135800Y0147818D01*
X0135800Y0149017D02*
X0065900Y0149017D01*
X0065718Y0150215D02*
X0135800Y0150215D01*
X0135800Y0151414D02*
X0064994Y0151414D01*
X0064426Y0151982D02*
X0064426Y0151982D01*
X0063796Y0152612D02*
X0135800Y0152612D01*
X0135800Y0153811D02*
X0062597Y0153811D01*
X0061399Y0155009D02*
X0135800Y0155009D01*
X0135800Y0156208D02*
X0122400Y0156208D01*
X0123342Y0156598D02*
X0125002Y0158258D01*
X0125339Y0159073D01*
X0125467Y0158822D01*
X0125957Y0158147D01*
X0126547Y0157557D01*
X0127222Y0157067D01*
X0127966Y0156688D01*
X0128759Y0156430D01*
X0129583Y0156300D01*
X0129600Y0156300D01*
X0129600Y0161200D01*
X0130400Y0161200D01*
X0130400Y0162000D01*
X0129600Y0162000D01*
X0129600Y0166900D01*
X0129583Y0166900D01*
X0128759Y0166769D01*
X0127966Y0166512D01*
X0127222Y0166133D01*
X0126547Y0165643D01*
X0125957Y0165053D01*
X0125467Y0164378D01*
X0125339Y0164127D01*
X0125002Y0164942D01*
X0123342Y0166602D01*
X0121174Y0167500D01*
X0118826Y0167500D01*
X0116658Y0166602D01*
X0115000Y0164944D01*
X0113342Y0166602D01*
X0111174Y0167500D01*
X0108908Y0167500D01*
X0098400Y0178008D01*
X0098400Y0181656D01*
X0100000Y0183256D01*
X0102556Y0180700D01*
X0107444Y0180700D01*
X0110000Y0183256D01*
X0112556Y0180700D01*
X0117444Y0180700D01*
X0120900Y0184156D01*
X0120900Y0189044D01*
X0117920Y0192024D01*
X0120300Y0194405D01*
X0120300Y0196200D01*
X0115400Y0196200D01*
X0115400Y0197000D01*
X0114600Y0197000D01*
X0114600Y0201900D01*
X0112805Y0201900D01*
X0110424Y0199520D01*
X0107444Y0202500D01*
X0106408Y0202500D01*
X0101926Y0206982D01*
X0100676Y0207500D01*
X0089324Y0207500D01*
X0088074Y0206982D01*
X0087118Y0206026D01*
X0086197Y0205105D01*
X0085721Y0206253D01*
X0084653Y0207321D01*
X0083256Y0207900D01*
X0081744Y0207900D01*
X0080347Y0207321D01*
X0079279Y0206253D01*
X0078879Y0205287D01*
X0071313Y0197721D01*
X0070347Y0197321D01*
X0069279Y0196253D01*
X0068700Y0194856D01*
X0068700Y0193344D01*
X0069279Y0191947D01*
X0070347Y0190879D01*
X0071744Y0190300D01*
X0073256Y0190300D01*
X0074653Y0190879D01*
X0075721Y0191947D01*
X0076121Y0192913D01*
X0081600Y0198392D01*
X0081600Y0178424D01*
X0082118Y0177174D01*
X0083074Y0176218D01*
X0092229Y0167063D01*
X0091174Y0167500D01*
X0088826Y0167500D01*
X0086658Y0166602D01*
X0085000Y0164944D01*
X0083342Y0166602D01*
X0081174Y0167500D01*
X0078826Y0167500D01*
X0076658Y0166602D01*
X0074998Y0164942D01*
X0074100Y0162774D01*
X0074100Y0160426D01*
X0074998Y0158258D01*
X0076658Y0156598D01*
X0078826Y0155700D01*
X0081174Y0155700D01*
X0083342Y0156598D01*
X0085000Y0158256D01*
X0086658Y0156598D01*
X0088826Y0155700D01*
X0091174Y0155700D01*
X0093342Y0156598D01*
X0095000Y0158256D01*
X0096658Y0156598D01*
X0098826Y0155700D01*
X0101174Y0155700D01*
X0103342Y0156598D01*
X0105000Y0158256D01*
X0106658Y0156598D01*
X0108826Y0155700D01*
X0111174Y0155700D01*
X0113342Y0156598D01*
X0115000Y0158256D01*
X0116658Y0156598D01*
X0118826Y0155700D01*
X0121174Y0155700D01*
X0123342Y0156598D01*
X0124150Y0157406D02*
X0126755Y0157406D01*
X0125625Y0158605D02*
X0125146Y0158605D01*
X0129600Y0158605D02*
X0130400Y0158605D01*
X0130400Y0159803D02*
X0129600Y0159803D01*
X0129600Y0161002D02*
X0130400Y0161002D01*
X0130400Y0161200D02*
X0130400Y0156300D01*
X0130417Y0156300D01*
X0131241Y0156430D01*
X0132034Y0156688D01*
X0132778Y0157067D01*
X0133453Y0157557D01*
X0134043Y0158147D01*
X0134533Y0158822D01*
X0134912Y0159566D01*
X0135169Y0160359D01*
X0135300Y0161183D01*
X0135300Y0161200D01*
X0130400Y0161200D01*
X0130400Y0162000D02*
X0135300Y0162000D01*
X0135300Y0162017D01*
X0135169Y0162841D01*
X0134912Y0163634D01*
X0134533Y0164378D01*
X0134043Y0165053D01*
X0133453Y0165643D01*
X0132778Y0166133D01*
X0132034Y0166512D01*
X0131241Y0166769D01*
X0130417Y0166900D01*
X0130400Y0166900D01*
X0130400Y0162000D01*
X0130400Y0162201D02*
X0129600Y0162201D01*
X0129600Y0163399D02*
X0130400Y0163399D01*
X0130400Y0164598D02*
X0129600Y0164598D01*
X0129600Y0165796D02*
X0130400Y0165796D01*
X0133242Y0165796D02*
X0135800Y0165796D01*
X0135800Y0164598D02*
X0134373Y0164598D01*
X0134988Y0163399D02*
X0135800Y0163399D01*
X0135800Y0162201D02*
X0135271Y0162201D01*
X0135271Y0161002D02*
X0135800Y0161002D01*
X0135800Y0159803D02*
X0134989Y0159803D01*
X0134375Y0158605D02*
X0135800Y0158605D01*
X0135800Y0157406D02*
X0133245Y0157406D01*
X0130400Y0157406D02*
X0129600Y0157406D01*
X0125627Y0164598D02*
X0125144Y0164598D01*
X0124148Y0165796D02*
X0126758Y0165796D01*
X0122394Y0166995D02*
X0135800Y0166995D01*
X0135800Y0168193D02*
X0108215Y0168193D01*
X0107017Y0169392D02*
X0135800Y0169392D01*
X0135800Y0170590D02*
X0105818Y0170590D01*
X0104620Y0171789D02*
X0135800Y0171789D01*
X0135800Y0172987D02*
X0103421Y0172987D01*
X0102223Y0174186D02*
X0135800Y0174186D01*
X0135800Y0175384D02*
X0101024Y0175384D01*
X0099826Y0176583D02*
X0135800Y0176583D01*
X0135800Y0177781D02*
X0098627Y0177781D01*
X0098400Y0178980D02*
X0135800Y0178980D01*
X0135800Y0180178D02*
X0098400Y0180178D01*
X0098400Y0181377D02*
X0101879Y0181377D01*
X0100681Y0182575D02*
X0099319Y0182575D01*
X0108121Y0181377D02*
X0111879Y0181377D01*
X0110681Y0182575D02*
X0109319Y0182575D01*
X0118121Y0181377D02*
X0135800Y0181377D01*
X0135800Y0182575D02*
X0119319Y0182575D01*
X0120518Y0183774D02*
X0135800Y0183774D01*
X0135800Y0184972D02*
X0120900Y0184972D01*
X0120900Y0186171D02*
X0135800Y0186171D01*
X0135791Y0187369D02*
X0120900Y0187369D01*
X0120900Y0188568D02*
X0134593Y0188568D01*
X0133394Y0189766D02*
X0120178Y0189766D01*
X0118979Y0190965D02*
X0132196Y0190965D01*
X0130997Y0192163D02*
X0118059Y0192163D01*
X0119257Y0193362D02*
X0129798Y0193362D01*
X0128600Y0194560D02*
X0120300Y0194560D01*
X0120300Y0195759D02*
X0127401Y0195759D01*
X0126203Y0196957D02*
X0115400Y0196957D01*
X0115400Y0197000D02*
X0120300Y0197000D01*
X0120300Y0198795D01*
X0117195Y0201900D01*
X0115400Y0201900D01*
X0115400Y0197000D01*
X0115400Y0198156D02*
X0114600Y0198156D01*
X0114600Y0199354D02*
X0115400Y0199354D01*
X0115400Y0200553D02*
X0114600Y0200553D01*
X0114600Y0201751D02*
X0115400Y0201751D01*
X0117344Y0201751D02*
X0123300Y0201751D01*
X0123300Y0202950D02*
X0105958Y0202950D01*
X0104760Y0204148D02*
X0123300Y0204148D01*
X0123300Y0205347D02*
X0103561Y0205347D01*
X0102363Y0206545D02*
X0123300Y0206545D01*
X0123300Y0207744D02*
X0083633Y0207744D01*
X0085429Y0206545D02*
X0087637Y0206545D01*
X0086439Y0205347D02*
X0086097Y0205347D01*
X0081367Y0207744D02*
X0048452Y0207744D01*
X0047254Y0206545D02*
X0079571Y0206545D01*
X0078903Y0205347D02*
X0046055Y0205347D01*
X0044857Y0204148D02*
X0077740Y0204148D01*
X0076542Y0202950D02*
X0033618Y0202950D01*
X0033256Y0202800D02*
X0034222Y0203200D01*
X0043176Y0203200D01*
X0044426Y0203718D01*
X0066408Y0225700D01*
X0085676Y0225700D01*
X0086926Y0226218D01*
X0088687Y0227979D01*
X0089653Y0228379D01*
X0090721Y0229447D01*
X0091300Y0230844D01*
X0091300Y0232356D01*
X0090721Y0233753D01*
X0089653Y0234821D01*
X0088256Y0235400D01*
X0086744Y0235400D01*
X0085347Y0234821D01*
X0084279Y0233753D01*
X0083879Y0232787D01*
X0083592Y0232500D01*
X0064324Y0232500D01*
X0063074Y0231982D01*
X0041092Y0210000D01*
X0034222Y0210000D01*
X0033256Y0210400D01*
X0031744Y0210400D01*
X0030347Y0209821D01*
X0029279Y0208753D01*
X0028700Y0207356D01*
X0028700Y0205844D01*
X0029279Y0204447D01*
X0030347Y0203379D01*
X0031744Y0202800D01*
X0033256Y0202800D01*
X0031382Y0202950D02*
X0007700Y0202950D01*
X0007700Y0204148D02*
X0029578Y0204148D01*
X0028906Y0205347D02*
X0007700Y0205347D01*
X0007700Y0206545D02*
X0028700Y0206545D01*
X0028861Y0207744D02*
X0007700Y0207744D01*
X0007700Y0208942D02*
X0029468Y0208942D01*
X0031119Y0210141D02*
X0007700Y0210141D01*
X0007700Y0211339D02*
X0042431Y0211339D01*
X0041233Y0210141D02*
X0033881Y0210141D01*
X0035347Y0213379D02*
X0034279Y0214447D01*
X0033700Y0215844D01*
X0033700Y0217356D01*
X0034100Y0218322D01*
X0034100Y0219776D01*
X0034618Y0221026D01*
X0069618Y0256026D01*
X0070574Y0256982D01*
X0071824Y0257500D01*
X0083592Y0257500D01*
X0083879Y0257787D01*
X0084279Y0258753D01*
X0085347Y0259821D01*
X0086744Y0260400D01*
X0088256Y0260400D01*
X0089653Y0259821D01*
X0090721Y0258753D01*
X0091300Y0257356D01*
X0091300Y0255844D01*
X0090721Y0254447D01*
X0089653Y0253379D01*
X0088687Y0252979D01*
X0086926Y0251218D01*
X0085676Y0250700D01*
X0073908Y0250700D01*
X0041084Y0217876D01*
X0041300Y0217356D01*
X0041300Y0215844D01*
X0040721Y0214447D01*
X0039653Y0213379D01*
X0038256Y0212800D01*
X0036744Y0212800D01*
X0035347Y0213379D01*
X0034989Y0213737D02*
X0007700Y0213737D01*
X0007700Y0214935D02*
X0034077Y0214935D01*
X0033700Y0216134D02*
X0007700Y0216134D01*
X0007700Y0217332D02*
X0033700Y0217332D01*
X0034100Y0218531D02*
X0007700Y0218531D01*
X0007700Y0219729D02*
X0034100Y0219729D01*
X0034577Y0220928D02*
X0007700Y0220928D01*
X0007700Y0222126D02*
X0035718Y0222126D01*
X0036916Y0223325D02*
X0007700Y0223325D01*
X0007700Y0224523D02*
X0038115Y0224523D01*
X0039313Y0225722D02*
X0007700Y0225722D01*
X0007700Y0226920D02*
X0040512Y0226920D01*
X0041710Y0228119D02*
X0007700Y0228119D01*
X0007700Y0229317D02*
X0042909Y0229317D01*
X0044107Y0230516D02*
X0007700Y0230516D01*
X0007700Y0231714D02*
X0045306Y0231714D01*
X0046504Y0232913D02*
X0007700Y0232913D01*
X0007700Y0234111D02*
X0047703Y0234111D01*
X0048901Y0235310D02*
X0007700Y0235310D01*
X0007700Y0236508D02*
X0050100Y0236508D01*
X0051298Y0237707D02*
X0007700Y0237707D01*
X0007700Y0238905D02*
X0052497Y0238905D01*
X0053695Y0240104D02*
X0007700Y0240104D01*
X0007700Y0241302D02*
X0054894Y0241302D01*
X0056092Y0242501D02*
X0007700Y0242501D01*
X0007700Y0243699D02*
X0057291Y0243699D01*
X0058489Y0244898D02*
X0007700Y0244898D01*
X0007700Y0246096D02*
X0059688Y0246096D01*
X0060887Y0247295D02*
X0007700Y0247295D01*
X0007700Y0248493D02*
X0062085Y0248493D01*
X0063284Y0249692D02*
X0007700Y0249692D01*
X0007700Y0250890D02*
X0064482Y0250890D01*
X0065681Y0252089D02*
X0007700Y0252089D01*
X0007700Y0253287D02*
X0066879Y0253287D01*
X0068078Y0254486D02*
X0007700Y0254486D01*
X0007700Y0255684D02*
X0069276Y0255684D01*
X0070475Y0256883D02*
X0007700Y0256883D01*
X0007700Y0258081D02*
X0084001Y0258081D01*
X0084806Y0259280D02*
X0007700Y0259280D01*
X0007700Y0260478D02*
X0091600Y0260478D01*
X0091600Y0259280D02*
X0090194Y0259280D01*
X0090999Y0258081D02*
X0091600Y0258081D01*
X0091600Y0256883D02*
X0091300Y0256883D01*
X0091234Y0255684D02*
X0091600Y0255684D01*
X0091600Y0254486D02*
X0090737Y0254486D01*
X0091600Y0253322D02*
X0091200Y0252356D01*
X0091200Y0250844D01*
X0091779Y0249447D01*
X0092847Y0248379D01*
X0094244Y0247800D01*
X0095756Y0247800D01*
X0097153Y0248379D01*
X0098221Y0249447D01*
X0098800Y0250844D01*
X0098800Y0252356D01*
X0098400Y0253322D01*
X0098400Y0264776D01*
X0097882Y0266026D01*
X0096926Y0266982D01*
X0086926Y0276982D01*
X0085676Y0277500D01*
X0071722Y0277500D01*
X0070756Y0277900D01*
X0069244Y0277900D01*
X0067847Y0277321D01*
X0066779Y0276253D01*
X0066200Y0274856D01*
X0066200Y0273344D01*
X0066779Y0271947D01*
X0067847Y0270879D01*
X0069244Y0270300D01*
X0070756Y0270300D01*
X0071722Y0270700D01*
X0083592Y0270700D01*
X0091600Y0262692D01*
X0091600Y0253322D01*
X0091586Y0253287D02*
X0089432Y0253287D01*
X0087797Y0252089D02*
X0091200Y0252089D01*
X0091200Y0250890D02*
X0086136Y0250890D01*
X0091677Y0249692D02*
X0072900Y0249692D01*
X0071702Y0248493D02*
X0092733Y0248493D01*
X0097267Y0248493D02*
X0123300Y0248493D01*
X0123300Y0247295D02*
X0070503Y0247295D01*
X0069305Y0246096D02*
X0123300Y0246096D01*
X0123300Y0244898D02*
X0068106Y0244898D01*
X0066908Y0243699D02*
X0123300Y0243699D01*
X0123300Y0242501D02*
X0065709Y0242501D01*
X0064511Y0241302D02*
X0123300Y0241302D01*
X0123300Y0240104D02*
X0063312Y0240104D01*
X0062114Y0238905D02*
X0123300Y0238905D01*
X0123300Y0237707D02*
X0060915Y0237707D01*
X0059717Y0236508D02*
X0123300Y0236508D01*
X0123300Y0235310D02*
X0088474Y0235310D01*
X0086526Y0235310D02*
X0058518Y0235310D01*
X0057320Y0234111D02*
X0084637Y0234111D01*
X0083931Y0232913D02*
X0056121Y0232913D01*
X0054922Y0231714D02*
X0062806Y0231714D01*
X0061607Y0230516D02*
X0053724Y0230516D01*
X0052525Y0229317D02*
X0060409Y0229317D01*
X0059210Y0228119D02*
X0051327Y0228119D01*
X0050128Y0226920D02*
X0058012Y0226920D01*
X0056813Y0225722D02*
X0048930Y0225722D01*
X0047731Y0224523D02*
X0055615Y0224523D01*
X0054416Y0223325D02*
X0046533Y0223325D01*
X0045334Y0222126D02*
X0053218Y0222126D01*
X0052019Y0220928D02*
X0044136Y0220928D01*
X0042937Y0219729D02*
X0050821Y0219729D01*
X0049622Y0218531D02*
X0041739Y0218531D01*
X0041300Y0217332D02*
X0048424Y0217332D01*
X0047225Y0216134D02*
X0041300Y0216134D01*
X0040923Y0214935D02*
X0046027Y0214935D01*
X0044828Y0213737D02*
X0040011Y0213737D01*
X0043630Y0212538D02*
X0007700Y0212538D01*
X0007700Y0201751D02*
X0075343Y0201751D01*
X0074145Y0200553D02*
X0007700Y0200553D01*
X0007700Y0199354D02*
X0072946Y0199354D01*
X0071748Y0198156D02*
X0007700Y0198156D01*
X0007700Y0196957D02*
X0069983Y0196957D01*
X0069074Y0195759D02*
X0007700Y0195759D01*
X0007700Y0194560D02*
X0068700Y0194560D01*
X0068700Y0193362D02*
X0007700Y0193362D01*
X0007700Y0192163D02*
X0013014Y0192163D01*
X0011021Y0190965D02*
X0007700Y0190965D01*
X0007700Y0189766D02*
X0009925Y0189766D01*
X0009429Y0188568D02*
X0007700Y0188568D01*
X0007700Y0187369D02*
X0009100Y0187369D01*
X0009100Y0186171D02*
X0007700Y0186171D01*
X0007700Y0184972D02*
X0009288Y0184972D01*
X0009785Y0183774D02*
X0007700Y0183774D01*
X0007700Y0182575D02*
X0010681Y0182575D01*
X0011433Y0181377D02*
X0007700Y0181377D01*
X0007700Y0180178D02*
X0010234Y0180178D01*
X0009600Y0178980D02*
X0007700Y0178980D01*
X0007700Y0177781D02*
X0009103Y0177781D01*
X0009100Y0176583D02*
X0007700Y0176583D01*
X0007700Y0175384D02*
X0009117Y0175384D01*
X0009614Y0174186D02*
X0007700Y0174186D01*
X0007700Y0172987D02*
X0010269Y0172987D01*
X0011468Y0171789D02*
X0007700Y0171789D01*
X0007700Y0170590D02*
X0010646Y0170590D01*
X0009770Y0169392D02*
X0007700Y0169392D01*
X0007700Y0168193D02*
X0009274Y0168193D01*
X0009100Y0166995D02*
X0007700Y0166995D01*
X0007700Y0165796D02*
X0009100Y0165796D01*
X0009443Y0164598D02*
X0007700Y0164598D01*
X0007700Y0163399D02*
X0009940Y0163399D01*
X0011056Y0162201D02*
X0007700Y0162201D01*
X0007700Y0161002D02*
X0011058Y0161002D01*
X0009941Y0159803D02*
X0007700Y0159803D01*
X0007700Y0158605D02*
X0009444Y0158605D01*
X0009100Y0157406D02*
X0007700Y0157406D01*
X0007700Y0156208D02*
X0009100Y0156208D01*
X0009273Y0155009D02*
X0007700Y0155009D01*
X0007700Y0153811D02*
X0009769Y0153811D01*
X0010644Y0152612D02*
X0007700Y0152612D01*
X0007700Y0151414D02*
X0011470Y0151414D01*
X0010272Y0150215D02*
X0007700Y0150215D01*
X0007700Y0149017D02*
X0009615Y0149017D01*
X0009119Y0147818D02*
X0007700Y0147818D01*
X0007700Y0146620D02*
X0009100Y0146620D01*
X0009102Y0145421D02*
X0007700Y0145421D01*
X0007700Y0144223D02*
X0009599Y0144223D01*
X0010232Y0143024D02*
X0007700Y0143024D01*
X0007700Y0141826D02*
X0011430Y0141826D01*
X0010683Y0140627D02*
X0007700Y0140627D01*
X0007700Y0139429D02*
X0009786Y0139429D01*
X0009289Y0138230D02*
X0007700Y0138230D01*
X0007700Y0137032D02*
X0009100Y0137032D01*
X0009100Y0135833D02*
X0007700Y0135833D01*
X0007700Y0134635D02*
X0009428Y0134635D01*
X0009924Y0133436D02*
X0007700Y0133436D01*
X0007700Y0132238D02*
X0011018Y0132238D01*
X0011095Y0131039D02*
X0007700Y0131039D01*
X0007700Y0129841D02*
X0009956Y0129841D01*
X0009460Y0128642D02*
X0007700Y0128642D01*
X0007700Y0127444D02*
X0009100Y0127444D01*
X0009100Y0126245D02*
X0007700Y0126245D01*
X0007700Y0125047D02*
X0009257Y0125047D01*
X0009754Y0123848D02*
X0007700Y0123848D01*
X0007700Y0122650D02*
X0010606Y0122650D01*
X0011507Y0121451D02*
X0007700Y0121451D01*
X0007700Y0120253D02*
X0010309Y0120253D01*
X0009630Y0119054D02*
X0007700Y0119054D01*
X0007700Y0117856D02*
X0009134Y0117856D01*
X0009100Y0116657D02*
X0007700Y0116657D01*
X0007700Y0115459D02*
X0009100Y0115459D01*
X0009583Y0114260D02*
X0007700Y0114260D01*
X0007700Y0113062D02*
X0010195Y0113062D01*
X0011393Y0111863D02*
X0007700Y0111863D01*
X0007700Y0110665D02*
X0031600Y0110665D01*
X0031600Y0111863D02*
X0018607Y0111863D01*
X0019805Y0113062D02*
X0031600Y0113062D01*
X0031600Y0114260D02*
X0020417Y0114260D01*
X0020900Y0115459D02*
X0031333Y0115459D01*
X0030135Y0116657D02*
X0020900Y0116657D01*
X0020866Y0117856D02*
X0028936Y0117856D01*
X0027172Y0119054D02*
X0020370Y0119054D01*
X0019691Y0120253D02*
X0026445Y0120253D01*
X0026200Y0121451D02*
X0018493Y0121451D01*
X0019393Y0122650D02*
X0026322Y0122650D01*
X0033450Y0123200D02*
X0036092Y0123200D01*
X0039618Y0119674D01*
X0040574Y0118718D01*
X0041824Y0118200D01*
X0101092Y0118200D01*
X0104341Y0114950D01*
X0103256Y0115400D01*
X0101744Y0115400D01*
X0100347Y0114821D01*
X0099279Y0113753D01*
X0098879Y0112787D01*
X0093592Y0107500D01*
X0069244Y0107500D01*
X0070002Y0108258D01*
X0070900Y0110426D01*
X0070900Y0112774D01*
X0070002Y0114942D01*
X0068342Y0116602D01*
X0066174Y0117500D01*
X0063826Y0117500D01*
X0061658Y0116602D01*
X0060000Y0114944D01*
X0058342Y0116602D01*
X0056174Y0117500D01*
X0053826Y0117500D01*
X0051658Y0116602D01*
X0049998Y0114942D01*
X0049661Y0114127D01*
X0049533Y0114378D01*
X0049043Y0115053D01*
X0048453Y0115643D01*
X0047778Y0116133D01*
X0047034Y0116512D01*
X0046241Y0116769D01*
X0045417Y0116900D01*
X0045400Y0116900D01*
X0045400Y0112000D01*
X0044600Y0112000D01*
X0044600Y0116900D01*
X0044583Y0116900D01*
X0043759Y0116769D01*
X0042966Y0116512D01*
X0042222Y0116133D01*
X0041547Y0115643D01*
X0040957Y0115053D01*
X0040467Y0114378D01*
X0040088Y0113634D01*
X0039830Y0112841D01*
X0039700Y0112017D01*
X0039700Y0112000D01*
X0044600Y0112000D01*
X0044600Y0111200D01*
X0045400Y0111200D01*
X0045400Y0106300D01*
X0045417Y0106300D01*
X0046241Y0106430D01*
X0047034Y0106688D01*
X0047778Y0107067D01*
X0048453Y0107557D01*
X0049043Y0108147D01*
X0049533Y0108822D01*
X0049661Y0109073D01*
X0049998Y0108258D01*
X0050756Y0107500D01*
X0049324Y0107500D01*
X0048074Y0106982D01*
X0043074Y0101982D01*
X0042118Y0101026D01*
X0041600Y0099776D01*
X0041600Y0080508D01*
X0038350Y0077259D01*
X0038800Y0078344D01*
X0038800Y0079856D01*
X0038400Y0080822D01*
X0038400Y0117276D01*
X0037882Y0118526D01*
X0033621Y0122787D01*
X0033450Y0123200D01*
X0033759Y0122650D02*
X0036642Y0122650D01*
X0037841Y0121451D02*
X0034957Y0121451D01*
X0036156Y0120253D02*
X0039039Y0120253D01*
X0040238Y0119054D02*
X0037354Y0119054D01*
X0038160Y0117856D02*
X0101436Y0117856D01*
X0102635Y0116657D02*
X0068209Y0116657D01*
X0069485Y0115459D02*
X0103833Y0115459D01*
X0106008Y0113062D02*
X0106230Y0113062D01*
X0106300Y0111863D02*
X0107429Y0111863D01*
X0108627Y0110665D02*
X0106226Y0110665D01*
X0105729Y0109466D02*
X0109826Y0109466D01*
X0111024Y0108268D02*
X0104385Y0108268D01*
X0102777Y0107069D02*
X0112223Y0107069D01*
X0113421Y0105870D02*
X0101579Y0105870D01*
X0100380Y0104672D02*
X0114620Y0104672D01*
X0115818Y0103473D02*
X0099182Y0103473D01*
X0097983Y0102275D02*
X0103283Y0102275D01*
X0101133Y0101076D02*
X0098867Y0101076D01*
X0099431Y0092687D02*
X0100569Y0092687D01*
X0101923Y0091488D02*
X0098077Y0091488D01*
X0091923Y0091488D02*
X0088077Y0091488D01*
X0089431Y0092687D02*
X0090569Y0092687D01*
X0081923Y0091488D02*
X0078400Y0091488D01*
X0078400Y0090290D02*
X0129002Y0090290D01*
X0130200Y0089091D02*
X0078400Y0089091D01*
X0078400Y0087893D02*
X0131399Y0087893D01*
X0132597Y0086694D02*
X0078767Y0086694D01*
X0079700Y0085496D02*
X0133796Y0085496D01*
X0134994Y0084297D02*
X0079700Y0084297D01*
X0079700Y0083099D02*
X0136193Y0083099D01*
X0137391Y0081900D02*
X0079700Y0081900D01*
X0079700Y0080702D02*
X0138590Y0080702D01*
X0139788Y0079503D02*
X0079700Y0079503D01*
X0079700Y0078305D02*
X0140987Y0078305D01*
X0141600Y0077106D02*
X0079367Y0077106D01*
X0078400Y0075908D02*
X0141600Y0075908D01*
X0141600Y0074709D02*
X0086876Y0074709D01*
X0088933Y0073511D02*
X0141600Y0073511D01*
X0141600Y0072312D02*
X0090056Y0072312D01*
X0090552Y0071114D02*
X0141600Y0071114D01*
X0141600Y0069915D02*
X0090900Y0069915D01*
X0090900Y0068717D02*
X0141600Y0068717D01*
X0141600Y0067518D02*
X0090731Y0067518D01*
X0090234Y0066320D02*
X0139806Y0066320D01*
X0138167Y0065121D02*
X0089365Y0065121D01*
X0087918Y0063923D02*
X0137334Y0063923D01*
X0136837Y0062724D02*
X0078800Y0062724D01*
X0078800Y0061526D02*
X0081582Y0061526D01*
X0080383Y0060327D02*
X0079617Y0060327D01*
X0078800Y0063923D02*
X0082082Y0063923D01*
X0080635Y0065121D02*
X0079365Y0065121D01*
X0078933Y0073511D02*
X0081067Y0073511D01*
X0083124Y0074709D02*
X0078400Y0074709D01*
X0070635Y0065121D02*
X0069365Y0065121D01*
X0067918Y0063923D02*
X0071200Y0063923D01*
X0071200Y0062724D02*
X0023432Y0062724D01*
X0022234Y0061526D02*
X0050263Y0061526D01*
X0049700Y0060327D02*
X0021035Y0060327D01*
X0020362Y0059129D02*
X0049700Y0059129D01*
X0049700Y0057930D02*
X0019674Y0057930D01*
X0018475Y0056732D02*
X0054600Y0056732D01*
X0054600Y0056200D02*
X0049700Y0056200D01*
X0049700Y0052689D01*
X0049809Y0052282D01*
X0050020Y0051918D01*
X0050318Y0051620D01*
X0050682Y0051409D01*
X0051089Y0051300D01*
X0054600Y0051300D01*
X0054600Y0056200D01*
X0054600Y0055533D02*
X0055400Y0055533D01*
X0055400Y0054334D02*
X0054600Y0054334D01*
X0054600Y0053136D02*
X0055400Y0053136D01*
X0055400Y0051937D02*
X0054600Y0051937D01*
X0050008Y0051937D02*
X0020900Y0051937D01*
X0020900Y0050739D02*
X0063732Y0050739D01*
X0061319Y0051937D02*
X0059992Y0051937D01*
X0060066Y0049540D02*
X0020533Y0049540D01*
X0020037Y0048342D02*
X0059108Y0048342D01*
X0058700Y0047143D02*
X0018887Y0047143D01*
X0018037Y0045945D02*
X0058700Y0045945D01*
X0059155Y0044746D02*
X0019265Y0044746D01*
X0019940Y0043548D02*
X0060178Y0043548D01*
X0067322Y0043548D02*
X0137830Y0043548D01*
X0137461Y0042349D02*
X0020247Y0042349D01*
X0020295Y0041151D02*
X0137414Y0041151D01*
X0137406Y0041200D02*
X0137513Y0040523D01*
X0137737Y0039834D01*
X0138066Y0039189D01*
X0138491Y0038603D01*
X0139003Y0038091D01*
X0139589Y0037666D01*
X0140234Y0037337D01*
X0140923Y0037113D01*
X0141638Y0037000D01*
X0144600Y0037000D01*
X0144600Y0041200D01*
X0137406Y0041200D01*
X0137699Y0039952D02*
X0020037Y0039952D01*
X0019483Y0038754D02*
X0138382Y0038754D01*
X0139806Y0037555D02*
X0046588Y0037555D01*
X0043412Y0037555D02*
X0018450Y0037555D01*
X0018587Y0036357D02*
X0041883Y0036357D01*
X0041325Y0035158D02*
X0019786Y0035158D01*
X0020409Y0033960D02*
X0041200Y0033960D01*
X0041441Y0032761D02*
X0020900Y0032761D01*
X0020900Y0031563D02*
X0042163Y0031563D01*
X0043362Y0030364D02*
X0020874Y0030364D01*
X0020378Y0029166D02*
X0044560Y0029166D01*
X0045759Y0027967D02*
X0019711Y0027967D01*
X0018513Y0026769D02*
X0046957Y0026769D01*
X0048592Y0025570D02*
X0019374Y0025570D01*
X0011487Y0026769D02*
X0007700Y0026769D01*
X0007700Y0027967D02*
X0010289Y0027967D01*
X0009622Y0029166D02*
X0007700Y0029166D01*
X0007700Y0030364D02*
X0009126Y0030364D01*
X0009100Y0031563D02*
X0007700Y0031563D01*
X0007700Y0032761D02*
X0009100Y0032761D01*
X0009591Y0033960D02*
X0007700Y0033960D01*
X0007700Y0035158D02*
X0010214Y0035158D01*
X0011413Y0036357D02*
X0007700Y0036357D01*
X0007700Y0037555D02*
X0011550Y0037555D01*
X0010517Y0038754D02*
X0007700Y0038754D01*
X0007700Y0039952D02*
X0009963Y0039952D01*
X0009705Y0041151D02*
X0007700Y0041151D01*
X0007700Y0042349D02*
X0009753Y0042349D01*
X0010060Y0043548D02*
X0007700Y0043548D01*
X0007700Y0044746D02*
X0010735Y0044746D01*
X0011963Y0045945D02*
X0007700Y0045945D01*
X0007700Y0047143D02*
X0011113Y0047143D01*
X0009963Y0048342D02*
X0007700Y0048342D01*
X0007700Y0049540D02*
X0009467Y0049540D01*
X0009100Y0050739D02*
X0007700Y0050739D01*
X0007700Y0051937D02*
X0009100Y0051937D01*
X0009250Y0053136D02*
X0007700Y0053136D01*
X0007700Y0054334D02*
X0009747Y0054334D01*
X0010589Y0055533D02*
X0007700Y0055533D01*
X0007700Y0056732D02*
X0011525Y0056732D01*
X0010326Y0057930D02*
X0007700Y0057930D01*
X0007700Y0059129D02*
X0009638Y0059129D01*
X0009141Y0060327D02*
X0007700Y0060327D01*
X0007700Y0061526D02*
X0009100Y0061526D01*
X0009100Y0062724D02*
X0007700Y0062724D01*
X0007700Y0063923D02*
X0009576Y0063923D01*
X0010177Y0065121D02*
X0007700Y0065121D01*
X0007700Y0066320D02*
X0011376Y0066320D01*
X0010738Y0067518D02*
X0007700Y0067518D01*
X0007700Y0068717D02*
X0009808Y0068717D01*
X0009312Y0069915D02*
X0007700Y0069915D01*
X0007700Y0071114D02*
X0009100Y0071114D01*
X0009100Y0072312D02*
X0007700Y0072312D01*
X0007700Y0073511D02*
X0009405Y0073511D01*
X0009902Y0074709D02*
X0007700Y0074709D01*
X0007700Y0075908D02*
X0010964Y0075908D01*
X0011150Y0077106D02*
X0007700Y0077106D01*
X0007700Y0078305D02*
X0009979Y0078305D01*
X0009482Y0079503D02*
X0007700Y0079503D01*
X0007700Y0080702D02*
X0009100Y0080702D01*
X0009100Y0081900D02*
X0007700Y0081900D01*
X0007700Y0083099D02*
X0009235Y0083099D01*
X0009731Y0084297D02*
X0007700Y0084297D01*
X0007700Y0085496D02*
X0010552Y0085496D01*
X0011562Y0086694D02*
X0007700Y0086694D01*
X0007700Y0087893D02*
X0010363Y0087893D01*
X0009653Y0089091D02*
X0007700Y0089091D01*
X0007700Y0090290D02*
X0009157Y0090290D01*
X0009100Y0091488D02*
X0007700Y0091488D01*
X0007700Y0092687D02*
X0009100Y0092687D01*
X0009561Y0093885D02*
X0007700Y0093885D01*
X0007700Y0095084D02*
X0010140Y0095084D01*
X0011339Y0096282D02*
X0007700Y0096282D01*
X0007700Y0097481D02*
X0010775Y0097481D01*
X0009824Y0098679D02*
X0007700Y0098679D01*
X0007700Y0099878D02*
X0009327Y0099878D01*
X0009100Y0101076D02*
X0007700Y0101076D01*
X0007700Y0102275D02*
X0009100Y0102275D01*
X0009390Y0103473D02*
X0007700Y0103473D01*
X0007700Y0104672D02*
X0009886Y0104672D01*
X0010927Y0105870D02*
X0007700Y0105870D01*
X0007700Y0107069D02*
X0012786Y0107069D01*
X0017214Y0107069D02*
X0031600Y0107069D01*
X0031600Y0105870D02*
X0019073Y0105870D01*
X0020114Y0104672D02*
X0031600Y0104672D01*
X0031600Y0103473D02*
X0020610Y0103473D01*
X0020900Y0102275D02*
X0031600Y0102275D01*
X0031600Y0101076D02*
X0020900Y0101076D01*
X0020673Y0099878D02*
X0031600Y0099878D01*
X0031600Y0098679D02*
X0020176Y0098679D01*
X0019225Y0097481D02*
X0031600Y0097481D01*
X0031600Y0096282D02*
X0018661Y0096282D01*
X0019860Y0095084D02*
X0031600Y0095084D01*
X0031600Y0093885D02*
X0020439Y0093885D01*
X0020900Y0092687D02*
X0031600Y0092687D01*
X0031600Y0091488D02*
X0020900Y0091488D01*
X0020843Y0090290D02*
X0031600Y0090290D01*
X0031600Y0089091D02*
X0020347Y0089091D01*
X0019637Y0087893D02*
X0031600Y0087893D01*
X0031600Y0086694D02*
X0018438Y0086694D01*
X0019448Y0085496D02*
X0031600Y0085496D01*
X0031600Y0084297D02*
X0020269Y0084297D01*
X0020765Y0083099D02*
X0031600Y0083099D01*
X0031600Y0081900D02*
X0020900Y0081900D01*
X0020900Y0080702D02*
X0031550Y0080702D01*
X0031200Y0079503D02*
X0020518Y0079503D01*
X0020021Y0078305D02*
X0031216Y0078305D01*
X0031713Y0077106D02*
X0018850Y0077106D01*
X0019036Y0075908D02*
X0032818Y0075908D01*
X0034602Y0073511D02*
X0020595Y0073511D01*
X0020900Y0072312D02*
X0033404Y0072312D01*
X0032205Y0071114D02*
X0020900Y0071114D01*
X0020688Y0069915D02*
X0021619Y0069915D01*
X0020098Y0074709D02*
X0035801Y0074709D01*
X0038784Y0078305D02*
X0039396Y0078305D01*
X0038800Y0079503D02*
X0040595Y0079503D01*
X0041600Y0080702D02*
X0038450Y0080702D01*
X0038400Y0081900D02*
X0041600Y0081900D01*
X0041600Y0083099D02*
X0038400Y0083099D01*
X0038400Y0084297D02*
X0041600Y0084297D01*
X0041600Y0085496D02*
X0038400Y0085496D01*
X0038400Y0086694D02*
X0041600Y0086694D01*
X0041600Y0087893D02*
X0038400Y0087893D01*
X0038400Y0089091D02*
X0041600Y0089091D01*
X0041600Y0090290D02*
X0038400Y0090290D01*
X0038400Y0091488D02*
X0041600Y0091488D01*
X0041600Y0092687D02*
X0038400Y0092687D01*
X0038400Y0093885D02*
X0041600Y0093885D01*
X0041600Y0095084D02*
X0038400Y0095084D01*
X0038400Y0096282D02*
X0041600Y0096282D01*
X0041600Y0097481D02*
X0038400Y0097481D01*
X0038400Y0098679D02*
X0041600Y0098679D01*
X0041642Y0099878D02*
X0038400Y0099878D01*
X0038400Y0101076D02*
X0042168Y0101076D01*
X0043367Y0102275D02*
X0038400Y0102275D01*
X0038400Y0103473D02*
X0044565Y0103473D01*
X0045764Y0104672D02*
X0038400Y0104672D01*
X0038400Y0105870D02*
X0046962Y0105870D01*
X0047781Y0107069D02*
X0048283Y0107069D01*
X0049130Y0108268D02*
X0049994Y0108268D01*
X0049716Y0114260D02*
X0049593Y0114260D01*
X0050515Y0115459D02*
X0048637Y0115459D01*
X0046587Y0116657D02*
X0051791Y0116657D01*
X0045400Y0116657D02*
X0044600Y0116657D01*
X0043413Y0116657D02*
X0038400Y0116657D01*
X0038400Y0115459D02*
X0041363Y0115459D01*
X0040407Y0114260D02*
X0038400Y0114260D01*
X0038400Y0113062D02*
X0039902Y0113062D01*
X0039700Y0111200D02*
X0039700Y0111183D01*
X0039830Y0110359D01*
X0040088Y0109566D01*
X0040467Y0108822D01*
X0040957Y0108147D01*
X0041547Y0107557D01*
X0042222Y0107067D01*
X0042966Y0106688D01*
X0043759Y0106430D01*
X0044583Y0106300D01*
X0044600Y0106300D01*
X0044600Y0111200D01*
X0039700Y0111200D01*
X0039782Y0110665D02*
X0038400Y0110665D01*
X0038400Y0111863D02*
X0044600Y0111863D01*
X0044600Y0110665D02*
X0045400Y0110665D01*
X0045400Y0109466D02*
X0044600Y0109466D01*
X0044600Y0108268D02*
X0045400Y0108268D01*
X0045400Y0107069D02*
X0044600Y0107069D01*
X0042219Y0107069D02*
X0038400Y0107069D01*
X0038400Y0108268D02*
X0040870Y0108268D01*
X0040139Y0109466D02*
X0038400Y0109466D01*
X0031600Y0109466D02*
X0007700Y0109466D01*
X0007700Y0108268D02*
X0031600Y0108268D01*
X0044600Y0113062D02*
X0045400Y0113062D01*
X0045400Y0114260D02*
X0044600Y0114260D01*
X0044600Y0115459D02*
X0045400Y0115459D01*
X0050586Y0099878D02*
X0050830Y0099878D01*
X0050111Y0098679D02*
X0049388Y0098679D01*
X0049773Y0097481D02*
X0048400Y0097481D01*
X0048400Y0096282D02*
X0054600Y0096282D01*
X0054600Y0096200D02*
X0049700Y0096200D01*
X0049700Y0096183D01*
X0049830Y0095359D01*
X0050088Y0094566D01*
X0050467Y0093822D01*
X0050957Y0093147D01*
X0051547Y0092557D01*
X0052222Y0092067D01*
X0052966Y0091688D01*
X0053759Y0091430D01*
X0054583Y0091300D01*
X0054600Y0091300D01*
X0054600Y0096200D01*
X0054600Y0095084D02*
X0055400Y0095084D01*
X0055400Y0093885D02*
X0054600Y0093885D01*
X0054600Y0092687D02*
X0055400Y0092687D01*
X0055400Y0091488D02*
X0054600Y0091488D01*
X0053581Y0091488D02*
X0048400Y0091488D01*
X0048400Y0090290D02*
X0061600Y0090290D01*
X0061600Y0091488D02*
X0056419Y0091488D01*
X0058582Y0092687D02*
X0060569Y0092687D01*
X0059738Y0093885D02*
X0059565Y0093885D01*
X0061600Y0089091D02*
X0048400Y0089091D01*
X0048400Y0087893D02*
X0061600Y0087893D01*
X0061233Y0086694D02*
X0048400Y0086694D01*
X0048400Y0085496D02*
X0060300Y0085496D01*
X0060300Y0084297D02*
X0048400Y0084297D01*
X0048400Y0083099D02*
X0060300Y0083099D01*
X0060300Y0081900D02*
X0048400Y0081900D01*
X0048400Y0080702D02*
X0060300Y0080702D01*
X0060300Y0079503D02*
X0048400Y0079503D01*
X0048351Y0078305D02*
X0060300Y0078305D01*
X0060633Y0077106D02*
X0047815Y0077106D01*
X0046616Y0075908D02*
X0061600Y0075908D01*
X0061600Y0074709D02*
X0045418Y0074709D01*
X0044219Y0073511D02*
X0049863Y0073511D01*
X0049700Y0072312D02*
X0043020Y0072312D01*
X0041822Y0071114D02*
X0049700Y0071114D01*
X0049700Y0069915D02*
X0040623Y0069915D01*
X0039425Y0068717D02*
X0054600Y0068717D01*
X0054600Y0068700D02*
X0049700Y0068700D01*
X0049700Y0065189D01*
X0049809Y0064782D01*
X0050020Y0064418D01*
X0050318Y0064120D01*
X0050682Y0063909D01*
X0051089Y0063800D01*
X0054600Y0063800D01*
X0054600Y0068700D01*
X0054600Y0067518D02*
X0055400Y0067518D01*
X0055400Y0066320D02*
X0054600Y0066320D01*
X0054600Y0065121D02*
X0055400Y0065121D01*
X0055400Y0063923D02*
X0054600Y0063923D01*
X0054600Y0061526D02*
X0055400Y0061526D01*
X0055400Y0060327D02*
X0054600Y0060327D01*
X0054600Y0059129D02*
X0055400Y0059129D01*
X0055400Y0057930D02*
X0054600Y0057930D01*
X0060300Y0060327D02*
X0060383Y0060327D01*
X0059737Y0061526D02*
X0061582Y0061526D01*
X0062082Y0063923D02*
X0059341Y0063923D01*
X0060282Y0065121D02*
X0060635Y0065121D01*
X0055400Y0069915D02*
X0054600Y0069915D01*
X0054600Y0071114D02*
X0055400Y0071114D01*
X0055400Y0072312D02*
X0054600Y0072312D01*
X0054600Y0073511D02*
X0055400Y0073511D01*
X0060137Y0073511D02*
X0061067Y0073511D01*
X0068418Y0061526D02*
X0071200Y0061526D01*
X0070383Y0060327D02*
X0069617Y0060327D01*
X0073314Y0049540D02*
X0137225Y0049540D01*
X0136800Y0050739D02*
X0086268Y0050739D01*
X0083732Y0050739D02*
X0076268Y0050739D01*
X0078681Y0051937D02*
X0081319Y0051937D01*
X0080120Y0053136D02*
X0079880Y0053136D01*
X0072116Y0048342D02*
X0137904Y0048342D01*
X0139171Y0047143D02*
X0070917Y0047143D01*
X0069719Y0045945D02*
X0140486Y0045945D01*
X0138641Y0044746D02*
X0068520Y0044746D01*
X0071091Y0032761D02*
X0164700Y0032761D01*
X0164700Y0033960D02*
X0050514Y0033960D01*
X0049700Y0053136D02*
X0020750Y0053136D01*
X0020253Y0054334D02*
X0049700Y0054334D01*
X0049700Y0055533D02*
X0019411Y0055533D01*
X0034631Y0063923D02*
X0050659Y0063923D01*
X0049718Y0065121D02*
X0035829Y0065121D01*
X0037028Y0066320D02*
X0049700Y0066320D01*
X0049700Y0067518D02*
X0038226Y0067518D01*
X0048400Y0092687D02*
X0051418Y0092687D01*
X0050435Y0093885D02*
X0048400Y0093885D01*
X0048400Y0095084D02*
X0049920Y0095084D01*
X0059485Y0115459D02*
X0060515Y0115459D01*
X0061791Y0116657D02*
X0058209Y0116657D01*
X0063255Y0125047D02*
X0117479Y0125047D01*
X0117585Y0124719D02*
X0117935Y0124032D01*
X0118388Y0123408D01*
X0118934Y0122862D01*
X0119558Y0122409D01*
X0120245Y0122059D01*
X0120979Y0121821D01*
X0121740Y0121700D01*
X0121939Y0121700D01*
X0121939Y0126413D01*
X0122313Y0126413D01*
X0122313Y0126787D01*
X0127026Y0126787D01*
X0127026Y0126986D01*
X0126905Y0127747D01*
X0126667Y0128481D01*
X0126317Y0129168D01*
X0125863Y0129792D01*
X0125318Y0130337D01*
X0124694Y0130791D01*
X0124007Y0131141D01*
X0123273Y0131379D01*
X0122512Y0131500D01*
X0122313Y0131500D01*
X0122313Y0126787D01*
X0121939Y0126787D01*
X0121938Y0126787D02*
X0121938Y0126413D01*
X0117226Y0126413D01*
X0117226Y0126214D01*
X0117347Y0125453D01*
X0117585Y0124719D01*
X0118069Y0123848D02*
X0105060Y0123848D01*
X0106259Y0122650D02*
X0119227Y0122650D01*
X0121939Y0122650D02*
X0122313Y0122650D01*
X0122313Y0121700D02*
X0122512Y0121700D01*
X0123273Y0121821D01*
X0124007Y0122059D01*
X0124694Y0122409D01*
X0125318Y0122862D01*
X0125863Y0123408D01*
X0126317Y0124032D01*
X0126667Y0124719D01*
X0126905Y0125453D01*
X0127026Y0126214D01*
X0127026Y0126413D01*
X0122313Y0126413D01*
X0122313Y0121700D01*
X0122313Y0123848D02*
X0121939Y0123848D01*
X0121939Y0125047D02*
X0122313Y0125047D01*
X0122313Y0126245D02*
X0121939Y0126245D01*
X0121938Y0126787D02*
X0117226Y0126787D01*
X0117226Y0126986D01*
X0117347Y0127747D01*
X0117585Y0128481D01*
X0117935Y0129168D01*
X0118388Y0129792D01*
X0118934Y0130337D01*
X0119558Y0130791D01*
X0120245Y0131141D01*
X0120979Y0131379D01*
X0121740Y0131500D01*
X0121939Y0131500D01*
X0121939Y0126787D01*
X0121939Y0127444D02*
X0122313Y0127444D01*
X0122313Y0128642D02*
X0121939Y0128642D01*
X0121939Y0129841D02*
X0122313Y0129841D01*
X0122313Y0131039D02*
X0121939Y0131039D01*
X0120045Y0131039D02*
X0065900Y0131039D01*
X0065900Y0129841D02*
X0118437Y0129841D01*
X0117667Y0128642D02*
X0065900Y0128642D01*
X0065494Y0127444D02*
X0117299Y0127444D01*
X0117226Y0126245D02*
X0064453Y0126245D01*
X0070284Y0114260D02*
X0099786Y0114260D01*
X0098992Y0113062D02*
X0070781Y0113062D01*
X0070900Y0111863D02*
X0097955Y0111863D01*
X0096756Y0110665D02*
X0070900Y0110665D01*
X0070502Y0109466D02*
X0095558Y0109466D01*
X0094359Y0108268D02*
X0070006Y0108268D01*
X0079431Y0092687D02*
X0080569Y0092687D01*
X0088418Y0061526D02*
X0136800Y0061526D01*
X0136899Y0060327D02*
X0089617Y0060327D01*
X0090339Y0059129D02*
X0137395Y0059129D01*
X0138316Y0057930D02*
X0090835Y0057930D01*
X0090900Y0056732D02*
X0140165Y0056732D01*
X0138579Y0055533D02*
X0090900Y0055533D01*
X0090448Y0054334D02*
X0137504Y0054334D01*
X0137008Y0053136D02*
X0089880Y0053136D01*
X0088681Y0051937D02*
X0136800Y0051937D01*
X0144600Y0045945D02*
X0145400Y0045945D01*
X0145400Y0044746D02*
X0144600Y0044746D01*
X0144600Y0043548D02*
X0145400Y0043548D01*
X0145400Y0042349D02*
X0144600Y0042349D01*
X0144600Y0041151D02*
X0145400Y0041151D01*
X0145400Y0039952D02*
X0144600Y0039952D01*
X0144600Y0038754D02*
X0145400Y0038754D01*
X0145400Y0037555D02*
X0144600Y0037555D01*
X0164862Y0031563D02*
X0072911Y0031563D01*
X0073589Y0030364D02*
X0165344Y0030364D01*
X0166239Y0029166D02*
X0073800Y0029166D01*
X0073644Y0027967D02*
X0168030Y0027967D01*
X0169500Y0027967D02*
X0170500Y0027967D01*
X0170500Y0029166D02*
X0169500Y0029166D01*
X0169500Y0030364D02*
X0170500Y0030364D01*
X0170500Y0031563D02*
X0169500Y0031563D01*
X0169500Y0032761D02*
X0170500Y0032761D01*
X0170500Y0033960D02*
X0169500Y0033960D01*
X0169500Y0035158D02*
X0170500Y0035158D01*
X0174656Y0030364D02*
X0174664Y0030364D01*
X0175390Y0029166D02*
X0173761Y0029166D01*
X0171970Y0027967D02*
X0176589Y0027967D01*
X0192115Y0057930D02*
X0199165Y0057930D01*
X0199661Y0059129D02*
X0193468Y0059129D01*
X0194667Y0060327D02*
X0200383Y0060327D01*
X0201582Y0061526D02*
X0195865Y0061526D01*
X0197064Y0062724D02*
X0200532Y0062724D01*
X0199723Y0063923D02*
X0198262Y0063923D01*
X0192375Y0069915D02*
X0162625Y0069915D01*
X0163823Y0068717D02*
X0191177Y0068717D01*
X0189978Y0067518D02*
X0165022Y0067518D01*
X0166220Y0066320D02*
X0188780Y0066320D01*
X0193574Y0071114D02*
X0161426Y0071114D01*
X0160228Y0072312D02*
X0178073Y0072312D01*
X0178826Y0072000D02*
X0181174Y0072000D01*
X0183342Y0072898D01*
X0185002Y0074558D01*
X0185900Y0076726D01*
X0185900Y0086474D01*
X0185002Y0088642D01*
X0183342Y0090302D01*
X0181174Y0091200D01*
X0178826Y0091200D01*
X0176658Y0090302D01*
X0174998Y0088642D01*
X0174661Y0087827D01*
X0174533Y0088078D01*
X0174043Y0088753D01*
X0173453Y0089343D01*
X0172778Y0089833D01*
X0172034Y0090212D01*
X0171241Y0090469D01*
X0170500Y0090587D01*
X0170500Y0082100D01*
X0169500Y0082100D01*
X0169500Y0090587D01*
X0168759Y0090469D01*
X0167966Y0090212D01*
X0167222Y0089833D01*
X0166547Y0089343D01*
X0165957Y0088753D01*
X0165467Y0088078D01*
X0165088Y0087334D01*
X0164830Y0086541D01*
X0164700Y0085717D01*
X0164700Y0082100D01*
X0169500Y0082100D01*
X0169500Y0081100D01*
X0170500Y0081100D01*
X0170500Y0072613D01*
X0171241Y0072730D01*
X0172034Y0072988D01*
X0172778Y0073367D01*
X0173453Y0073857D01*
X0174043Y0074447D01*
X0174533Y0075122D01*
X0174661Y0075373D01*
X0174998Y0074558D01*
X0176658Y0072898D01*
X0178826Y0072000D01*
X0181927Y0072312D02*
X0194772Y0072312D01*
X0195971Y0073511D02*
X0183955Y0073511D01*
X0185064Y0074709D02*
X0197170Y0074709D01*
X0198368Y0075908D02*
X0185561Y0075908D01*
X0185900Y0077106D02*
X0199100Y0077106D01*
X0199320Y0078305D02*
X0185900Y0078305D01*
X0185900Y0079503D02*
X0199816Y0079503D01*
X0200758Y0080702D02*
X0185900Y0080702D01*
X0185900Y0081900D02*
X0201356Y0081900D01*
X0200157Y0083099D02*
X0185900Y0083099D01*
X0185900Y0084297D02*
X0199568Y0084297D01*
X0199100Y0085496D02*
X0185900Y0085496D01*
X0185809Y0086694D02*
X0199100Y0086694D01*
X0199149Y0087893D02*
X0185312Y0087893D01*
X0184553Y0089091D02*
X0199646Y0089091D01*
X0200346Y0090290D02*
X0183354Y0090290D01*
X0182335Y0097481D02*
X0199773Y0097481D01*
X0200111Y0098679D02*
X0184123Y0098679D01*
X0185134Y0099878D02*
X0200830Y0099878D01*
X0202144Y0101076D02*
X0185631Y0101076D01*
X0185900Y0102275D02*
X0201936Y0102275D01*
X0200720Y0103473D02*
X0192813Y0103473D01*
X0192672Y0103332D02*
X0192672Y0103332D01*
X0192531Y0103192D02*
X0192531Y0103192D01*
X0193853Y0104514D02*
X0193853Y0104514D01*
X0194012Y0104672D02*
X0200054Y0104672D01*
X0199749Y0105870D02*
X0195210Y0105870D01*
X0196409Y0107069D02*
X0199708Y0107069D01*
X0199969Y0108268D02*
X0197607Y0108268D01*
X0198806Y0109466D02*
X0200531Y0109466D01*
X0200004Y0110665D02*
X0201577Y0110665D01*
X0201393Y0111863D02*
X0201203Y0111863D01*
X0204600Y0105870D02*
X0205400Y0105870D01*
X0205400Y0104672D02*
X0204600Y0104672D01*
X0204600Y0103473D02*
X0205400Y0103473D01*
X0205400Y0102275D02*
X0204600Y0102275D01*
X0204600Y0101076D02*
X0205400Y0101076D01*
X0205400Y0099878D02*
X0204600Y0099878D01*
X0204600Y0098679D02*
X0205400Y0098679D01*
X0205400Y0097481D02*
X0204600Y0097481D01*
X0204600Y0096282D02*
X0159200Y0096282D01*
X0159200Y0095084D02*
X0199920Y0095084D01*
X0200435Y0093885D02*
X0159200Y0093885D01*
X0159200Y0092687D02*
X0201418Y0092687D01*
X0201544Y0091488D02*
X0159200Y0091488D01*
X0159200Y0090290D02*
X0168206Y0090290D01*
X0169500Y0090290D02*
X0170500Y0090290D01*
X0170500Y0089091D02*
X0169500Y0089091D01*
X0169500Y0087893D02*
X0170500Y0087893D01*
X0170500Y0086694D02*
X0169500Y0086694D01*
X0169500Y0085496D02*
X0170500Y0085496D01*
X0170500Y0084297D02*
X0169500Y0084297D01*
X0169500Y0083099D02*
X0170500Y0083099D01*
X0169500Y0081900D02*
X0159200Y0081900D01*
X0159200Y0080702D02*
X0164700Y0080702D01*
X0164700Y0081100D02*
X0164700Y0077483D01*
X0164830Y0076659D01*
X0165088Y0075866D01*
X0165467Y0075122D01*
X0165957Y0074447D01*
X0166547Y0073857D01*
X0167222Y0073367D01*
X0167966Y0072988D01*
X0168759Y0072730D01*
X0169500Y0072613D01*
X0169500Y0081100D01*
X0164700Y0081100D01*
X0164700Y0079503D02*
X0159200Y0079503D01*
X0159200Y0078305D02*
X0164700Y0078305D01*
X0164760Y0077106D02*
X0159200Y0077106D01*
X0159200Y0075908D02*
X0165075Y0075908D01*
X0165767Y0074709D02*
X0159200Y0074709D01*
X0159200Y0073511D02*
X0167024Y0073511D01*
X0169500Y0073511D02*
X0170500Y0073511D01*
X0170500Y0074709D02*
X0169500Y0074709D01*
X0169500Y0075908D02*
X0170500Y0075908D01*
X0170500Y0077106D02*
X0169500Y0077106D01*
X0169500Y0078305D02*
X0170500Y0078305D01*
X0170500Y0079503D02*
X0169500Y0079503D01*
X0169500Y0080702D02*
X0170500Y0080702D01*
X0164700Y0083099D02*
X0159200Y0083099D01*
X0159200Y0084297D02*
X0164700Y0084297D01*
X0164700Y0085496D02*
X0159200Y0085496D01*
X0159200Y0086694D02*
X0164880Y0086694D01*
X0165373Y0087893D02*
X0159200Y0087893D01*
X0159200Y0089091D02*
X0166296Y0089091D01*
X0171794Y0090290D02*
X0176646Y0090290D01*
X0175447Y0089091D02*
X0173704Y0089091D01*
X0174627Y0087893D02*
X0174688Y0087893D01*
X0177665Y0097481D02*
X0159200Y0097481D01*
X0159200Y0098679D02*
X0166792Y0098679D01*
X0166547Y0098857D02*
X0167222Y0098367D01*
X0167966Y0097988D01*
X0168759Y0097730D01*
X0169500Y0097613D01*
X0169500Y0106100D01*
X0164700Y0106100D01*
X0164700Y0102483D01*
X0164830Y0101659D01*
X0165088Y0100866D01*
X0165467Y0100122D01*
X0165957Y0099447D01*
X0166547Y0098857D01*
X0165644Y0099878D02*
X0159200Y0099878D01*
X0159200Y0101076D02*
X0165020Y0101076D01*
X0164733Y0102275D02*
X0159200Y0102275D01*
X0159200Y0103473D02*
X0164700Y0103473D01*
X0164700Y0104672D02*
X0159200Y0104672D01*
X0159200Y0105870D02*
X0164700Y0105870D01*
X0164700Y0108268D02*
X0159200Y0108268D01*
X0159200Y0109466D02*
X0164700Y0109466D01*
X0164700Y0110665D02*
X0159200Y0110665D01*
X0159200Y0111863D02*
X0164935Y0111863D01*
X0165459Y0113062D02*
X0159200Y0113062D01*
X0159200Y0114260D02*
X0166465Y0114260D01*
X0168725Y0115459D02*
X0159200Y0115459D01*
X0159200Y0116657D02*
X0194117Y0116657D01*
X0192919Y0115459D02*
X0182964Y0115459D01*
X0184384Y0114260D02*
X0191720Y0114260D01*
X0190522Y0113062D02*
X0185242Y0113062D01*
X0185739Y0111863D02*
X0189323Y0111863D01*
X0195316Y0117856D02*
X0159200Y0117856D01*
X0159200Y0119054D02*
X0196514Y0119054D01*
X0197843Y0120253D02*
X0159200Y0120253D01*
X0159200Y0121451D02*
X0201507Y0121451D01*
X0198152Y0127444D02*
X0212300Y0127444D01*
X0212300Y0128642D02*
X0199351Y0128642D01*
X0200549Y0129841D02*
X0212300Y0129841D01*
X0212300Y0131039D02*
X0206993Y0131039D01*
X0208982Y0132238D02*
X0212300Y0132238D01*
X0212300Y0133436D02*
X0210076Y0133436D01*
X0210572Y0134635D02*
X0212300Y0134635D01*
X0212300Y0135833D02*
X0210900Y0135833D01*
X0210900Y0137032D02*
X0212300Y0137032D01*
X0212300Y0138230D02*
X0210711Y0138230D01*
X0210214Y0139429D02*
X0212300Y0139429D01*
X0212300Y0140627D02*
X0209317Y0140627D01*
X0208570Y0141826D02*
X0212300Y0141826D01*
X0212300Y0143024D02*
X0209768Y0143024D01*
X0210401Y0144223D02*
X0212300Y0144223D01*
X0212300Y0145421D02*
X0210898Y0145421D01*
X0210900Y0146620D02*
X0212300Y0146620D01*
X0212300Y0147818D02*
X0210881Y0147818D01*
X0210385Y0149017D02*
X0212300Y0149017D01*
X0212300Y0150215D02*
X0209728Y0150215D01*
X0208530Y0151414D02*
X0212300Y0151414D01*
X0212300Y0152612D02*
X0209356Y0152612D01*
X0210231Y0153811D02*
X0212300Y0153811D01*
X0212300Y0155009D02*
X0210727Y0155009D01*
X0210900Y0156208D02*
X0212300Y0156208D01*
X0212300Y0157406D02*
X0210900Y0157406D01*
X0210556Y0158605D02*
X0212300Y0158605D01*
X0212300Y0159803D02*
X0210059Y0159803D01*
X0208942Y0161002D02*
X0212300Y0161002D01*
X0212300Y0162201D02*
X0208944Y0162201D01*
X0210060Y0163399D02*
X0212300Y0163399D01*
X0212300Y0164598D02*
X0210557Y0164598D01*
X0210900Y0165796D02*
X0212300Y0165796D01*
X0212300Y0166995D02*
X0210900Y0166995D01*
X0210726Y0168193D02*
X0212300Y0168193D01*
X0212300Y0169392D02*
X0210230Y0169392D01*
X0209354Y0170590D02*
X0212300Y0170590D01*
X0212300Y0171789D02*
X0208532Y0171789D01*
X0209731Y0172987D02*
X0212300Y0172987D01*
X0212300Y0174186D02*
X0210386Y0174186D01*
X0210882Y0175384D02*
X0212300Y0175384D01*
X0212300Y0176583D02*
X0210900Y0176583D01*
X0210897Y0177781D02*
X0212300Y0177781D01*
X0212300Y0178980D02*
X0210400Y0178980D01*
X0209766Y0180178D02*
X0212300Y0180178D01*
X0212300Y0181377D02*
X0208567Y0181377D01*
X0209319Y0182575D02*
X0212300Y0182575D01*
X0212300Y0183774D02*
X0210215Y0183774D01*
X0210712Y0184972D02*
X0212300Y0184972D01*
X0212300Y0186171D02*
X0210900Y0186171D01*
X0210900Y0187369D02*
X0212300Y0187369D01*
X0212300Y0188568D02*
X0210571Y0188568D01*
X0210075Y0189766D02*
X0212300Y0189766D01*
X0212300Y0190965D02*
X0208979Y0190965D01*
X0206986Y0192163D02*
X0212300Y0192163D01*
X0212300Y0193362D02*
X0185045Y0193362D01*
X0185541Y0194560D02*
X0212300Y0194560D01*
X0212300Y0195759D02*
X0185900Y0195759D01*
X0185900Y0196957D02*
X0212300Y0196957D01*
X0212300Y0198156D02*
X0185742Y0198156D01*
X0185245Y0199354D02*
X0212300Y0199354D01*
X0212300Y0200553D02*
X0184391Y0200553D01*
X0182981Y0201751D02*
X0212300Y0201751D01*
X0212300Y0202950D02*
X0132090Y0202950D01*
X0131700Y0204148D02*
X0212300Y0204148D01*
X0212300Y0205347D02*
X0131700Y0205347D01*
X0131700Y0206545D02*
X0212300Y0206545D01*
X0212300Y0207744D02*
X0131700Y0207744D01*
X0131700Y0208942D02*
X0212300Y0208942D01*
X0212300Y0210141D02*
X0131700Y0210141D01*
X0131700Y0211339D02*
X0212300Y0211339D01*
X0212300Y0212538D02*
X0131700Y0212538D01*
X0131700Y0213737D02*
X0212300Y0213737D01*
X0212300Y0214935D02*
X0131700Y0214935D01*
X0131700Y0216134D02*
X0212300Y0216134D01*
X0212300Y0217332D02*
X0131700Y0217332D01*
X0131700Y0218531D02*
X0212300Y0218531D01*
X0212300Y0219729D02*
X0131700Y0219729D01*
X0131700Y0220928D02*
X0212300Y0220928D01*
X0212300Y0222126D02*
X0131700Y0222126D01*
X0131700Y0223325D02*
X0212300Y0223325D01*
X0212300Y0224523D02*
X0131700Y0224523D01*
X0131700Y0225722D02*
X0212300Y0225722D01*
X0212300Y0226920D02*
X0131700Y0226920D01*
X0131700Y0228119D02*
X0212300Y0228119D01*
X0212300Y0229317D02*
X0131700Y0229317D01*
X0131700Y0230516D02*
X0212300Y0230516D01*
X0212300Y0231714D02*
X0131700Y0231714D01*
X0131700Y0232913D02*
X0212300Y0232913D01*
X0212300Y0234111D02*
X0131700Y0234111D01*
X0131700Y0235310D02*
X0161721Y0235310D01*
X0161744Y0235300D02*
X0163256Y0235300D01*
X0164653Y0235879D01*
X0165721Y0236947D01*
X0166300Y0238344D01*
X0166300Y0239856D01*
X0165721Y0241253D01*
X0164653Y0242321D01*
X0163687Y0242721D01*
X0158400Y0248008D01*
X0158400Y0252692D01*
X0158815Y0253107D01*
X0158815Y0250622D01*
X0159805Y0248233D01*
X0161633Y0246405D01*
X0164022Y0245415D01*
X0166608Y0245415D01*
X0168997Y0246405D01*
X0170236Y0247644D01*
X0171476Y0246405D01*
X0173865Y0245415D01*
X0176450Y0245415D01*
X0178839Y0246405D01*
X0180668Y0248233D01*
X0181127Y0249342D01*
X0181132Y0249331D01*
X0182416Y0248047D01*
X0184093Y0247353D01*
X0185907Y0247353D01*
X0187584Y0248047D01*
X0188868Y0249331D01*
X0188873Y0249342D01*
X0189332Y0248233D01*
X0191161Y0246405D01*
X0193550Y0245415D01*
X0196135Y0245415D01*
X0198524Y0246405D01*
X0199764Y0247644D01*
X0201003Y0246405D01*
X0203392Y0245415D01*
X0205978Y0245415D01*
X0208367Y0246405D01*
X0210195Y0248233D01*
X0211185Y0250622D01*
X0211185Y0253208D01*
X0210195Y0255597D01*
X0208367Y0257425D01*
X0205978Y0258415D01*
X0205493Y0258415D01*
X0201926Y0261982D01*
X0200676Y0262500D01*
X0169324Y0262500D01*
X0168074Y0261982D01*
X0167118Y0261026D01*
X0164507Y0258415D01*
X0164123Y0258415D01*
X0168908Y0263200D01*
X0180676Y0263200D01*
X0181926Y0263718D01*
X0182882Y0264674D01*
X0183425Y0265217D01*
X0183707Y0265100D01*
X0186293Y0265100D01*
X0188682Y0266090D01*
X0190510Y0267918D01*
X0191500Y0270307D01*
X0191500Y0272893D01*
X0190510Y0275282D01*
X0188682Y0277110D01*
X0186293Y0278100D01*
X0183707Y0278100D01*
X0181318Y0277110D01*
X0179490Y0275282D01*
X0178500Y0272893D01*
X0178500Y0270307D01*
X0178617Y0270025D01*
X0178592Y0270000D01*
X0169590Y0270000D01*
X0169877Y0270693D01*
X0169877Y0272507D01*
X0169183Y0274184D01*
X0167899Y0275468D01*
X0166222Y0276162D01*
X0164407Y0276162D01*
X0162731Y0275468D01*
X0161447Y0274184D01*
X0160753Y0272507D01*
X0160753Y0270693D01*
X0161447Y0269016D01*
X0162731Y0267732D01*
X0163504Y0267412D01*
X0153074Y0256982D01*
X0152118Y0256026D01*
X0151600Y0254776D01*
X0151600Y0245924D01*
X0152118Y0244674D01*
X0158879Y0237913D01*
X0159279Y0236947D01*
X0160347Y0235879D01*
X0161744Y0235300D01*
X0163279Y0235310D02*
X0212300Y0235310D01*
X0212300Y0236508D02*
X0165282Y0236508D01*
X0166036Y0237707D02*
X0212300Y0237707D01*
X0212300Y0238905D02*
X0166300Y0238905D01*
X0166197Y0240104D02*
X0212300Y0240104D01*
X0212300Y0241302D02*
X0165672Y0241302D01*
X0164220Y0242501D02*
X0212300Y0242501D01*
X0212300Y0243699D02*
X0162709Y0243699D01*
X0161511Y0244898D02*
X0212300Y0244898D01*
X0212300Y0246096D02*
X0207623Y0246096D01*
X0209257Y0247295D02*
X0212300Y0247295D01*
X0212300Y0248493D02*
X0210303Y0248493D01*
X0210800Y0249692D02*
X0212300Y0249692D01*
X0212300Y0250890D02*
X0211185Y0250890D01*
X0211185Y0252089D02*
X0212300Y0252089D01*
X0212300Y0253287D02*
X0211152Y0253287D01*
X0210656Y0254486D02*
X0212300Y0254486D01*
X0212300Y0255684D02*
X0210108Y0255684D01*
X0208909Y0256883D02*
X0212300Y0256883D01*
X0212300Y0258081D02*
X0206783Y0258081D01*
X0204628Y0259280D02*
X0212300Y0259280D01*
X0212300Y0260478D02*
X0203430Y0260478D01*
X0202231Y0261677D02*
X0212300Y0261677D01*
X0212300Y0262875D02*
X0168584Y0262875D01*
X0167769Y0261677D02*
X0167385Y0261677D01*
X0167118Y0261026D02*
X0167118Y0261026D01*
X0166570Y0260478D02*
X0166187Y0260478D01*
X0165372Y0259280D02*
X0164988Y0259280D01*
X0161364Y0265272D02*
X0131700Y0265272D01*
X0131700Y0264074D02*
X0160166Y0264074D01*
X0158967Y0262875D02*
X0131700Y0262875D01*
X0131700Y0261677D02*
X0157769Y0261677D01*
X0156570Y0260478D02*
X0131700Y0260478D01*
X0131700Y0259280D02*
X0155372Y0259280D01*
X0154173Y0258081D02*
X0131700Y0258081D01*
X0131700Y0256883D02*
X0152975Y0256883D01*
X0151976Y0255684D02*
X0131700Y0255684D01*
X0131700Y0254486D02*
X0151600Y0254486D01*
X0151600Y0253287D02*
X0131700Y0253287D01*
X0131700Y0252089D02*
X0151600Y0252089D01*
X0151600Y0250890D02*
X0131700Y0250890D01*
X0131700Y0249692D02*
X0151600Y0249692D01*
X0151600Y0248493D02*
X0131700Y0248493D01*
X0131700Y0247295D02*
X0151600Y0247295D01*
X0151600Y0246096D02*
X0131700Y0246096D01*
X0131700Y0244898D02*
X0152025Y0244898D01*
X0153092Y0243699D02*
X0131700Y0243699D01*
X0131700Y0242501D02*
X0154291Y0242501D01*
X0155489Y0241302D02*
X0131700Y0241302D01*
X0131700Y0240104D02*
X0156688Y0240104D01*
X0157886Y0238905D02*
X0131700Y0238905D01*
X0131700Y0237707D02*
X0158964Y0237707D01*
X0159718Y0236508D02*
X0131700Y0236508D01*
X0123300Y0234111D02*
X0090363Y0234111D01*
X0091069Y0232913D02*
X0123300Y0232913D01*
X0123300Y0231714D02*
X0091300Y0231714D01*
X0091164Y0230516D02*
X0123300Y0230516D01*
X0123300Y0229317D02*
X0090591Y0229317D01*
X0089025Y0228119D02*
X0123300Y0228119D01*
X0123300Y0226920D02*
X0087628Y0226920D01*
X0085728Y0225722D02*
X0123300Y0225722D01*
X0123300Y0224523D02*
X0065231Y0224523D01*
X0064033Y0223325D02*
X0123300Y0223325D01*
X0123300Y0222126D02*
X0062834Y0222126D01*
X0061636Y0220928D02*
X0123300Y0220928D01*
X0123300Y0219729D02*
X0060437Y0219729D01*
X0059239Y0218531D02*
X0123300Y0218531D01*
X0123300Y0217332D02*
X0058040Y0217332D01*
X0056842Y0216134D02*
X0123300Y0216134D01*
X0123300Y0214935D02*
X0055643Y0214935D01*
X0054445Y0213737D02*
X0123300Y0213737D01*
X0123300Y0212538D02*
X0053246Y0212538D01*
X0052048Y0211339D02*
X0123300Y0211339D01*
X0123300Y0210141D02*
X0050849Y0210141D01*
X0049651Y0208942D02*
X0123300Y0208942D01*
X0123388Y0200553D02*
X0118542Y0200553D01*
X0119741Y0199354D02*
X0123884Y0199354D01*
X0125004Y0198156D02*
X0120300Y0198156D01*
X0112656Y0201751D02*
X0108192Y0201751D01*
X0109391Y0200553D02*
X0111458Y0200553D01*
X0133288Y0201751D02*
X0168703Y0201751D01*
X0169800Y0201751D02*
X0170200Y0201751D01*
X0171297Y0201751D02*
X0177019Y0201751D01*
X0175609Y0200553D02*
X0173542Y0200553D01*
X0174545Y0199354D02*
X0174755Y0199354D01*
X0170200Y0199354D02*
X0169800Y0199354D01*
X0169800Y0198156D02*
X0170200Y0198156D01*
X0170200Y0196957D02*
X0169800Y0196957D01*
X0167090Y0192163D02*
X0142876Y0192163D01*
X0143774Y0190965D02*
X0169386Y0190965D01*
X0169100Y0189766D02*
X0144200Y0189766D01*
X0144200Y0188568D02*
X0169100Y0188568D01*
X0169331Y0187369D02*
X0144200Y0187369D01*
X0144200Y0186171D02*
X0169827Y0186171D01*
X0170784Y0184972D02*
X0144200Y0184972D01*
X0144200Y0183774D02*
X0172441Y0183774D01*
X0173567Y0181377D02*
X0176433Y0181377D01*
X0175234Y0180178D02*
X0174766Y0180178D01*
X0177559Y0183774D02*
X0183018Y0183774D01*
X0181819Y0184972D02*
X0179216Y0184972D01*
X0183567Y0181377D02*
X0185415Y0181377D01*
X0184766Y0180178D02*
X0186613Y0180178D01*
X0187812Y0178980D02*
X0185400Y0178980D01*
X0185897Y0177781D02*
X0189011Y0177781D01*
X0190209Y0176583D02*
X0185900Y0176583D01*
X0185882Y0175384D02*
X0191408Y0175384D01*
X0192606Y0174186D02*
X0185386Y0174186D01*
X0184731Y0172987D02*
X0200269Y0172987D01*
X0200234Y0180178D02*
X0196230Y0180178D01*
X0195032Y0181377D02*
X0201433Y0181377D01*
X0200681Y0182575D02*
X0193833Y0182575D01*
X0192635Y0183774D02*
X0199785Y0183774D01*
X0199288Y0184972D02*
X0191436Y0184972D01*
X0190238Y0186171D02*
X0199100Y0186171D01*
X0199100Y0187369D02*
X0189039Y0187369D01*
X0187841Y0188568D02*
X0199429Y0188568D01*
X0199925Y0189766D02*
X0186642Y0189766D01*
X0185444Y0190965D02*
X0201021Y0190965D01*
X0203014Y0192163D02*
X0183989Y0192163D01*
X0184216Y0182575D02*
X0144200Y0182575D01*
X0144200Y0181377D02*
X0157701Y0181377D01*
X0159600Y0181377D02*
X0160400Y0181377D01*
X0160400Y0180178D02*
X0159600Y0180178D01*
X0159600Y0178980D02*
X0160400Y0178980D01*
X0160400Y0177781D02*
X0159600Y0177781D01*
X0159600Y0176583D02*
X0144200Y0176583D01*
X0144200Y0177781D02*
X0154821Y0177781D01*
X0155264Y0178980D02*
X0144200Y0178980D01*
X0144200Y0180178D02*
X0156083Y0180178D01*
X0154827Y0175384D02*
X0144200Y0175384D01*
X0144200Y0174186D02*
X0155282Y0174186D01*
X0156118Y0172987D02*
X0144200Y0172987D01*
X0144200Y0171789D02*
X0157769Y0171789D01*
X0159600Y0171789D02*
X0160400Y0171789D01*
X0160400Y0172987D02*
X0159600Y0172987D01*
X0159600Y0174186D02*
X0160400Y0174186D01*
X0160400Y0175384D02*
X0159600Y0175384D01*
X0162231Y0171789D02*
X0166468Y0171789D01*
X0165269Y0172987D02*
X0163882Y0172987D01*
X0168702Y0170590D02*
X0144200Y0170590D01*
X0144200Y0169392D02*
X0169900Y0169392D01*
X0171099Y0168193D02*
X0144200Y0168193D01*
X0144200Y0166995D02*
X0167606Y0166995D01*
X0165852Y0165796D02*
X0163242Y0165796D01*
X0164373Y0164598D02*
X0164856Y0164598D01*
X0160400Y0164598D02*
X0159600Y0164598D01*
X0159600Y0165796D02*
X0160400Y0165796D01*
X0160400Y0163399D02*
X0159600Y0163399D01*
X0159600Y0162201D02*
X0160400Y0162201D01*
X0160400Y0161002D02*
X0159600Y0161002D01*
X0159600Y0161200D02*
X0159600Y0156300D01*
X0159583Y0156300D01*
X0158759Y0156430D01*
X0157966Y0156688D01*
X0157222Y0157067D01*
X0156547Y0157557D01*
X0155957Y0158147D01*
X0155467Y0158822D01*
X0155088Y0159566D01*
X0154830Y0160359D01*
X0154700Y0161183D01*
X0154700Y0161200D01*
X0159600Y0161200D01*
X0159600Y0159803D02*
X0160400Y0159803D01*
X0160400Y0158605D02*
X0159600Y0158605D01*
X0159600Y0157406D02*
X0160400Y0157406D01*
X0163245Y0157406D02*
X0165850Y0157406D01*
X0164854Y0158605D02*
X0164375Y0158605D01*
X0167600Y0156208D02*
X0144200Y0156208D01*
X0144200Y0157406D02*
X0156755Y0157406D01*
X0155625Y0158605D02*
X0144200Y0158605D01*
X0144200Y0159803D02*
X0155011Y0159803D01*
X0154729Y0161002D02*
X0144200Y0161002D01*
X0144200Y0162201D02*
X0154729Y0162201D01*
X0155012Y0163399D02*
X0144200Y0163399D01*
X0144200Y0164598D02*
X0155627Y0164598D01*
X0156758Y0165796D02*
X0144200Y0165796D01*
X0144200Y0155009D02*
X0169282Y0155009D01*
X0170481Y0153811D02*
X0144200Y0153811D01*
X0144200Y0152612D02*
X0171679Y0152612D01*
X0166470Y0151414D02*
X0163530Y0151414D01*
X0164728Y0150215D02*
X0165272Y0150215D01*
X0165232Y0143024D02*
X0164768Y0143024D01*
X0163570Y0141826D02*
X0166430Y0141826D01*
X0168664Y0140627D02*
X0146912Y0140627D01*
X0148111Y0139429D02*
X0169863Y0139429D01*
X0171061Y0138230D02*
X0149309Y0138230D01*
X0150508Y0137032D02*
X0172260Y0137032D01*
X0174002Y0135833D02*
X0151706Y0135833D01*
X0152905Y0134635D02*
X0160161Y0134635D01*
X0159148Y0133436D02*
X0154103Y0133436D01*
X0155302Y0132238D02*
X0158700Y0132238D01*
X0158700Y0131039D02*
X0156500Y0131039D01*
X0157699Y0129841D02*
X0159116Y0129841D01*
X0158700Y0128642D02*
X0160084Y0128642D01*
X0159197Y0127444D02*
X0161848Y0127444D01*
X0163046Y0126245D02*
X0159200Y0126245D01*
X0159200Y0125047D02*
X0212300Y0125047D01*
X0212300Y0126245D02*
X0196953Y0126245D01*
X0201748Y0131039D02*
X0203007Y0131039D01*
X0198123Y0137032D02*
X0197740Y0137032D01*
X0196925Y0135833D02*
X0195998Y0135833D01*
X0195726Y0134635D02*
X0164839Y0134635D01*
X0165852Y0133436D02*
X0194528Y0133436D01*
X0198939Y0138230D02*
X0199289Y0138230D01*
X0208493Y0121451D02*
X0212300Y0121451D01*
X0212300Y0120253D02*
X0209691Y0120253D01*
X0210370Y0119054D02*
X0212300Y0119054D01*
X0212300Y0117856D02*
X0210866Y0117856D01*
X0210900Y0116657D02*
X0212300Y0116657D01*
X0212300Y0115459D02*
X0210900Y0115459D01*
X0210417Y0114260D02*
X0212300Y0114260D01*
X0212300Y0113062D02*
X0209805Y0113062D01*
X0208607Y0111863D02*
X0212300Y0111863D01*
X0212300Y0110665D02*
X0208423Y0110665D01*
X0209469Y0109466D02*
X0212300Y0109466D01*
X0212300Y0108268D02*
X0210031Y0108268D01*
X0210292Y0107069D02*
X0212300Y0107069D01*
X0212300Y0105870D02*
X0210251Y0105870D01*
X0209946Y0104672D02*
X0212300Y0104672D01*
X0212300Y0103473D02*
X0209280Y0103473D01*
X0208064Y0102275D02*
X0212300Y0102275D01*
X0212300Y0101076D02*
X0207856Y0101076D01*
X0209170Y0099878D02*
X0212300Y0099878D01*
X0212300Y0098679D02*
X0209889Y0098679D01*
X0210227Y0097481D02*
X0212300Y0097481D01*
X0212300Y0096282D02*
X0205400Y0096282D01*
X0208582Y0092687D02*
X0212300Y0092687D01*
X0212300Y0093885D02*
X0209565Y0093885D01*
X0210080Y0095084D02*
X0212300Y0095084D01*
X0212300Y0091488D02*
X0208455Y0091488D01*
X0209654Y0090290D02*
X0212300Y0090290D01*
X0212300Y0089091D02*
X0210354Y0089091D01*
X0210851Y0087893D02*
X0212300Y0087893D01*
X0212300Y0086694D02*
X0210900Y0086694D01*
X0210900Y0085496D02*
X0212300Y0085496D01*
X0212300Y0084297D02*
X0210432Y0084297D01*
X0209843Y0083099D02*
X0212300Y0083099D01*
X0212300Y0081900D02*
X0208644Y0081900D01*
X0209242Y0080702D02*
X0212300Y0080702D01*
X0212300Y0079503D02*
X0210184Y0079503D01*
X0210680Y0078305D02*
X0212300Y0078305D01*
X0212300Y0077106D02*
X0210900Y0077106D01*
X0210900Y0075908D02*
X0212300Y0075908D01*
X0212300Y0074709D02*
X0210603Y0074709D01*
X0210106Y0073511D02*
X0212300Y0073511D01*
X0212300Y0072312D02*
X0209056Y0072312D01*
X0208830Y0071114D02*
X0212300Y0071114D01*
X0212300Y0069915D02*
X0210013Y0069915D01*
X0210509Y0068717D02*
X0212300Y0068717D01*
X0212300Y0067518D02*
X0210900Y0067518D01*
X0210900Y0066320D02*
X0212300Y0066320D01*
X0212300Y0065121D02*
X0210774Y0065121D01*
X0210277Y0063923D02*
X0212300Y0063923D01*
X0212300Y0062724D02*
X0209468Y0062724D01*
X0208418Y0061526D02*
X0212300Y0061526D01*
X0212300Y0060327D02*
X0209617Y0060327D01*
X0210339Y0059129D02*
X0212300Y0059129D01*
X0212300Y0057930D02*
X0210835Y0057930D01*
X0210900Y0056732D02*
X0212300Y0056732D01*
X0212300Y0055533D02*
X0210900Y0055533D01*
X0210448Y0054334D02*
X0212300Y0054334D01*
X0212300Y0053136D02*
X0209880Y0053136D01*
X0208681Y0051937D02*
X0212300Y0051937D01*
X0212300Y0050739D02*
X0209205Y0050739D01*
X0210168Y0049540D02*
X0212300Y0049540D01*
X0212300Y0048342D02*
X0210665Y0048342D01*
X0210900Y0047143D02*
X0212300Y0047143D01*
X0212300Y0045945D02*
X0210900Y0045945D01*
X0210618Y0044746D02*
X0212300Y0044746D01*
X0212300Y0043548D02*
X0210122Y0043548D01*
X0209093Y0042349D02*
X0212300Y0042349D01*
X0212300Y0041151D02*
X0207262Y0041151D01*
X0176045Y0073511D02*
X0172976Y0073511D01*
X0174233Y0074709D02*
X0174936Y0074709D01*
X0175877Y0098679D02*
X0173208Y0098679D01*
X0174355Y0099878D02*
X0174866Y0099878D01*
X0170500Y0099878D02*
X0169500Y0099878D01*
X0169500Y0101076D02*
X0170500Y0101076D01*
X0170500Y0102275D02*
X0169500Y0102275D01*
X0169500Y0103473D02*
X0170500Y0103473D01*
X0170500Y0104672D02*
X0169500Y0104672D01*
X0169500Y0105870D02*
X0170500Y0105870D01*
X0169500Y0107069D02*
X0159200Y0107069D01*
X0169500Y0108268D02*
X0170500Y0108268D01*
X0170500Y0109466D02*
X0169500Y0109466D01*
X0169500Y0110665D02*
X0170500Y0110665D01*
X0170500Y0111863D02*
X0169500Y0111863D01*
X0169500Y0113062D02*
X0170500Y0113062D01*
X0170500Y0114260D02*
X0169500Y0114260D01*
X0169500Y0115459D02*
X0170500Y0115459D01*
X0171275Y0115459D02*
X0177036Y0115459D01*
X0175616Y0114260D02*
X0173535Y0114260D01*
X0174541Y0113062D02*
X0174758Y0113062D01*
X0170500Y0098679D02*
X0169500Y0098679D01*
X0159200Y0122650D02*
X0212300Y0122650D01*
X0212300Y0123848D02*
X0159200Y0123848D01*
X0156430Y0141826D02*
X0154889Y0141826D01*
X0150400Y0141826D02*
X0149600Y0141826D01*
X0149600Y0143024D02*
X0150400Y0143024D01*
X0150400Y0144223D02*
X0149600Y0144223D01*
X0149600Y0145421D02*
X0150400Y0145421D01*
X0149600Y0146620D02*
X0144200Y0146620D01*
X0144200Y0147818D02*
X0144700Y0147818D01*
X0144700Y0149017D02*
X0144200Y0149017D01*
X0144200Y0150215D02*
X0144700Y0150215D01*
X0145151Y0151414D02*
X0144200Y0151414D01*
X0144200Y0145421D02*
X0144700Y0145421D01*
X0144700Y0144223D02*
X0144200Y0144223D01*
X0144515Y0143024D02*
X0144700Y0143024D01*
X0149600Y0147818D02*
X0150400Y0147818D01*
X0150400Y0149017D02*
X0149600Y0149017D01*
X0149600Y0150215D02*
X0150400Y0150215D01*
X0150400Y0151414D02*
X0149600Y0151414D01*
X0154849Y0151414D02*
X0156470Y0151414D01*
X0163917Y0180178D02*
X0165234Y0180178D01*
X0166433Y0181377D02*
X0162299Y0181377D01*
X0165802Y0193362D02*
X0141678Y0193362D01*
X0140479Y0194560D02*
X0165091Y0194560D01*
X0164767Y0195759D02*
X0139281Y0195759D01*
X0138082Y0196957D02*
X0164700Y0196957D01*
X0164933Y0198156D02*
X0136884Y0198156D01*
X0135685Y0199354D02*
X0165455Y0199354D01*
X0166458Y0200553D02*
X0134487Y0200553D01*
X0117606Y0166995D02*
X0112394Y0166995D01*
X0114148Y0165796D02*
X0115852Y0165796D01*
X0115850Y0157406D02*
X0114150Y0157406D01*
X0112400Y0156208D02*
X0117600Y0156208D01*
X0107600Y0156208D02*
X0102400Y0156208D01*
X0104150Y0157406D02*
X0105850Y0157406D01*
X0097600Y0156208D02*
X0092400Y0156208D01*
X0094150Y0157406D02*
X0095850Y0157406D01*
X0091099Y0168193D02*
X0060251Y0168193D01*
X0060300Y0168011D02*
X0060191Y0168418D01*
X0059980Y0168782D01*
X0059682Y0169080D01*
X0059318Y0169291D01*
X0058911Y0169400D01*
X0055400Y0169400D01*
X0055400Y0164500D01*
X0060300Y0164500D01*
X0060300Y0168011D01*
X0060300Y0166995D02*
X0077606Y0166995D01*
X0075852Y0165796D02*
X0060300Y0165796D01*
X0060300Y0164598D02*
X0074856Y0164598D01*
X0074359Y0163399D02*
X0060300Y0163399D01*
X0060300Y0162201D02*
X0074100Y0162201D01*
X0074100Y0161002D02*
X0060300Y0161002D01*
X0060197Y0159803D02*
X0074358Y0159803D01*
X0074854Y0158605D02*
X0058839Y0158605D01*
X0060017Y0157406D02*
X0075850Y0157406D01*
X0077600Y0156208D02*
X0060513Y0156208D01*
X0055400Y0164598D02*
X0054600Y0164598D01*
X0054600Y0165796D02*
X0055400Y0165796D01*
X0055400Y0166995D02*
X0054600Y0166995D01*
X0054600Y0168193D02*
X0055400Y0168193D01*
X0055400Y0169392D02*
X0054600Y0169392D01*
X0051058Y0169392D02*
X0035217Y0169392D01*
X0036415Y0168193D02*
X0049749Y0168193D01*
X0049700Y0166995D02*
X0037614Y0166995D01*
X0038812Y0165796D02*
X0049700Y0165796D01*
X0049700Y0164598D02*
X0040011Y0164598D01*
X0041209Y0163399D02*
X0049700Y0163399D01*
X0049700Y0162201D02*
X0044461Y0162201D01*
X0044700Y0161002D02*
X0049700Y0161002D01*
X0049803Y0159803D02*
X0046151Y0159803D01*
X0047803Y0158605D02*
X0051161Y0158605D01*
X0049983Y0157406D02*
X0049002Y0157406D01*
X0040000Y0159100D02*
X0040000Y0159800D01*
X0040000Y0139800D02*
X0040000Y0139100D01*
X0058942Y0169392D02*
X0089900Y0169392D01*
X0088702Y0170590D02*
X0019354Y0170590D01*
X0018532Y0171789D02*
X0087503Y0171789D01*
X0086305Y0172987D02*
X0019731Y0172987D01*
X0020386Y0174186D02*
X0085106Y0174186D01*
X0083908Y0175384D02*
X0020882Y0175384D01*
X0020900Y0176583D02*
X0082709Y0176583D01*
X0081866Y0177781D02*
X0020897Y0177781D01*
X0020400Y0178980D02*
X0081600Y0178980D01*
X0081600Y0180178D02*
X0019766Y0180178D01*
X0018567Y0181377D02*
X0081600Y0181377D01*
X0081600Y0182575D02*
X0019319Y0182575D01*
X0020215Y0183774D02*
X0081600Y0183774D01*
X0081600Y0184972D02*
X0020712Y0184972D01*
X0020900Y0186171D02*
X0081600Y0186171D01*
X0081600Y0187369D02*
X0020900Y0187369D01*
X0020571Y0188568D02*
X0081600Y0188568D01*
X0081600Y0189766D02*
X0020075Y0189766D01*
X0018979Y0190965D02*
X0070261Y0190965D01*
X0069189Y0192163D02*
X0016986Y0192163D01*
X0007700Y0261677D02*
X0091600Y0261677D01*
X0091416Y0262875D02*
X0007700Y0262875D01*
X0007700Y0264074D02*
X0090218Y0264074D01*
X0089019Y0265272D02*
X0007700Y0265272D01*
X0007700Y0266471D02*
X0087821Y0266471D01*
X0086622Y0267670D02*
X0007700Y0267670D01*
X0007700Y0268868D02*
X0085424Y0268868D01*
X0084225Y0270067D02*
X0007700Y0270067D01*
X0007700Y0271265D02*
X0067461Y0271265D01*
X0066565Y0272464D02*
X0007700Y0272464D01*
X0007700Y0273662D02*
X0066200Y0273662D01*
X0066202Y0274861D02*
X0007700Y0274861D01*
X0007700Y0276059D02*
X0066698Y0276059D01*
X0067784Y0277258D02*
X0007700Y0277258D01*
X0007700Y0278456D02*
X0123300Y0278456D01*
X0123300Y0277258D02*
X0086261Y0277258D01*
X0087849Y0276059D02*
X0123300Y0276059D01*
X0123300Y0274861D02*
X0089048Y0274861D01*
X0090246Y0273662D02*
X0123300Y0273662D01*
X0123300Y0272464D02*
X0091445Y0272464D01*
X0092643Y0271265D02*
X0123300Y0271265D01*
X0123300Y0270067D02*
X0093842Y0270067D01*
X0095040Y0268868D02*
X0123300Y0268868D01*
X0123300Y0267670D02*
X0096239Y0267670D01*
X0097437Y0266471D02*
X0123300Y0266471D01*
X0123300Y0265272D02*
X0098194Y0265272D01*
X0098400Y0264074D02*
X0123300Y0264074D01*
X0123300Y0262875D02*
X0098400Y0262875D01*
X0098400Y0261677D02*
X0123300Y0261677D01*
X0123300Y0260478D02*
X0098400Y0260478D01*
X0098400Y0259280D02*
X0123300Y0259280D01*
X0123300Y0258081D02*
X0098400Y0258081D01*
X0098400Y0256883D02*
X0123300Y0256883D01*
X0123300Y0255684D02*
X0098400Y0255684D01*
X0098400Y0254486D02*
X0123300Y0254486D01*
X0123300Y0253287D02*
X0098414Y0253287D01*
X0098800Y0252089D02*
X0123300Y0252089D01*
X0123300Y0250890D02*
X0098800Y0250890D01*
X0098323Y0249692D02*
X0123300Y0249692D01*
X0131700Y0266471D02*
X0162563Y0266471D01*
X0162882Y0267670D02*
X0131700Y0267670D01*
X0131700Y0268868D02*
X0161595Y0268868D01*
X0161012Y0270067D02*
X0131700Y0270067D01*
X0131700Y0271265D02*
X0160753Y0271265D01*
X0160753Y0272464D02*
X0131700Y0272464D01*
X0131700Y0273662D02*
X0161231Y0273662D01*
X0162124Y0274861D02*
X0131700Y0274861D01*
X0131700Y0276059D02*
X0164159Y0276059D01*
X0164407Y0276880D02*
X0166222Y0276880D01*
X0167899Y0277575D01*
X0169183Y0278858D01*
X0169877Y0280535D01*
X0169877Y0282350D01*
X0169183Y0284027D01*
X0167899Y0285310D01*
X0166222Y0286005D01*
X0164407Y0286005D01*
X0162731Y0285310D01*
X0161447Y0284027D01*
X0160753Y0282350D01*
X0160753Y0280535D01*
X0161447Y0278858D01*
X0162731Y0277575D01*
X0164407Y0276880D01*
X0163497Y0277258D02*
X0131700Y0277258D01*
X0131700Y0278456D02*
X0161849Y0278456D01*
X0161117Y0279655D02*
X0131700Y0279655D01*
X0131700Y0280853D02*
X0160753Y0280853D01*
X0160753Y0282052D02*
X0131700Y0282052D01*
X0131700Y0283250D02*
X0161126Y0283250D01*
X0161869Y0284449D02*
X0131700Y0284449D01*
X0131700Y0285647D02*
X0163544Y0285647D01*
X0167086Y0285647D02*
X0202914Y0285647D01*
X0202101Y0285310D02*
X0200817Y0284027D01*
X0200123Y0282350D01*
X0200123Y0280535D01*
X0200817Y0278858D01*
X0202101Y0277575D01*
X0203778Y0276880D01*
X0205593Y0276880D01*
X0207269Y0277575D01*
X0208553Y0278858D01*
X0209247Y0280535D01*
X0209247Y0282350D01*
X0208553Y0284027D01*
X0207269Y0285310D01*
X0205593Y0286005D01*
X0203778Y0286005D01*
X0202101Y0285310D01*
X0201239Y0284449D02*
X0168761Y0284449D01*
X0169504Y0283250D02*
X0200496Y0283250D01*
X0200123Y0282052D02*
X0169877Y0282052D01*
X0169877Y0280853D02*
X0200123Y0280853D01*
X0200487Y0279655D02*
X0169512Y0279655D01*
X0168780Y0278456D02*
X0201220Y0278456D01*
X0202867Y0277258D02*
X0188327Y0277258D01*
X0189733Y0276059D02*
X0203529Y0276059D01*
X0203778Y0276162D02*
X0202101Y0275468D01*
X0200817Y0274184D01*
X0200123Y0272507D01*
X0200123Y0270693D01*
X0200817Y0269016D01*
X0202101Y0267732D01*
X0203778Y0267038D01*
X0205593Y0267038D01*
X0207269Y0267732D01*
X0208553Y0269016D01*
X0209247Y0270693D01*
X0209247Y0272507D01*
X0208553Y0274184D01*
X0207269Y0275468D01*
X0205593Y0276162D01*
X0203778Y0276162D01*
X0205841Y0276059D02*
X0212300Y0276059D01*
X0212300Y0274861D02*
X0207876Y0274861D01*
X0208769Y0273662D02*
X0212300Y0273662D01*
X0212300Y0272464D02*
X0209247Y0272464D01*
X0209247Y0271265D02*
X0212300Y0271265D01*
X0212300Y0270067D02*
X0208988Y0270067D01*
X0208405Y0268868D02*
X0212300Y0268868D01*
X0212300Y0267670D02*
X0207118Y0267670D01*
X0202252Y0267670D02*
X0190262Y0267670D01*
X0190904Y0268868D02*
X0200965Y0268868D01*
X0200382Y0270067D02*
X0191400Y0270067D01*
X0191500Y0271265D02*
X0200123Y0271265D01*
X0200123Y0272464D02*
X0191500Y0272464D01*
X0191181Y0273662D02*
X0200601Y0273662D01*
X0201494Y0274861D02*
X0190685Y0274861D01*
X0189063Y0266471D02*
X0212300Y0266471D01*
X0212300Y0265272D02*
X0186709Y0265272D01*
X0182882Y0264674D02*
X0182882Y0264674D01*
X0182282Y0264074D02*
X0212300Y0264074D01*
X0212300Y0277258D02*
X0206503Y0277258D01*
X0208151Y0278456D02*
X0212300Y0278456D01*
X0212300Y0279655D02*
X0208883Y0279655D01*
X0209247Y0280853D02*
X0212300Y0280853D01*
X0212300Y0282052D02*
X0209247Y0282052D01*
X0208874Y0283250D02*
X0212300Y0283250D01*
X0212300Y0284449D02*
X0208131Y0284449D01*
X0206456Y0285647D02*
X0212300Y0285647D01*
X0212300Y0286846D02*
X0131700Y0286846D01*
X0131700Y0288044D02*
X0212300Y0288044D01*
X0212300Y0289243D02*
X0131700Y0289243D01*
X0131490Y0290441D02*
X0212300Y0290441D01*
X0211142Y0291640D02*
X0130900Y0291640D01*
X0129701Y0292838D02*
X0209943Y0292838D01*
X0208745Y0294037D02*
X0128503Y0294037D01*
X0127304Y0295235D02*
X0207546Y0295235D01*
X0206348Y0296434D02*
X0126106Y0296434D01*
X0124907Y0297632D02*
X0205149Y0297632D01*
X0203951Y0298831D02*
X0007700Y0298831D01*
X0007700Y0300029D02*
X0202752Y0300029D01*
X0201554Y0301228D02*
X0007700Y0301228D01*
X0007700Y0302426D02*
X0200355Y0302426D01*
X0199157Y0303625D02*
X0007700Y0303625D01*
X0007700Y0297632D02*
X0045093Y0297632D01*
X0043894Y0296434D02*
X0007700Y0296434D01*
X0007700Y0295235D02*
X0042696Y0295235D01*
X0041497Y0294037D02*
X0007700Y0294037D01*
X0007700Y0292838D02*
X0040299Y0292838D01*
X0039100Y0291640D02*
X0007700Y0291640D01*
X0007700Y0290441D02*
X0037902Y0290441D01*
X0036703Y0289243D02*
X0007700Y0289243D01*
X0007700Y0288044D02*
X0036052Y0288044D01*
X0035800Y0286846D02*
X0007700Y0286846D01*
X0007700Y0285647D02*
X0035849Y0285647D01*
X0036345Y0284449D02*
X0007700Y0284449D01*
X0007700Y0283250D02*
X0037410Y0283250D01*
X0042590Y0283250D02*
X0123300Y0283250D01*
X0123300Y0282052D02*
X0007700Y0282052D01*
X0007700Y0280853D02*
X0123300Y0280853D01*
X0123300Y0279655D02*
X0007700Y0279655D01*
X0043788Y0284449D02*
X0123300Y0284449D01*
X0123300Y0285647D02*
X0044987Y0285647D01*
X0046185Y0286846D02*
X0123300Y0286846D01*
X0122616Y0288044D02*
X0047384Y0288044D01*
X0048582Y0289243D02*
X0121418Y0289243D01*
X0158400Y0252089D02*
X0158815Y0252089D01*
X0158815Y0250890D02*
X0158400Y0250890D01*
X0158400Y0249692D02*
X0159200Y0249692D01*
X0159697Y0248493D02*
X0158400Y0248493D01*
X0159113Y0247295D02*
X0160743Y0247295D01*
X0160312Y0246096D02*
X0162377Y0246096D01*
X0168253Y0246096D02*
X0172220Y0246096D01*
X0170585Y0247295D02*
X0169887Y0247295D01*
X0178095Y0246096D02*
X0191905Y0246096D01*
X0190270Y0247295D02*
X0179730Y0247295D01*
X0180776Y0248493D02*
X0181970Y0248493D01*
X0188030Y0248493D02*
X0189224Y0248493D01*
X0197780Y0246096D02*
X0201747Y0246096D01*
X0200113Y0247295D02*
X0199415Y0247295D01*
X0180267Y0276059D02*
X0166471Y0276059D01*
X0167133Y0277258D02*
X0181673Y0277258D01*
X0179315Y0274861D02*
X0168506Y0274861D01*
X0169399Y0273662D02*
X0178819Y0273662D01*
X0178500Y0272464D02*
X0169877Y0272464D01*
X0169877Y0271265D02*
X0178500Y0271265D01*
X0178600Y0270067D02*
X0169618Y0270067D01*
X0169800Y0200553D02*
X0170200Y0200553D01*
X0134535Y0131039D02*
X0124207Y0131039D01*
X0125815Y0129841D02*
X0133337Y0129841D01*
X0132767Y0128642D02*
X0126585Y0128642D01*
X0126953Y0127444D02*
X0132374Y0127444D01*
X0132374Y0126245D02*
X0127026Y0126245D01*
X0126773Y0125047D02*
X0132564Y0125047D01*
X0133061Y0123848D02*
X0126183Y0123848D01*
X0125025Y0122650D02*
X0134046Y0122650D01*
X0135932Y0121451D02*
X0107457Y0121451D01*
X0106717Y0102275D02*
X0117017Y0102275D01*
X0118215Y0101076D02*
X0108867Y0101076D01*
X0110028Y0099878D02*
X0119414Y0099878D01*
X0120612Y0098679D02*
X0110525Y0098679D01*
X0110900Y0097481D02*
X0121811Y0097481D01*
X0123009Y0096282D02*
X0110900Y0096282D01*
X0110758Y0095084D02*
X0124208Y0095084D01*
X0125406Y0093885D02*
X0110262Y0093885D01*
X0109431Y0092687D02*
X0126605Y0092687D01*
X0127803Y0091488D02*
X0108077Y0091488D01*
X0087600Y0156208D02*
X0082400Y0156208D01*
X0084150Y0157406D02*
X0085850Y0157406D01*
X0085852Y0165796D02*
X0084148Y0165796D01*
X0082394Y0166995D02*
X0087606Y0166995D01*
X0081600Y0190965D02*
X0074739Y0190965D01*
X0075811Y0192163D02*
X0081600Y0192163D01*
X0081600Y0193362D02*
X0076570Y0193362D01*
X0077769Y0194560D02*
X0081600Y0194560D01*
X0081600Y0195759D02*
X0078967Y0195759D01*
X0080166Y0196957D02*
X0081600Y0196957D01*
X0081600Y0198156D02*
X0081364Y0198156D01*
X0010626Y0025570D02*
X0007700Y0025570D01*
X0007700Y0024372D02*
X0009762Y0024372D01*
X0009266Y0023173D02*
X0007700Y0023173D01*
X0007700Y0021975D02*
X0009100Y0021975D01*
X0009100Y0020776D02*
X0007700Y0020776D01*
X0007700Y0019578D02*
X0009452Y0019578D01*
X0009948Y0018379D02*
X0007700Y0018379D01*
X0007700Y0017181D02*
X0011075Y0017181D01*
X0011038Y0015982D02*
X0007700Y0015982D01*
X0007700Y0014784D02*
X0009933Y0014784D01*
X0009436Y0013585D02*
X0007700Y0013585D01*
X0007700Y0012387D02*
X0009100Y0012387D01*
X0009100Y0011188D02*
X0007700Y0011188D01*
X0007700Y0009990D02*
X0009281Y0009990D01*
X0009777Y0008791D02*
X0007700Y0008791D01*
X0007700Y0007593D02*
X0010664Y0007593D01*
X0012151Y0006394D02*
X0007700Y0006394D01*
M02*
