solid PIR Mount
facet normal 0.0 0.0 -1.0
  outer loop
    vertex 82.11836008668556 43.56126090768724 5.000000000000002
    vertex 81.11836008668556 37.56126090768724 5.000000000000002
    vertex 81.11836008668556 43.56126090768724 5.000000000000002
  endloop
endfacet
facet normal 0.0 0.0 -1.0
  outer loop
    vertex 81.11836008668556 37.56126090768724 5.000000000000002
    vertex 82.11836008668556 43.56126090768724 5.000000000000002
    vertex 82.11836008668556 37.56126090768724 5.000000000000002
  endloop
endfacet
facet normal 0.0 -1.0 0.0
  outer loop
    vertex 88.11836008668557 23.061260907687238 1.9999999999999991
    vertex 45.11836008668556 23.061260907687238 0.0
    vertex 88.11836008668557 23.061260907687238 0.0
  endloop
endfacet
facet normal 0.0 -1.0 0.0
  outer loop
    vertex 45.11836008668556 23.061260907687238 0.0
    vertex 88.11836008668557 23.061260907687238 1.9999999999999991
    vertex 45.11836008668556 23.061260907687238 1.9999999999999991
  endloop
endfacet
facet normal 0.0 1.0 0.0
  outer loop
    vertex 45.11836008668556 58.06126090768724 1.9999999999999991
    vertex 88.11836008668557 58.06126090768724 0.0
    vertex 45.11836008668556 58.06126090768724 0.0
  endloop
endfacet
facet normal 0.0 1.0 0.0
  outer loop
    vertex 88.11836008668557 58.06126090768724 0.0
    vertex 45.11836008668556 58.06126090768724 1.9999999999999991
    vertex 88.11836008668557 58.06126090768724 1.9999999999999991
  endloop
endfacet
facet normal -0.3162277660168384 0.0 0.9486832980505138
  outer loop
    vertex 84.11836008668556 37.56126090768724 7.000000000000001
    vertex 81.11836008668556 43.56126090768724 6.000000000000002
    vertex 81.11836008668556 37.56126090768724 6.000000000000002
  endloop
endfacet
facet normal -0.3162277660168384 0.0 0.9486832980505138
  outer loop
    vertex 81.11836008668556 43.56126090768724 6.000000000000002
    vertex 84.11836008668556 37.56126090768724 7.000000000000001
    vertex 84.11836008668556 43.56126090768724 7.000000000000001
  endloop
endfacet
facet normal -1.0 0.0 0.0
  outer loop
    vertex 81.11836008668556 43.56126090768724 6.000000000000002
    vertex 81.11836008668556 37.56126090768724 5.000000000000002
    vertex 81.11836008668556 37.56126090768724 6.000000000000002
  endloop
endfacet
facet normal -1.0 0.0 0.0
  outer loop
    vertex 81.11836008668556 37.56126090768724 5.000000000000002
    vertex 81.11836008668556 43.56126090768724 6.000000000000002
    vertex 81.11836008668556 43.56126090768724 5.000000000000002
  endloop
endfacet
facet normal 8.814638396805012e-16 -1.0 1.7807292292177432e-15
  outer loop
    vertex 52.11836008668557 37.56126090768724 5.999999999999999
    vertex 51.11836008668557 37.56126090768724 4.999999999999999
    vertex 52.11836008668557 37.56126090768724 4.999999999999999
  endloop
endfacet
facet normal 8.814638396805012e-16 -1.0 1.7807292292177432e-15
  outer loop
    vertex 51.11836008668557 37.56126090768724 4.999999999999999
    vertex 48.31836008668557 37.56126090768723 1.9999999999999991
    vertex 51.11836008668557 37.56126090768724 1.9999999999999991
  endloop
endfacet
facet normal 8.814638396805012e-16 -1.0 1.7807292292177432e-15
  outer loop
    vertex 48.31836008668557 37.56126090768723 1.9999999999999991
    vertex 51.11836008668557 37.56126090768724 4.999999999999999
    vertex 49.11836008668557 37.56126090768724 5.999999999999999
  endloop
endfacet
facet normal 8.814638396805012e-16 -1.0 1.7807292292177432e-15
  outer loop
    vertex 49.11836008668557 37.56126090768724 5.999999999999999
    vertex 51.11836008668557 37.56126090768724 4.999999999999999
    vertex 52.11836008668557 37.56126090768724 5.999999999999999
  endloop
endfacet
facet normal 8.814638396805012e-16 -1.0 1.7807292292177432e-15
  outer loop
    vertex 49.11836008668557 37.56126090768724 5.999999999999999
    vertex 52.11836008668557 37.56126090768724 5.999999999999999
    vertex 49.11836008668557 37.56126090768724 6.999999999999998
  endloop
endfacet
facet normal 1.0 0.0 0.0
  outer loop
    vertex 84.11836008668556 43.56126090768724 6.000000000000002
    vertex 84.11836008668556 37.56126090768724 7.000000000000001
    vertex 84.11836008668556 37.56126090768724 6.000000000000002
  endloop
endfacet
facet normal 1.0 0.0 0.0
  outer loop
    vertex 84.11836008668556 37.56126090768724 7.000000000000001
    vertex 84.11836008668556 43.56126090768724 6.000000000000002
    vertex 84.11836008668556 43.56126090768724 7.000000000000001
  endloop
endfacet
facet normal 0.31622776601683783 -2.7873096278293605e-31 0.948683298050514
  outer loop
    vertex 52.11836008668557 37.56126090768724 5.999999999999999
    vertex 49.11836008668557 43.56126090768724 6.999999999999998
    vertex 49.11836008668557 37.56126090768724 6.999999999999998
  endloop
endfacet
facet normal 0.31622776601683783 -2.7873096278293605e-31 0.948683298050514
  outer loop
    vertex 49.11836008668557 43.56126090768724 6.999999999999998
    vertex 52.11836008668557 37.56126090768724 5.999999999999999
    vertex 52.11836008668557 43.56126090768724 5.999999999999999
  endloop
endfacet
facet normal -1.0 0.0 0.0
  outer loop
    vertex 49.11836008668557 37.56126090768724 6.999999999999998
    vertex 49.11836008668557 43.56126090768724 5.999999999999999
    vertex 49.11836008668557 37.56126090768724 5.999999999999999
  endloop
endfacet
facet normal -1.0 0.0 0.0
  outer loop
    vertex 49.11836008668557 43.56126090768724 5.999999999999999
    vertex 49.11836008668557 37.56126090768724 6.999999999999998
    vertex 49.11836008668557 43.56126090768724 6.999999999999998
  endloop
endfacet
facet normal 1.0 0.0 0.0
  outer loop
    vertex 52.11836008668557 43.56126090768724 4.999999999999999
    vertex 52.11836008668557 37.56126090768724 5.999999999999999
    vertex 52.11836008668557 37.56126090768724 4.999999999999999
  endloop
endfacet
facet normal 1.0 0.0 0.0
  outer loop
    vertex 52.11836008668557 37.56126090768724 5.999999999999999
    vertex 52.11836008668557 43.56126090768724 4.999999999999999
    vertex 52.11836008668557 43.56126090768724 5.999999999999999
  endloop
endfacet
facet normal 0.0 0.0 -1.0
  outer loop
    vertex 52.11836008668557 43.56126090768724 4.999999999999999
    vertex 51.11836008668557 37.56126090768724 4.999999999999999
    vertex 51.11836008668557 43.56126090768724 4.999999999999999
  endloop
endfacet
facet normal 0.0 0.0 -1.0
  outer loop
    vertex 51.11836008668557 37.56126090768724 4.999999999999999
    vertex 52.11836008668557 43.56126090768724 4.999999999999999
    vertex 52.11836008668557 37.56126090768724 4.999999999999999
  endloop
endfacet
facet normal -1.0 0.0 0.0
  outer loop
    vertex 45.11836008668556 58.06126090768724 1.9999999999999991
    vertex 45.11836008668556 23.061260907687238 0.0
    vertex 45.11836008668556 23.061260907687238 1.9999999999999991
  endloop
endfacet
facet normal -1.0 0.0 0.0
  outer loop
    vertex 45.11836008668556 23.061260907687238 0.0
    vertex 45.11836008668556 58.06126090768724 1.9999999999999991
    vertex 45.11836008668556 58.06126090768724 0.0
  endloop
endfacet
facet normal 1.0 0.0 0.0
  outer loop
    vertex 51.11836008668557 43.56126090768724 1.9999999999999991
    vertex 51.11836008668557 37.56126090768724 4.999999999999999
    vertex 51.11836008668557 37.56126090768724 1.9999999999999991
  endloop
endfacet
facet normal 1.0 0.0 0.0
  outer loop
    vertex 51.11836008668557 37.56126090768724 4.999999999999999
    vertex 51.11836008668557 43.56126090768724 1.9999999999999991
    vertex 51.11836008668557 43.56126090768724 4.999999999999999
  endloop
endfacet
facet normal 1.0 0.0 0.0
  outer loop
    vertex 88.11836008668557 58.06126090768724 0.0
    vertex 88.11836008668557 23.061260907687238 1.9999999999999991
    vertex 88.11836008668557 23.061260907687238 0.0
  endloop
endfacet
facet normal 1.0 0.0 0.0
  outer loop
    vertex 88.11836008668557 23.061260907687238 1.9999999999999991
    vertex 88.11836008668557 58.06126090768724 0.0
    vertex 88.11836008668557 58.06126090768724 1.9999999999999991
  endloop
endfacet
facet normal 0.0 1.0 0.0
  outer loop
    vertex 49.11836008668557 43.56126090768724 5.999999999999999
    vertex 51.11836008668557 43.56126090768724 1.9999999999999991
    vertex 48.31836008668557 43.56126090768724 1.9999999999999991
  endloop
endfacet
facet normal 0.0 1.0 0.0
  outer loop
    vertex 51.11836008668557 43.56126090768724 1.9999999999999991
    vertex 49.11836008668557 43.56126090768724 5.999999999999999
    vertex 51.11836008668557 43.56126090768724 4.999999999999999
  endloop
endfacet
facet normal 0.0 1.0 0.0
  outer loop
    vertex 51.11836008668557 43.56126090768724 4.999999999999999
    vertex 49.11836008668557 43.56126090768724 5.999999999999999
    vertex 52.11836008668557 43.56126090768724 4.999999999999999
  endloop
endfacet
facet normal 0.0 1.0 0.0
  outer loop
    vertex 52.11836008668557 43.56126090768724 4.999999999999999
    vertex 49.11836008668557 43.56126090768724 5.999999999999999
    vertex 52.11836008668557 43.56126090768724 5.999999999999999
  endloop
endfacet
facet normal 0.0 1.0 0.0
  outer loop
    vertex 52.11836008668557 43.56126090768724 5.999999999999999
    vertex 49.11836008668557 43.56126090768724 5.999999999999999
    vertex 49.11836008668557 43.56126090768724 6.999999999999998
  endloop
endfacet
facet normal 0.0 0.0 1.0
  outer loop
    vertex 69.61836008668556 28.061260907687238 5.999999999999997
    vertex 63.618360086685556 29.061260907687238 5.999999999999997
    vertex 63.618360086685556 28.061260907687238 5.999999999999997
  endloop
endfacet
facet normal 0.0 0.0 1.0
  outer loop
    vertex 63.618360086685556 29.061260907687238 5.999999999999997
    vertex 69.61836008668556 28.061260907687238 5.999999999999997
    vertex 69.61836008668556 29.061260907687238 5.999999999999997
  endloop
endfacet
facet normal 1.0 0.0 0.0
  outer loop
    vertex 69.61836008668556 54.661260907687236 1.9999999999999998
    vertex 69.61836008668556 52.06126090768724 6.0
    vertex 69.61836008668556 52.06126090768724 1.9999999999999998
  endloop
endfacet
facet normal 1.0 0.0 0.0
  outer loop
    vertex 69.61836008668556 52.06126090768724 6.0
    vertex 69.61836008668556 54.661260907687236 1.9999999999999998
    vertex 69.61836008668556 53.06126090768724 6.0
  endloop
endfacet
facet normal -7.21616080320571e-18 0.9284766908852595 0.371390676354103
  outer loop
    vertex 63.61836008668557 53.06126090768724 6.0
    vertex 69.61836008668556 54.661260907687236 1.9999999999999998
    vertex 63.61836008668559 54.661260907687236 1.9999999999999998
  endloop
endfacet
facet normal -7.21616080320571e-18 0.9284766908852595 0.371390676354103
  outer loop
    vertex 69.61836008668556 54.661260907687236 1.9999999999999998
    vertex 63.61836008668557 53.06126090768724 6.0
    vertex 69.61836008668556 53.06126090768724 6.0
  endloop
endfacet
facet normal 0.0 0.0 1.0
  outer loop
    vertex 69.61836008668556 52.06126090768724 6.0
    vertex 63.61836008668557 53.06126090768724 6.0
    vertex 63.61836008668557 52.06126090768724 6.0
  endloop
endfacet
facet normal 0.0 0.0 1.0
  outer loop
    vertex 63.61836008668557 53.06126090768724 6.0
    vertex 69.61836008668556 52.06126090768724 6.0
    vertex 69.61836008668556 53.06126090768724 6.0
  endloop
endfacet
facet normal -1.0 7.55867304600469e-15 -1.3082318733469627e-15
  outer loop
    vertex 63.61836008668557 53.06126090768724 6.0
    vertex 63.61836008668557 52.06126090768724 1.9999999999999998
    vertex 63.61836008668557 52.06126090768724 6.0
  endloop
endfacet
facet normal -1.0 7.55867304600469e-15 -1.3082318733469627e-15
  outer loop
    vertex 63.61836008668557 52.06126090768724 1.9999999999999998
    vertex 63.61836008668557 53.06126090768724 6.0
    vertex 63.61836008668559 54.661260907687236 1.9999999999999998
  endloop
endfacet
facet normal -1.0 0.0 0.0
  outer loop
    vertex 82.11836008668556 43.56126090768724 5.000000000000002
    vertex 82.11836008668556 37.56126090768724 1.9999999999999991
    vertex 82.11836008668556 37.56126090768724 5.000000000000002
  endloop
endfacet
facet normal -1.0 0.0 0.0
  outer loop
    vertex 82.11836008668556 37.56126090768724 1.9999999999999991
    vertex 82.11836008668556 43.56126090768724 5.000000000000002
    vertex 82.11836008668556 43.56126090768724 1.9999999999999991
  endloop
endfacet
facet normal 0.0 0.0 1.0
  outer loop
    vertex 78.11836008668557 52.06126090768724 1.9999999999999998
    vertex 69.61836008668556 54.661260907687236 1.9999999999999998
    vertex 69.61836008668556 52.06126090768724 1.9999999999999998
  endloop
endfacet
facet normal 0.0 0.0 1.0
  outer loop
    vertex 45.11836008668556 23.061260907687238 1.9999999999999991
    vertex 48.31836008668557 37.56126090768723 1.9999999999999991
    vertex 45.11836008668556 58.06126090768724 1.9999999999999991
  endloop
endfacet
facet normal 0.0 0.0 1.0
  outer loop
    vertex 48.31836008668557 37.56126090768723 1.9999999999999991
    vertex 45.11836008668556 23.061260907687238 1.9999999999999991
    vertex 55.11836008668556 29.061260907687238 1.9999999999999998
  endloop
endfacet
facet normal 0.0 0.0 1.0
  outer loop
    vertex 55.11836008668556 29.061260907687238 1.9999999999999998
    vertex 45.11836008668556 23.061260907687238 1.9999999999999991
    vertex 63.61836008668559 26.461260907687237 1.9999999999999998
  endloop
endfacet
facet normal 0.0 0.0 1.0
  outer loop
    vertex 63.61836008668559 26.461260907687237 1.9999999999999998
    vertex 45.11836008668556 23.061260907687238 1.9999999999999991
    vertex 88.11836008668557 23.061260907687238 1.9999999999999991
  endloop
endfacet
facet normal 0.0 0.0 1.0
  outer loop
    vertex 48.31836008668557 37.56126090768723 1.9999999999999991
    vertex 55.11836008668556 29.061260907687238 1.9999999999999998
    vertex 51.11836008668557 37.56126090768724 1.9999999999999991
  endloop
endfacet
facet normal 0.0 0.0 1.0
  outer loop
    vertex 51.11836008668557 37.56126090768724 1.9999999999999991
    vertex 55.11836008668556 29.061260907687238 1.9999999999999998
    vertex 51.11836008668557 43.56126090768724 1.9999999999999991
  endloop
endfacet
facet normal 0.0 0.0 1.0
  outer loop
    vertex 55.11836008668556 29.061260907687238 1.9999999999999998
    vertex 63.61836008668559 26.461260907687237 1.9999999999999998
    vertex 63.618360086685556 29.061260907687238 1.9999999999999998
  endloop
endfacet
facet normal 0.0 0.0 1.0
  outer loop
    vertex 63.61836008668559 26.461260907687237 1.9999999999999998
    vertex 88.11836008668557 23.061260907687238 1.9999999999999991
    vertex 69.61836008668556 26.461260907687237 1.9999999999999998
  endloop
endfacet
facet normal 0.0 0.0 1.0
  outer loop
    vertex 69.61836008668556 26.461260907687237 1.9999999999999998
    vertex 88.11836008668557 23.061260907687238 1.9999999999999991
    vertex 69.61836008668556 29.061260907687238 1.9999999999999998
  endloop
endfacet
facet normal 0.0 0.0 1.0
  outer loop
    vertex 69.61836008668556 29.061260907687238 1.9999999999999998
    vertex 88.11836008668557 23.061260907687238 1.9999999999999991
    vertex 78.11836008668557 29.061260907687238 1.9999999999999998
  endloop
endfacet
facet normal 0.0 0.0 1.0
  outer loop
    vertex 78.11836008668557 29.061260907687238 1.9999999999999998
    vertex 88.11836008668557 23.061260907687238 1.9999999999999991
    vertex 82.11836008668556 37.56126090768724 1.9999999999999991
  endloop
endfacet
facet normal 0.0 0.0 1.0
  outer loop
    vertex 78.11836008668557 29.061260907687238 1.9999999999999998
    vertex 82.11836008668556 37.56126090768724 1.9999999999999991
    vertex 78.11836008668557 52.06126090768724 1.9999999999999998
  endloop
endfacet
facet normal 0.0 0.0 1.0
  outer loop
    vertex 82.11836008668556 37.56126090768724 1.9999999999999991
    vertex 88.11836008668557 23.061260907687238 1.9999999999999991
    vertex 84.91836008668557 37.56126090768724 1.9999999999999991
  endloop
endfacet
facet normal 0.0 0.0 1.0
  outer loop
    vertex 84.91836008668557 37.56126090768724 1.9999999999999991
    vertex 88.11836008668557 23.061260907687238 1.9999999999999991
    vertex 84.91836008668557 43.56126090768725 1.9999999999999991
  endloop
endfacet
facet normal 0.0 0.0 1.0
  outer loop
    vertex 45.11836008668556 58.06126090768724 1.9999999999999991
    vertex 63.61836008668559 54.661260907687236 1.9999999999999998
    vertex 88.11836008668557 58.06126090768724 1.9999999999999991
  endloop
endfacet
facet normal 0.0 0.0 1.0
  outer loop
    vertex 63.61836008668559 54.661260907687236 1.9999999999999998
    vertex 45.11836008668556 58.06126090768724 1.9999999999999991
    vertex 55.11836008668556 52.06126090768724 1.9999999999999998
  endloop
endfacet
facet normal 0.0 0.0 1.0
  outer loop
    vertex 55.11836008668556 52.06126090768724 1.9999999999999998
    vertex 45.11836008668556 58.06126090768724 1.9999999999999991
    vertex 48.31836008668557 43.56126090768724 1.9999999999999991
  endloop
endfacet
facet normal 0.0 0.0 1.0
  outer loop
    vertex 48.31836008668557 43.56126090768724 1.9999999999999991
    vertex 45.11836008668556 58.06126090768724 1.9999999999999991
    vertex 48.31836008668557 37.56126090768723 1.9999999999999991
  endloop
endfacet
facet normal 0.0 0.0 1.0
  outer loop
    vertex 55.11836008668556 52.06126090768724 1.9999999999999998
    vertex 48.31836008668557 43.56126090768724 1.9999999999999991
    vertex 51.11836008668557 43.56126090768724 1.9999999999999991
  endloop
endfacet
facet normal 0.0 0.0 1.0
  outer loop
    vertex 55.11836008668556 52.06126090768724 1.9999999999999998
    vertex 51.11836008668557 43.56126090768724 1.9999999999999991
    vertex 55.11836008668556 29.061260907687238 1.9999999999999998
  endloop
endfacet
facet normal 0.0 0.0 1.0
  outer loop
    vertex 63.61836008668559 54.661260907687236 1.9999999999999998
    vertex 55.11836008668556 52.06126090768724 1.9999999999999998
    vertex 63.61836008668557 52.06126090768724 1.9999999999999998
  endloop
endfacet
facet normal 0.0 0.0 1.0
  outer loop
    vertex 88.11836008668557 58.06126090768724 1.9999999999999991
    vertex 63.61836008668559 54.661260907687236 1.9999999999999998
    vertex 69.61836008668556 54.661260907687236 1.9999999999999998
  endloop
endfacet
facet normal 0.0 0.0 1.0
  outer loop
    vertex 88.11836008668557 58.06126090768724 1.9999999999999991
    vertex 69.61836008668556 54.661260907687236 1.9999999999999998
    vertex 78.11836008668557 52.06126090768724 1.9999999999999998
  endloop
endfacet
facet normal 0.0 0.0 1.0
  outer loop
    vertex 88.11836008668557 58.06126090768724 1.9999999999999991
    vertex 78.11836008668557 52.06126090768724 1.9999999999999998
    vertex 82.11836008668556 43.56126090768724 1.9999999999999991
  endloop
endfacet
facet normal 0.0 0.0 1.0
  outer loop
    vertex 82.11836008668556 43.56126090768724 1.9999999999999991
    vertex 78.11836008668557 52.06126090768724 1.9999999999999998
    vertex 82.11836008668556 37.56126090768724 1.9999999999999991
  endloop
endfacet
facet normal 0.0 0.0 1.0
  outer loop
    vertex 88.11836008668557 58.06126090768724 1.9999999999999991
    vertex 82.11836008668556 43.56126090768724 1.9999999999999991
    vertex 84.91836008668557 43.56126090768725 1.9999999999999991
  endloop
endfacet
facet normal 0.0 0.0 1.0
  outer loop
    vertex 88.11836008668557 58.06126090768724 1.9999999999999991
    vertex 84.91836008668557 43.56126090768725 1.9999999999999991
    vertex 88.11836008668557 23.061260907687238 1.9999999999999991
  endloop
endfacet
facet normal -1.4748488349051634e-15 1.0 1.1791134098657713e-15
  outer loop
    vertex 81.11836008668556 43.56126090768724 6.000000000000002
    vertex 82.11836008668556 43.56126090768724 5.000000000000002
    vertex 81.11836008668556 43.56126090768724 5.000000000000002
  endloop
endfacet
facet normal -1.4748488349051634e-15 1.0 1.1791134098657713e-15
  outer loop
    vertex 82.11836008668556 43.56126090768724 5.000000000000002
    vertex 84.91836008668557 43.56126090768725 1.9999999999999991
    vertex 82.11836008668556 43.56126090768724 1.9999999999999991
  endloop
endfacet
facet normal -1.4748488349051634e-15 1.0 1.1791134098657713e-15
  outer loop
    vertex 84.91836008668557 43.56126090768725 1.9999999999999991
    vertex 82.11836008668556 43.56126090768724 5.000000000000002
    vertex 84.11836008668556 43.56126090768724 6.000000000000002
  endloop
endfacet
facet normal -1.4748488349051634e-15 1.0 1.1791134098657713e-15
  outer loop
    vertex 84.11836008668556 43.56126090768724 6.000000000000002
    vertex 82.11836008668556 43.56126090768724 5.000000000000002
    vertex 81.11836008668556 43.56126090768724 6.000000000000002
  endloop
endfacet
facet normal -1.4748488349051634e-15 1.0 1.1791134098657713e-15
  outer loop
    vertex 84.11836008668556 43.56126090768724 6.000000000000002
    vertex 81.11836008668556 43.56126090768724 6.000000000000002
    vertex 84.11836008668556 43.56126090768724 7.000000000000001
  endloop
endfacet
facet normal 1.0 0.0 0.0
  outer loop
    vertex 69.61836008668556 29.061260907687238 1.9999999999999998
    vertex 69.61836008668556 28.061260907687238 5.999999999999997
    vertex 69.61836008668556 26.461260907687237 1.9999999999999998
  endloop
endfacet
facet normal 1.0 0.0 0.0
  outer loop
    vertex 69.61836008668556 28.061260907687238 5.999999999999997
    vertex 69.61836008668556 29.061260907687238 1.9999999999999998
    vertex 69.61836008668556 29.061260907687238 5.999999999999997
  endloop
endfacet
facet normal 0.0 -1.0 0.0
  outer loop
    vertex 84.11836008668556 37.56126090768724 6.000000000000002
    vertex 82.11836008668556 37.56126090768724 1.9999999999999991
    vertex 84.91836008668557 37.56126090768724 1.9999999999999991
  endloop
endfacet
facet normal 0.0 -1.0 0.0
  outer loop
    vertex 82.11836008668556 37.56126090768724 1.9999999999999991
    vertex 84.11836008668556 37.56126090768724 6.000000000000002
    vertex 82.11836008668556 37.56126090768724 5.000000000000002
  endloop
endfacet
facet normal 0.0 -1.0 0.0
  outer loop
    vertex 82.11836008668556 37.56126090768724 5.000000000000002
    vertex 84.11836008668556 37.56126090768724 6.000000000000002
    vertex 81.11836008668556 37.56126090768724 5.000000000000002
  endloop
endfacet
facet normal 0.0 -1.0 0.0
  outer loop
    vertex 81.11836008668556 37.56126090768724 5.000000000000002
    vertex 84.11836008668556 37.56126090768724 6.000000000000002
    vertex 81.11836008668556 37.56126090768724 6.000000000000002
  endloop
endfacet
facet normal 0.0 -1.0 0.0
  outer loop
    vertex 81.11836008668556 37.56126090768724 6.000000000000002
    vertex 84.11836008668556 37.56126090768724 6.000000000000002
    vertex 84.11836008668556 37.56126090768724 7.000000000000001
  endloop
endfacet
facet normal -1.0 -1.1338009569007014e-14 -1.9623478100204402e-15
  outer loop
    vertex 63.618360086685556 28.061260907687238 5.999999999999997
    vertex 63.618360086685556 29.061260907687238 1.9999999999999998
    vertex 63.61836008668559 26.461260907687237 1.9999999999999998
  endloop
endfacet
facet normal -1.0 -1.1338009569007014e-14 -1.9623478100204402e-15
  outer loop
    vertex 63.618360086685556 29.061260907687238 1.9999999999999998
    vertex 63.618360086685556 28.061260907687238 5.999999999999997
    vertex 63.618360086685556 29.061260907687238 5.999999999999997
  endloop
endfacet
facet normal 2.325928601618639e-30 -0.9284766908852592 0.37139067635410444
  outer loop
    vertex 69.61836008668556 28.061260907687238 5.999999999999997
    vertex 63.61836008668559 26.461260907687237 1.9999999999999998
    vertex 69.61836008668556 26.461260907687237 1.9999999999999998
  endloop
endfacet
facet normal 2.325928601618639e-30 -0.9284766908852592 0.37139067635410444
  outer loop
    vertex 63.61836008668559 26.461260907687237 1.9999999999999998
    vertex 69.61836008668556 28.061260907687238 5.999999999999997
    vertex 63.618360086685556 28.061260907687238 5.999999999999997
  endloop
endfacet
facet normal -0.9805806756909203 2.217632431961284e-31 0.19611613513818368
  outer loop
    vertex 49.11836008668557 37.56126090768724 5.999999999999999
    vertex 48.31836008668557 43.56126090768724 1.9999999999999991
    vertex 48.31836008668557 37.56126090768723 1.9999999999999991
  endloop
endfacet
facet normal -0.9805806756909203 2.217632431961284e-31 0.19611613513818368
  outer loop
    vertex 48.31836008668557 43.56126090768724 1.9999999999999991
    vertex 49.11836008668557 37.56126090768724 5.999999999999999
    vertex 49.11836008668557 43.56126090768724 5.999999999999999
  endloop
endfacet
facet normal 0.9805806756909197 -3.0705679827156184e-31 0.19611613513818624
  outer loop
    vertex 84.91836008668557 43.56126090768725 1.9999999999999991
    vertex 84.11836008668556 37.56126090768724 6.000000000000002
    vertex 84.91836008668557 37.56126090768724 1.9999999999999991
  endloop
endfacet
facet normal 0.9805806756909197 -3.0705679827156184e-31 0.19611613513818624
  outer loop
    vertex 84.11836008668556 37.56126090768724 6.000000000000002
    vertex 84.91836008668557 43.56126090768725 1.9999999999999991
    vertex 84.11836008668556 43.56126090768724 6.000000000000002
  endloop
endfacet
facet normal 0.13052619222004835 0.9914448613738108 0.0
  outer loop
    vertex 66.61836008668557 51.55694642739716 0.9999999999999999
    vertex 69.46425291314452 51.18227752892779 0.0
    vertex 66.61836008668557 51.55694642739716 0.0
  endloop
endfacet
facet normal 0.13052619222004835 0.9914448613738108 0.0
  outer loop
    vertex 69.46425291314452 51.18227752892779 0.0
    vertex 66.61836008668557 51.55694642739716 0.9999999999999999
    vertex 69.46425291314452 51.18227752892779 0.9999999999999999
  endloop
endfacet
facet normal -0.1305261922200512 0.9914448613738105 0.0
  outer loop
    vertex 63.772467260226605 51.18227752892778 0.9999999999999999
    vertex 66.61836008668557 51.55694642739716 0.0
    vertex 63.772467260226605 51.18227752892778 0.0
  endloop
endfacet
facet normal -0.1305261922200512 0.9914448613738105 0.0
  outer loop
    vertex 66.61836008668557 51.55694642739716 0.0
    vertex 63.772467260226605 51.18227752892778 0.9999999999999999
    vertex 66.61836008668557 51.55694642739716 0.9999999999999999
  endloop
endfacet
facet normal -0.38268343236508967 0.9238795325112867 0.0
  outer loop
    vertex 61.120517326830615 50.083803899780726 0.9999999999999999
    vertex 63.772467260226605 51.18227752892778 0.0
    vertex 61.120517326830615 50.083803899780726 0.0
  endloop
endfacet
facet normal -0.38268343236508967 0.9238795325112867 0.0
  outer loop
    vertex 63.772467260226605 51.18227752892778 0.0
    vertex 61.120517326830615 50.083803899780726 0.9999999999999999
    vertex 63.772467260226605 51.18227752892778 0.9999999999999999
  endloop
endfacet
facet normal -0.6087614290087203 0.7933533402912356 0.0
  outer loop
    vertex 58.843236291903956 48.336384702468855 0.9999999999999999
    vertex 61.120517326830615 50.083803899780726 0.0
    vertex 58.843236291903956 48.336384702468855 0.0
  endloop
endfacet
facet normal -0.6087614290087203 0.7933533402912356 0.0
  outer loop
    vertex 61.120517326830615 50.083803899780726 0.0
    vertex 58.843236291903956 48.336384702468855 0.9999999999999999
    vertex 61.120517326830615 50.083803899780726 0.9999999999999999
  endloop
endfacet
facet normal -0.7933533402912333 0.6087614290087231 0.0
  outer loop
    vertex 58.843236291903956 48.336384702468855 0.9999999999999999
    vertex 57.095817094592064 46.059103667542196 0.0
    vertex 57.095817094592064 46.059103667542196 0.9999999999999999
  endloop
endfacet
facet normal -0.7933533402912333 0.6087614290087231 0.0
  outer loop
    vertex 57.095817094592064 46.059103667542196 0.0
    vertex 58.843236291903956 48.336384702468855 0.9999999999999999
    vertex 58.843236291903956 48.336384702468855 0.0
  endloop
endfacet
facet normal -0.9238795325112867 0.3826834323650901 0.0
  outer loop
    vertex 57.095817094592064 46.059103667542196 0.9999999999999999
    vertex 55.99734346544502 43.40715373414622 0.0
    vertex 55.99734346544502 43.40715373414622 0.9999999999999999
  endloop
endfacet
facet normal -0.9238795325112867 0.3826834323650901 0.0
  outer loop
    vertex 55.99734346544502 43.40715373414622 0.0
    vertex 57.095817094592064 46.059103667542196 0.9999999999999999
    vertex 57.095817094592064 46.059103667542196 0.0
  endloop
endfacet
facet normal -0.9914448613738105 0.13052619222005069 0.0
  outer loop
    vertex 55.99734346544502 43.40715373414622 0.9999999999999999
    vertex 55.62267456697565 40.56126090768724 0.0
    vertex 55.62267456697565 40.56126090768724 0.9999999999999999
  endloop
endfacet
facet normal -0.9914448613738105 0.13052619222005069 0.0
  outer loop
    vertex 55.62267456697565 40.56126090768724 0.0
    vertex 55.99734346544502 43.40715373414622 0.9999999999999999
    vertex 55.99734346544502 43.40715373414622 0.0
  endloop
endfacet
facet normal -0.9914448613738105 -0.13052619222005146 -0.0
  outer loop
    vertex 55.62267456697565 40.56126090768724 0.9999999999999999
    vertex 55.99734346544502 37.71536808122828 0.0
    vertex 55.99734346544502 37.71536808122828 0.9999999999999999
  endloop
endfacet
facet normal -0.9914448613738105 -0.13052619222005146 -0.0
  outer loop
    vertex 55.99734346544502 37.71536808122828 0.0
    vertex 55.62267456697565 40.56126090768724 0.9999999999999999
    vertex 55.62267456697565 40.56126090768724 0.0
  endloop
endfacet
facet normal -0.9238795325112872 -0.38268343236508867 -0.0
  outer loop
    vertex 55.99734346544502 37.71536808122828 0.9999999999999999
    vertex 57.095817094592064 35.06341814783229 0.0
    vertex 57.095817094592064 35.06341814783229 0.9999999999999999
  endloop
endfacet
facet normal -0.9238795325112872 -0.38268343236508867 -0.0
  outer loop
    vertex 57.095817094592064 35.06341814783229 0.0
    vertex 55.99734346544502 37.71536808122828 0.9999999999999999
    vertex 55.99734346544502 37.71536808122828 0.0
  endloop
endfacet
facet normal -0.7933533402912344 -0.6087614290087215 -0.0
  outer loop
    vertex 57.095817094592064 35.06341814783229 0.9999999999999999
    vertex 58.84323629190395 32.786137112905635 0.0
    vertex 58.84323629190395 32.786137112905635 0.9999999999999999
  endloop
endfacet
facet normal -0.7933533402912344 -0.6087614290087215 -0.0
  outer loop
    vertex 58.84323629190395 32.786137112905635 0.0
    vertex 57.095817094592064 35.06341814783229 0.9999999999999999
    vertex 57.095817094592064 35.06341814783229 0.0
  endloop
endfacet
facet normal -0.6087614290087222 -0.7933533402912339 -0.0
  outer loop
    vertex 61.12051732683059 31.038717915593757 0.9999999999999999
    vertex 58.84323629190395 32.786137112905635 0.0
    vertex 61.12051732683059 31.038717915593757 0.0
  endloop
endfacet
facet normal -0.6087614290087222 -0.7933533402912339 -0.0
  outer loop
    vertex 58.84323629190395 32.786137112905635 0.0
    vertex 61.12051732683059 31.038717915593757 0.9999999999999999
    vertex 58.84323629190395 32.786137112905635 0.9999999999999999
  endloop
endfacet
facet normal -0.3826834323650922 -0.9238795325112857 -0.0
  outer loop
    vertex 63.77246726022662 29.940244286446685 0.9999999999999999
    vertex 61.12051732683059 31.038717915593757 0.0
    vertex 63.77246726022662 29.940244286446685 0.0
  endloop
endfacet
facet normal -0.3826834323650922 -0.9238795325112857 -0.0
  outer loop
    vertex 61.12051732683059 31.038717915593757 0.0
    vertex 63.77246726022662 29.940244286446685 0.9999999999999999
    vertex 61.12051732683059 31.038717915593757 0.9999999999999999
  endloop
endfacet
facet normal -0.13052619222005274 -0.9914448613738103 -0.0
  outer loop
    vertex 66.61836008668556 29.56557538797731 0.9999999999999999
    vertex 63.77246726022662 29.940244286446685 0.0
    vertex 66.61836008668556 29.56557538797731 0.0
  endloop
endfacet
facet normal -0.13052619222005274 -0.9914448613738103 -0.0
  outer loop
    vertex 63.77246726022662 29.940244286446685 0.0
    vertex 66.61836008668556 29.56557538797731 0.9999999999999999
    vertex 63.77246726022662 29.940244286446685 0.9999999999999999
  endloop
endfacet
facet normal 0.13052619222005274 -0.9914448613738103 0.0
  outer loop
    vertex 69.46425291314449 29.940244286446685 0.9999999999999999
    vertex 66.61836008668556 29.56557538797731 0.0
    vertex 69.46425291314449 29.940244286446685 0.0
  endloop
endfacet
facet normal 0.13052619222005274 -0.9914448613738103 0.0
  outer loop
    vertex 66.61836008668556 29.56557538797731 0.0
    vertex 69.46425291314449 29.940244286446685 0.9999999999999999
    vertex 66.61836008668556 29.56557538797731 0.9999999999999999
  endloop
endfacet
facet normal 0.38268343236508773 -0.9238795325112875 0.0
  outer loop
    vertex 72.11620284654055 31.03871791559375 0.9999999999999999
    vertex 69.46425291314449 29.940244286446685 0.0
    vertex 72.11620284654055 31.03871791559375 0.0
  endloop
endfacet
facet normal 0.38268343236508773 -0.9238795325112875 0.0
  outer loop
    vertex 69.46425291314449 29.940244286446685 0.0
    vertex 72.11620284654055 31.03871791559375 0.9999999999999999
    vertex 69.46425291314449 29.940244286446685 0.9999999999999999
  endloop
endfacet
facet normal 0.6087614290087217 -0.7933533402912345 0.0
  outer loop
    vertex 74.39348388146718 32.786137112905614 0.9999999999999999
    vertex 72.11620284654055 31.03871791559375 0.0
    vertex 74.39348388146718 32.786137112905614 0.0
  endloop
endfacet
facet normal 0.6087614290087217 -0.7933533402912345 0.0
  outer loop
    vertex 72.11620284654055 31.03871791559375 0.0
    vertex 74.39348388146718 32.786137112905614 0.9999999999999999
    vertex 72.11620284654055 31.03871791559375 0.9999999999999999
  endloop
endfacet
facet normal 0.7933533402912333 -0.6087614290087231 0.0
  outer loop
    vertex 76.14090307877906 35.06341814783227 0.0
    vertex 74.39348388146718 32.786137112905614 0.9999999999999999
    vertex 74.39348388146718 32.786137112905614 0.0
  endloop
endfacet
facet normal 0.7933533402912333 -0.6087614290087231 0.0
  outer loop
    vertex 74.39348388146718 32.786137112905614 0.9999999999999999
    vertex 76.14090307877906 35.06341814783227 0.0
    vertex 76.14090307877906 35.06341814783227 0.9999999999999999
  endloop
endfacet
facet normal 0.9238795325112868 -0.3826834323650894 0.0
  outer loop
    vertex 77.23937670792611 37.715368081228256 0.0
    vertex 76.14090307877906 35.06341814783227 0.9999999999999999
    vertex 76.14090307877906 35.06341814783227 0.0
  endloop
endfacet
facet normal 0.9238795325112868 -0.3826834323650894 0.0
  outer loop
    vertex 76.14090307877906 35.06341814783227 0.9999999999999999
    vertex 77.23937670792611 37.715368081228256 0.0
    vertex 77.23937670792611 37.715368081228256 0.9999999999999999
  endloop
endfacet
facet normal 0.9914448613738105 -0.13052619222005094 0.0
  outer loop
    vertex 77.61404560639548 40.561260907687235 0.0
    vertex 77.23937670792611 37.715368081228256 0.9999999999999999
    vertex 77.23937670792611 37.715368081228256 0.0
  endloop
endfacet
facet normal 0.9914448613738105 -0.13052619222005094 0.0
  outer loop
    vertex 77.23937670792611 37.715368081228256 0.9999999999999999
    vertex 77.61404560639548 40.561260907687235 0.0
    vertex 77.61404560639548 40.561260907687235 0.9999999999999999
  endloop
endfacet
facet normal 0.9914448613738105 0.1305261922200512 0.0
  outer loop
    vertex 77.23937670792611 43.4071537341462 0.0
    vertex 77.61404560639548 40.561260907687235 0.9999999999999999
    vertex 77.61404560639548 40.561260907687235 0.0
  endloop
endfacet
facet normal 0.9914448613738105 0.1305261922200512 0.0
  outer loop
    vertex 77.61404560639548 40.561260907687235 0.9999999999999999
    vertex 77.23937670792611 43.4071537341462 0.0
    vertex 77.23937670792611 43.4071537341462 0.9999999999999999
  endloop
endfacet
facet normal 0.9238795325112877 0.38268343236508745 0.0
  outer loop
    vertex 76.14090307877908 46.059103667542175 0.0
    vertex 77.23937670792611 43.4071537341462 0.9999999999999999
    vertex 77.23937670792611 43.4071537341462 0.0
  endloop
endfacet
facet normal 0.9238795325112877 0.38268343236508745 0.0
  outer loop
    vertex 77.23937670792611 43.4071537341462 0.9999999999999999
    vertex 76.14090307877908 46.059103667542175 0.0
    vertex 76.14090307877908 46.059103667542175 0.9999999999999999
  endloop
endfacet
facet normal 0.7933533402912355 0.6087614290087203 0.0
  outer loop
    vertex 74.39348388146718 48.33638470246885 0.0
    vertex 76.14090307877908 46.059103667542175 0.9999999999999999
    vertex 76.14090307877908 46.059103667542175 0.0
  endloop
endfacet
facet normal 0.7933533402912355 0.6087614290087203 0.0
  outer loop
    vertex 76.14090307877908 46.059103667542175 0.9999999999999999
    vertex 74.39348388146718 48.33638470246885 0.0
    vertex 74.39348388146718 48.33638470246885 0.9999999999999999
  endloop
endfacet
facet normal 0.608761429008721 0.7933533402912349 0.0
  outer loop
    vertex 72.11620284654055 50.08380389978072 0.9999999999999999
    vertex 74.39348388146718 48.33638470246885 0.0
    vertex 72.11620284654055 50.08380389978072 0.0
  endloop
endfacet
facet normal 0.608761429008721 0.7933533402912349 0.0
  outer loop
    vertex 74.39348388146718 48.33638470246885 0.0
    vertex 72.11620284654055 50.08380389978072 0.9999999999999999
    vertex 74.39348388146718 48.33638470246885 0.9999999999999999
  endloop
endfacet
facet normal 0.3826834323650936 0.9238795325112852 0.0
  outer loop
    vertex 69.46425291314452 51.18227752892779 0.9999999999999999
    vertex 72.11620284654055 50.08380389978072 0.0
    vertex 69.46425291314452 51.18227752892779 0.0
  endloop
endfacet
facet normal 0.3826834323650936 0.9238795325112852 0.0
  outer loop
    vertex 72.11620284654055 50.08380389978072 0.0
    vertex 69.46425291314452 51.18227752892779 0.9999999999999999
    vertex 72.11620284654055 50.08380389978072 0.9999999999999999
  endloop
endfacet
facet normal 0.0 0.0 1.0
  outer loop
    vertex 55.11836008668556 29.061260907687238 0.9999999999999999
    vertex 55.62267456697565 40.56126090768724 0.9999999999999999
    vertex 55.11836008668556 52.06126090768724 0.9999999999999999
  endloop
endfacet
facet normal 0.0 0.0 1.0
  outer loop
    vertex 55.62267456697565 40.56126090768724 0.9999999999999999
    vertex 55.11836008668556 29.061260907687238 0.9999999999999999
    vertex 55.99734346544502 37.71536808122828 0.9999999999999999
  endloop
endfacet
facet normal 0.0 0.0 1.0
  outer loop
    vertex 55.99734346544502 37.71536808122828 0.9999999999999999
    vertex 55.11836008668556 29.061260907687238 0.9999999999999999
    vertex 57.095817094592064 35.06341814783229 0.9999999999999999
  endloop
endfacet
facet normal 0.0 0.0 1.0
  outer loop
    vertex 57.095817094592064 35.06341814783229 0.9999999999999999
    vertex 55.11836008668556 29.061260907687238 0.9999999999999999
    vertex 58.84323629190395 32.786137112905635 0.9999999999999999
  endloop
endfacet
facet normal 0.0 0.0 1.0
  outer loop
    vertex 58.84323629190395 32.786137112905635 0.9999999999999999
    vertex 55.11836008668556 29.061260907687238 0.9999999999999999
    vertex 61.12051732683059 31.038717915593757 0.9999999999999999
  endloop
endfacet
facet normal 0.0 0.0 1.0
  outer loop
    vertex 61.12051732683059 31.038717915593757 0.9999999999999999
    vertex 55.11836008668556 29.061260907687238 0.9999999999999999
    vertex 63.77246726022662 29.940244286446685 0.9999999999999999
  endloop
endfacet
facet normal 0.0 0.0 1.0
  outer loop
    vertex 63.77246726022662 29.940244286446685 0.9999999999999999
    vertex 55.11836008668556 29.061260907687238 0.9999999999999999
    vertex 66.61836008668556 29.56557538797731 0.9999999999999999
  endloop
endfacet
facet normal 0.0 0.0 1.0
  outer loop
    vertex 66.61836008668556 29.56557538797731 0.9999999999999999
    vertex 55.11836008668556 29.061260907687238 0.9999999999999999
    vertex 78.11836008668557 29.061260907687238 0.9999999999999999
  endloop
endfacet
facet normal 0.0 0.0 1.0
  outer loop
    vertex 66.61836008668556 29.56557538797731 0.9999999999999999
    vertex 78.11836008668557 29.061260907687238 0.9999999999999999
    vertex 69.46425291314449 29.940244286446685 0.9999999999999999
  endloop
endfacet
facet normal 0.0 0.0 1.0
  outer loop
    vertex 69.46425291314449 29.940244286446685 0.9999999999999999
    vertex 78.11836008668557 29.061260907687238 0.9999999999999999
    vertex 72.11620284654055 31.03871791559375 0.9999999999999999
  endloop
endfacet
facet normal 0.0 0.0 1.0
  outer loop
    vertex 72.11620284654055 31.03871791559375 0.9999999999999999
    vertex 78.11836008668557 29.061260907687238 0.9999999999999999
    vertex 74.39348388146718 32.786137112905614 0.9999999999999999
  endloop
endfacet
facet normal 0.0 0.0 1.0
  outer loop
    vertex 74.39348388146718 32.786137112905614 0.9999999999999999
    vertex 78.11836008668557 29.061260907687238 0.9999999999999999
    vertex 76.14090307877906 35.06341814783227 0.9999999999999999
  endloop
endfacet
facet normal 0.0 0.0 1.0
  outer loop
    vertex 76.14090307877906 35.06341814783227 0.9999999999999999
    vertex 78.11836008668557 29.061260907687238 0.9999999999999999
    vertex 77.23937670792611 37.715368081228256 0.9999999999999999
  endloop
endfacet
facet normal 0.0 0.0 1.0
  outer loop
    vertex 77.23937670792611 37.715368081228256 0.9999999999999999
    vertex 78.11836008668557 29.061260907687238 0.9999999999999999
    vertex 77.61404560639548 40.561260907687235 0.9999999999999999
  endloop
endfacet
facet normal 0.0 0.0 1.0
  outer loop
    vertex 55.11836008668556 52.06126090768724 0.9999999999999999
    vertex 66.61836008668557 51.55694642739716 0.9999999999999999
    vertex 78.11836008668557 52.06126090768724 0.9999999999999999
  endloop
endfacet
facet normal 0.0 0.0 1.0
  outer loop
    vertex 66.61836008668557 51.55694642739716 0.9999999999999999
    vertex 55.11836008668556 52.06126090768724 0.9999999999999999
    vertex 63.772467260226605 51.18227752892778 0.9999999999999999
  endloop
endfacet
facet normal 0.0 0.0 1.0
  outer loop
    vertex 63.772467260226605 51.18227752892778 0.9999999999999999
    vertex 55.11836008668556 52.06126090768724 0.9999999999999999
    vertex 61.120517326830615 50.083803899780726 0.9999999999999999
  endloop
endfacet
facet normal 0.0 0.0 1.0
  outer loop
    vertex 61.120517326830615 50.083803899780726 0.9999999999999999
    vertex 55.11836008668556 52.06126090768724 0.9999999999999999
    vertex 58.843236291903956 48.336384702468855 0.9999999999999999
  endloop
endfacet
facet normal 0.0 0.0 1.0
  outer loop
    vertex 58.843236291903956 48.336384702468855 0.9999999999999999
    vertex 55.11836008668556 52.06126090768724 0.9999999999999999
    vertex 57.095817094592064 46.059103667542196 0.9999999999999999
  endloop
endfacet
facet normal 0.0 0.0 1.0
  outer loop
    vertex 57.095817094592064 46.059103667542196 0.9999999999999999
    vertex 55.11836008668556 52.06126090768724 0.9999999999999999
    vertex 55.99734346544502 43.40715373414622 0.9999999999999999
  endloop
endfacet
facet normal 0.0 0.0 1.0
  outer loop
    vertex 55.99734346544502 43.40715373414622 0.9999999999999999
    vertex 55.11836008668556 52.06126090768724 0.9999999999999999
    vertex 55.62267456697565 40.56126090768724 0.9999999999999999
  endloop
endfacet
facet normal 0.0 0.0 1.0
  outer loop
    vertex 78.11836008668557 52.06126090768724 0.9999999999999999
    vertex 66.61836008668557 51.55694642739716 0.9999999999999999
    vertex 69.46425291314452 51.18227752892779 0.9999999999999999
  endloop
endfacet
facet normal 0.0 0.0 1.0
  outer loop
    vertex 78.11836008668557 52.06126090768724 0.9999999999999999
    vertex 69.46425291314452 51.18227752892779 0.9999999999999999
    vertex 72.11620284654055 50.08380389978072 0.9999999999999999
  endloop
endfacet
facet normal 0.0 0.0 1.0
  outer loop
    vertex 78.11836008668557 52.06126090768724 0.9999999999999999
    vertex 72.11620284654055 50.08380389978072 0.9999999999999999
    vertex 74.39348388146718 48.33638470246885 0.9999999999999999
  endloop
endfacet
facet normal 0.0 0.0 1.0
  outer loop
    vertex 78.11836008668557 52.06126090768724 0.9999999999999999
    vertex 74.39348388146718 48.33638470246885 0.9999999999999999
    vertex 76.14090307877908 46.059103667542175 0.9999999999999999
  endloop
endfacet
facet normal 0.0 0.0 1.0
  outer loop
    vertex 78.11836008668557 52.06126090768724 0.9999999999999999
    vertex 76.14090307877908 46.059103667542175 0.9999999999999999
    vertex 77.23937670792611 43.4071537341462 0.9999999999999999
  endloop
endfacet
facet normal 0.0 0.0 1.0
  outer loop
    vertex 78.11836008668557 52.06126090768724 0.9999999999999999
    vertex 77.23937670792611 43.4071537341462 0.9999999999999999
    vertex 77.61404560639548 40.561260907687235 0.9999999999999999
  endloop
endfacet
facet normal 0.0 0.0 1.0
  outer loop
    vertex 78.11836008668557 52.06126090768724 0.9999999999999999
    vertex 77.61404560639548 40.561260907687235 0.9999999999999999
    vertex 78.11836008668557 29.061260907687238 0.9999999999999999
  endloop
endfacet
facet normal 0.0 -1.0 0.0
  outer loop
    vertex 69.61836008668556 52.06126090768724 6.0
    vertex 63.61836008668557 52.06126090768724 1.9999999999999998
    vertex 69.61836008668556 52.06126090768724 1.9999999999999998
  endloop
endfacet
facet normal 0.0 -1.0 0.0
  outer loop
    vertex 63.61836008668557 52.06126090768724 1.9999999999999998
    vertex 69.61836008668556 52.06126090768724 6.0
    vertex 63.61836008668557 52.06126090768724 6.0
  endloop
endfacet
facet normal 0.0 -1.0 0.0
  outer loop
    vertex 78.11836008668557 52.06126090768724 1.9999999999999998
    vertex 55.11836008668556 52.06126090768724 0.9999999999999999
    vertex 78.11836008668557 52.06126090768724 0.9999999999999999
  endloop
endfacet
facet normal 0.0 -1.0 0.0
  outer loop
    vertex 55.11836008668556 52.06126090768724 0.9999999999999999
    vertex 78.11836008668557 52.06126090768724 1.9999999999999998
    vertex 55.11836008668556 52.06126090768724 1.9999999999999998
  endloop
endfacet
facet normal 0.0 -1.0 0.0
  outer loop
    vertex 55.11836008668556 52.06126090768724 1.9999999999999998
    vertex 78.11836008668557 52.06126090768724 1.9999999999999998
    vertex 69.61836008668556 52.06126090768724 1.9999999999999998
  endloop
endfacet
facet normal 0.0 -1.0 0.0
  outer loop
    vertex 55.11836008668556 52.06126090768724 1.9999999999999998
    vertex 69.61836008668556 52.06126090768724 1.9999999999999998
    vertex 63.61836008668557 52.06126090768724 1.9999999999999998
  endloop
endfacet
facet normal -1.0 -0.0 -0.0
  outer loop
    vertex 78.11836008668557 52.06126090768724 1.9999999999999998
    vertex 78.11836008668557 29.061260907687238 0.9999999999999999
    vertex 78.11836008668557 29.061260907687238 1.9999999999999998
  endloop
endfacet
facet normal -1.0 -0.0 -0.0
  outer loop
    vertex 78.11836008668557 29.061260907687238 0.9999999999999999
    vertex 78.11836008668557 52.06126090768724 1.9999999999999998
    vertex 78.11836008668557 52.06126090768724 0.9999999999999999
  endloop
endfacet
facet normal 0.0 1.0 0.0
  outer loop
    vertex 63.618360086685556 29.061260907687238 5.999999999999997
    vertex 69.61836008668556 29.061260907687238 1.9999999999999998
    vertex 63.618360086685556 29.061260907687238 1.9999999999999998
  endloop
endfacet
facet normal 0.0 1.0 0.0
  outer loop
    vertex 69.61836008668556 29.061260907687238 1.9999999999999998
    vertex 63.618360086685556 29.061260907687238 5.999999999999997
    vertex 69.61836008668556 29.061260907687238 5.999999999999997
  endloop
endfacet
facet normal 0.0 1.0 0.0
  outer loop
    vertex 55.11836008668556 29.061260907687238 1.9999999999999998
    vertex 78.11836008668557 29.061260907687238 0.9999999999999999
    vertex 55.11836008668556 29.061260907687238 0.9999999999999999
  endloop
endfacet
facet normal 0.0 1.0 0.0
  outer loop
    vertex 78.11836008668557 29.061260907687238 0.9999999999999999
    vertex 55.11836008668556 29.061260907687238 1.9999999999999998
    vertex 78.11836008668557 29.061260907687238 1.9999999999999998
  endloop
endfacet
facet normal 0.0 1.0 0.0
  outer loop
    vertex 78.11836008668557 29.061260907687238 1.9999999999999998
    vertex 55.11836008668556 29.061260907687238 1.9999999999999998
    vertex 63.618360086685556 29.061260907687238 1.9999999999999998
  endloop
endfacet
facet normal 0.0 1.0 0.0
  outer loop
    vertex 78.11836008668557 29.061260907687238 1.9999999999999998
    vertex 63.618360086685556 29.061260907687238 1.9999999999999998
    vertex 69.61836008668556 29.061260907687238 1.9999999999999998
  endloop
endfacet
facet normal 1.0 0.0 0.0
  outer loop
    vertex 55.11836008668556 52.06126090768724 0.9999999999999999
    vertex 55.11836008668556 29.061260907687238 1.9999999999999998
    vertex 55.11836008668556 29.061260907687238 0.9999999999999999
  endloop
endfacet
facet normal 1.0 0.0 0.0
  outer loop
    vertex 55.11836008668556 29.061260907687238 1.9999999999999998
    vertex 55.11836008668556 52.06126090768724 0.9999999999999999
    vertex 55.11836008668556 52.06126090768724 1.9999999999999998
  endloop
endfacet
facet normal 0.0 0.0 -1.0
  outer loop
    vertex 45.11836008668556 58.06126090768724 0.0
    vertex 57.095817094592064 46.059103667542196 0.0
    vertex 45.11836008668556 23.061260907687238 0.0
  endloop
endfacet
facet normal 0.0 0.0 -1.0
  outer loop
    vertex 57.095817094592064 46.059103667542196 0.0
    vertex 45.11836008668556 58.06126090768724 0.0
    vertex 58.843236291903956 48.336384702468855 0.0
  endloop
endfacet
facet normal 0.0 0.0 -1.0
  outer loop
    vertex 58.843236291903956 48.336384702468855 0.0
    vertex 45.11836008668556 58.06126090768724 0.0
    vertex 61.120517326830615 50.083803899780726 0.0
  endloop
endfacet
facet normal 0.0 0.0 -1.0
  outer loop
    vertex 61.120517326830615 50.083803899780726 0.0
    vertex 45.11836008668556 58.06126090768724 0.0
    vertex 63.772467260226605 51.18227752892778 0.0
  endloop
endfacet
facet normal 0.0 0.0 -1.0
  outer loop
    vertex 63.772467260226605 51.18227752892778 0.0
    vertex 45.11836008668556 58.06126090768724 0.0
    vertex 88.11836008668557 58.06126090768724 0.0
  endloop
endfacet
facet normal 0.0 0.0 -1.0
  outer loop
    vertex 45.11836008668556 23.061260907687238 0.0
    vertex 57.095817094592064 46.059103667542196 0.0
    vertex 55.99734346544502 43.40715373414622 0.0
  endloop
endfacet
facet normal 0.0 0.0 -1.0
  outer loop
    vertex 45.11836008668556 23.061260907687238 0.0
    vertex 55.99734346544502 43.40715373414622 0.0
    vertex 55.62267456697565 40.56126090768724 0.0
  endloop
endfacet
facet normal 0.0 0.0 -1.0
  outer loop
    vertex 63.772467260226605 51.18227752892778 0.0
    vertex 88.11836008668557 58.06126090768724 0.0
    vertex 66.61836008668557 51.55694642739716 0.0
  endloop
endfacet
facet normal 0.0 0.0 -1.0
  outer loop
    vertex 66.61836008668557 51.55694642739716 0.0
    vertex 88.11836008668557 58.06126090768724 0.0
    vertex 69.46425291314452 51.18227752892779 0.0
  endloop
endfacet
facet normal 0.0 0.0 -1.0
  outer loop
    vertex 69.46425291314452 51.18227752892779 0.0
    vertex 88.11836008668557 58.06126090768724 0.0
    vertex 72.11620284654055 50.08380389978072 0.0
  endloop
endfacet
facet normal 0.0 0.0 -1.0
  outer loop
    vertex 72.11620284654055 50.08380389978072 0.0
    vertex 88.11836008668557 58.06126090768724 0.0
    vertex 74.39348388146718 48.33638470246885 0.0
  endloop
endfacet
facet normal 0.0 0.0 -1.0
  outer loop
    vertex 74.39348388146718 48.33638470246885 0.0
    vertex 88.11836008668557 58.06126090768724 0.0
    vertex 76.14090307877908 46.059103667542175 0.0
  endloop
endfacet
facet normal 0.0 0.0 -1.0
  outer loop
    vertex 76.14090307877908 46.059103667542175 0.0
    vertex 88.11836008668557 58.06126090768724 0.0
    vertex 77.23937670792611 43.4071537341462 0.0
  endloop
endfacet
facet normal 0.0 0.0 -1.0
  outer loop
    vertex 77.23937670792611 43.4071537341462 0.0
    vertex 88.11836008668557 58.06126090768724 0.0
    vertex 77.61404560639548 40.561260907687235 0.0
  endloop
endfacet
facet normal 0.0 0.0 -1.0
  outer loop
    vertex 45.11836008668556 23.061260907687238 0.0
    vertex 63.77246726022662 29.940244286446685 0.0
    vertex 88.11836008668557 23.061260907687238 0.0
  endloop
endfacet
facet normal 0.0 0.0 -1.0
  outer loop
    vertex 63.77246726022662 29.940244286446685 0.0
    vertex 45.11836008668556 23.061260907687238 0.0
    vertex 61.12051732683059 31.038717915593757 0.0
  endloop
endfacet
facet normal 0.0 0.0 -1.0
  outer loop
    vertex 61.12051732683059 31.038717915593757 0.0
    vertex 45.11836008668556 23.061260907687238 0.0
    vertex 58.84323629190395 32.786137112905635 0.0
  endloop
endfacet
facet normal 0.0 0.0 -1.0
  outer loop
    vertex 58.84323629190395 32.786137112905635 0.0
    vertex 45.11836008668556 23.061260907687238 0.0
    vertex 57.095817094592064 35.06341814783229 0.0
  endloop
endfacet
facet normal 0.0 0.0 -1.0
  outer loop
    vertex 57.095817094592064 35.06341814783229 0.0
    vertex 45.11836008668556 23.061260907687238 0.0
    vertex 55.99734346544502 37.71536808122828 0.0
  endloop
endfacet
facet normal 0.0 0.0 -1.0
  outer loop
    vertex 55.99734346544502 37.71536808122828 0.0
    vertex 45.11836008668556 23.061260907687238 0.0
    vertex 55.62267456697565 40.56126090768724 0.0
  endloop
endfacet
facet normal 0.0 0.0 -1.0
  outer loop
    vertex 88.11836008668557 23.061260907687238 0.0
    vertex 63.77246726022662 29.940244286446685 0.0
    vertex 66.61836008668556 29.56557538797731 0.0
  endloop
endfacet
facet normal 0.0 0.0 -1.0
  outer loop
    vertex 88.11836008668557 23.061260907687238 0.0
    vertex 66.61836008668556 29.56557538797731 0.0
    vertex 69.46425291314449 29.940244286446685 0.0
  endloop
endfacet
facet normal 0.0 0.0 -1.0
  outer loop
    vertex 88.11836008668557 23.061260907687238 0.0
    vertex 69.46425291314449 29.940244286446685 0.0
    vertex 72.11620284654055 31.03871791559375 0.0
  endloop
endfacet
facet normal 0.0 0.0 -1.0
  outer loop
    vertex 88.11836008668557 23.061260907687238 0.0
    vertex 72.11620284654055 31.03871791559375 0.0
    vertex 74.39348388146718 32.786137112905614 0.0
  endloop
endfacet
facet normal 0.0 0.0 -1.0
  outer loop
    vertex 88.11836008668557 23.061260907687238 0.0
    vertex 74.39348388146718 32.786137112905614 0.0
    vertex 76.14090307877906 35.06341814783227 0.0
  endloop
endfacet
facet normal 0.0 0.0 -1.0
  outer loop
    vertex 88.11836008668557 23.061260907687238 0.0
    vertex 76.14090307877906 35.06341814783227 0.0
    vertex 77.23937670792611 37.715368081228256 0.0
  endloop
endfacet
facet normal 0.0 0.0 -1.0
  outer loop
    vertex 88.11836008668557 23.061260907687238 0.0
    vertex 77.23937670792611 37.715368081228256 0.0
    vertex 77.61404560639548 40.561260907687235 0.0
  endloop
endfacet
facet normal 0.0 0.0 -1.0
  outer loop
    vertex 88.11836008668557 23.061260907687238 0.0
    vertex 77.61404560639548 40.561260907687235 0.0
    vertex 88.11836008668557 58.06126090768724 0.0
  endloop
endfacet
endsolid PIR Mount
