solid TMP36 Mount
facet normal 0.9238795325112859 -0.38268343236509206 0.0
  outer loop
    vertex 110.53939274314905 97.03130919405005 0.9999999999999999
    vertex 110.04075266743362 95.82748556051514 11.0
    vertex 110.04075266743362 95.82748556051514 0.9999999999999999
  endloop
endfacet
facet normal 0.9238795325112859 -0.38268343236509206 0.0
  outer loop
    vertex 110.04075266743362 95.82748556051514 11.0
    vertex 110.53939274314905 97.03130919405005 0.9999999999999999
    vertex 110.53939274314905 97.03130919405005 11.0
  endloop
endfacet
facet normal -0.7933533402912327 -0.608761429008724 -0.0
  outer loop
    vertex 101.39544442773055 95.82748556051514 11.0
    vertex 102.1886662381902 94.79373877083312 0.9999999999999999
    vertex 102.1886662381902 94.79373877083312 11.0
  endloop
endfacet
facet normal -0.7933533402912327 -0.608761429008724 -0.0
  outer loop
    vertex 102.1886662381902 94.79373877083312 0.9999999999999999
    vertex 101.39544442773055 95.82748556051514 11.0
    vertex 101.39544442773055 95.82748556051514 0.9999999999999999
  endloop
endfacet
facet normal 0.13052619222005635 -0.9914448613738098 0.0
  outer loop
    vertex 107.00996043375706 93.50187688465812 11.0
    vertex 105.71809854758209 93.3318000408052 0.9999999999999999
    vertex 107.00996043375706 93.50187688465812 0.9999999999999999
  endloop
endfacet
facet normal 0.13052619222005635 -0.9914448613738098 0.0
  outer loop
    vertex 105.71809854758209 93.3318000408052 0.9999999999999999
    vertex 107.00996043375706 93.50187688465812 11.0
    vertex 105.71809854758209 93.3318000408052 11.0
  endloop
endfacet
facet normal 0.7933533402912253 -0.6087614290087335 0.0
  outer loop
    vertex 110.04075266743362 95.82748556051514 0.9999999999999999
    vertex 109.24753085697398 94.79373877083314 11.0
    vertex 109.24753085697398 94.79373877083314 0.9999999999999999
  endloop
endfacet
facet normal 0.7933533402912253 -0.6087614290087335 0.0
  outer loop
    vertex 109.24753085697398 94.79373877083314 11.0
    vertex 110.04075266743362 95.82748556051514 0.9999999999999999
    vertex 110.04075266743362 95.82748556051514 11.0
  endloop
endfacet
facet normal 0.6087614290087134 0.7933533402912408 0.0
  outer loop
    vertex 108.21378406729201 102.64582520007659 11.0
    vertex 109.24753085697398 101.85260338961702 0.9999999999999999
    vertex 108.21378406729201 102.64582520007659 0.9999999999999999
  endloop
endfacet
facet normal 0.6087614290087134 0.7933533402912408 0.0
  outer loop
    vertex 109.24753085697398 101.85260338961702 0.9999999999999999
    vertex 108.21378406729201 102.64582520007659 11.0
    vertex 109.24753085697398 101.85260338961702 11.0
  endloop
endfacet
facet normal -0.1305261922200586 0.9914448613738095 0.0
  outer loop
    vertex 104.42623666140713 103.144465275792 11.0
    vertex 105.71809854758209 103.31454211964491 0.9999999999999999
    vertex 104.42623666140713 103.144465275792 0.9999999999999999
  endloop
endfacet
facet normal -0.1305261922200586 0.9914448613738095 0.0
  outer loop
    vertex 105.71809854758209 103.31454211964491 0.9999999999999999
    vertex 104.42623666140713 103.144465275792 11.0
    vertex 105.71809854758209 103.31454211964491 11.0
  endloop
endfacet
facet normal -0.3826834323650824 0.9238795325112898 0.0
  outer loop
    vertex 103.22241302787214 102.64582520007656 11.0
    vertex 104.42623666140713 103.144465275792 0.9999999999999999
    vertex 103.22241302787214 102.64582520007656 0.9999999999999999
  endloop
endfacet
facet normal -0.3826834323650824 0.9238795325112898 0.0
  outer loop
    vertex 104.42623666140713 103.144465275792 0.9999999999999999
    vertex 103.22241302787214 102.64582520007656 11.0
    vertex 104.42623666140713 103.144465275792 11.0
  endloop
endfacet
facet normal 0.7933533402912477 0.6087614290087042 0.0
  outer loop
    vertex 109.24753085697398 101.85260338961702 0.9999999999999999
    vertex 110.04075266743362 100.81885659993492 11.0
    vertex 110.04075266743362 100.81885659993492 0.9999999999999999
  endloop
endfacet
facet normal 0.7933533402912477 0.6087614290087042 0.0
  outer loop
    vertex 110.04075266743362 100.81885659993492 11.0
    vertex 109.24753085697398 101.85260338961702 0.9999999999999999
    vertex 109.24753085697398 101.85260338961702 11.0
  endloop
endfacet
facet normal -0.3826834323650946 -0.9238795325112847 -0.0
  outer loop
    vertex 104.42623666140707 93.50187688465812 11.0
    vertex 103.22241302787212 94.00051696037355 0.9999999999999999
    vertex 104.42623666140707 93.50187688465812 0.9999999999999999
  endloop
endfacet
facet normal -0.3826834323650946 -0.9238795325112847 -0.0
  outer loop
    vertex 103.22241302787212 94.00051696037355 0.9999999999999999
    vertex 104.42623666140707 93.50187688465812 11.0
    vertex 103.22241302787212 94.00051696037355 11.0
  endloop
endfacet
facet normal 0.38268343236508107 -0.9238795325112903 0.0
  outer loop
    vertex 108.21378406729202 94.00051696037355 11.0
    vertex 107.00996043375706 93.50187688465812 0.9999999999999999
    vertex 108.21378406729202 94.00051696037355 0.9999999999999999
  endloop
endfacet
facet normal 0.38268343236508107 -0.9238795325112903 0.0
  outer loop
    vertex 107.00996043375706 93.50187688465812 0.9999999999999999
    vertex 108.21378406729202 94.00051696037355 11.0
    vertex 107.00996043375706 93.50187688465812 11.0
  endloop
endfacet
facet normal -0.9914448613738104 0.13052619222005188 0.0
  outer loop
    vertex 100.89680435201514 99.61503296640008 11.0
    vertex 100.72672750816223 98.32317108022505 0.9999999999999999
    vertex 100.72672750816223 98.32317108022505 11.0
  endloop
endfacet
facet normal -0.9914448613738104 0.13052619222005188 0.0
  outer loop
    vertex 100.72672750816223 98.32317108022505 0.9999999999999999
    vertex 100.89680435201514 99.61503296640008 11.0
    vertex 100.89680435201514 99.61503296640008 0.9999999999999999
  endloop
endfacet
facet normal 0.9914448613738104 -0.13052619222005188 0.0
  outer loop
    vertex 110.70946958700195 98.32317108022507 0.9999999999999999
    vertex 110.53939274314905 97.03130919405005 11.0
    vertex 110.53939274314905 97.03130919405005 0.9999999999999999
  endloop
endfacet
facet normal 0.9914448613738104 -0.13052619222005188 0.0
  outer loop
    vertex 110.53939274314905 97.03130919405005 11.0
    vertex 110.70946958700195 98.32317108022507 0.9999999999999999
    vertex 110.70946958700195 98.32317108022507 11.0
  endloop
endfacet
facet normal 0.9914448613738102 0.13052619222005413 0.0
  outer loop
    vertex 110.53939274314905 99.61503296640007 0.9999999999999999
    vertex 110.70946958700195 98.32317108022507 11.0
    vertex 110.70946958700195 98.32317108022507 0.9999999999999999
  endloop
endfacet
facet normal 0.9914448613738102 0.13052619222005413 0.0
  outer loop
    vertex 110.70946958700195 98.32317108022507 11.0
    vertex 110.53939274314905 99.61503296640007 0.9999999999999999
    vertex 110.53939274314905 99.61503296640007 11.0
  endloop
endfacet
facet normal 0.38268343236509206 0.9238795325112859 0.0
  outer loop
    vertex 107.0099604337571 103.144465275792 11.0
    vertex 108.21378406729201 102.64582520007659 0.9999999999999999
    vertex 107.0099604337571 103.144465275792 0.9999999999999999
  endloop
endfacet
facet normal 0.38268343236509206 0.9238795325112859 0.0
  outer loop
    vertex 108.21378406729201 102.64582520007659 0.9999999999999999
    vertex 107.0099604337571 103.144465275792 11.0
    vertex 108.21378406729201 102.64582520007659 11.0
  endloop
endfacet
facet normal -0.9914448613738094 -0.1305261922200604 -0.0
  outer loop
    vertex 100.72672750816223 98.32317108022505 11.0
    vertex 100.89680435201515 97.03130919405004 0.9999999999999999
    vertex 100.89680435201515 97.03130919405004 11.0
  endloop
endfacet
facet normal -0.9914448613738094 -0.1305261922200604 -0.0
  outer loop
    vertex 100.89680435201515 97.03130919405004 0.9999999999999999
    vertex 100.72672750816223 98.32317108022505 11.0
    vertex 100.72672750816223 98.32317108022505 0.9999999999999999
  endloop
endfacet
facet normal -0.13052619222005188 -0.9914448613738104 -0.0
  outer loop
    vertex 105.71809854758209 93.3318000408052 11.0
    vertex 104.42623666140707 93.50187688465812 0.9999999999999999
    vertex 105.71809854758209 93.3318000408052 0.9999999999999999
  endloop
endfacet
facet normal -0.13052619222005188 -0.9914448613738104 -0.0
  outer loop
    vertex 104.42623666140707 93.50187688465812 0.9999999999999999
    vertex 105.71809854758209 93.3318000408052 11.0
    vertex 104.42623666140707 93.50187688465812 11.0
  endloop
endfacet
facet normal 0.9238795325112809 0.3826834323651044 0.0
  outer loop
    vertex 110.04075266743362 100.81885659993492 0.9999999999999999
    vertex 110.53939274314905 99.61503296640007 11.0
    vertex 110.53939274314905 99.61503296640007 0.9999999999999999
  endloop
endfacet
facet normal 0.9238795325112809 0.3826834323651044 0.0
  outer loop
    vertex 110.53939274314905 99.61503296640007 11.0
    vertex 110.04075266743362 100.81885659993492 0.9999999999999999
    vertex 110.04075266743362 100.81885659993492 11.0
  endloop
endfacet
facet normal 0.13052619222005188 0.9914448613738104 0.0
  outer loop
    vertex 105.71809854758209 103.31454211964491 11.0
    vertex 107.0099604337571 103.144465275792 0.9999999999999999
    vertex 105.71809854758209 103.31454211964491 0.9999999999999999
  endloop
endfacet
facet normal 0.13052619222005188 0.9914448613738104 0.0
  outer loop
    vertex 107.0099604337571 103.144465275792 0.9999999999999999
    vertex 105.71809854758209 103.31454211964491 11.0
    vertex 107.0099604337571 103.144465275792 11.0
  endloop
endfacet
facet normal 0.0 0.0 1.0
  outer loop
    vertex 100.89680435201515 97.03130919405004 11.0
    vertex 100.89680435201514 99.61503296640008 11.0
    vertex 100.72672750816223 98.32317108022505 11.0
  endloop
endfacet
facet normal 0.0 0.0 1.0
  outer loop
    vertex 100.89680435201514 99.61503296640008 11.0
    vertex 100.89680435201515 97.03130919405004 11.0
    vertex 101.39544442773055 100.81885659993496 11.0
  endloop
endfacet
facet normal 0.0 0.0 1.0
  outer loop
    vertex 101.39544442773055 100.81885659993496 11.0
    vertex 100.89680435201515 97.03130919405004 11.0
    vertex 101.39544442773055 95.82748556051514 11.0
  endloop
endfacet
facet normal 0.0 0.0 1.0
  outer loop
    vertex 101.39544442773055 100.81885659993496 11.0
    vertex 101.39544442773055 95.82748556051514 11.0
    vertex 102.1886662381902 101.85260338961699 11.0
  endloop
endfacet
facet normal 0.0 0.0 1.0
  outer loop
    vertex 102.1886662381902 101.85260338961699 11.0
    vertex 101.39544442773055 95.82748556051514 11.0
    vertex 102.1886662381902 94.79373877083312 11.0
  endloop
endfacet
facet normal 0.0 0.0 1.0
  outer loop
    vertex 102.1886662381902 101.85260338961699 11.0
    vertex 102.1886662381902 94.79373877083312 11.0
    vertex 102.21809854758209 98.32317108022505 11.0
  endloop
endfacet
facet normal 0.0 0.0 1.0
  outer loop
    vertex 102.21809854758209 98.32317108022505 11.0
    vertex 102.1886662381902 94.79373877083312 11.0
    vertex 102.33735815557034 97.41730442236623 11.0
  endloop
endfacet
facet normal 0.0 0.0 1.0
  outer loop
    vertex 102.33735815557034 97.41730442236623 11.0
    vertex 102.1886662381902 94.79373877083312 11.0
    vertex 103.22241302787212 94.00051696037355 11.0
  endloop
endfacet
facet normal 0.0 0.0 1.0
  outer loop
    vertex 102.33735815557034 97.41730442236623 11.0
    vertex 103.22241302787212 94.00051696037355 11.0
    vertex 102.68700963433655 96.57317108022507 11.0
  endloop
endfacet
facet normal 0.0 0.0 1.0
  outer loop
    vertex 102.68700963433655 96.57317108022507 11.0
    vertex 103.22241302787212 94.00051696037355 11.0
    vertex 103.24322481342917 95.84829734607213 11.0
  endloop
endfacet
facet normal 0.0 0.0 1.0
  outer loop
    vertex 103.24322481342917 95.84829734607213 11.0
    vertex 103.22241302787212 94.00051696037355 11.0
    vertex 104.42623666140707 93.50187688465812 11.0
  endloop
endfacet
facet normal 0.0 0.0 1.0
  outer loop
    vertex 103.24322481342917 95.84829734607213 11.0
    vertex 104.42623666140707 93.50187688465812 11.0
    vertex 103.96809854758207 95.29208216697951 11.0
  endloop
endfacet
facet normal 0.0 0.0 1.0
  outer loop
    vertex 103.96809854758207 95.29208216697951 11.0
    vertex 104.42623666140707 93.50187688465812 11.0
    vertex 108.74918746082763 96.57317108022505 11.0
  endloop
endfacet
facet normal 0.0 0.0 1.0
  outer loop
    vertex 108.74918746082763 96.57317108022505 11.0
    vertex 104.42623666140707 93.50187688465812 11.0
    vertex 105.71809854758209 93.3318000408052 11.0
  endloop
endfacet
facet normal 0.0 0.0 1.0
  outer loop
    vertex 108.74918746082763 96.57317108022505 11.0
    vertex 105.71809854758209 93.3318000408052 11.0
    vertex 107.00996043375706 93.50187688465812 11.0
  endloop
endfacet
facet normal 0.0 0.0 1.0
  outer loop
    vertex 108.74918746082763 96.57317108022505 11.0
    vertex 107.00996043375706 93.50187688465812 11.0
    vertex 108.21378406729202 94.00051696037355 11.0
  endloop
endfacet
facet normal 0.0 0.0 1.0
  outer loop
    vertex 108.74918746082763 96.57317108022505 11.0
    vertex 108.21378406729202 94.00051696037355 11.0
    vertex 109.24753085697398 94.79373877083314 11.0
  endloop
endfacet
facet normal 0.0 0.0 1.0
  outer loop
    vertex 108.74918746082763 96.57317108022505 11.0
    vertex 109.24753085697398 94.79373877083314 11.0
    vertex 109.09883893959383 97.41730442236623 11.0
  endloop
endfacet
facet normal 0.0 0.0 1.0
  outer loop
    vertex 109.09883893959383 97.41730442236623 11.0
    vertex 109.24753085697398 94.79373877083314 11.0
    vertex 109.21809854758207 98.32317108022505 11.0
  endloop
endfacet
facet normal 0.0 0.0 1.0
  outer loop
    vertex 102.1886662381902 101.85260338961699 11.0
    vertex 102.33735815557034 99.22903773808389 11.0
    vertex 103.22241302787214 102.64582520007656 11.0
  endloop
endfacet
facet normal 0.0 0.0 1.0
  outer loop
    vertex 102.33735815557034 99.22903773808389 11.0
    vertex 102.1886662381902 101.85260338961699 11.0
    vertex 102.21809854758209 98.32317108022505 11.0
  endloop
endfacet
facet normal 0.0 0.0 1.0
  outer loop
    vertex 103.22241302787214 102.64582520007656 11.0
    vertex 102.33735815557034 99.22903773808389 11.0
    vertex 102.68700963433655 100.07317108022507 11.0
  endloop
endfacet
facet normal 0.0 0.0 1.0
  outer loop
    vertex 103.22241302787214 102.64582520007656 11.0
    vertex 102.68700963433655 100.07317108022507 11.0
    vertex 103.24322481342917 100.79804481437797 11.0
  endloop
endfacet
facet normal 0.0 0.0 1.0
  outer loop
    vertex 103.22241302787214 102.64582520007656 11.0
    vertex 103.24322481342917 100.79804481437797 11.0
    vertex 104.42623666140713 103.144465275792 11.0
  endloop
endfacet
facet normal 0.0 0.0 1.0
  outer loop
    vertex 104.42623666140713 103.144465275792 11.0
    vertex 103.24322481342917 100.79804481437797 11.0
    vertex 103.96809854758207 101.35425999347059 11.0
  endloop
endfacet
facet normal 0.0 0.0 1.0
  outer loop
    vertex 104.42623666140713 103.144465275792 11.0
    vertex 103.96809854758207 101.35425999347059 11.0
    vertex 104.81223188972326 101.7039114722368 11.0
  endloop
endfacet
facet normal 0.0 0.0 1.0
  outer loop
    vertex 104.42623666140713 103.144465275792 11.0
    vertex 104.81223188972326 101.7039114722368 11.0
    vertex 105.71809854758209 103.31454211964491 11.0
  endloop
endfacet
facet normal 0.0 0.0 1.0
  outer loop
    vertex 105.71809854758209 103.31454211964491 11.0
    vertex 104.81223188972326 101.7039114722368 11.0
    vertex 105.71809854758209 101.82317108022507 11.0
  endloop
endfacet
facet normal 0.0 0.0 1.0
  outer loop
    vertex 105.71809854758209 103.31454211964491 11.0
    vertex 105.71809854758209 101.82317108022507 11.0
    vertex 106.62396520544091 101.7039114722368 11.0
  endloop
endfacet
facet normal 0.0 0.0 1.0
  outer loop
    vertex 105.71809854758209 103.31454211964491 11.0
    vertex 106.62396520544091 101.7039114722368 11.0
    vertex 107.0099604337571 103.144465275792 11.0
  endloop
endfacet
facet normal 0.0 0.0 1.0
  outer loop
    vertex 107.0099604337571 103.144465275792 11.0
    vertex 106.62396520544091 101.7039114722368 11.0
    vertex 107.46809854758209 101.35425999347059 11.0
  endloop
endfacet
facet normal 0.0 0.0 1.0
  outer loop
    vertex 107.0099604337571 103.144465275792 11.0
    vertex 107.46809854758209 101.35425999347059 11.0
    vertex 108.21378406729201 102.64582520007659 11.0
  endloop
endfacet
facet normal 0.0 0.0 1.0
  outer loop
    vertex 108.21378406729201 102.64582520007659 11.0
    vertex 107.46809854758209 101.35425999347059 11.0
    vertex 108.19297228173501 100.79804481437797 11.0
  endloop
endfacet
facet normal 0.0 0.0 1.0
  outer loop
    vertex 108.21378406729201 102.64582520007659 11.0
    vertex 108.19297228173501 100.79804481437797 11.0
    vertex 108.74918746082763 100.07317108022505 11.0
  endloop
endfacet
facet normal 0.0 0.0 1.0
  outer loop
    vertex 108.21378406729201 102.64582520007659 11.0
    vertex 108.74918746082763 100.07317108022505 11.0
    vertex 109.24753085697398 101.85260338961702 11.0
  endloop
endfacet
facet normal 0.0 0.0 1.0
  outer loop
    vertex 109.24753085697398 101.85260338961702 11.0
    vertex 108.74918746082763 100.07317108022505 11.0
    vertex 109.09883893959383 99.22903773808389 11.0
  endloop
endfacet
facet normal 0.0 0.0 1.0
  outer loop
    vertex 109.24753085697398 101.85260338961702 11.0
    vertex 109.09883893959383 99.22903773808389 11.0
    vertex 109.21809854758207 98.32317108022505 11.0
  endloop
endfacet
facet normal 0.0 0.0 1.0
  outer loop
    vertex 109.24753085697398 101.85260338961702 11.0
    vertex 109.21809854758207 98.32317108022505 11.0
    vertex 109.24753085697398 94.79373877083314 11.0
  endloop
endfacet
facet normal 0.0 0.0 1.0
  outer loop
    vertex 109.24753085697398 101.85260338961702 11.0
    vertex 109.24753085697398 94.79373877083314 11.0
    vertex 110.04075266743362 95.82748556051514 11.0
  endloop
endfacet
facet normal 0.0 0.0 1.0
  outer loop
    vertex 109.24753085697398 101.85260338961702 11.0
    vertex 110.04075266743362 95.82748556051514 11.0
    vertex 110.04075266743362 100.81885659993492 11.0
  endloop
endfacet
facet normal 0.0 0.0 1.0
  outer loop
    vertex 110.04075266743362 100.81885659993492 11.0
    vertex 110.04075266743362 95.82748556051514 11.0
    vertex 110.53939274314905 97.03130919405005 11.0
  endloop
endfacet
facet normal 0.0 0.0 1.0
  outer loop
    vertex 110.04075266743362 100.81885659993492 11.0
    vertex 110.53939274314905 97.03130919405005 11.0
    vertex 110.53939274314905 99.61503296640007 11.0
  endloop
endfacet
facet normal 0.0 0.0 1.0
  outer loop
    vertex 110.53939274314905 99.61503296640007 11.0
    vertex 110.53939274314905 97.03130919405005 11.0
    vertex 110.70946958700195 98.32317108022507 11.0
  endloop
endfacet
facet normal -0.6087614290087218 0.7933533402912343 0.0
  outer loop
    vertex 102.1886662381902 101.85260338961699 11.0
    vertex 103.22241302787214 102.64582520007656 0.9999999999999999
    vertex 102.1886662381902 101.85260338961699 0.9999999999999999
  endloop
endfacet
facet normal -0.6087614290087218 0.7933533402912343 0.0
  outer loop
    vertex 103.22241302787214 102.64582520007656 0.9999999999999999
    vertex 102.1886662381902 101.85260338961699 11.0
    vertex 103.22241302787214 102.64582520007656 11.0
  endloop
endfacet
facet normal -0.9238795325112876 0.38268343236508773 0.0
  outer loop
    vertex 101.39544442773055 100.81885659993496 11.0
    vertex 100.89680435201514 99.61503296640008 0.9999999999999999
    vertex 100.89680435201514 99.61503296640008 11.0
  endloop
endfacet
facet normal -0.9238795325112876 0.38268343236508773 0.0
  outer loop
    vertex 100.89680435201514 99.61503296640008 0.9999999999999999
    vertex 101.39544442773055 100.81885659993496 11.0
    vertex 101.39544442773055 100.81885659993496 0.9999999999999999
  endloop
endfacet
facet normal -0.7933533402912285 0.6087614290087294 0.0
  outer loop
    vertex 102.1886662381902 101.85260338961699 11.0
    vertex 101.39544442773055 100.81885659993496 0.9999999999999999
    vertex 101.39544442773055 100.81885659993496 11.0
  endloop
endfacet
facet normal -0.7933533402912285 0.6087614290087294 0.0
  outer loop
    vertex 101.39544442773055 100.81885659993496 0.9999999999999999
    vertex 102.1886662381902 101.85260338961699 11.0
    vertex 102.1886662381902 101.85260338961699 0.9999999999999999
  endloop
endfacet
facet normal -0.9238795325112888 -0.3826834323650847 -0.0
  outer loop
    vertex 100.89680435201515 97.03130919405004 11.0
    vertex 101.39544442773055 95.82748556051514 0.9999999999999999
    vertex 101.39544442773055 95.82748556051514 11.0
  endloop
endfacet
facet normal -0.9238795325112888 -0.3826834323650847 -0.0
  outer loop
    vertex 101.39544442773055 95.82748556051514 0.9999999999999999
    vertex 100.89680435201515 97.03130919405004 11.0
    vertex 100.89680435201515 97.03130919405004 0.9999999999999999
  endloop
endfacet
facet normal -0.6087614290087248 -0.7933533402912322 -0.0
  outer loop
    vertex 103.22241302787212 94.00051696037355 11.0
    vertex 102.1886662381902 94.79373877083312 0.9999999999999999
    vertex 103.22241302787212 94.00051696037355 0.9999999999999999
  endloop
endfacet
facet normal -0.6087614290087248 -0.7933533402912322 -0.0
  outer loop
    vertex 102.1886662381902 94.79373877083312 0.9999999999999999
    vertex 103.22241302787212 94.00051696037355 11.0
    vertex 102.1886662381902 94.79373877083312 11.0
  endloop
endfacet
facet normal 0.6087614290087326 -0.793353340291226 0.0
  outer loop
    vertex 109.24753085697398 94.79373877083314 11.0
    vertex 108.21378406729202 94.00051696037355 0.9999999999999999
    vertex 109.24753085697398 94.79373877083314 0.9999999999999999
  endloop
endfacet
facet normal 0.6087614290087326 -0.793353340291226 0.0
  outer loop
    vertex 108.21378406729202 94.00051696037355 0.9999999999999999
    vertex 109.24753085697398 94.79373877083314 11.0
    vertex 108.21378406729202 94.00051696037355 11.0
  endloop
endfacet
facet normal 0.0 0.0 -1.0
  outer loop
    vertex 103.12097473920659 108.01576908662933 0.0
    vertex 102.21809854758209 98.32317108022505 0.0
    vertex 100.70084062642178 107.01331671435211 0.0
  endloop
endfacet
facet normal 0.0 0.0 -1.0
  outer loop
    vertex 102.21809854758209 98.32317108022505 0.0
    vertex 103.12097473920659 108.01576908662933 0.0
    vertex 102.33735815557034 99.22903773808389 0.0
  endloop
endfacet
facet normal 0.0 0.0 -1.0
  outer loop
    vertex 102.33735815557034 99.22903773808389 0.0
    vertex 103.12097473920659 108.01576908662933 0.0
    vertex 102.68700963433655 100.07317108022507 0.0
  endloop
endfacet
facet normal 0.0 0.0 -1.0
  outer loop
    vertex 102.68700963433655 100.07317108022507 0.0
    vertex 103.12097473920659 108.01576908662933 0.0
    vertex 103.24322481342917 100.79804481437797 0.0
  endloop
endfacet
facet normal 0.0 0.0 -1.0
  outer loop
    vertex 103.24322481342917 100.79804481437797 0.0
    vertex 103.12097473920659 108.01576908662933 0.0
    vertex 105.71809854758209 108.35768692254567 0.0
  endloop
endfacet
facet normal 0.0 0.0 -1.0
  outer loop
    vertex 103.24322481342917 100.79804481437797 0.0
    vertex 105.71809854758209 108.35768692254567 0.0
    vertex 103.96809854758207 101.35425999347059 0.0
  endloop
endfacet
facet normal 0.0 0.0 -1.0
  outer loop
    vertex 103.96809854758207 101.35425999347059 0.0
    vertex 105.71809854758209 108.35768692254567 0.0
    vertex 104.81223188972326 101.7039114722368 0.0
  endloop
endfacet
facet normal 0.0 0.0 -1.0
  outer loop
    vertex 104.81223188972326 101.7039114722368 0.0
    vertex 105.71809854758209 108.35768692254567 0.0
    vertex 105.71809854758209 101.82317108022507 0.0
  endloop
endfacet
facet normal 0.0 0.0 -1.0
  outer loop
    vertex 105.71809854758209 101.82317108022507 0.0
    vertex 105.71809854758209 108.35768692254567 0.0
    vertex 108.31522235595766 108.01576908662933 0.0
  endloop
endfacet
facet normal 0.0 0.0 -1.0
  outer loop
    vertex 105.71809854758209 101.82317108022507 0.0
    vertex 108.31522235595766 108.01576908662933 0.0
    vertex 106.62396520544091 101.7039114722368 0.0
  endloop
endfacet
facet normal 0.0 0.0 -1.0
  outer loop
    vertex 106.62396520544091 101.7039114722368 0.0
    vertex 108.31522235595766 108.01576908662933 0.0
    vertex 107.46809854758209 101.35425999347059 0.0
  endloop
endfacet
facet normal 0.0 0.0 -1.0
  outer loop
    vertex 107.46809854758209 101.35425999347059 0.0
    vertex 108.31522235595766 108.01576908662933 0.0
    vertex 108.19297228173501 100.79804481437797 0.0
  endloop
endfacet
facet normal 0.0 0.0 -1.0
  outer loop
    vertex 108.19297228173501 100.79804481437797 0.0
    vertex 108.31522235595766 108.01576908662933 0.0
    vertex 108.74918746082763 100.07317108022505 0.0
  endloop
endfacet
facet normal 0.0 0.0 -1.0
  outer loop
    vertex 108.74918746082763 100.07317108022505 0.0
    vertex 108.31522235595766 108.01576908662933 0.0
    vertex 110.73535646874235 107.01331671435214 0.0
  endloop
endfacet
facet normal 0.0 0.0 -1.0
  outer loop
    vertex 108.74918746082763 100.07317108022505 0.0
    vertex 110.73535646874235 107.01331671435214 0.0
    vertex 109.09883893959383 99.22903773808389 0.0
  endloop
endfacet
facet normal 0.0 0.0 -1.0
  outer loop
    vertex 109.09883893959383 99.22903773808389 0.0
    vertex 110.73535646874235 107.01331671435214 0.0
    vertex 109.21809854758207 98.32317108022505 0.0
  endloop
endfacet
facet normal 0.0 0.0 -1.0
  outer loop
    vertex 96.0255005411778 100.92029488860058 0.0
    vertex 96.0255005411778 95.7260472718495 0.0
    vertex 95.68358270526147 98.32317108022505 0.0
  endloop
endfacet
facet normal 0.0 0.0 -1.0
  outer loop
    vertex 96.0255005411778 95.7260472718495 0.0
    vertex 96.0255005411778 100.92029488860058 0.0
    vertex 97.02795291345505 103.3404290013854 0.0
  endloop
endfacet
facet normal 0.0 0.0 -1.0
  outer loop
    vertex 96.0255005411778 95.7260472718495 0.0
    vertex 97.02795291345505 103.3404290013854 0.0
    vertex 97.02795291345501 93.30591315906477 0.0
  endloop
endfacet
facet normal 0.0 0.0 -1.0
  outer loop
    vertex 97.02795291345501 93.30591315906477 0.0
    vertex 97.02795291345505 103.3404290013854 0.0
    vertex 98.62262434955333 91.22769688219631 0.0
  endloop
endfacet
facet normal 0.0 0.0 -1.0
  outer loop
    vertex 98.62262434955333 91.22769688219631 0.0
    vertex 97.02795291345505 103.3404290013854 0.0
    vertex 98.62262434955333 105.4186452782538 0.0
  endloop
endfacet
facet normal 0.0 0.0 -1.0
  outer loop
    vertex 98.62262434955333 91.22769688219631 0.0
    vertex 98.62262434955333 105.4186452782538 0.0
    vertex 100.70084062642178 107.01331671435211 0.0
  endloop
endfacet
facet normal 0.0 0.0 -1.0
  outer loop
    vertex 98.62262434955333 91.22769688219631 0.0
    vertex 100.70084062642178 107.01331671435211 0.0
    vertex 100.70084062642177 89.63302544609802 0.0
  endloop
endfacet
facet normal 0.0 0.0 -1.0
  outer loop
    vertex 100.70084062642177 89.63302544609802 0.0
    vertex 100.70084062642178 107.01331671435211 0.0
    vertex 103.12097473920656 88.63057307382078 0.0
  endloop
endfacet
facet normal 0.0 0.0 -1.0
  outer loop
    vertex 103.12097473920656 88.63057307382078 0.0
    vertex 100.70084062642178 107.01331671435211 0.0
    vertex 102.21809854758209 98.32317108022505 0.0
  endloop
endfacet
facet normal 0.0 0.0 -1.0
  outer loop
    vertex 103.12097473920656 88.63057307382078 0.0
    vertex 102.21809854758209 98.32317108022505 0.0
    vertex 102.33735815557034 97.41730442236623 0.0
  endloop
endfacet
facet normal 0.0 0.0 -1.0
  outer loop
    vertex 103.12097473920656 88.63057307382078 0.0
    vertex 102.33735815557034 97.41730442236623 0.0
    vertex 102.68700963433655 96.57317108022507 0.0
  endloop
endfacet
facet normal 0.0 0.0 -1.0
  outer loop
    vertex 103.12097473920656 88.63057307382078 0.0
    vertex 102.68700963433655 96.57317108022507 0.0
    vertex 103.24322481342917 95.84829734607213 0.0
  endloop
endfacet
facet normal 0.0 0.0 -1.0
  outer loop
    vertex 103.12097473920656 88.63057307382078 0.0
    vertex 103.24322481342917 95.84829734607213 0.0
    vertex 105.7180985475821 88.28865523790445 0.0
  endloop
endfacet
facet normal 0.0 0.0 -1.0
  outer loop
    vertex 105.7180985475821 88.28865523790445 0.0
    vertex 103.24322481342917 95.84829734607213 0.0
    vertex 103.96809854758207 95.29208216697951 0.0
  endloop
endfacet
facet normal 0.0 0.0 -1.0
  outer loop
    vertex 105.7180985475821 88.28865523790445 0.0
    vertex 103.96809854758207 95.29208216697951 0.0
    vertex 108.74918746082763 96.57317108022505 0.0
  endloop
endfacet
facet normal 0.0 0.0 -1.0
  outer loop
    vertex 105.7180985475821 88.28865523790445 0.0
    vertex 108.74918746082763 96.57317108022505 0.0
    vertex 108.31522235595759 88.63057307382077 0.0
  endloop
endfacet
facet normal 0.0 0.0 -1.0
  outer loop
    vertex 108.31522235595759 88.63057307382077 0.0
    vertex 108.74918746082763 96.57317108022505 0.0
    vertex 110.73535646874242 89.63302544609802 0.0
  endloop
endfacet
facet normal 0.0 0.0 -1.0
  outer loop
    vertex 110.73535646874242 89.63302544609802 0.0
    vertex 108.74918746082763 96.57317108022505 0.0
    vertex 109.09883893959383 97.41730442236623 0.0
  endloop
endfacet
facet normal 0.0 0.0 -1.0
  outer loop
    vertex 110.73535646874242 89.63302544609802 0.0
    vertex 109.09883893959383 97.41730442236623 0.0
    vertex 109.21809854758207 98.32317108022505 0.0
  endloop
endfacet
facet normal 0.0 0.0 -1.0
  outer loop
    vertex 110.73535646874242 89.63302544609802 0.0
    vertex 109.21809854758207 98.32317108022505 0.0
    vertex 110.73535646874235 107.01331671435214 0.0
  endloop
endfacet
facet normal 0.0 0.0 -1.0
  outer loop
    vertex 110.73535646874242 89.63302544609802 0.0
    vertex 110.73535646874235 107.01331671435214 0.0
    vertex 112.81357274561084 105.4186452782538 0.0
  endloop
endfacet
facet normal 0.0 0.0 -1.0
  outer loop
    vertex 110.73535646874242 89.63302544609802 0.0
    vertex 112.81357274561084 105.4186452782538 0.0
    vertex 112.8135727456108 91.22769688219628 0.0
  endloop
endfacet
facet normal 0.0 0.0 -1.0
  outer loop
    vertex 112.8135727456108 91.22769688219628 0.0
    vertex 112.81357274561084 105.4186452782538 0.0
    vertex 114.40824418170911 93.30591315906474 0.0
  endloop
endfacet
facet normal 0.0 0.0 -1.0
  outer loop
    vertex 114.40824418170911 93.30591315906474 0.0
    vertex 112.81357274561084 105.4186452782538 0.0
    vertex 114.40824418170914 103.34042900138533 0.0
  endloop
endfacet
facet normal 0.0 0.0 -1.0
  outer loop
    vertex 114.40824418170911 93.30591315906474 0.0
    vertex 114.40824418170914 103.34042900138533 0.0
    vertex 115.41069655398637 95.72604727184951 0.0
  endloop
endfacet
facet normal 0.0 0.0 -1.0
  outer loop
    vertex 115.41069655398637 95.72604727184951 0.0
    vertex 114.40824418170914 103.34042900138533 0.0
    vertex 115.41069655398637 100.92029488860062 0.0
  endloop
endfacet
facet normal 0.0 0.0 -1.0
  outer loop
    vertex 115.41069655398637 95.72604727184951 0.0
    vertex 115.41069655398637 100.92029488860062 0.0
    vertex 115.7526143899027 98.32317108022507 0.0
  endloop
endfacet
facet normal -0.2588190451025195 0.9659258262890688 0.0
  outer loop
    vertex 103.96809854758207 95.29208216697951 11.0
    vertex 108.74918746082763 96.57317108022505 0.0
    vertex 103.96809854758207 95.29208216697951 0.0
  endloop
endfacet
facet normal -0.2588190451025195 0.9659258262890688 0.0
  outer loop
    vertex 108.74918746082763 96.57317108022505 0.0
    vertex 103.96809854758207 95.29208216697951 11.0
    vertex 108.74918746082763 96.57317108022505 11.0
  endloop
endfacet
facet normal -0.9238795325112866 0.38268343236508984 0.0
  outer loop
    vertex 109.09883893959383 97.41730442236623 11.0
    vertex 108.74918746082763 96.57317108022505 0.0
    vertex 108.74918746082763 96.57317108022505 11.0
  endloop
endfacet
facet normal -0.9238795325112866 0.38268343236508984 0.0
  outer loop
    vertex 108.74918746082763 96.57317108022505 0.0
    vertex 109.09883893959383 97.41730442236623 11.0
    vertex 109.09883893959383 97.41730442236623 0.0
  endloop
endfacet
facet normal -0.38268343236507935 -0.9238795325112911 -0.0
  outer loop
    vertex 107.46809854758209 101.35425999347059 11.0
    vertex 106.62396520544091 101.7039114722368 0.0
    vertex 107.46809854758209 101.35425999347059 0.0
  endloop
endfacet
facet normal -0.38268343236507935 -0.9238795325112911 -0.0
  outer loop
    vertex 106.62396520544091 101.7039114722368 0.0
    vertex 107.46809854758209 101.35425999347059 11.0
    vertex 106.62396520544091 101.7039114722368 11.0
  endloop
endfacet
facet normal -0.13052619222006065 -0.9914448613738094 -0.0
  outer loop
    vertex 106.62396520544091 101.7039114722368 11.0
    vertex 105.71809854758209 101.82317108022507 0.0
    vertex 106.62396520544091 101.7039114722368 0.0
  endloop
endfacet
facet normal -0.13052619222006065 -0.9914448613738094 -0.0
  outer loop
    vertex 105.71809854758209 101.82317108022507 0.0
    vertex 106.62396520544091 101.7039114722368 11.0
    vertex 105.71809854758209 101.82317108022507 11.0
  endloop
endfacet
facet normal -0.7933533402912398 -0.6087614290087147 -0.0
  outer loop
    vertex 108.19297228173501 100.79804481437797 11.0
    vertex 108.74918746082763 100.07317108022505 0.0
    vertex 108.74918746082763 100.07317108022505 11.0
  endloop
endfacet
facet normal -0.7933533402912398 -0.6087614290087147 -0.0
  outer loop
    vertex 108.74918746082763 100.07317108022505 0.0
    vertex 108.19297228173501 100.79804481437797 11.0
    vertex 108.19297228173501 100.79804481437797 0.0
  endloop
endfacet
facet normal -0.923879532511285 -0.38268343236509433 -0.0
  outer loop
    vertex 108.74918746082763 100.07317108022505 11.0
    vertex 109.09883893959383 99.22903773808389 0.0
    vertex 109.09883893959383 99.22903773808389 11.0
  endloop
endfacet
facet normal -0.923879532511285 -0.38268343236509433 -0.0
  outer loop
    vertex 109.09883893959383 99.22903773808389 0.0
    vertex 108.74918746082763 100.07317108022505 11.0
    vertex 108.74918746082763 100.07317108022505 0.0
  endloop
endfacet
facet normal 0.38268343236507935 -0.9238795325112911 0.0
  outer loop
    vertex 104.81223188972326 101.7039114722368 11.0
    vertex 103.96809854758207 101.35425999347059 0.0
    vertex 104.81223188972326 101.7039114722368 0.0
  endloop
endfacet
facet normal 0.38268343236507935 -0.9238795325112911 0.0
  outer loop
    vertex 103.96809854758207 101.35425999347059 0.0
    vertex 104.81223188972326 101.7039114722368 11.0
    vertex 103.96809854758207 101.35425999347059 11.0
  endloop
endfacet
facet normal 0.6087614290087207 -0.7933533402912353 0.0
  outer loop
    vertex 103.96809854758207 101.35425999347059 11.0
    vertex 103.24322481342917 100.79804481437797 0.0
    vertex 103.96809854758207 101.35425999347059 0.0
  endloop
endfacet
facet normal 0.6087614290087207 -0.7933533402912353 0.0
  outer loop
    vertex 103.24322481342917 100.79804481437797 0.0
    vertex 103.96809854758207 101.35425999347059 11.0
    vertex 103.24322481342917 100.79804481437797 11.0
  endloop
endfacet
facet normal 0.9238795325112866 -0.38268343236508984 0.0
  outer loop
    vertex 102.68700963433655 100.07317108022507 0.0
    vertex 102.33735815557034 99.22903773808389 11.0
    vertex 102.33735815557034 99.22903773808389 0.0
  endloop
endfacet
facet normal 0.9238795325112866 -0.38268343236508984 0.0
  outer loop
    vertex 102.33735815557034 99.22903773808389 11.0
    vertex 102.68700963433655 100.07317108022507 0.0
    vertex 102.68700963433655 100.07317108022507 11.0
  endloop
endfacet
facet normal 0.9914448613738124 -0.13052619222003636 0.0
  outer loop
    vertex 102.33735815557034 99.22903773808389 0.0
    vertex 102.21809854758209 98.32317108022505 11.0
    vertex 102.21809854758209 98.32317108022505 0.0
  endloop
endfacet
facet normal 0.9914448613738124 -0.13052619222003636 0.0
  outer loop
    vertex 102.21809854758209 98.32317108022505 11.0
    vertex 102.33735815557034 99.22903773808389 0.0
    vertex 102.33735815557034 99.22903773808389 11.0
  endloop
endfacet
facet normal -0.9914448613738124 -0.13052619222003636 -0.0
  outer loop
    vertex 109.09883893959383 99.22903773808389 11.0
    vertex 109.21809854758207 98.32317108022505 0.0
    vertex 109.21809854758207 98.32317108022505 11.0
  endloop
endfacet
facet normal -0.9914448613738124 -0.13052619222003636 -0.0
  outer loop
    vertex 109.21809854758207 98.32317108022505 0.0
    vertex 109.09883893959383 99.22903773808389 11.0
    vertex 109.09883893959383 99.22903773808389 0.0
  endloop
endfacet
facet normal -0.6087614290087207 -0.7933533402912353 -0.0
  outer loop
    vertex 108.19297228173501 100.79804481437797 11.0
    vertex 107.46809854758209 101.35425999347059 0.0
    vertex 108.19297228173501 100.79804481437797 0.0
  endloop
endfacet
facet normal -0.6087614290087207 -0.7933533402912353 -0.0
  outer loop
    vertex 107.46809854758209 101.35425999347059 0.0
    vertex 108.19297228173501 100.79804481437797 11.0
    vertex 107.46809854758209 101.35425999347059 11.0
  endloop
endfacet
facet normal 0.923879532511285 0.38268343236509433 0.0
  outer loop
    vertex 102.33735815557034 97.41730442236623 0.0
    vertex 102.68700963433655 96.57317108022507 11.0
    vertex 102.68700963433655 96.57317108022507 0.0
  endloop
endfacet
facet normal 0.923879532511285 0.38268343236509433 0.0
  outer loop
    vertex 102.68700963433655 96.57317108022507 11.0
    vertex 102.33735815557034 97.41730442236623 0.0
    vertex 102.33735815557034 97.41730442236623 11.0
  endloop
endfacet
facet normal 0.7933533402912398 0.6087614290087147 0.0
  outer loop
    vertex 102.68700963433655 96.57317108022507 0.0
    vertex 103.24322481342917 95.84829734607213 11.0
    vertex 103.24322481342917 95.84829734607213 0.0
  endloop
endfacet
facet normal 0.7933533402912398 0.6087614290087147 0.0
  outer loop
    vertex 103.24322481342917 95.84829734607213 11.0
    vertex 102.68700963433655 96.57317108022507 0.0
    vertex 102.68700963433655 96.57317108022507 11.0
  endloop
endfacet
facet normal 0.7933533402912353 -0.6087614290087207 0.0
  outer loop
    vertex 103.24322481342917 100.79804481437797 0.0
    vertex 102.68700963433655 100.07317108022507 11.0
    vertex 102.68700963433655 100.07317108022507 0.0
  endloop
endfacet
facet normal 0.7933533402912353 -0.6087614290087207 0.0
  outer loop
    vertex 102.68700963433655 100.07317108022507 11.0
    vertex 103.24322481342917 100.79804481437797 0.0
    vertex 103.24322481342917 100.79804481437797 11.0
  endloop
endfacet
facet normal 0.6087614290087207 0.7933533402912353 0.0
  outer loop
    vertex 103.24322481342917 95.84829734607213 11.0
    vertex 103.96809854758207 95.29208216697951 0.0
    vertex 103.24322481342917 95.84829734607213 0.0
  endloop
endfacet
facet normal 0.6087614290087207 0.7933533402912353 0.0
  outer loop
    vertex 103.96809854758207 95.29208216697951 0.0
    vertex 103.24322481342917 95.84829734607213 11.0
    vertex 103.96809854758207 95.29208216697951 11.0
  endloop
endfacet
facet normal -0.9914448613738124 0.13052619222003636 0.0
  outer loop
    vertex 109.21809854758207 98.32317108022505 11.0
    vertex 109.09883893959383 97.41730442236623 0.0
    vertex 109.09883893959383 97.41730442236623 11.0
  endloop
endfacet
facet normal -0.9914448613738124 0.13052619222003636 0.0
  outer loop
    vertex 109.09883893959383 97.41730442236623 0.0
    vertex 109.21809854758207 98.32317108022505 11.0
    vertex 109.21809854758207 98.32317108022505 0.0
  endloop
endfacet
facet normal 0.13052619222006065 -0.9914448613738094 0.0
  outer loop
    vertex 105.71809854758209 101.82317108022507 11.0
    vertex 104.81223188972326 101.7039114722368 0.0
    vertex 105.71809854758209 101.82317108022507 0.0
  endloop
endfacet
facet normal 0.13052619222006065 -0.9914448613738094 0.0
  outer loop
    vertex 104.81223188972326 101.7039114722368 0.0
    vertex 105.71809854758209 101.82317108022507 11.0
    vertex 104.81223188972326 101.7039114722368 11.0
  endloop
endfacet
facet normal 0.9914448613738124 0.13052619222003636 0.0
  outer loop
    vertex 102.21809854758209 98.32317108022505 0.0
    vertex 102.33735815557034 97.41730442236623 11.0
    vertex 102.33735815557034 97.41730442236623 0.0
  endloop
endfacet
facet normal 0.9914448613738124 0.13052619222003636 0.0
  outer loop
    vertex 102.33735815557034 97.41730442236623 11.0
    vertex 102.21809854758209 98.32317108022505 0.0
    vertex 102.21809854758209 98.32317108022505 11.0
  endloop
endfacet
facet normal 0.9238795325112832 0.3826834323650985 0.0
  outer loop
    vertex 114.40824418170914 103.34042900138533 0.0
    vertex 115.41069655398637 100.92029488860062 0.9999999999999999
    vertex 115.41069655398637 100.92029488860062 0.0
  endloop
endfacet
facet normal 0.9238795325112832 0.3826834323650985 0.0
  outer loop
    vertex 115.41069655398637 100.92029488860062 0.9999999999999999
    vertex 114.40824418170914 103.34042900138533 0.0
    vertex 114.40824418170914 103.34042900138533 0.9999999999999999
  endloop
endfacet
facet normal 0.99144486137381 0.13052619222005554 0.0
  outer loop
    vertex 115.41069655398637 100.92029488860062 0.0
    vertex 115.7526143899027 98.32317108022507 0.9999999999999999
    vertex 115.7526143899027 98.32317108022507 0.0
  endloop
endfacet
facet normal 0.99144486137381 0.13052619222005554 0.0
  outer loop
    vertex 115.7526143899027 98.32317108022507 0.9999999999999999
    vertex 115.41069655398637 100.92029488860062 0.0
    vertex 115.41069655398637 100.92029488860062 0.9999999999999999
  endloop
endfacet
facet normal 0.99144486137381 -0.13052619222005554 0.0
  outer loop
    vertex 115.7526143899027 98.32317108022507 0.0
    vertex 115.41069655398637 95.72604727184951 0.9999999999999999
    vertex 115.41069655398637 95.72604727184951 0.0
  endloop
endfacet
facet normal 0.99144486137381 -0.13052619222005554 0.0
  outer loop
    vertex 115.41069655398637 95.72604727184951 0.9999999999999999
    vertex 115.7526143899027 98.32317108022507 0.0
    vertex 115.7526143899027 98.32317108022507 0.9999999999999999
  endloop
endfacet
facet normal 0.9238795325112832 -0.38268343236509816 0.0
  outer loop
    vertex 115.41069655398637 95.72604727184951 0.0
    vertex 114.40824418170911 93.30591315906474 0.9999999999999999
    vertex 114.40824418170911 93.30591315906474 0.0
  endloop
endfacet
facet normal 0.9238795325112832 -0.38268343236509816 0.0
  outer loop
    vertex 114.40824418170911 93.30591315906474 0.9999999999999999
    vertex 115.41069655398637 95.72604727184951 0.0
    vertex 115.41069655398637 95.72604727184951 0.9999999999999999
  endloop
endfacet
facet normal -0.13052619222005185 -0.9914448613738105 -0.0
  outer loop
    vertex 105.7180985475821 88.28865523790445 0.9999999999999999
    vertex 103.12097473920656 88.63057307382078 0.0
    vertex 105.7180985475821 88.28865523790445 0.0
  endloop
endfacet
facet normal -0.13052619222005185 -0.9914448613738105 -0.0
  outer loop
    vertex 103.12097473920656 88.63057307382078 0.0
    vertex 105.7180985475821 88.28865523790445 0.9999999999999999
    vertex 103.12097473920656 88.63057307382078 0.9999999999999999
  endloop
endfacet
facet normal 0.0 0.0 1.0
  outer loop
    vertex 96.0255005411778 95.7260472718495 0.9999999999999999
    vertex 96.0255005411778 100.92029488860058 0.9999999999999999
    vertex 95.68358270526147 98.32317108022505 0.9999999999999999
  endloop
endfacet
facet normal 0.0 0.0 1.0
  outer loop
    vertex 96.0255005411778 100.92029488860058 0.9999999999999999
    vertex 96.0255005411778 95.7260472718495 0.9999999999999999
    vertex 97.02795291345501 93.30591315906477 0.9999999999999999
  endloop
endfacet
facet normal 0.0 0.0 1.0
  outer loop
    vertex 96.0255005411778 100.92029488860058 0.9999999999999999
    vertex 97.02795291345501 93.30591315906477 0.9999999999999999
    vertex 97.02795291345505 103.3404290013854 0.9999999999999999
  endloop
endfacet
facet normal 0.0 0.0 1.0
  outer loop
    vertex 97.02795291345505 103.3404290013854 0.9999999999999999
    vertex 97.02795291345501 93.30591315906477 0.9999999999999999
    vertex 98.62262434955333 91.22769688219631 0.9999999999999999
  endloop
endfacet
facet normal 0.0 0.0 1.0
  outer loop
    vertex 97.02795291345505 103.3404290013854 0.9999999999999999
    vertex 98.62262434955333 91.22769688219631 0.9999999999999999
    vertex 98.62262434955333 105.4186452782538 0.9999999999999999
  endloop
endfacet
facet normal 0.0 0.0 1.0
  outer loop
    vertex 98.62262434955333 105.4186452782538 0.9999999999999999
    vertex 98.62262434955333 91.22769688219631 0.9999999999999999
    vertex 100.70084062642177 89.63302544609802 0.9999999999999999
  endloop
endfacet
facet normal 0.0 0.0 1.0
  outer loop
    vertex 98.62262434955333 105.4186452782538 0.9999999999999999
    vertex 100.70084062642177 89.63302544609802 0.9999999999999999
    vertex 100.70084062642178 107.01331671435211 0.9999999999999999
  endloop
endfacet
facet normal 0.0 0.0 1.0
  outer loop
    vertex 100.70084062642178 107.01331671435211 0.9999999999999999
    vertex 100.70084062642177 89.63302544609802 0.9999999999999999
    vertex 100.72672750816223 98.32317108022505 0.9999999999999999
  endloop
endfacet
facet normal 0.0 0.0 1.0
  outer loop
    vertex 100.72672750816223 98.32317108022505 0.9999999999999999
    vertex 100.70084062642177 89.63302544609802 0.9999999999999999
    vertex 100.89680435201515 97.03130919405004 0.9999999999999999
  endloop
endfacet
facet normal 0.0 0.0 1.0
  outer loop
    vertex 100.89680435201515 97.03130919405004 0.9999999999999999
    vertex 100.70084062642177 89.63302544609802 0.9999999999999999
    vertex 103.12097473920656 88.63057307382078 0.9999999999999999
  endloop
endfacet
facet normal 0.0 0.0 1.0
  outer loop
    vertex 100.89680435201515 97.03130919405004 0.9999999999999999
    vertex 103.12097473920656 88.63057307382078 0.9999999999999999
    vertex 101.39544442773055 95.82748556051514 0.9999999999999999
  endloop
endfacet
facet normal 0.0 0.0 1.0
  outer loop
    vertex 101.39544442773055 95.82748556051514 0.9999999999999999
    vertex 103.12097473920656 88.63057307382078 0.9999999999999999
    vertex 102.1886662381902 94.79373877083312 0.9999999999999999
  endloop
endfacet
facet normal 0.0 0.0 1.0
  outer loop
    vertex 102.1886662381902 94.79373877083312 0.9999999999999999
    vertex 103.12097473920656 88.63057307382078 0.9999999999999999
    vertex 103.22241302787212 94.00051696037355 0.9999999999999999
  endloop
endfacet
facet normal 0.0 0.0 1.0
  outer loop
    vertex 103.22241302787212 94.00051696037355 0.9999999999999999
    vertex 103.12097473920656 88.63057307382078 0.9999999999999999
    vertex 105.7180985475821 88.28865523790445 0.9999999999999999
  endloop
endfacet
facet normal 0.0 0.0 1.0
  outer loop
    vertex 103.22241302787212 94.00051696037355 0.9999999999999999
    vertex 105.7180985475821 88.28865523790445 0.9999999999999999
    vertex 104.42623666140707 93.50187688465812 0.9999999999999999
  endloop
endfacet
facet normal 0.0 0.0 1.0
  outer loop
    vertex 104.42623666140707 93.50187688465812 0.9999999999999999
    vertex 105.7180985475821 88.28865523790445 0.9999999999999999
    vertex 105.71809854758209 93.3318000408052 0.9999999999999999
  endloop
endfacet
facet normal 0.0 0.0 1.0
  outer loop
    vertex 105.71809854758209 93.3318000408052 0.9999999999999999
    vertex 105.7180985475821 88.28865523790445 0.9999999999999999
    vertex 107.00996043375706 93.50187688465812 0.9999999999999999
  endloop
endfacet
facet normal 0.0 0.0 1.0
  outer loop
    vertex 107.00996043375706 93.50187688465812 0.9999999999999999
    vertex 105.7180985475821 88.28865523790445 0.9999999999999999
    vertex 108.31522235595759 88.63057307382077 0.9999999999999999
  endloop
endfacet
facet normal 0.0 0.0 1.0
  outer loop
    vertex 107.00996043375706 93.50187688465812 0.9999999999999999
    vertex 108.31522235595759 88.63057307382077 0.9999999999999999
    vertex 108.21378406729202 94.00051696037355 0.9999999999999999
  endloop
endfacet
facet normal 0.0 0.0 1.0
  outer loop
    vertex 108.21378406729202 94.00051696037355 0.9999999999999999
    vertex 108.31522235595759 88.63057307382077 0.9999999999999999
    vertex 109.24753085697398 94.79373877083314 0.9999999999999999
  endloop
endfacet
facet normal 0.0 0.0 1.0
  outer loop
    vertex 109.24753085697398 94.79373877083314 0.9999999999999999
    vertex 108.31522235595759 88.63057307382077 0.9999999999999999
    vertex 110.73535646874242 89.63302544609802 0.9999999999999999
  endloop
endfacet
facet normal 0.0 0.0 1.0
  outer loop
    vertex 109.24753085697398 94.79373877083314 0.9999999999999999
    vertex 110.73535646874242 89.63302544609802 0.9999999999999999
    vertex 110.04075266743362 95.82748556051514 0.9999999999999999
  endloop
endfacet
facet normal 0.0 0.0 1.0
  outer loop
    vertex 110.04075266743362 95.82748556051514 0.9999999999999999
    vertex 110.73535646874242 89.63302544609802 0.9999999999999999
    vertex 110.53939274314905 97.03130919405005 0.9999999999999999
  endloop
endfacet
facet normal 0.0 0.0 1.0
  outer loop
    vertex 110.53939274314905 97.03130919405005 0.9999999999999999
    vertex 110.73535646874242 89.63302544609802 0.9999999999999999
    vertex 110.70946958700195 98.32317108022507 0.9999999999999999
  endloop
endfacet
facet normal 0.0 0.0 1.0
  outer loop
    vertex 110.70946958700195 98.32317108022507 0.9999999999999999
    vertex 110.73535646874242 89.63302544609802 0.9999999999999999
    vertex 110.73535646874235 107.01331671435214 0.9999999999999999
  endloop
endfacet
facet normal 0.0 0.0 1.0
  outer loop
    vertex 110.73535646874235 107.01331671435214 0.9999999999999999
    vertex 110.73535646874242 89.63302544609802 0.9999999999999999
    vertex 112.81357274561084 105.4186452782538 0.9999999999999999
  endloop
endfacet
facet normal 0.0 0.0 1.0
  outer loop
    vertex 112.81357274561084 105.4186452782538 0.9999999999999999
    vertex 110.73535646874242 89.63302544609802 0.9999999999999999
    vertex 112.8135727456108 91.22769688219628 0.9999999999999999
  endloop
endfacet
facet normal 0.0 0.0 1.0
  outer loop
    vertex 112.81357274561084 105.4186452782538 0.9999999999999999
    vertex 112.8135727456108 91.22769688219628 0.9999999999999999
    vertex 114.40824418170911 93.30591315906474 0.9999999999999999
  endloop
endfacet
facet normal 0.0 0.0 1.0
  outer loop
    vertex 112.81357274561084 105.4186452782538 0.9999999999999999
    vertex 114.40824418170911 93.30591315906474 0.9999999999999999
    vertex 114.40824418170914 103.34042900138533 0.9999999999999999
  endloop
endfacet
facet normal 0.0 0.0 1.0
  outer loop
    vertex 114.40824418170914 103.34042900138533 0.9999999999999999
    vertex 114.40824418170911 93.30591315906474 0.9999999999999999
    vertex 115.41069655398637 95.72604727184951 0.9999999999999999
  endloop
endfacet
facet normal 0.0 0.0 1.0
  outer loop
    vertex 114.40824418170914 103.34042900138533 0.9999999999999999
    vertex 115.41069655398637 95.72604727184951 0.9999999999999999
    vertex 115.41069655398637 100.92029488860062 0.9999999999999999
  endloop
endfacet
facet normal 0.0 0.0 1.0
  outer loop
    vertex 115.41069655398637 100.92029488860062 0.9999999999999999
    vertex 115.41069655398637 95.72604727184951 0.9999999999999999
    vertex 115.7526143899027 98.32317108022507 0.9999999999999999
  endloop
endfacet
facet normal 0.0 0.0 1.0
  outer loop
    vertex 100.70084062642178 107.01331671435211 0.9999999999999999
    vertex 100.89680435201514 99.61503296640008 0.9999999999999999
    vertex 103.12097473920659 108.01576908662933 0.9999999999999999
  endloop
endfacet
facet normal 0.0 0.0 1.0
  outer loop
    vertex 100.89680435201514 99.61503296640008 0.9999999999999999
    vertex 100.70084062642178 107.01331671435211 0.9999999999999999
    vertex 100.72672750816223 98.32317108022505 0.9999999999999999
  endloop
endfacet
facet normal 0.0 0.0 1.0
  outer loop
    vertex 103.12097473920659 108.01576908662933 0.9999999999999999
    vertex 100.89680435201514 99.61503296640008 0.9999999999999999
    vertex 101.39544442773055 100.81885659993496 0.9999999999999999
  endloop
endfacet
facet normal 0.0 0.0 1.0
  outer loop
    vertex 103.12097473920659 108.01576908662933 0.9999999999999999
    vertex 101.39544442773055 100.81885659993496 0.9999999999999999
    vertex 102.1886662381902 101.85260338961699 0.9999999999999999
  endloop
endfacet
facet normal 0.0 0.0 1.0
  outer loop
    vertex 103.12097473920659 108.01576908662933 0.9999999999999999
    vertex 102.1886662381902 101.85260338961699 0.9999999999999999
    vertex 103.22241302787214 102.64582520007656 0.9999999999999999
  endloop
endfacet
facet normal 0.0 0.0 1.0
  outer loop
    vertex 103.12097473920659 108.01576908662933 0.9999999999999999
    vertex 103.22241302787214 102.64582520007656 0.9999999999999999
    vertex 105.71809854758209 108.35768692254567 0.9999999999999999
  endloop
endfacet
facet normal 0.0 0.0 1.0
  outer loop
    vertex 105.71809854758209 108.35768692254567 0.9999999999999999
    vertex 103.22241302787214 102.64582520007656 0.9999999999999999
    vertex 104.42623666140713 103.144465275792 0.9999999999999999
  endloop
endfacet
facet normal 0.0 0.0 1.0
  outer loop
    vertex 105.71809854758209 108.35768692254567 0.9999999999999999
    vertex 104.42623666140713 103.144465275792 0.9999999999999999
    vertex 105.71809854758209 103.31454211964491 0.9999999999999999
  endloop
endfacet
facet normal 0.0 0.0 1.0
  outer loop
    vertex 105.71809854758209 108.35768692254567 0.9999999999999999
    vertex 105.71809854758209 103.31454211964491 0.9999999999999999
    vertex 107.0099604337571 103.144465275792 0.9999999999999999
  endloop
endfacet
facet normal 0.0 0.0 1.0
  outer loop
    vertex 105.71809854758209 108.35768692254567 0.9999999999999999
    vertex 107.0099604337571 103.144465275792 0.9999999999999999
    vertex 108.31522235595766 108.01576908662933 0.9999999999999999
  endloop
endfacet
facet normal 0.0 0.0 1.0
  outer loop
    vertex 108.31522235595766 108.01576908662933 0.9999999999999999
    vertex 107.0099604337571 103.144465275792 0.9999999999999999
    vertex 108.21378406729201 102.64582520007659 0.9999999999999999
  endloop
endfacet
facet normal 0.0 0.0 1.0
  outer loop
    vertex 108.31522235595766 108.01576908662933 0.9999999999999999
    vertex 108.21378406729201 102.64582520007659 0.9999999999999999
    vertex 109.24753085697398 101.85260338961702 0.9999999999999999
  endloop
endfacet
facet normal 0.0 0.0 1.0
  outer loop
    vertex 108.31522235595766 108.01576908662933 0.9999999999999999
    vertex 109.24753085697398 101.85260338961702 0.9999999999999999
    vertex 110.73535646874235 107.01331671435214 0.9999999999999999
  endloop
endfacet
facet normal 0.0 0.0 1.0
  outer loop
    vertex 110.73535646874235 107.01331671435214 0.9999999999999999
    vertex 109.24753085697398 101.85260338961702 0.9999999999999999
    vertex 110.04075266743362 100.81885659993492 0.9999999999999999
  endloop
endfacet
facet normal 0.0 0.0 1.0
  outer loop
    vertex 110.73535646874235 107.01331671435214 0.9999999999999999
    vertex 110.04075266743362 100.81885659993492 0.9999999999999999
    vertex 110.53939274314905 99.61503296640007 0.9999999999999999
  endloop
endfacet
facet normal 0.0 0.0 1.0
  outer loop
    vertex 110.73535646874235 107.01331671435214 0.9999999999999999
    vertex 110.53939274314905 99.61503296640007 0.9999999999999999
    vertex 110.70946958700195 98.32317108022507 0.9999999999999999
  endloop
endfacet
facet normal 0.13052619222005496 0.99144486137381 0.0
  outer loop
    vertex 105.71809854758209 108.35768692254567 0.9999999999999999
    vertex 108.31522235595766 108.01576908662933 0.0
    vertex 105.71809854758209 108.35768692254567 0.0
  endloop
endfacet
facet normal 0.13052619222005496 0.99144486137381 0.0
  outer loop
    vertex 108.31522235595766 108.01576908662933 0.0
    vertex 105.71809854758209 108.35768692254567 0.9999999999999999
    vertex 108.31522235595766 108.01576908662933 0.9999999999999999
  endloop
endfacet
facet normal 0.6087614290087231 -0.7933533402912334 0.0
  outer loop
    vertex 112.8135727456108 91.22769688219628 0.9999999999999999
    vertex 110.73535646874242 89.63302544609802 0.0
    vertex 112.8135727456108 91.22769688219628 0.0
  endloop
endfacet
facet normal 0.6087614290087231 -0.7933533402912334 0.0
  outer loop
    vertex 110.73535646874242 89.63302544609802 0.0
    vertex 112.8135727456108 91.22769688219628 0.9999999999999999
    vertex 110.73535646874242 89.63302544609802 0.9999999999999999
  endloop
endfacet
facet normal 0.13052619222005096 -0.9914448613738106 0.0
  outer loop
    vertex 108.31522235595759 88.63057307382077 0.9999999999999999
    vertex 105.7180985475821 88.28865523790445 0.0
    vertex 108.31522235595759 88.63057307382077 0.0
  endloop
endfacet
facet normal 0.13052619222005096 -0.9914448613738106 0.0
  outer loop
    vertex 105.7180985475821 88.28865523790445 0.0
    vertex 108.31522235595759 88.63057307382077 0.9999999999999999
    vertex 105.7180985475821 88.28865523790445 0.9999999999999999
  endloop
endfacet
facet normal -0.6087614290087215 0.7933533402912346 0.0
  outer loop
    vertex 98.62262434955333 105.4186452782538 0.9999999999999999
    vertex 100.70084062642178 107.01331671435211 0.0
    vertex 98.62262434955333 105.4186452782538 0.0
  endloop
endfacet
facet normal -0.6087614290087215 0.7933533402912346 0.0
  outer loop
    vertex 100.70084062642178 107.01331671435211 0.0
    vertex 98.62262434955333 105.4186452782538 0.9999999999999999
    vertex 100.70084062642178 107.01331671435211 0.9999999999999999
  endloop
endfacet
facet normal -0.1305261922200583 0.9914448613738096 0.0
  outer loop
    vertex 103.12097473920659 108.01576908662933 0.9999999999999999
    vertex 105.71809854758209 108.35768692254567 0.0
    vertex 103.12097473920659 108.01576908662933 0.0
  endloop
endfacet
facet normal -0.1305261922200583 0.9914448613738096 0.0
  outer loop
    vertex 105.71809854758209 108.35768692254567 0.0
    vertex 103.12097473920659 108.01576908662933 0.9999999999999999
    vertex 105.71809854758209 108.35768692254567 0.9999999999999999
  endloop
endfacet
facet normal -0.9238795325112881 0.38268343236508695 0.0
  outer loop
    vertex 97.02795291345505 103.3404290013854 0.9999999999999999
    vertex 96.0255005411778 100.92029488860058 0.0
    vertex 96.0255005411778 100.92029488860058 0.9999999999999999
  endloop
endfacet
facet normal -0.9238795325112881 0.38268343236508695 0.0
  outer loop
    vertex 96.0255005411778 100.92029488860058 0.0
    vertex 97.02795291345505 103.3404290013854 0.9999999999999999
    vertex 97.02795291345505 103.3404290013854 0.0
  endloop
endfacet
facet normal 0.38268343236508534 0.9238795325112887 0.0
  outer loop
    vertex 108.31522235595766 108.01576908662933 0.9999999999999999
    vertex 110.73535646874235 107.01331671435214 0.0
    vertex 108.31522235595766 108.01576908662933 0.0
  endloop
endfacet
facet normal 0.38268343236508534 0.9238795325112887 0.0
  outer loop
    vertex 110.73535646874235 107.01331671435214 0.0
    vertex 108.31522235595766 108.01576908662933 0.9999999999999999
    vertex 110.73535646874235 107.01331671435214 0.9999999999999999
  endloop
endfacet
facet normal -0.38268343236508995 -0.9238795325112866 -0.0
  outer loop
    vertex 103.12097473920656 88.63057307382078 0.9999999999999999
    vertex 100.70084062642177 89.63302544609802 0.0
    vertex 103.12097473920656 88.63057307382078 0.0
  endloop
endfacet
facet normal -0.38268343236508995 -0.9238795325112866 -0.0
  outer loop
    vertex 100.70084062642177 89.63302544609802 0.0
    vertex 103.12097473920656 88.63057307382078 0.9999999999999999
    vertex 100.70084062642177 89.63302544609802 0.9999999999999999
  endloop
endfacet
facet normal -0.9914448613738105 -0.13052619222005185 -0.0
  outer loop
    vertex 95.68358270526147 98.32317108022505 0.9999999999999999
    vertex 96.0255005411778 95.7260472718495 0.0
    vertex 96.0255005411778 95.7260472718495 0.9999999999999999
  endloop
endfacet
facet normal -0.9914448613738105 -0.13052619222005185 -0.0
  outer loop
    vertex 96.0255005411778 95.7260472718495 0.0
    vertex 95.68358270526147 98.32317108022505 0.9999999999999999
    vertex 95.68358270526147 98.32317108022505 0.0
  endloop
endfacet
facet normal -0.7933533402912324 0.6087614290087244 0.0
  outer loop
    vertex 98.62262434955333 105.4186452782538 0.9999999999999999
    vertex 97.02795291345505 103.3404290013854 0.0
    vertex 97.02795291345505 103.3404290013854 0.9999999999999999
  endloop
endfacet
facet normal -0.7933533402912324 0.6087614290087244 0.0
  outer loop
    vertex 97.02795291345505 103.3404290013854 0.0
    vertex 98.62262434955333 105.4186452782538 0.9999999999999999
    vertex 98.62262434955333 105.4186452782538 0.0
  endloop
endfacet
facet normal 0.6087614290087185 0.7933533402912367 0.0
  outer loop
    vertex 110.73535646874235 107.01331671435214 0.9999999999999999
    vertex 112.81357274561084 105.4186452782538 0.0
    vertex 110.73535646874235 107.01331671435214 0.0
  endloop
endfacet
facet normal 0.6087614290087185 0.7933533402912367 0.0
  outer loop
    vertex 112.81357274561084 105.4186452782538 0.0
    vertex 110.73535646874235 107.01331671435214 0.9999999999999999
    vertex 112.81357274561084 105.4186452782538 0.9999999999999999
  endloop
endfacet
facet normal 0.7933533402912362 -0.6087614290087194 0.0
  outer loop
    vertex 114.40824418170911 93.30591315906474 0.0
    vertex 112.8135727456108 91.22769688219628 0.9999999999999999
    vertex 112.8135727456108 91.22769688219628 0.0
  endloop
endfacet
facet normal 0.7933533402912362 -0.6087614290087194 0.0
  outer loop
    vertex 112.8135727456108 91.22769688219628 0.9999999999999999
    vertex 114.40824418170911 93.30591315906474 0.0
    vertex 114.40824418170911 93.30591315906474 0.9999999999999999
  endloop
endfacet
facet normal -0.6087614290087201 -0.7933533402912355 -0.0
  outer loop
    vertex 100.70084062642177 89.63302544609802 0.9999999999999999
    vertex 98.62262434955333 91.22769688219631 0.0
    vertex 100.70084062642177 89.63302544609802 0.0
  endloop
endfacet
facet normal -0.6087614290087201 -0.7933533402912355 -0.0
  outer loop
    vertex 98.62262434955333 91.22769688219631 0.0
    vertex 100.70084062642177 89.63302544609802 0.9999999999999999
    vertex 98.62262434955333 91.22769688219631 0.9999999999999999
  endloop
endfacet
facet normal 0.38268343236508906 -0.9238795325112871 0.0
  outer loop
    vertex 110.73535646874242 89.63302544609802 0.9999999999999999
    vertex 108.31522235595759 88.63057307382077 0.0
    vertex 110.73535646874242 89.63302544609802 0.0
  endloop
endfacet
facet normal 0.38268343236508906 -0.9238795325112871 0.0
  outer loop
    vertex 108.31522235595759 88.63057307382077 0.0
    vertex 110.73535646874242 89.63302544609802 0.9999999999999999
    vertex 108.31522235595759 88.63057307382077 0.9999999999999999
  endloop
endfacet
facet normal -0.9238795325112874 -0.38268343236508806 -0.0
  outer loop
    vertex 96.0255005411778 95.7260472718495 0.9999999999999999
    vertex 97.02795291345501 93.30591315906477 0.0
    vertex 97.02795291345501 93.30591315906477 0.9999999999999999
  endloop
endfacet
facet normal -0.9238795325112874 -0.38268343236508806 -0.0
  outer loop
    vertex 97.02795291345501 93.30591315906477 0.0
    vertex 96.0255005411778 95.7260472718495 0.9999999999999999
    vertex 96.0255005411778 95.7260472718495 0.0
  endloop
endfacet
facet normal -0.9914448613738104 0.1305261922200524 0.0
  outer loop
    vertex 96.0255005411778 100.92029488860058 0.9999999999999999
    vertex 95.68358270526147 98.32317108022505 0.0
    vertex 95.68358270526147 98.32317108022505 0.9999999999999999
  endloop
endfacet
facet normal -0.9914448613738104 0.1305261922200524 0.0
  outer loop
    vertex 95.68358270526147 98.32317108022505 0.0
    vertex 96.0255005411778 100.92029488860058 0.9999999999999999
    vertex 96.0255005411778 100.92029488860058 0.0
  endloop
endfacet
facet normal -0.7933533402912342 -0.6087614290087221 -0.0
  outer loop
    vertex 97.02795291345501 93.30591315906477 0.9999999999999999
    vertex 98.62262434955333 91.22769688219631 0.0
    vertex 98.62262434955333 91.22769688219631 0.9999999999999999
  endloop
endfacet
facet normal -0.7933533402912342 -0.6087614290087221 -0.0
  outer loop
    vertex 98.62262434955333 91.22769688219631 0.0
    vertex 97.02795291345501 93.30591315906477 0.9999999999999999
    vertex 97.02795291345501 93.30591315906477 0.0
  endloop
endfacet
facet normal -0.3826834323650789 0.9238795325112913 0.0
  outer loop
    vertex 100.70084062642178 107.01331671435211 0.9999999999999999
    vertex 103.12097473920659 108.01576908662933 0.0
    vertex 100.70084062642178 107.01331671435211 0.0
  endloop
endfacet
facet normal -0.3826834323650789 0.9238795325112913 0.0
  outer loop
    vertex 103.12097473920659 108.01576908662933 0.0
    vertex 100.70084062642178 107.01331671435211 0.9999999999999999
    vertex 103.12097473920659 108.01576908662933 0.9999999999999999
  endloop
endfacet
facet normal 0.7933533402912419 0.6087614290087119 0.0
  outer loop
    vertex 112.81357274561084 105.4186452782538 0.0
    vertex 114.40824418170914 103.34042900138533 0.9999999999999999
    vertex 114.40824418170914 103.34042900138533 0.0
  endloop
endfacet
facet normal 0.7933533402912419 0.6087614290087119 0.0
  outer loop
    vertex 114.40824418170914 103.34042900138533 0.9999999999999999
    vertex 112.81357274561084 105.4186452782538 0.0
    vertex 112.81357274561084 105.4186452782538 0.9999999999999999
  endloop
endfacet
endsolid TMP36 Mount
