solid MIC mount
facet normal -1.0 0.0 0.0
  outer loop
    vertex 97.06138762810755 80.59902626684594 3.9999999999999996
    vertex 97.06138762810755 76.59902626684593 1.5
    vertex 97.06138762810755 76.59902626684593 3.9999999999999996
  endloop
endfacet
facet normal -1.0 0.0 0.0
  outer loop
    vertex 97.06138762810755 76.59902626684593 1.5
    vertex 97.06138762810755 69.59902626684594 0.9999999999999999
    vertex 97.06138762810755 69.59902626684594 1.5
  endloop
endfacet
facet normal -1.0 0.0 0.0
  outer loop
    vertex 97.06138762810755 69.59902626684594 0.9999999999999999
    vertex 97.06138762810755 76.59902626684593 1.5
    vertex 97.06138762810755 87.09902626684594 0.9999999999999999
  endloop
endfacet
facet normal -1.0 0.0 0.0
  outer loop
    vertex 97.06138762810755 87.09902626684594 0.9999999999999999
    vertex 97.06138762810755 76.59902626684593 1.5
    vertex 97.06138762810755 80.59902626684594 1.5
  endloop
endfacet
facet normal -1.0 0.0 0.0
  outer loop
    vertex 97.06138762810755 80.59902626684594 1.5
    vertex 97.06138762810755 76.59902626684593 1.5
    vertex 97.06138762810755 80.59902626684594 3.9999999999999996
  endloop
endfacet
facet normal -1.0 0.0 0.0
  outer loop
    vertex 97.06138762810755 87.09902626684594 0.9999999999999999
    vertex 97.06138762810755 80.59902626684594 1.5
    vertex 97.06138762810755 87.09902626684594 1.5
  endloop
endfacet
facet normal 0.0 -1.0 0.0
  outer loop
    vertex 80.06138762810755 86.09902626684594 4.499999999999999
    vertex 76.06138762810755 86.09902626684594 3.5
    vertex 80.06138762810755 86.09902626684594 3.5
  endloop
endfacet
facet normal 0.0 -1.0 0.0
  outer loop
    vertex 76.06138762810755 86.09902626684594 3.5
    vertex 80.06138762810755 86.09902626684594 4.499999999999999
    vertex 76.06138762810755 86.09902626684594 4.499999999999999
  endloop
endfacet
facet normal 0.0 0.0 -1.0
  outer loop
    vertex 97.06138762810755 87.09902626684594 3.5
    vertex 93.06138762810754 86.09902626684594 3.5
    vertex 93.06138762810754 87.09902626684594 3.5
  endloop
endfacet
facet normal 0.0 0.0 -1.0
  outer loop
    vertex 93.06138762810754 86.09902626684594 3.5
    vertex 97.06138762810755 87.09902626684594 3.5
    vertex 97.06138762810755 86.09902626684594 3.5
  endloop
endfacet
facet normal -1.0 0.0 0.0
  outer loop
    vertex 70.06138762810755 92.59902626684594 1.5
    vertex 70.06138762810755 64.59902626684594 0.0
    vertex 70.06138762810755 64.59902626684594 1.5
  endloop
endfacet
facet normal -1.0 0.0 0.0
  outer loop
    vertex 70.06138762810755 64.59902626684594 0.0
    vertex 70.06138762810755 92.59902626684594 1.5
    vertex 70.06138762810755 92.59902626684594 0.0
  endloop
endfacet
facet normal -2.2212659062530813e-15 1.0 2.6724605434607765e-15
  outer loop
    vertex 73.81138762810752 80.59902626684593 3.9999999999999996
    vertex 75.06138762810755 80.59902626684594 1.5
    vertex 72.87388762810751 80.59902626684594 1.4999999999999998
  endloop
endfacet
facet normal -2.2212659062530813e-15 1.0 2.6724605434607765e-15
  outer loop
    vertex 75.06138762810755 80.59902626684594 1.5
    vertex 73.81138762810752 80.59902626684593 3.9999999999999996
    vertex 75.06138762810755 80.59902626684594 3.9999999999999996
  endloop
endfacet
facet normal 1.0 0.0 0.0
  outer loop
    vertex 97.06138762810755 89.84902626684591 1.499999999999997
    vertex 97.06138762810755 87.09902626684594 3.5
    vertex 97.06138762810755 87.09902626684594 1.5
  endloop
endfacet
facet normal 1.0 0.0 0.0
  outer loop
    vertex 97.06138762810755 87.09902626684594 3.5
    vertex 97.06138762810755 89.84902626684591 1.499999999999997
    vertex 97.06138762810755 88.59902626684593 4.499999999999998
  endloop
endfacet
facet normal 1.0 0.0 0.0
  outer loop
    vertex 97.06138762810755 87.09902626684594 3.5
    vertex 97.06138762810755 86.09902626684594 4.499999999999999
    vertex 97.06138762810755 86.09902626684594 3.5
  endloop
endfacet
facet normal 1.0 0.0 0.0
  outer loop
    vertex 97.06138762810755 86.09902626684594 4.499999999999999
    vertex 97.06138762810755 87.09902626684594 3.5
    vertex 97.06138762810755 88.59902626684593 4.499999999999998
  endloop
endfacet
facet normal 0.0 -1.0 0.0
  outer loop
    vertex 75.06138762810755 76.59902626684593 1.5
    vertex 73.81138762810752 76.59902626684593 3.9999999999999996
    vertex 72.87388762810751 76.59902626684593 1.4999999999999998
  endloop
endfacet
facet normal 0.0 -1.0 0.0
  outer loop
    vertex 73.81138762810752 76.59902626684593 3.9999999999999996
    vertex 75.06138762810755 76.59902626684593 1.5
    vertex 75.06138762810755 76.59902626684593 3.9999999999999996
  endloop
endfacet
facet normal 1.0 0.0 0.0
  outer loop
    vertex 80.06138762810755 89.84902626684594 1.5
    vertex 80.06138762810755 87.09902626684594 3.5
    vertex 80.06138762810755 87.09902626684594 1.5
  endloop
endfacet
facet normal 1.0 0.0 0.0
  outer loop
    vertex 80.06138762810755 87.09902626684594 3.5
    vertex 80.06138762810755 89.84902626684594 1.5
    vertex 80.06138762810755 88.59902626684594 4.499999999999999
  endloop
endfacet
facet normal 1.0 0.0 0.0
  outer loop
    vertex 80.06138762810755 87.09902626684594 3.5
    vertex 80.06138762810755 86.09902626684594 4.499999999999999
    vertex 80.06138762810755 86.09902626684594 3.5
  endloop
endfacet
facet normal 1.0 0.0 0.0
  outer loop
    vertex 80.06138762810755 86.09902626684594 4.499999999999999
    vertex 80.06138762810755 87.09902626684594 3.5
    vertex 80.06138762810755 88.59902626684594 4.499999999999999
  endloop
endfacet
facet normal 1.0 0.0 0.0
  outer loop
    vertex 75.06138762810755 87.09902626684594 0.9999999999999999
    vertex 75.06138762810755 69.59902626684594 1.5
    vertex 75.06138762810755 69.59902626684594 0.9999999999999999
  endloop
endfacet
facet normal 1.0 0.0 0.0
  outer loop
    vertex 75.06138762810755 69.59902626684594 1.5
    vertex 75.06138762810755 87.09902626684594 0.9999999999999999
    vertex 75.06138762810755 76.59902626684593 1.5
  endloop
endfacet
facet normal 1.0 0.0 0.0
  outer loop
    vertex 75.06138762810755 76.59902626684593 1.5
    vertex 75.06138762810755 87.09902626684594 0.9999999999999999
    vertex 75.06138762810755 80.59902626684594 1.5
  endloop
endfacet
facet normal 1.0 0.0 0.0
  outer loop
    vertex 75.06138762810755 76.59902626684593 1.5
    vertex 75.06138762810755 80.59902626684594 1.5
    vertex 75.06138762810755 76.59902626684593 3.9999999999999996
  endloop
endfacet
facet normal 1.0 0.0 0.0
  outer loop
    vertex 75.06138762810755 80.59902626684594 1.5
    vertex 75.06138762810755 87.09902626684594 0.9999999999999999
    vertex 75.06138762810755 87.09902626684594 1.5
  endloop
endfacet
facet normal 1.0 0.0 0.0
  outer loop
    vertex 75.06138762810755 80.59902626684594 3.9999999999999996
    vertex 75.06138762810755 76.59902626684593 3.9999999999999996
    vertex 75.06138762810755 80.59902626684594 1.5
  endloop
endfacet
facet normal 1.0 0.0 0.0
  outer loop
    vertex 103.06138762810754 92.59902626684594 0.0
    vertex 103.06138762810754 64.59902626684594 1.5
    vertex 103.06138762810754 64.59902626684594 0.0
  endloop
endfacet
facet normal 1.0 0.0 0.0
  outer loop
    vertex 103.06138762810754 64.59902626684594 1.5
    vertex 103.06138762810754 92.59902626684594 0.0
    vertex 103.06138762810754 92.59902626684594 1.5
  endloop
endfacet
facet normal 0.0 -1.0 0.0
  outer loop
    vertex 97.06138762810755 86.09902626684594 4.499999999999999
    vertex 93.06138762810754 86.09902626684594 3.5
    vertex 97.06138762810755 86.09902626684594 3.5
  endloop
endfacet
facet normal 0.0 -1.0 0.0
  outer loop
    vertex 93.06138762810754 86.09902626684594 3.5
    vertex 97.06138762810755 86.09902626684594 4.499999999999999
    vertex 93.06138762810754 86.09902626684594 4.499999999999999
  endloop
endfacet
facet normal 0.0 -1.0 0.0
  outer loop
    vertex 97.06138762810755 87.09902626684594 3.5
    vertex 93.06138762810754 87.09902626684594 1.5
    vertex 97.06138762810755 87.09902626684594 1.5
  endloop
endfacet
facet normal 0.0 -1.0 0.0
  outer loop
    vertex 93.06138762810754 87.09902626684594 1.5
    vertex 97.06138762810755 87.09902626684594 3.5
    vertex 93.06138762810754 87.09902626684594 3.5
  endloop
endfacet
facet normal 0.0 -1.0 0.0
  outer loop
    vertex 80.06138762810755 87.09902626684594 3.5
    vertex 76.06138762810755 87.09902626684594 1.5
    vertex 80.06138762810755 87.09902626684594 1.5
  endloop
endfacet
facet normal 0.0 -1.0 0.0
  outer loop
    vertex 76.06138762810755 87.09902626684594 1.5
    vertex 80.06138762810755 87.09902626684594 3.5
    vertex 76.06138762810755 87.09902626684594 3.5
  endloop
endfacet
facet normal 0.0 -1.0 0.0
  outer loop
    vertex 97.06138762810755 87.09902626684594 1.5
    vertex 75.06138762810755 87.09902626684594 0.9999999999999999
    vertex 97.06138762810755 87.09902626684594 0.9999999999999999
  endloop
endfacet
facet normal 0.0 -1.0 0.0
  outer loop
    vertex 75.06138762810755 87.09902626684594 0.9999999999999999
    vertex 97.06138762810755 87.09902626684594 1.5
    vertex 75.06138762810755 87.09902626684594 1.5
  endloop
endfacet
facet normal 0.0 -1.0 0.0
  outer loop
    vertex 75.06138762810755 87.09902626684594 1.5
    vertex 97.06138762810755 87.09902626684594 1.5
    vertex 93.06138762810754 87.09902626684594 1.5
  endloop
endfacet
facet normal 0.0 -1.0 0.0
  outer loop
    vertex 75.06138762810755 87.09902626684594 1.5
    vertex 93.06138762810754 87.09902626684594 1.5
    vertex 80.06138762810755 87.09902626684594 1.5
  endloop
endfacet
facet normal 0.0 -1.0 0.0
  outer loop
    vertex 75.06138762810755 87.09902626684594 1.5
    vertex 80.06138762810755 87.09902626684594 1.5
    vertex 76.06138762810755 87.09902626684594 1.5
  endloop
endfacet
facet normal 0.0 1.0 0.0
  outer loop
    vertex 70.06138762810755 92.59902626684594 1.5
    vertex 103.06138762810754 92.59902626684594 0.0
    vertex 70.06138762810755 92.59902626684594 0.0
  endloop
endfacet
facet normal 0.0 1.0 0.0
  outer loop
    vertex 103.06138762810754 92.59902626684594 0.0
    vertex 70.06138762810755 92.59902626684594 1.5
    vertex 103.06138762810754 92.59902626684594 1.5
  endloop
endfacet
facet normal 0.0 0.0 -1.0
  outer loop
    vertex 80.06138762810755 87.09902626684594 3.5
    vertex 76.06138762810755 86.09902626684594 3.5
    vertex 76.06138762810755 87.09902626684594 3.5
  endloop
endfacet
facet normal 0.0 0.0 -1.0
  outer loop
    vertex 76.06138762810755 86.09902626684594 3.5
    vertex 80.06138762810755 87.09902626684594 3.5
    vertex 80.06138762810755 86.09902626684594 3.5
  endloop
endfacet
facet normal 1.762479051592439e-16 3.524958103184878e-16 1.0
  outer loop
    vertex 97.06138762810755 86.09902626684594 4.499999999999999
    vertex 93.06138762810754 88.59902626684594 4.499999999999999
    vertex 93.06138762810754 86.09902626684594 4.499999999999999
  endloop
endfacet
facet normal 1.762479051592439e-16 3.524958103184878e-16 1.0
  outer loop
    vertex 93.06138762810754 88.59902626684594 4.499999999999999
    vertex 97.06138762810755 86.09902626684594 4.499999999999999
    vertex 97.06138762810755 88.59902626684593 4.499999999999998
  endloop
endfacet
facet normal 0.0 0.0 1.0
  outer loop
    vertex 80.06138762810755 86.09902626684594 4.499999999999999
    vertex 76.06138762810755 88.59902626684594 4.499999999999999
    vertex 76.06138762810755 86.09902626684594 4.499999999999999
  endloop
endfacet
facet normal 0.0 0.0 1.0
  outer loop
    vertex 76.06138762810755 88.59902626684594 4.499999999999999
    vertex 80.06138762810755 86.09902626684594 4.499999999999999
    vertex 80.06138762810755 88.59902626684594 4.499999999999999
  endloop
endfacet
facet normal -1.0 0.0 0.0
  outer loop
    vertex 93.06138762810754 88.59902626684594 4.499999999999999
    vertex 93.06138762810754 86.09902626684594 3.5
    vertex 93.06138762810754 86.09902626684594 4.499999999999999
  endloop
endfacet
facet normal -1.0 0.0 0.0
  outer loop
    vertex 93.06138762810754 86.09902626684594 3.5
    vertex 93.06138762810754 88.59902626684594 4.499999999999999
    vertex 93.06138762810754 87.09902626684594 3.5
  endloop
endfacet
facet normal -1.0 0.0 0.0
  outer loop
    vertex 93.06138762810754 87.09902626684594 3.5
    vertex 93.06138762810754 88.59902626684594 4.499999999999999
    vertex 93.06138762810754 87.09902626684594 1.5
  endloop
endfacet
facet normal -1.0 0.0 0.0
  outer loop
    vertex 93.06138762810754 87.09902626684594 1.5
    vertex 93.06138762810754 88.59902626684594 4.499999999999999
    vertex 93.06138762810754 89.84902626684594 1.5
  endloop
endfacet
facet normal 0.0 0.0 1.0
  outer loop
    vertex 75.06138762810755 76.59902626684593 3.9999999999999996
    vertex 73.81138762810752 80.59902626684593 3.9999999999999996
    vertex 73.81138762810752 76.59902626684593 3.9999999999999996
  endloop
endfacet
facet normal 0.0 0.0 1.0
  outer loop
    vertex 73.81138762810752 80.59902626684593 3.9999999999999996
    vertex 75.06138762810755 76.59902626684593 3.9999999999999996
    vertex 75.06138762810755 80.59902626684594 3.9999999999999996
  endloop
endfacet
facet normal -0.936329177569043 2.0467098752897928e-18 0.3511234415883957
  outer loop
    vertex 73.81138762810752 80.59902626684593 3.9999999999999996
    vertex 72.87388762810751 76.59902626684593 1.4999999999999998
    vertex 73.81138762810752 76.59902626684593 3.9999999999999996
  endloop
endfacet
facet normal -0.936329177569043 2.0467098752897928e-18 0.3511234415883957
  outer loop
    vertex 72.87388762810751 76.59902626684593 1.4999999999999998
    vertex 73.81138762810752 80.59902626684593 3.9999999999999996
    vertex 72.87388762810751 80.59902626684594 1.4999999999999998
  endloop
endfacet
facet normal 5.434451633359632e-15 0.9230769230769234 0.38461538461538397
  outer loop
    vertex 93.06138762810754 89.84902626684594 1.5
    vertex 97.06138762810755 88.59902626684593 4.499999999999998
    vertex 97.06138762810755 89.84902626684591 1.499999999999997
  endloop
endfacet
facet normal 5.434451633359632e-15 0.9230769230769234 0.38461538461538397
  outer loop
    vertex 97.06138762810755 88.59902626684593 4.499999999999998
    vertex 93.06138762810754 89.84902626684594 1.5
    vertex 93.06138762810754 88.59902626684594 4.499999999999999
  endloop
endfacet
facet normal -1.0 0.0 0.0
  outer loop
    vertex 76.06138762810755 88.59902626684594 4.499999999999999
    vertex 76.06138762810755 86.09902626684594 3.5
    vertex 76.06138762810755 86.09902626684594 4.499999999999999
  endloop
endfacet
facet normal -1.0 0.0 0.0
  outer loop
    vertex 76.06138762810755 86.09902626684594 3.5
    vertex 76.06138762810755 88.59902626684594 4.499999999999999
    vertex 76.06138762810755 87.09902626684594 3.5
  endloop
endfacet
facet normal -1.0 0.0 0.0
  outer loop
    vertex 76.06138762810755 87.09902626684594 3.5
    vertex 76.06138762810755 88.59902626684594 4.499999999999999
    vertex 76.06138762810755 87.09902626684594 1.5
  endloop
endfacet
facet normal -1.0 0.0 0.0
  outer loop
    vertex 76.06138762810755 87.09902626684594 1.5
    vertex 76.06138762810755 88.59902626684594 4.499999999999999
    vertex 76.06138762810755 89.84902626684594 1.5
  endloop
endfacet
facet normal 7.149343509729295e-30 0.9230769230769234 0.384615384615384
  outer loop
    vertex 76.06138762810755 88.59902626684594 4.499999999999999
    vertex 80.06138762810755 89.84902626684594 1.5
    vertex 76.06138762810755 89.84902626684594 1.5
  endloop
endfacet
facet normal 7.149343509729295e-30 0.9230769230769234 0.384615384615384
  outer loop
    vertex 80.06138762810755 89.84902626684594 1.5
    vertex 76.06138762810755 88.59902626684594 4.499999999999999
    vertex 80.06138762810755 88.59902626684594 4.499999999999999
  endloop
endfacet
facet normal 0.0 0.0 -1.0
  outer loop
    vertex 70.06138762810755 92.59902626684594 0.0
    vertex 86.85060242601341 82.30981146894013 0.0
    vertex 70.06138762810755 64.59902626684594 0.0
  endloop
endfacet
facet normal 0.0 0.0 -1.0
  outer loop
    vertex 86.85060242601341 82.30981146894013 0.0
    vertex 70.06138762810755 92.59902626684594 0.0
    vertex 87.93746624818006 83.14379141194657 0.0
  endloop
endfacet
facet normal 0.0 0.0 -1.0
  outer loop
    vertex 87.93746624818006 83.14379141194657 0.0
    vertex 70.06138762810755 92.59902626684594 0.0
    vertex 103.06138762810754 92.59902626684594 0.0
  endloop
endfacet
facet normal 0.0 0.0 -1.0
  outer loop
    vertex 70.06138762810755 64.59902626684594 0.0
    vertex 86.85060242601341 82.30981146894013 0.0
    vertex 86.01662248300691 81.2229476467734 0.0
  endloop
endfacet
facet normal 0.0 0.0 -1.0
  outer loop
    vertex 70.06138762810755 64.59902626684594 0.0
    vertex 86.01662248300691 81.2229476467734 0.0
    vertex 85.49236077405955 79.95726791879979 0.0
  endloop
endfacet
facet normal 0.0 0.0 -1.0
  outer loop
    vertex 70.06138762810755 64.59902626684594 0.0
    vertex 85.49236077405955 79.95726791879979 0.0
    vertex 85.31354486825259 78.59902626684594 0.0
  endloop
endfacet
facet normal 0.0 0.0 -1.0
  outer loop
    vertex 87.93746624818006 83.14379141194657 0.0
    vertex 103.06138762810754 92.59902626684594 0.0
    vertex 89.2031459761537 83.66805312089394 0.0
  endloop
endfacet
facet normal 0.0 0.0 -1.0
  outer loop
    vertex 89.2031459761537 83.66805312089394 0.0
    vertex 103.06138762810754 92.59902626684594 0.0
    vertex 90.56138762810755 83.8468690267009 0.0
  endloop
endfacet
facet normal 0.0 0.0 -1.0
  outer loop
    vertex 90.56138762810755 83.8468690267009 0.0
    vertex 103.06138762810754 92.59902626684594 0.0
    vertex 91.9196292800614 83.66805312089394 0.0
  endloop
endfacet
facet normal 0.0 0.0 -1.0
  outer loop
    vertex 91.9196292800614 83.66805312089394 0.0
    vertex 103.06138762810754 92.59902626684594 0.0
    vertex 93.18530900803506 83.14379141194655 0.0
  endloop
endfacet
facet normal 0.0 0.0 -1.0
  outer loop
    vertex 93.18530900803506 83.14379141194655 0.0
    vertex 103.06138762810754 92.59902626684594 0.0
    vertex 94.27217283020173 82.30981146894011 0.0
  endloop
endfacet
facet normal 0.0 0.0 -1.0
  outer loop
    vertex 94.27217283020173 82.30981146894011 0.0
    vertex 103.06138762810754 92.59902626684594 0.0
    vertex 95.10615277320818 81.22294764677343 0.0
  endloop
endfacet
facet normal 0.0 0.0 -1.0
  outer loop
    vertex 95.10615277320818 81.22294764677343 0.0
    vertex 103.06138762810754 92.59902626684594 0.0
    vertex 95.63041448215556 79.95726791879977 0.0
  endloop
endfacet
facet normal 0.0 0.0 -1.0
  outer loop
    vertex 95.63041448215556 79.95726791879977 0.0
    vertex 103.06138762810754 92.59902626684594 0.0
    vertex 95.80923038796251 78.59902626684594 0.0
  endloop
endfacet
facet normal 0.0 0.0 -1.0
  outer loop
    vertex 70.06138762810755 64.59902626684594 0.0
    vertex 87.93746624818004 74.05426112174531 0.0
    vertex 103.06138762810754 64.59902626684594 0.0
  endloop
endfacet
facet normal 0.0 0.0 -1.0
  outer loop
    vertex 87.93746624818004 74.05426112174531 0.0
    vertex 70.06138762810755 64.59902626684594 0.0
    vertex 86.85060242601338 74.88824106475177 0.0
  endloop
endfacet
facet normal 0.0 0.0 -1.0
  outer loop
    vertex 86.85060242601338 74.88824106475177 0.0
    vertex 70.06138762810755 64.59902626684594 0.0
    vertex 86.01662248300693 75.97510488691844 0.0
  endloop
endfacet
facet normal 0.0 0.0 -1.0
  outer loop
    vertex 86.01662248300693 75.97510488691844 0.0
    vertex 70.06138762810755 64.59902626684594 0.0
    vertex 85.49236077405955 77.2407846148921 0.0
  endloop
endfacet
facet normal 0.0 0.0 -1.0
  outer loop
    vertex 85.49236077405955 77.2407846148921 0.0
    vertex 70.06138762810755 64.59902626684594 0.0
    vertex 85.31354486825259 78.59902626684594 0.0
  endloop
endfacet
facet normal 0.0 0.0 -1.0
  outer loop
    vertex 103.06138762810754 64.59902626684594 0.0
    vertex 87.93746624818004 74.05426112174531 0.0
    vertex 89.2031459761537 73.52999941279793 0.0
  endloop
endfacet
facet normal 0.0 0.0 -1.0
  outer loop
    vertex 103.06138762810754 64.59902626684594 0.0
    vertex 89.2031459761537 73.52999941279793 0.0
    vertex 90.56138762810755 73.35118350699098 0.0
  endloop
endfacet
facet normal 0.0 0.0 -1.0
  outer loop
    vertex 103.06138762810754 64.59902626684594 0.0
    vertex 90.56138762810755 73.35118350699098 0.0
    vertex 91.91962928006139 73.52999941279793 0.0
  endloop
endfacet
facet normal 0.0 0.0 -1.0
  outer loop
    vertex 103.06138762810754 64.59902626684594 0.0
    vertex 91.91962928006139 73.52999941279793 0.0
    vertex 93.18530900803505 74.05426112174531 0.0
  endloop
endfacet
facet normal 0.0 0.0 -1.0
  outer loop
    vertex 103.06138762810754 64.59902626684594 0.0
    vertex 93.18530900803505 74.05426112174531 0.0
    vertex 94.27217283020173 74.88824106475177 0.0
  endloop
endfacet
facet normal 0.0 0.0 -1.0
  outer loop
    vertex 103.06138762810754 64.59902626684594 0.0
    vertex 94.27217283020173 74.88824106475177 0.0
    vertex 95.10615277320818 75.97510488691843 0.0
  endloop
endfacet
facet normal 0.0 0.0 -1.0
  outer loop
    vertex 103.06138762810754 64.59902626684594 0.0
    vertex 95.10615277320818 75.97510488691843 0.0
    vertex 95.63041448215556 77.24078461489209 0.0
  endloop
endfacet
facet normal 0.0 0.0 -1.0
  outer loop
    vertex 103.06138762810754 64.59902626684594 0.0
    vertex 95.63041448215556 77.24078461489209 0.0
    vertex 95.80923038796251 78.59902626684594 0.0
  endloop
endfacet
facet normal 0.0 0.0 -1.0
  outer loop
    vertex 103.06138762810754 64.59902626684594 0.0
    vertex 95.80923038796251 78.59902626684594 0.0
    vertex 103.06138762810754 92.59902626684594 0.0
  endloop
endfacet
facet normal 0.0 0.0 1.0
  outer loop
    vertex 93.06138762810754 87.09902626684594 1.5
    vertex 80.06138762810755 89.84902626684594 1.5
    vertex 80.06138762810755 87.09902626684594 1.5
  endloop
endfacet
facet normal 0.0 0.0 1.0
  outer loop
    vertex 99.56138762810755 80.59902626684594 1.5
    vertex 97.06138762810755 87.09902626684594 1.5
    vertex 97.06138762810755 80.59902626684594 1.5
  endloop
endfacet
facet normal 0.0 0.0 1.0
  outer loop
    vertex 97.06138762810755 87.09902626684594 1.5
    vertex 99.56138762810755 80.59902626684594 1.5
    vertex 97.06138762810755 89.84902626684591 1.499999999999997
  endloop
endfacet
facet normal 0.0 0.0 1.0
  outer loop
    vertex 70.06138762810755 64.59902626684594 1.5
    vertex 72.87388762810751 76.59902626684593 1.4999999999999998
    vertex 70.06138762810755 92.59902626684594 1.5
  endloop
endfacet
facet normal 0.0 0.0 1.0
  outer loop
    vertex 72.87388762810751 76.59902626684593 1.4999999999999998
    vertex 70.06138762810755 64.59902626684594 1.5
    vertex 75.06138762810755 69.59902626684594 1.5
  endloop
endfacet
facet normal 0.0 0.0 1.0
  outer loop
    vertex 75.06138762810755 69.59902626684594 1.5
    vertex 70.06138762810755 64.59902626684594 1.5
    vertex 83.06138762810755 67.59902626684594 1.5
  endloop
endfacet
facet normal 0.0 0.0 1.0
  outer loop
    vertex 83.06138762810755 67.59902626684594 1.5
    vertex 70.06138762810755 64.59902626684594 1.5
    vertex 103.06138762810754 64.59902626684594 1.5
  endloop
endfacet
facet normal 0.0 0.0 1.0
  outer loop
    vertex 83.06138762810755 67.59902626684594 1.5
    vertex 103.06138762810754 64.59902626684594 1.5
    vertex 84.06138762810755 67.59902626684594 1.5
  endloop
endfacet
facet normal 0.0 0.0 1.0
  outer loop
    vertex 84.06138762810755 67.59902626684594 1.5
    vertex 103.06138762810754 64.59902626684594 1.5
    vertex 89.06138762810755 67.59902626684594 1.5
  endloop
endfacet
facet normal 0.0 0.0 1.0
  outer loop
    vertex 89.06138762810755 67.59902626684594 1.5
    vertex 103.06138762810754 64.59902626684594 1.5
    vertex 89.06138762810755 69.59902626684594 1.5
  endloop
endfacet
facet normal 0.0 0.0 1.0
  outer loop
    vertex 89.06138762810755 69.59902626684594 1.5
    vertex 103.06138762810754 64.59902626684594 1.5
    vertex 97.06138762810755 69.59902626684594 1.5
  endloop
endfacet
facet normal 0.0 0.0 1.0
  outer loop
    vertex 97.06138762810755 69.59902626684594 1.5
    vertex 103.06138762810754 64.59902626684594 1.5
    vertex 97.06138762810755 76.59902626684593 1.5
  endloop
endfacet
facet normal 0.0 0.0 1.0
  outer loop
    vertex 97.06138762810755 76.59902626684593 1.5
    vertex 103.06138762810754 64.59902626684594 1.5
    vertex 99.56138762810755 76.59902626684598 1.5
  endloop
endfacet
facet normal 0.0 0.0 1.0
  outer loop
    vertex 99.56138762810755 76.59902626684598 1.5
    vertex 103.06138762810754 64.59902626684594 1.5
    vertex 99.56138762810755 80.59902626684594 1.5
  endloop
endfacet
facet normal 0.0 0.0 1.0
  outer loop
    vertex 70.06138762810755 92.59902626684594 1.5
    vertex 76.06138762810755 89.84902626684594 1.5
    vertex 103.06138762810754 92.59902626684594 1.5
  endloop
endfacet
facet normal 0.0 0.0 1.0
  outer loop
    vertex 76.06138762810755 89.84902626684594 1.5
    vertex 70.06138762810755 92.59902626684594 1.5
    vertex 75.06138762810755 87.09902626684594 1.5
  endloop
endfacet
facet normal 0.0 0.0 1.0
  outer loop
    vertex 75.06138762810755 87.09902626684594 1.5
    vertex 70.06138762810755 92.59902626684594 1.5
    vertex 72.87388762810751 80.59902626684594 1.4999999999999998
  endloop
endfacet
facet normal 0.0 0.0 1.0
  outer loop
    vertex 72.87388762810751 80.59902626684594 1.4999999999999998
    vertex 70.06138762810755 92.59902626684594 1.5
    vertex 72.87388762810751 76.59902626684593 1.4999999999999998
  endloop
endfacet
facet normal 0.0 0.0 1.0
  outer loop
    vertex 75.06138762810755 87.09902626684594 1.5
    vertex 72.87388762810751 80.59902626684594 1.4999999999999998
    vertex 75.06138762810755 80.59902626684594 1.5
  endloop
endfacet
facet normal 0.0 0.0 1.0
  outer loop
    vertex 76.06138762810755 89.84902626684594 1.5
    vertex 75.06138762810755 87.09902626684594 1.5
    vertex 76.06138762810755 87.09902626684594 1.5
  endloop
endfacet
facet normal 0.0 0.0 1.0
  outer loop
    vertex 103.06138762810754 92.59902626684594 1.5
    vertex 76.06138762810755 89.84902626684594 1.5
    vertex 80.06138762810755 89.84902626684594 1.5
  endloop
endfacet
facet normal 0.0 0.0 1.0
  outer loop
    vertex 103.06138762810754 92.59902626684594 1.5
    vertex 80.06138762810755 89.84902626684594 1.5
    vertex 93.06138762810754 89.84902626684594 1.5
  endloop
endfacet
facet normal 0.0 0.0 1.0
  outer loop
    vertex 93.06138762810754 89.84902626684594 1.5
    vertex 80.06138762810755 89.84902626684594 1.5
    vertex 93.06138762810754 87.09902626684594 1.5
  endloop
endfacet
facet normal 0.0 0.0 1.0
  outer loop
    vertex 103.06138762810754 92.59902626684594 1.5
    vertex 93.06138762810754 89.84902626684594 1.5
    vertex 97.06138762810755 89.84902626684591 1.499999999999997
  endloop
endfacet
facet normal 0.0 0.0 1.0
  outer loop
    vertex 103.06138762810754 92.59902626684594 1.5
    vertex 97.06138762810755 89.84902626684591 1.499999999999997
    vertex 99.56138762810755 80.59902626684594 1.5
  endloop
endfacet
facet normal 0.0 0.0 1.0
  outer loop
    vertex 103.06138762810754 92.59902626684594 1.5
    vertex 99.56138762810755 80.59902626684594 1.5
    vertex 103.06138762810754 64.59902626684594 1.5
  endloop
endfacet
facet normal 0.0 0.0 1.0
  outer loop
    vertex 83.06138762810755 69.59902626684594 1.5
    vertex 75.06138762810755 69.59902626684594 1.5
    vertex 83.06138762810755 67.59902626684594 1.5
  endloop
endfacet
facet normal 0.0 0.0 1.0
  outer loop
    vertex 75.06138762810755 76.59902626684593 1.5
    vertex 72.87388762810751 76.59902626684593 1.4999999999999998
    vertex 75.06138762810755 69.59902626684594 1.5
  endloop
endfacet
facet normal 0.0 -1.0 0.0
  outer loop
    vertex 103.06138762810754 64.59902626684594 1.5
    vertex 70.06138762810755 64.59902626684594 0.0
    vertex 103.06138762810754 64.59902626684594 0.0
  endloop
endfacet
facet normal 0.0 -1.0 0.0
  outer loop
    vertex 70.06138762810755 64.59902626684594 0.0
    vertex 103.06138762810754 64.59902626684594 1.5
    vertex 70.06138762810755 64.59902626684594 1.5
  endloop
endfacet
facet normal 0.38268343236509417 0.9238795325112851 0.0
  outer loop
    vertex 91.9196292800614 83.66805312089394 0.9892559999999999
    vertex 93.18530900803506 83.14379141194655 0.0
    vertex 91.9196292800614 83.66805312089394 0.0
  endloop
endfacet
facet normal 0.38268343236509417 0.9238795325112851 0.0
  outer loop
    vertex 93.18530900803506 83.14379141194655 0.0
    vertex 91.9196292800614 83.66805312089394 0.9892559999999999
    vertex 93.18530900803506 83.14379141194655 0.9892559999999999
  endloop
endfacet
facet normal 0.13052619222005504 0.9914448613738099 0.0
  outer loop
    vertex 90.56138762810755 83.8468690267009 0.9892559999999999
    vertex 91.9196292800614 83.66805312089394 0.0
    vertex 90.56138762810755 83.8468690267009 0.0
  endloop
endfacet
facet normal 0.13052619222005504 0.9914448613738099 0.0
  outer loop
    vertex 91.9196292800614 83.66805312089394 0.0
    vertex 90.56138762810755 83.8468690267009 0.9892559999999999
    vertex 91.9196292800614 83.66805312089394 0.9892559999999999
  endloop
endfacet
facet normal -0.13052619222005504 0.9914448613738099 0.0
  outer loop
    vertex 89.2031459761537 83.66805312089394 0.9892559999999999
    vertex 90.56138762810755 83.8468690267009 0.0
    vertex 89.2031459761537 83.66805312089394 0.0
  endloop
endfacet
facet normal -0.13052619222005504 0.9914448613738099 0.0
  outer loop
    vertex 90.56138762810755 83.8468690267009 0.0
    vertex 89.2031459761537 83.66805312089394 0.9892559999999999
    vertex 90.56138762810755 83.8468690267009 0.9892559999999999
  endloop
endfacet
facet normal -0.38268343236509006 0.9238795325112867 0.0
  outer loop
    vertex 87.93746624818006 83.14379141194657 0.9892559999999999
    vertex 89.2031459761537 83.66805312089394 0.0
    vertex 87.93746624818006 83.14379141194657 0.0
  endloop
endfacet
facet normal -0.38268343236509006 0.9238795325112867 0.0
  outer loop
    vertex 89.2031459761537 83.66805312089394 0.0
    vertex 87.93746624818006 83.14379141194657 0.9892559999999999
    vertex 89.2031459761537 83.66805312089394 0.9892559999999999
  endloop
endfacet
facet normal -0.6087614290087241 0.7933533402912324 0.0
  outer loop
    vertex 86.85060242601341 82.30981146894013 0.9892559999999999
    vertex 87.93746624818006 83.14379141194657 0.0
    vertex 86.85060242601341 82.30981146894013 0.0
  endloop
endfacet
facet normal -0.6087614290087241 0.7933533402912324 0.0
  outer loop
    vertex 87.93746624818006 83.14379141194657 0.0
    vertex 86.85060242601341 82.30981146894013 0.9892559999999999
    vertex 87.93746624818006 83.14379141194657 0.9892559999999999
  endloop
endfacet
facet normal -0.7933533402912318 0.6087614290087251 0.0
  outer loop
    vertex 86.85060242601341 82.30981146894013 0.9892559999999999
    vertex 86.01662248300691 81.2229476467734 0.0
    vertex 86.01662248300691 81.2229476467734 0.9892559999999999
  endloop
endfacet
facet normal -0.7933533402912318 0.6087614290087251 0.0
  outer loop
    vertex 86.01662248300691 81.2229476467734 0.0
    vertex 86.85060242601341 82.30981146894013 0.9892559999999999
    vertex 86.85060242601341 82.30981146894013 0.0
  endloop
endfacet
facet normal -0.9238795325112859 0.3826834323650917 0.0
  outer loop
    vertex 86.01662248300691 81.2229476467734 0.9892559999999999
    vertex 85.49236077405955 79.95726791879979 0.0
    vertex 85.49236077405955 79.95726791879979 0.9892559999999999
  endloop
endfacet
facet normal -0.9238795325112859 0.3826834323650917 0.0
  outer loop
    vertex 85.49236077405955 79.95726791879979 0.0
    vertex 86.01662248300691 81.2229476467734 0.9892559999999999
    vertex 86.01662248300691 81.2229476467734 0.0
  endloop
endfacet
facet normal -0.9914448613738102 0.13052619222005402 0.0
  outer loop
    vertex 85.49236077405955 79.95726791879979 0.9892559999999999
    vertex 85.31354486825259 78.59902626684594 0.0
    vertex 85.31354486825259 78.59902626684594 0.9892559999999999
  endloop
endfacet
facet normal -0.9914448613738102 0.13052619222005402 0.0
  outer loop
    vertex 85.31354486825259 78.59902626684594 0.0
    vertex 85.49236077405955 79.95726791879979 0.9892559999999999
    vertex 85.49236077405955 79.95726791879979 0.0
  endloop
endfacet
facet normal -0.9914448613738098 -0.13052619222005613 -0.0
  outer loop
    vertex 85.31354486825259 78.59902626684594 0.9892559999999999
    vertex 85.49236077405955 77.2407846148921 0.0
    vertex 85.49236077405955 77.2407846148921 0.9892559999999999
  endloop
endfacet
facet normal -0.9914448613738098 -0.13052619222005613 -0.0
  outer loop
    vertex 85.49236077405955 77.2407846148921 0.0
    vertex 85.31354486825259 78.59902626684594 0.9892559999999999
    vertex 85.31354486825259 78.59902626684594 0.0
  endloop
endfacet
facet normal -0.9238795325112878 -0.3826834323650871 -0.0
  outer loop
    vertex 85.49236077405955 77.2407846148921 0.9892559999999999
    vertex 86.01662248300693 75.97510488691844 0.0
    vertex 86.01662248300693 75.97510488691844 0.9892559999999999
  endloop
endfacet
facet normal -0.9238795325112878 -0.3826834323650871 -0.0
  outer loop
    vertex 86.01662248300693 75.97510488691844 0.0
    vertex 85.49236077405955 77.2407846148921 0.9892559999999999
    vertex 85.49236077405955 77.2407846148921 0.0
  endloop
endfacet
facet normal -0.7933533402912345 -0.6087614290087214 -0.0
  outer loop
    vertex 86.01662248300693 75.97510488691844 0.9892559999999999
    vertex 86.85060242601338 74.88824106475177 0.0
    vertex 86.85060242601338 74.88824106475177 0.9892559999999999
  endloop
endfacet
facet normal -0.7933533402912345 -0.6087614290087214 -0.0
  outer loop
    vertex 86.85060242601338 74.88824106475177 0.0
    vertex 86.01662248300693 75.97510488691844 0.9892559999999999
    vertex 86.01662248300693 75.97510488691844 0.0
  endloop
endfacet
facet normal -0.6087614290087202 -0.7933533402912356 -0.0
  outer loop
    vertex 87.93746624818004 74.05426112174531 0.9892559999999999
    vertex 86.85060242601338 74.88824106475177 0.0
    vertex 87.93746624818004 74.05426112174531 0.0
  endloop
endfacet
facet normal -0.6087614290087202 -0.7933533402912356 -0.0
  outer loop
    vertex 86.85060242601338 74.88824106475177 0.0
    vertex 87.93746624818004 74.05426112174531 0.9892559999999999
    vertex 86.85060242601338 74.88824106475177 0.9892559999999999
  endloop
endfacet
facet normal -0.38268343236509417 -0.9238795325112851 -0.0
  outer loop
    vertex 89.2031459761537 73.52999941279793 0.9892559999999999
    vertex 87.93746624818004 74.05426112174531 0.0
    vertex 89.2031459761537 73.52999941279793 0.0
  endloop
endfacet
facet normal -0.38268343236509417 -0.9238795325112851 -0.0
  outer loop
    vertex 87.93746624818004 74.05426112174531 0.0
    vertex 89.2031459761537 73.52999941279793 0.9892559999999999
    vertex 87.93746624818004 74.05426112174531 0.9892559999999999
  endloop
endfacet
facet normal -0.13052619222005504 -0.9914448613738099 -0.0
  outer loop
    vertex 90.56138762810755 73.35118350699098 0.9892559999999999
    vertex 89.2031459761537 73.52999941279793 0.0
    vertex 90.56138762810755 73.35118350699098 0.0
  endloop
endfacet
facet normal -0.13052619222005504 -0.9914448613738099 -0.0
  outer loop
    vertex 89.2031459761537 73.52999941279793 0.0
    vertex 90.56138762810755 73.35118350699098 0.9892559999999999
    vertex 89.2031459761537 73.52999941279793 0.9892559999999999
  endloop
endfacet
facet normal 0.13052619222005613 -0.9914448613738098 0.0
  outer loop
    vertex 91.91962928006139 73.52999941279793 0.9892559999999999
    vertex 90.56138762810755 73.35118350699098 0.0
    vertex 91.91962928006139 73.52999941279793 0.0
  endloop
endfacet
facet normal 0.13052619222005613 -0.9914448613738098 0.0
  outer loop
    vertex 90.56138762810755 73.35118350699098 0.0
    vertex 91.91962928006139 73.52999941279793 0.9892559999999999
    vertex 90.56138762810755 73.35118350699098 0.9892559999999999
  endloop
endfacet
facet normal 0.3826834323650871 -0.9238795325112878 0.0
  outer loop
    vertex 93.18530900803505 74.05426112174531 0.9892559999999999
    vertex 91.91962928006139 73.52999941279793 0.0
    vertex 93.18530900803505 74.05426112174531 0.0
  endloop
endfacet
facet normal 0.3826834323650871 -0.9238795325112878 0.0
  outer loop
    vertex 91.91962928006139 73.52999941279793 0.0
    vertex 93.18530900803505 74.05426112174531 0.9892559999999999
    vertex 91.91962928006139 73.52999941279793 0.9892559999999999
  endloop
endfacet
facet normal 0.6087614290087214 -0.7933533402912345 0.0
  outer loop
    vertex 94.27217283020173 74.88824106475177 0.9892559999999999
    vertex 93.18530900803505 74.05426112174531 0.0
    vertex 94.27217283020173 74.88824106475177 0.0
  endloop
endfacet
facet normal 0.6087614290087214 -0.7933533402912345 0.0
  outer loop
    vertex 93.18530900803505 74.05426112174531 0.0
    vertex 94.27217283020173 74.88824106475177 0.9892559999999999
    vertex 93.18530900803505 74.05426112174531 0.9892559999999999
  endloop
endfacet
facet normal 0.7933533402912356 -0.6087614290087202 0.0
  outer loop
    vertex 95.10615277320818 75.97510488691843 0.0
    vertex 94.27217283020173 74.88824106475177 0.9892559999999999
    vertex 94.27217283020173 74.88824106475177 0.0
  endloop
endfacet
facet normal 0.7933533402912356 -0.6087614290087202 0.0
  outer loop
    vertex 94.27217283020173 74.88824106475177 0.9892559999999999
    vertex 95.10615277320818 75.97510488691843 0.0
    vertex 95.10615277320818 75.97510488691843 0.9892559999999999
  endloop
endfacet
facet normal 0.9238795325112851 -0.38268343236509417 0.0
  outer loop
    vertex 95.63041448215556 77.24078461489209 0.0
    vertex 95.10615277320818 75.97510488691843 0.9892559999999999
    vertex 95.10615277320818 75.97510488691843 0.0
  endloop
endfacet
facet normal 0.9238795325112851 -0.38268343236509417 0.0
  outer loop
    vertex 95.10615277320818 75.97510488691843 0.9892559999999999
    vertex 95.63041448215556 77.24078461489209 0.0
    vertex 95.63041448215556 77.24078461489209 0.9892559999999999
  endloop
endfacet
facet normal 0.9914448613738099 -0.13052619222005504 0.0
  outer loop
    vertex 95.80923038796251 78.59902626684594 0.0
    vertex 95.63041448215556 77.24078461489209 0.9892559999999999
    vertex 95.63041448215556 77.24078461489209 0.0
  endloop
endfacet
facet normal 0.9914448613738099 -0.13052619222005504 0.0
  outer loop
    vertex 95.63041448215556 77.24078461489209 0.9892559999999999
    vertex 95.80923038796251 78.59902626684594 0.0
    vertex 95.80923038796251 78.59902626684594 0.9892559999999999
  endloop
endfacet
facet normal 0.9914448613738098 0.13052619222005613 0.0
  outer loop
    vertex 95.63041448215556 79.95726791879977 0.0
    vertex 95.80923038796251 78.59902626684594 0.9892559999999999
    vertex 95.80923038796251 78.59902626684594 0.0
  endloop
endfacet
facet normal 0.9914448613738098 0.13052619222005613 0.0
  outer loop
    vertex 95.80923038796251 78.59902626684594 0.9892559999999999
    vertex 95.63041448215556 79.95726791879977 0.0
    vertex 95.63041448215556 79.95726791879977 0.9892559999999999
  endloop
endfacet
facet normal 0.9238795325112878 0.3826834323650871 0.0
  outer loop
    vertex 95.10615277320818 81.22294764677343 0.0
    vertex 95.63041448215556 79.95726791879977 0.9892559999999999
    vertex 95.63041448215556 79.95726791879977 0.0
  endloop
endfacet
facet normal 0.9238795325112878 0.3826834323650871 0.0
  outer loop
    vertex 95.63041448215556 79.95726791879977 0.9892559999999999
    vertex 95.10615277320818 81.22294764677343 0.0
    vertex 95.10615277320818 81.22294764677343 0.9892559999999999
  endloop
endfacet
facet normal 0.7933533402912345 0.6087614290087214 0.0
  outer loop
    vertex 94.27217283020173 82.30981146894011 0.0
    vertex 95.10615277320818 81.22294764677343 0.9892559999999999
    vertex 95.10615277320818 81.22294764677343 0.0
  endloop
endfacet
facet normal 0.7933533402912345 0.6087614290087214 0.0
  outer loop
    vertex 95.10615277320818 81.22294764677343 0.9892559999999999
    vertex 94.27217283020173 82.30981146894011 0.0
    vertex 94.27217283020173 82.30981146894011 0.9892559999999999
  endloop
endfacet
facet normal 0.6087614290087202 0.7933533402912356 0.0
  outer loop
    vertex 93.18530900803506 83.14379141194655 0.9892559999999999
    vertex 94.27217283020173 82.30981146894011 0.0
    vertex 93.18530900803506 83.14379141194655 0.0
  endloop
endfacet
facet normal 0.6087614290087202 0.7933533402912356 0.0
  outer loop
    vertex 94.27217283020173 82.30981146894011 0.0
    vertex 93.18530900803506 83.14379141194655 0.9892559999999999
    vertex 94.27217283020173 82.30981146894011 0.9892559999999999
  endloop
endfacet
facet normal 0.0 0.0 1.0
  outer loop
    vertex 75.06138762810755 69.59902626684594 0.9999999999999999
    vertex 86.85060242601338 74.88824106475177 0.9892559999999999
    vertex 75.06138762810755 87.09902626684594 0.9999999999999999
  endloop
endfacet
facet normal 0.0 0.0 1.0
  outer loop
    vertex 86.85060242601338 74.88824106475177 0.9892559999999999
    vertex 75.06138762810755 69.59902626684594 0.9999999999999999
    vertex 87.93746624818004 74.05426112174531 0.9892559999999999
  endloop
endfacet
facet normal 0.0 0.0 1.0
  outer loop
    vertex 87.93746624818004 74.05426112174531 0.9892559999999999
    vertex 75.06138762810755 69.59902626684594 0.9999999999999999
    vertex 97.06138762810755 69.59902626684594 0.9999999999999999
  endloop
endfacet
facet normal 0.0 0.0 1.0
  outer loop
    vertex 75.06138762810755 87.09902626684594 0.9999999999999999
    vertex 86.85060242601338 74.88824106475177 0.9892559999999999
    vertex 86.01662248300693 75.97510488691844 0.9892559999999999
  endloop
endfacet
facet normal 0.0 0.0 1.0
  outer loop
    vertex 75.06138762810755 87.09902626684594 0.9999999999999999
    vertex 86.01662248300693 75.97510488691844 0.9892559999999999
    vertex 85.49236077405955 77.2407846148921 0.9892559999999999
  endloop
endfacet
facet normal 0.0 0.0 1.0
  outer loop
    vertex 75.06138762810755 87.09902626684594 0.9999999999999999
    vertex 85.49236077405955 77.2407846148921 0.9892559999999999
    vertex 85.31354486825259 78.59902626684594 0.9892559999999999
  endloop
endfacet
facet normal 0.0 0.0 1.0
  outer loop
    vertex 87.93746624818004 74.05426112174531 0.9892559999999999
    vertex 97.06138762810755 69.59902626684594 0.9999999999999999
    vertex 89.2031459761537 73.52999941279793 0.9892559999999999
  endloop
endfacet
facet normal 0.0 0.0 1.0
  outer loop
    vertex 89.2031459761537 73.52999941279793 0.9892559999999999
    vertex 97.06138762810755 69.59902626684594 0.9999999999999999
    vertex 90.56138762810755 73.35118350699098 0.9892559999999999
  endloop
endfacet
facet normal 0.0 0.0 1.0
  outer loop
    vertex 90.56138762810755 73.35118350699098 0.9892559999999999
    vertex 97.06138762810755 69.59902626684594 0.9999999999999999
    vertex 91.91962928006139 73.52999941279793 0.9892559999999999
  endloop
endfacet
facet normal 0.0 0.0 1.0
  outer loop
    vertex 91.91962928006139 73.52999941279793 0.9892559999999999
    vertex 97.06138762810755 69.59902626684594 0.9999999999999999
    vertex 93.18530900803505 74.05426112174531 0.9892559999999999
  endloop
endfacet
facet normal 0.0 0.0 1.0
  outer loop
    vertex 93.18530900803505 74.05426112174531 0.9892559999999999
    vertex 97.06138762810755 69.59902626684594 0.9999999999999999
    vertex 94.27217283020173 74.88824106475177 0.9892559999999999
  endloop
endfacet
facet normal 0.0 0.0 1.0
  outer loop
    vertex 94.27217283020173 74.88824106475177 0.9892559999999999
    vertex 97.06138762810755 69.59902626684594 0.9999999999999999
    vertex 95.10615277320818 75.97510488691843 0.9892559999999999
  endloop
endfacet
facet normal 0.0 0.0 1.0
  outer loop
    vertex 95.10615277320818 75.97510488691843 0.9892559999999999
    vertex 97.06138762810755 69.59902626684594 0.9999999999999999
    vertex 95.63041448215556 77.24078461489209 0.9892559999999999
  endloop
endfacet
facet normal 0.0 0.0 1.0
  outer loop
    vertex 95.63041448215556 77.24078461489209 0.9892559999999999
    vertex 97.06138762810755 69.59902626684594 0.9999999999999999
    vertex 95.80923038796251 78.59902626684594 0.9892559999999999
  endloop
endfacet
facet normal 0.0 0.0 1.0
  outer loop
    vertex 75.06138762810755 87.09902626684594 0.9999999999999999
    vertex 87.93746624818006 83.14379141194657 0.9892559999999999
    vertex 97.06138762810755 87.09902626684594 0.9999999999999999
  endloop
endfacet
facet normal 0.0 0.0 1.0
  outer loop
    vertex 87.93746624818006 83.14379141194657 0.9892559999999999
    vertex 75.06138762810755 87.09902626684594 0.9999999999999999
    vertex 86.85060242601341 82.30981146894013 0.9892559999999999
  endloop
endfacet
facet normal 0.0 0.0 1.0
  outer loop
    vertex 86.85060242601341 82.30981146894013 0.9892559999999999
    vertex 75.06138762810755 87.09902626684594 0.9999999999999999
    vertex 86.01662248300691 81.2229476467734 0.9892559999999999
  endloop
endfacet
facet normal 0.0 0.0 1.0
  outer loop
    vertex 86.01662248300691 81.2229476467734 0.9892559999999999
    vertex 75.06138762810755 87.09902626684594 0.9999999999999999
    vertex 85.49236077405955 79.95726791879979 0.9892559999999999
  endloop
endfacet
facet normal 0.0 0.0 1.0
  outer loop
    vertex 85.49236077405955 79.95726791879979 0.9892559999999999
    vertex 75.06138762810755 87.09902626684594 0.9999999999999999
    vertex 85.31354486825259 78.59902626684594 0.9892559999999999
  endloop
endfacet
facet normal 0.0 0.0 1.0
  outer loop
    vertex 97.06138762810755 87.09902626684594 0.9999999999999999
    vertex 87.93746624818006 83.14379141194657 0.9892559999999999
    vertex 89.2031459761537 83.66805312089394 0.9892559999999999
  endloop
endfacet
facet normal 0.0 0.0 1.0
  outer loop
    vertex 97.06138762810755 87.09902626684594 0.9999999999999999
    vertex 89.2031459761537 83.66805312089394 0.9892559999999999
    vertex 90.56138762810755 83.8468690267009 0.9892559999999999
  endloop
endfacet
facet normal 0.0 0.0 1.0
  outer loop
    vertex 97.06138762810755 87.09902626684594 0.9999999999999999
    vertex 90.56138762810755 83.8468690267009 0.9892559999999999
    vertex 91.9196292800614 83.66805312089394 0.9892559999999999
  endloop
endfacet
facet normal 0.0 0.0 1.0
  outer loop
    vertex 97.06138762810755 87.09902626684594 0.9999999999999999
    vertex 91.9196292800614 83.66805312089394 0.9892559999999999
    vertex 93.18530900803506 83.14379141194655 0.9892559999999999
  endloop
endfacet
facet normal 0.0 0.0 1.0
  outer loop
    vertex 97.06138762810755 87.09902626684594 0.9999999999999999
    vertex 93.18530900803506 83.14379141194655 0.9892559999999999
    vertex 94.27217283020173 82.30981146894011 0.9892559999999999
  endloop
endfacet
facet normal 0.0 0.0 1.0
  outer loop
    vertex 97.06138762810755 87.09902626684594 0.9999999999999999
    vertex 94.27217283020173 82.30981146894011 0.9892559999999999
    vertex 95.10615277320818 81.22294764677343 0.9892559999999999
  endloop
endfacet
facet normal 0.0 0.0 1.0
  outer loop
    vertex 97.06138762810755 87.09902626684594 0.9999999999999999
    vertex 95.10615277320818 81.22294764677343 0.9892559999999999
    vertex 95.63041448215556 79.95726791879977 0.9892559999999999
  endloop
endfacet
facet normal 0.0 0.0 1.0
  outer loop
    vertex 97.06138762810755 87.09902626684594 0.9999999999999999
    vertex 95.63041448215556 79.95726791879977 0.9892559999999999
    vertex 95.80923038796251 78.59902626684594 0.9892559999999999
  endloop
endfacet
facet normal 0.0 0.0 1.0
  outer loop
    vertex 97.06138762810755 87.09902626684594 0.9999999999999999
    vertex 95.80923038796251 78.59902626684594 0.9892559999999999
    vertex 97.06138762810755 69.59902626684594 0.9999999999999999
  endloop
endfacet
facet normal 0.0 0.0 1.0
  outer loop
    vertex 84.06138762810755 67.59902626684594 4.5
    vertex 83.06138762810755 70.09902626684594 4.5
    vertex 83.06138762810755 67.59902626684594 4.5
  endloop
endfacet
facet normal 0.0 0.0 1.0
  outer loop
    vertex 83.06138762810755 70.09902626684594 4.5
    vertex 84.06138762810755 67.59902626684594 4.5
    vertex 89.06138762810755 70.09902626684594 4.5
  endloop
endfacet
facet normal 0.0 0.0 1.0
  outer loop
    vertex 89.06138762810755 70.09902626684594 4.5
    vertex 84.06138762810755 67.59902626684594 4.5
    vertex 89.06138762810755 67.59902626684594 4.5
  endloop
endfacet
facet normal -1.0 -0.0 -0.0
  outer loop
    vertex 83.06138762810755 67.59902626684594 4.5
    vertex 83.06138762810755 69.59902626684594 3.9999999999999996
    vertex 83.06138762810755 67.59902626684594 1.5
  endloop
endfacet
facet normal -1.0 -0.0 -0.0
  outer loop
    vertex 83.06138762810755 69.59902626684594 3.9999999999999996
    vertex 83.06138762810755 67.59902626684594 4.5
    vertex 83.06138762810755 70.09902626684594 4.5
  endloop
endfacet
facet normal -1.0 -0.0 -0.0
  outer loop
    vertex 83.06138762810755 69.59902626684594 3.9999999999999996
    vertex 83.06138762810755 70.09902626684594 4.5
    vertex 83.06138762810755 70.09902626684594 3.9999999999999996
  endloop
endfacet
facet normal -1.0 -0.0 -0.0
  outer loop
    vertex 83.06138762810755 69.59902626684594 1.5
    vertex 83.06138762810755 67.59902626684594 1.5
    vertex 83.06138762810755 69.59902626684594 3.9999999999999996
  endloop
endfacet
facet normal 0.0 -1.0 0.0
  outer loop
    vertex 84.06138762810755 67.59902626684594 4.5
    vertex 83.06138762810755 67.59902626684594 1.5
    vertex 84.06138762810755 67.59902626684594 1.5
  endloop
endfacet
facet normal 0.0 -1.0 0.0
  outer loop
    vertex 83.06138762810755 67.59902626684594 1.5
    vertex 84.06138762810755 67.59902626684594 4.5
    vertex 83.06138762810755 67.59902626684594 4.5
  endloop
endfacet
facet normal 0.0 -1.0 0.0
  outer loop
    vertex 89.06138762810755 67.59902626684594 4.5
    vertex 84.06138762810755 67.59902626684594 1.5
    vertex 89.06138762810755 67.59902626684594 1.5
  endloop
endfacet
facet normal 0.0 -1.0 0.0
  outer loop
    vertex 84.06138762810755 67.59902626684594 1.5
    vertex 89.06138762810755 67.59902626684594 4.5
    vertex 84.06138762810755 67.59902626684594 4.5
  endloop
endfacet
facet normal 1.0 0.0 0.0
  outer loop
    vertex 89.06138762810755 69.59902626684594 1.5
    vertex 89.06138762810755 67.59902626684594 4.5
    vertex 89.06138762810755 67.59902626684594 1.5
  endloop
endfacet
facet normal 1.0 0.0 0.0
  outer loop
    vertex 89.06138762810755 67.59902626684594 4.5
    vertex 89.06138762810755 69.59902626684594 1.5
    vertex 89.06138762810755 69.59902626684594 4.0
  endloop
endfacet
facet normal 1.0 0.0 0.0
  outer loop
    vertex 89.06138762810755 67.59902626684594 4.5
    vertex 89.06138762810755 69.59902626684594 4.0
    vertex 89.06138762810755 70.09902626684594 4.5
  endloop
endfacet
facet normal 1.0 0.0 0.0
  outer loop
    vertex 89.06138762810755 70.09902626684594 4.5
    vertex 89.06138762810755 69.59902626684594 4.0
    vertex 89.06138762810755 70.09902626684594 4.0
  endloop
endfacet
facet normal 0.0 1.0 0.0
  outer loop
    vertex 83.06138762810755 69.59902626684594 3.9999999999999996
    vertex 89.06138762810755 69.59902626684594 1.5
    vertex 83.06138762810755 69.59902626684594 1.5
  endloop
endfacet
facet normal 0.0 1.0 0.0
  outer loop
    vertex 89.06138762810755 69.59902626684594 1.5
    vertex 83.06138762810755 69.59902626684594 3.9999999999999996
    vertex 89.06138762810755 69.59902626684594 4.0
  endloop
endfacet
facet normal 0.0 1.0 0.0
  outer loop
    vertex 75.06138762810755 69.59902626684594 1.5
    vertex 97.06138762810755 69.59902626684594 0.9999999999999999
    vertex 75.06138762810755 69.59902626684594 0.9999999999999999
  endloop
endfacet
facet normal 0.0 1.0 0.0
  outer loop
    vertex 97.06138762810755 69.59902626684594 0.9999999999999999
    vertex 75.06138762810755 69.59902626684594 1.5
    vertex 97.06138762810755 69.59902626684594 1.5
  endloop
endfacet
facet normal 0.0 1.0 0.0
  outer loop
    vertex 97.06138762810755 69.59902626684594 1.5
    vertex 75.06138762810755 69.59902626684594 1.5
    vertex 83.06138762810755 69.59902626684594 1.5
  endloop
endfacet
facet normal 0.0 1.0 0.0
  outer loop
    vertex 97.06138762810755 69.59902626684594 1.5
    vertex 83.06138762810755 69.59902626684594 1.5
    vertex 89.06138762810755 69.59902626684594 1.5
  endloop
endfacet
facet normal 0.0 1.0 0.0
  outer loop
    vertex 83.06138762810755 70.09902626684594 4.5
    vertex 89.06138762810755 70.09902626684594 4.0
    vertex 83.06138762810755 70.09902626684594 3.9999999999999996
  endloop
endfacet
facet normal 0.0 1.0 0.0
  outer loop
    vertex 89.06138762810755 70.09902626684594 4.0
    vertex 83.06138762810755 70.09902626684594 4.5
    vertex 89.06138762810755 70.09902626684594 4.5
  endloop
endfacet
facet normal 1.1749860343949596e-16 0.0 -1.0
  outer loop
    vertex 89.06138762810755 70.09902626684594 4.0
    vertex 83.06138762810755 69.59902626684594 3.9999999999999996
    vertex 83.06138762810755 70.09902626684594 3.9999999999999996
  endloop
endfacet
facet normal 1.1749860343949596e-16 0.0 -1.0
  outer loop
    vertex 83.06138762810755 69.59902626684594 3.9999999999999996
    vertex 89.06138762810755 70.09902626684594 4.0
    vertex 89.06138762810755 69.59902626684594 4.0
  endloop
endfacet
facet normal 0.0 0.0 1.0
  outer loop
    vertex 98.31138762810755 76.59902626684593 3.9999999999999996
    vertex 97.06138762810755 80.59902626684594 3.9999999999999996
    vertex 97.06138762810755 76.59902626684593 3.9999999999999996
  endloop
endfacet
facet normal 0.0 0.0 1.0
  outer loop
    vertex 97.06138762810755 80.59902626684594 3.9999999999999996
    vertex 98.31138762810755 76.59902626684593 3.9999999999999996
    vertex 98.31138762810755 80.59902626684594 3.9999999999999996
  endloop
endfacet
facet normal 1.8047785488306577e-14 -1.0 -3.007964248051091e-15
  outer loop
    vertex 98.31138762810755 76.59902626684593 3.9999999999999996
    vertex 97.06138762810755 76.59902626684593 1.5
    vertex 99.56138762810755 76.59902626684598 1.5
  endloop
endfacet
facet normal 1.8047785488306577e-14 -1.0 -3.007964248051091e-15
  outer loop
    vertex 97.06138762810755 76.59902626684593 1.5
    vertex 98.31138762810755 76.59902626684593 3.9999999999999996
    vertex 97.06138762810755 76.59902626684593 3.9999999999999996
  endloop
endfacet
facet normal 0.0 1.0 0.0
  outer loop
    vertex 97.06138762810755 80.59902626684594 3.9999999999999996
    vertex 99.56138762810755 80.59902626684594 1.5
    vertex 97.06138762810755 80.59902626684594 1.5
  endloop
endfacet
facet normal 0.0 1.0 0.0
  outer loop
    vertex 99.56138762810755 80.59902626684594 1.5
    vertex 97.06138762810755 80.59902626684594 3.9999999999999996
    vertex 98.31138762810755 80.59902626684594 3.9999999999999996
  endloop
endfacet
facet normal 0.8944271909999162 3.5850098227083668e-31 0.4472135954999574
  outer loop
    vertex 99.56138762810755 76.59902626684598 1.5
    vertex 98.31138762810755 80.59902626684594 3.9999999999999996
    vertex 98.31138762810755 76.59902626684593 3.9999999999999996
  endloop
endfacet
facet normal 0.8944271909999162 3.5850098227083668e-31 0.4472135954999574
  outer loop
    vertex 98.31138762810755 80.59902626684594 3.9999999999999996
    vertex 99.56138762810755 76.59902626684598 1.5
    vertex 99.56138762810755 80.59902626684594 1.5
  endloop
endfacet
endsolid MIC mount
