solid Big shell
facet normal -0.0 0.0 -1.0
  outer loop
    vertex 177.5028714749498 191.68560051477294 6.059999999999979
    vertex 184.3824714749498 190.539000514773 6.059999999999979
    vertex 177.5028714749498 190.539000514773 6.059999999999979
  endloop
endfacet
facet normal -0.0 0.0 -1.0
  outer loop
    vertex 184.3824714749498 190.539000514773 6.059999999999979
    vertex 177.5028714749498 191.68560051477294 6.059999999999979
    vertex 184.3824714749498 191.68560051477294 6.059999999999979
  endloop
endfacet
facet normal 1.0 4.440892098500626e-16 0.0
  outer loop
    vertex 201.0081714749498 198.56520051477298 2.939999999999977
    vertex 201.0081714749498 149.26140051477296 0.8599999999999782
    vertex 201.0081714749498 198.56520051477298 0.8599999999999782
  endloop
endfacet
facet normal 1.0 4.440892098500626e-16 0.0
  outer loop
    vertex 201.0081714749498 149.26140051477296 0.8599999999999782
    vertex 201.0081714749498 198.56520051477298 2.939999999999977
    vertex 201.0081714749498 149.26140051477296 2.939999999999977
  endloop
endfacet
facet normal -1.0 -4.440892098500626e-16 0.0
  outer loop
    vertex 160.8771714749498 149.26140051477293 2.939999999999977
    vertex 160.87717147494976 198.56520051477298 0.8599999999999782
    vertex 160.8771714749498 149.26140051477293 0.8599999999999782
  endloop
endfacet
facet normal -1.0 -4.440892098500626e-16 0.0
  outer loop
    vertex 160.87717147494976 198.56520051477298 0.8599999999999782
    vertex 160.8771714749498 149.26140051477293 2.939999999999977
    vertex 160.87717147494976 198.56520051477298 2.939999999999977
  endloop
endfacet
facet normal 1.531859281709927e-16 -0.3449440445146433 0.9386232503799805
  outer loop
    vertex 184.3824714749498 193.97880051477296 8.139999999999977
    vertex 177.5028714749498 190.539000514773 7.099999999999978
    vertex 184.3824714749498 190.539000514773 7.099999999999978
  endloop
endfacet
facet normal 1.531859281709927e-16 -0.3449440445146433 0.9386232503799805
  outer loop
    vertex 177.5028714749498 190.539000514773 7.099999999999978
    vertex 184.3824714749498 193.97880051477296 8.139999999999977
    vertex 177.5028714749498 193.97880051477293 8.139999999999977
  endloop
endfacet
facet normal 4.440892098500624e-16 -1.0 0.0
  outer loop
    vertex 177.5028714749498 190.539000514773 7.099999999999978
    vertex 184.3824714749498 190.539000514773 6.059999999999979
    vertex 184.3824714749498 190.539000514773 7.099999999999978
  endloop
endfacet
facet normal 4.440892098500624e-16 -1.0 0.0
  outer loop
    vertex 184.3824714749498 190.539000514773 6.059999999999979
    vertex 177.5028714749498 190.539000514773 7.099999999999978
    vertex 177.5028714749498 190.539000514773 6.059999999999979
  endloop
endfacet
facet normal 1.0 9.816517734014199e-16 1.5663905185228007e-15
  outer loop
    vertex 184.38247147494982 156.14100051477297 7.099999999999976
    vertex 184.38247147494982 154.99440051477302 6.0599999999999765
    vertex 184.38247147494982 156.14100051477297 6.0599999999999765
  endloop
endfacet
facet normal 1.0 9.816517734014199e-16 1.5663905185228007e-15
  outer loop
    vertex 184.38247147494982 154.99440051477302 6.0599999999999765
    vertex 184.38247147494982 150.63732051477302 2.939999999999977
    vertex 184.38247147494982 154.99440051477302 2.939999999999977
  endloop
endfacet
facet normal 1.0 9.816517734014199e-16 1.5663905185228007e-15
  outer loop
    vertex 184.38247147494982 150.63732051477302 2.939999999999977
    vertex 184.38247147494982 154.99440051477302 6.0599999999999765
    vertex 184.38247147494982 152.70120051477303 8.139999999999976
  endloop
endfacet
facet normal 1.0 9.816517734014199e-16 1.5663905185228007e-15
  outer loop
    vertex 184.38247147494982 152.70120051477303 8.139999999999976
    vertex 184.38247147494982 154.99440051477302 6.0599999999999765
    vertex 184.38247147494982 156.14100051477297 7.099999999999976
  endloop
endfacet
facet normal -1.531859281709922e-16 0.3449440445146428 0.9386232503799807
  outer loop
    vertex 184.38247147494982 156.14100051477297 7.099999999999976
    vertex 177.50287147494984 152.70120051477303 8.139999999999976
    vertex 184.38247147494982 152.70120051477303 8.139999999999976
  endloop
endfacet
facet normal -1.531859281709922e-16 0.3449440445146428 0.9386232503799807
  outer loop
    vertex 177.50287147494984 152.70120051477303 8.139999999999976
    vertex 184.38247147494982 156.14100051477297 7.099999999999976
    vertex 177.50287147494984 156.14100051477297 7.099999999999976
  endloop
endfacet
facet normal -4.440892098500624e-16 1.0 0.0
  outer loop
    vertex 177.50287147494984 156.14100051477297 6.0599999999999765
    vertex 184.38247147494982 156.14100051477297 7.099999999999976
    vertex 184.38247147494982 156.14100051477297 6.0599999999999765
  endloop
endfacet
facet normal -4.440892098500624e-16 1.0 0.0
  outer loop
    vertex 184.38247147494982 156.14100051477297 7.099999999999976
    vertex 177.50287147494984 156.14100051477297 6.0599999999999765
    vertex 177.50287147494984 156.14100051477297 7.099999999999976
  endloop
endfacet
facet normal -0.0 0.0 -1.0
  outer loop
    vertex 177.50287147494984 156.14100051477297 6.0599999999999765
    vertex 184.38247147494982 154.99440051477302 6.0599999999999765
    vertex 177.50287147494984 154.99440051477302 6.0599999999999765
  endloop
endfacet
facet normal -0.0 0.0 -1.0
  outer loop
    vertex 184.38247147494982 154.99440051477302 6.0599999999999765
    vertex 177.50287147494984 156.14100051477297 6.0599999999999765
    vertex 184.38247147494982 156.14100051477297 6.0599999999999765
  endloop
endfacet
facet normal 4.440892098500624e-16 -1.0 0.0
  outer loop
    vertex 160.8771714749498 149.26140051477293 2.939999999999977
    vertex 201.0081714749498 149.26140051477296 0.8599999999999782
    vertex 201.0081714749498 149.26140051477296 2.939999999999977
  endloop
endfacet
facet normal 4.440892098500624e-16 -1.0 0.0
  outer loop
    vertex 201.0081714749498 149.26140051477296 0.8599999999999782
    vertex 160.8771714749498 149.26140051477293 2.939999999999977
    vertex 160.8771714749498 149.26140051477293 0.8599999999999782
  endloop
endfacet
facet normal -4.440892098500624e-16 1.0 0.0
  outer loop
    vertex 177.50287147494984 154.99440051477302 2.939999999999977
    vertex 184.38247147494982 154.99440051477302 6.0599999999999765
    vertex 184.38247147494982 154.99440051477302 2.939999999999977
  endloop
endfacet
facet normal -4.440892098500624e-16 1.0 0.0
  outer loop
    vertex 184.38247147494982 154.99440051477302 6.0599999999999765
    vertex 177.50287147494984 154.99440051477302 2.939999999999977
    vertex 177.50287147494984 154.99440051477302 6.0599999999999765
  endloop
endfacet
facet normal -4.440892098500624e-16 1.0 0.0
  outer loop
    vertex 160.87717147494976 198.56520051477298 0.8599999999999782
    vertex 201.0081714749498 198.56520051477298 2.939999999999977
    vertex 201.0081714749498 198.56520051477298 0.8599999999999782
  endloop
endfacet
facet normal -4.440892098500624e-16 1.0 0.0
  outer loop
    vertex 201.0081714749498 198.56520051477298 2.939999999999977
    vertex 160.87717147494976 198.56520051477298 0.8599999999999782
    vertex 160.87717147494976 198.56520051477298 2.939999999999977
  endloop
endfacet
facet normal -1.0 -4.440892098500626e-16 0.0
  outer loop
    vertex 177.50287147494984 152.70120051477303 8.139999999999976
    vertex 177.50287147494984 154.99440051477302 2.939999999999977
    vertex 177.50287147494984 150.63732051477302 2.939999999999977
  endloop
endfacet
facet normal -1.0 -4.440892098500626e-16 0.0
  outer loop
    vertex 177.50287147494984 154.99440051477302 2.939999999999977
    vertex 177.50287147494984 152.70120051477303 8.139999999999976
    vertex 177.50287147494984 154.99440051477302 6.0599999999999765
  endloop
endfacet
facet normal -1.0 -4.440892098500626e-16 0.0
  outer loop
    vertex 177.50287147494984 154.99440051477302 6.0599999999999765
    vertex 177.50287147494984 152.70120051477303 8.139999999999976
    vertex 177.50287147494984 156.14100051477297 6.0599999999999765
  endloop
endfacet
facet normal -1.0 -4.440892098500626e-16 0.0
  outer loop
    vertex 177.50287147494984 156.14100051477297 6.0599999999999765
    vertex 177.50287147494984 152.70120051477303 8.139999999999976
    vertex 177.50287147494984 156.14100051477297 7.099999999999976
  endloop
endfacet
facet normal 0.0 0.0 1.0
  outer loop
    vertex 195.27517147494981 177.35310051477296 7.099999999999974
    vertex 194.1285714749498 170.47350051477292 7.099999999999974
    vertex 195.27517147494981 170.47350051477292 7.099999999999974
  endloop
endfacet
facet normal 0.0 0.0 1.0
  outer loop
    vertex 194.1285714749498 170.47350051477292 7.099999999999974
    vertex 195.27517147494981 177.35310051477296 7.099999999999974
    vertex 194.12857147494978 177.35310051477296 7.099999999999974
  endloop
endfacet
facet normal -4.440892098500624e-16 1.0 0.0
  outer loop
    vertex 164.7756114749498 177.35310051477293 2.9399999999999777
    vertex 167.7567714749498 177.35310051477293 7.099999999999977
    vertex 167.7567714749498 177.35310051477293 2.9399999999999777
  endloop
endfacet
facet normal -4.440892098500624e-16 1.0 0.0
  outer loop
    vertex 167.7567714749498 177.35310051477293 7.099999999999977
    vertex 164.7756114749498 177.35310051477293 2.9399999999999777
    vertex 166.6101714749498 177.35310051477293 7.099999999999977
  endloop
endfacet
facet normal -0.9400421218452776 -4.247686109464489e-16 0.3410583662023675
  outer loop
    vertex 166.6101714749498 170.47350051477295 7.099999999999977
    vertex 164.7756114749498 177.35310051477293 2.9399999999999777
    vertex 164.7756114749498 170.47350051477298 2.9399999999999777
  endloop
endfacet
facet normal -0.9400421218452776 -4.247686109464489e-16 0.3410583662023675
  outer loop
    vertex 164.7756114749498 177.35310051477293 2.9399999999999777
    vertex 166.6101714749498 170.47350051477295 7.099999999999977
    vertex 166.6101714749498 177.35310051477293 7.099999999999977
  endloop
endfacet
facet normal 0.0 0.0 1.0
  outer loop
    vertex 167.7567714749498 177.35310051477293 7.099999999999977
    vertex 166.6101714749498 170.47350051477295 7.099999999999977
    vertex 167.7567714749498 170.47350051477295 7.099999999999977
  endloop
endfacet
facet normal 0.0 0.0 1.0
  outer loop
    vertex 166.6101714749498 170.47350051477295 7.099999999999977
    vertex 167.7567714749498 177.35310051477293 7.099999999999977
    vertex 166.6101714749498 177.35310051477293 7.099999999999977
  endloop
endfacet
facet normal -7.114583836154629e-15 -1.0 -1.1866048737840933e-15
  outer loop
    vertex 166.6101714749498 170.47350051477295 7.099999999999977
    vertex 167.7567714749498 170.47350051477295 2.9399999999999777
    vertex 167.7567714749498 170.47350051477295 7.099999999999977
  endloop
endfacet
facet normal -7.114583836154629e-15 -1.0 -1.1866048737840933e-15
  outer loop
    vertex 167.7567714749498 170.47350051477295 2.9399999999999777
    vertex 166.6101714749498 170.47350051477295 7.099999999999977
    vertex 164.7756114749498 170.47350051477298 2.9399999999999777
  endloop
endfacet
facet normal 4.440892098500624e-16 -1.0 0.0
  outer loop
    vertex 177.5028714749498 191.68560051477294 6.059999999999979
    vertex 184.3824714749498 191.68560051477294 2.939999999999977
    vertex 184.3824714749498 191.68560051477294 6.059999999999979
  endloop
endfacet
facet normal 4.440892098500624e-16 -1.0 0.0
  outer loop
    vertex 184.3824714749498 191.68560051477294 2.939999999999977
    vertex 177.5028714749498 191.68560051477294 6.059999999999979
    vertex 177.5028714749498 191.68560051477294 2.939999999999977
  endloop
endfacet
facet normal 0.0 0.0 1.0
  outer loop
    vertex 167.7567714749498 187.09920051477297 2.9399999999999777
    vertex 164.7756114749498 177.35310051477293 2.9399999999999777
    vertex 167.7567714749498 177.35310051477293 2.9399999999999777
  endloop
endfacet
facet normal 0.0 0.0 1.0
  outer loop
    vertex 201.0081714749498 149.26140051477296 2.939999999999977
    vertex 184.38247147494982 150.63732051477302 2.939999999999977
    vertex 160.8771714749498 149.26140051477293 2.939999999999977
  endloop
endfacet
facet normal 0.0 0.0 1.0
  outer loop
    vertex 184.38247147494982 150.63732051477302 2.939999999999977
    vertex 201.0081714749498 149.26140051477296 2.939999999999977
    vertex 194.1285714749498 160.72740051477297 2.9399999999999777
  endloop
endfacet
facet normal 0.0 0.0 1.0
  outer loop
    vertex 194.1285714749498 160.72740051477297 2.9399999999999777
    vertex 201.0081714749498 149.26140051477296 2.939999999999977
    vertex 197.1097314749498 170.473500514773 2.9399999999999777
  endloop
endfacet
facet normal 0.0 0.0 1.0
  outer loop
    vertex 197.1097314749498 170.473500514773 2.9399999999999777
    vertex 201.0081714749498 149.26140051477296 2.939999999999977
    vertex 201.0081714749498 198.56520051477298 2.939999999999977
  endloop
endfacet
facet normal 0.0 0.0 1.0
  outer loop
    vertex 184.38247147494982 150.63732051477302 2.939999999999977
    vertex 194.1285714749498 160.72740051477297 2.9399999999999777
    vertex 184.38247147494982 154.99440051477302 2.939999999999977
  endloop
endfacet
facet normal 0.0 0.0 1.0
  outer loop
    vertex 184.38247147494982 154.99440051477302 2.939999999999977
    vertex 194.1285714749498 160.72740051477297 2.9399999999999777
    vertex 177.50287147494984 154.99440051477302 2.939999999999977
  endloop
endfacet
facet normal 0.0 0.0 1.0
  outer loop
    vertex 194.1285714749498 160.72740051477297 2.9399999999999777
    vertex 197.1097314749498 170.473500514773 2.9399999999999777
    vertex 194.1285714749498 170.47350051477292 2.9399999999999777
  endloop
endfacet
facet normal 0.0 0.0 1.0
  outer loop
    vertex 197.1097314749498 170.473500514773 2.9399999999999777
    vertex 201.0081714749498 198.56520051477298 2.939999999999977
    vertex 197.1097314749498 177.35310051477296 2.9399999999999777
  endloop
endfacet
facet normal 0.0 0.0 1.0
  outer loop
    vertex 197.1097314749498 177.35310051477296 2.9399999999999777
    vertex 201.0081714749498 198.56520051477298 2.939999999999977
    vertex 194.12857147494978 177.35310051477296 2.9399999999999777
  endloop
endfacet
facet normal 0.0 0.0 1.0
  outer loop
    vertex 194.12857147494978 177.35310051477296 2.9399999999999777
    vertex 201.0081714749498 198.56520051477298 2.939999999999977
    vertex 194.12857147494978 187.09920051477297 2.9399999999999777
  endloop
endfacet
facet normal 0.0 0.0 1.0
  outer loop
    vertex 194.12857147494978 187.09920051477297 2.9399999999999777
    vertex 201.0081714749498 198.56520051477298 2.939999999999977
    vertex 184.3824714749498 191.68560051477294 2.939999999999977
  endloop
endfacet
facet normal 0.0 0.0 1.0
  outer loop
    vertex 194.12857147494978 187.09920051477297 2.9399999999999777
    vertex 184.3824714749498 191.68560051477294 2.939999999999977
    vertex 167.7567714749498 187.09920051477297 2.9399999999999777
  endloop
endfacet
facet normal 0.0 0.0 1.0
  outer loop
    vertex 184.3824714749498 191.68560051477294 2.939999999999977
    vertex 201.0081714749498 198.56520051477298 2.939999999999977
    vertex 184.38247147494974 197.18928051477292 2.939999999999963
  endloop
endfacet
facet normal 0.0 0.0 1.0
  outer loop
    vertex 184.38247147494974 197.18928051477292 2.939999999999963
    vertex 201.0081714749498 198.56520051477298 2.939999999999977
    vertex 177.50287147494973 197.18928051477292 2.939999999999977
  endloop
endfacet
facet normal 0.0 0.0 1.0
  outer loop
    vertex 160.8771714749498 149.26140051477293 2.939999999999977
    vertex 164.7756114749498 170.47350051477298 2.9399999999999777
    vertex 160.87717147494976 198.56520051477298 2.939999999999977
  endloop
endfacet
facet normal 0.0 0.0 1.0
  outer loop
    vertex 164.7756114749498 170.47350051477298 2.9399999999999777
    vertex 160.8771714749498 149.26140051477293 2.939999999999977
    vertex 167.7567714749498 160.72740051477297 2.9399999999999777
  endloop
endfacet
facet normal 0.0 0.0 1.0
  outer loop
    vertex 167.7567714749498 160.72740051477297 2.9399999999999777
    vertex 160.8771714749498 149.26140051477293 2.939999999999977
    vertex 177.50287147494984 150.63732051477302 2.939999999999977
  endloop
endfacet
facet normal 0.0 0.0 1.0
  outer loop
    vertex 177.50287147494984 150.63732051477302 2.939999999999977
    vertex 160.8771714749498 149.26140051477293 2.939999999999977
    vertex 184.38247147494982 150.63732051477302 2.939999999999977
  endloop
endfacet
facet normal 0.0 0.0 1.0
  outer loop
    vertex 167.7567714749498 160.72740051477297 2.9399999999999777
    vertex 177.50287147494984 150.63732051477302 2.939999999999977
    vertex 177.50287147494984 154.99440051477302 2.939999999999977
  endloop
endfacet
facet normal 0.0 0.0 1.0
  outer loop
    vertex 167.7567714749498 160.72740051477297 2.9399999999999777
    vertex 177.50287147494984 154.99440051477302 2.939999999999977
    vertex 194.1285714749498 160.72740051477297 2.9399999999999777
  endloop
endfacet
facet normal 0.0 0.0 1.0
  outer loop
    vertex 164.7756114749498 170.47350051477298 2.9399999999999777
    vertex 167.7567714749498 160.72740051477297 2.9399999999999777
    vertex 167.7567714749498 170.47350051477295 2.9399999999999777
  endloop
endfacet
facet normal 0.0 0.0 1.0
  outer loop
    vertex 160.87717147494976 198.56520051477298 2.939999999999977
    vertex 164.7756114749498 170.47350051477298 2.9399999999999777
    vertex 164.7756114749498 177.35310051477293 2.9399999999999777
  endloop
endfacet
facet normal 0.0 0.0 1.0
  outer loop
    vertex 160.87717147494976 198.56520051477298 2.939999999999977
    vertex 164.7756114749498 177.35310051477293 2.9399999999999777
    vertex 167.7567714749498 187.09920051477297 2.9399999999999777
  endloop
endfacet
facet normal 0.0 0.0 1.0
  outer loop
    vertex 160.87717147494976 198.56520051477298 2.939999999999977
    vertex 167.7567714749498 187.09920051477297 2.9399999999999777
    vertex 177.5028714749498 191.68560051477294 2.939999999999977
  endloop
endfacet
facet normal 0.0 0.0 1.0
  outer loop
    vertex 177.5028714749498 191.68560051477294 2.939999999999977
    vertex 167.7567714749498 187.09920051477297 2.9399999999999777
    vertex 184.3824714749498 191.68560051477294 2.939999999999977
  endloop
endfacet
facet normal 0.0 0.0 1.0
  outer loop
    vertex 160.87717147494976 198.56520051477298 2.939999999999977
    vertex 177.5028714749498 191.68560051477294 2.939999999999977
    vertex 177.50287147494973 197.18928051477292 2.939999999999977
  endloop
endfacet
facet normal 0.0 0.0 1.0
  outer loop
    vertex 160.87717147494976 198.56520051477298 2.939999999999977
    vertex 177.50287147494973 197.18928051477292 2.939999999999977
    vertex 201.0081714749498 198.56520051477298 2.939999999999977
  endloop
endfacet
facet normal -4.440892098500624e-16 1.0 0.0
  outer loop
    vertex 194.12857147494978 177.35310051477296 2.9399999999999777
    vertex 195.27517147494981 177.35310051477296 7.099999999999974
    vertex 197.1097314749498 177.35310051477296 2.9399999999999777
  endloop
endfacet
facet normal -4.440892098500624e-16 1.0 0.0
  outer loop
    vertex 195.27517147494981 177.35310051477296 7.099999999999974
    vertex 194.12857147494978 177.35310051477296 2.9399999999999777
    vertex 194.12857147494978 177.35310051477296 7.099999999999974
  endloop
endfacet
facet normal 1.0 2.639392204048705e-15 -4.88750202790056e-16
  outer loop
    vertex 184.3824714749498 193.97880051477296 8.139999999999977
    vertex 184.3824714749498 191.68560051477294 2.939999999999977
    vertex 184.38247147494974 197.18928051477292 2.939999999999963
  endloop
endfacet
facet normal 1.0 2.639392204048705e-15 -4.88750202790056e-16
  outer loop
    vertex 184.3824714749498 191.68560051477294 2.939999999999977
    vertex 184.3824714749498 193.97880051477296 8.139999999999977
    vertex 184.3824714749498 191.68560051477294 6.059999999999979
  endloop
endfacet
facet normal 1.0 2.639392204048705e-15 -4.88750202790056e-16
  outer loop
    vertex 184.3824714749498 191.68560051477294 6.059999999999979
    vertex 184.3824714749498 193.97880051477296 8.139999999999977
    vertex 184.3824714749498 190.539000514773 6.059999999999979
  endloop
endfacet
facet normal 1.0 2.639392204048705e-15 -4.88750202790056e-16
  outer loop
    vertex 184.3824714749498 190.539000514773 6.059999999999979
    vertex 184.3824714749498 193.97880051477296 8.139999999999977
    vertex 184.3824714749498 190.539000514773 7.099999999999978
  endloop
endfacet
facet normal 1.1782098778857077e-14 -1.0 -1.7799073106761365e-15
  outer loop
    vertex 195.27517147494981 170.47350051477292 7.099999999999974
    vertex 194.1285714749498 170.47350051477292 2.9399999999999777
    vertex 197.1097314749498 170.473500514773 2.9399999999999777
  endloop
endfacet
facet normal 1.1782098778857077e-14 -1.0 -1.7799073106761365e-15
  outer loop
    vertex 194.1285714749498 170.47350051477292 2.9399999999999777
    vertex 195.27517147494981 170.47350051477292 7.099999999999974
    vertex 194.1285714749498 170.47350051477292 7.099999999999974
  endloop
endfacet
facet normal 0.940042121845277 4.1746256311604773e-16 0.34105836620236873
  outer loop
    vertex 195.27517147494981 177.35310051477296 7.099999999999974
    vertex 197.1097314749498 170.473500514773 2.9399999999999777
    vertex 197.1097314749498 177.35310051477296 2.9399999999999777
  endloop
endfacet
facet normal 0.940042121845277 4.1746256311604773e-16 0.34105836620236873
  outer loop
    vertex 197.1097314749498 170.473500514773 2.9399999999999777
    vertex 195.27517147494981 177.35310051477296 7.099999999999974
    vertex 195.27517147494981 170.47350051477292 7.099999999999974
  endloop
endfacet
facet normal 0.0 0.0 1.0
  outer loop
    vertex 194.1285714749498 160.72740051477297 1.8999999999999782
    vertex 180.94267147494983 161.30564749787354 1.8999999999999782
    vertex 167.7567714749498 160.72740051477297 1.8999999999999782
  endloop
endfacet
facet normal 0.0 0.0 1.0
  outer loop
    vertex 180.94267147494983 161.30564749787354 1.8999999999999782
    vertex 194.1285714749498 160.72740051477297 1.8999999999999782
    vertex 184.20577218976763 161.73524285685858 1.8999999999999782
  endloop
endfacet
facet normal 0.0 0.0 1.0
  outer loop
    vertex 184.20577218976763 161.73524285685858 1.8999999999999782
    vertex 194.1285714749498 160.72740051477297 1.8999999999999782
    vertex 187.24649798339948 162.99475272003855 1.8999999999999782
  endloop
endfacet
facet normal 0.0 0.0 1.0
  outer loop
    vertex 187.24649798339948 162.99475272003855 1.8999999999999782
    vertex 194.1285714749498 160.72740051477297 1.8999999999999782
    vertex 189.8576284180464 164.99834357167637 1.8999999999999782
  endloop
endfacet
facet normal 0.0 0.0 1.0
  outer loop
    vertex 189.8576284180464 164.99834357167637 1.8999999999999782
    vertex 194.1285714749498 160.72740051477297 1.8999999999999782
    vertex 191.8612192696842 167.6094740063233 1.8999999999999782
  endloop
endfacet
facet normal 0.0 0.0 1.0
  outer loop
    vertex 191.8612192696842 167.6094740063233 1.8999999999999782
    vertex 194.1285714749498 160.72740051477297 1.8999999999999782
    vertex 193.12072913286423 170.65019979995512 1.8999999999999782
  endloop
endfacet
facet normal 0.0 0.0 1.0
  outer loop
    vertex 193.12072913286423 170.65019979995512 1.8999999999999782
    vertex 194.1285714749498 160.72740051477297 1.8999999999999782
    vertex 193.5503244918492 173.913300514773 1.8999999999999782
  endloop
endfacet
facet normal 0.0 0.0 1.0
  outer loop
    vertex 193.5503244918492 173.913300514773 1.8999999999999782
    vertex 194.1285714749498 160.72740051477297 1.8999999999999782
    vertex 194.12857147494978 187.09920051477297 1.8999999999999782
  endloop
endfacet
facet normal 0.0 0.0 1.0
  outer loop
    vertex 193.5503244918492 173.913300514773 1.8999999999999782
    vertex 194.12857147494978 187.09920051477297 1.8999999999999782
    vertex 193.1207291328642 177.17640122959074 1.8999999999999782
  endloop
endfacet
facet normal 0.0 0.0 1.0
  outer loop
    vertex 193.1207291328642 177.17640122959074 1.8999999999999782
    vertex 194.12857147494978 187.09920051477297 1.8999999999999782
    vertex 191.86121926968417 180.2171270232227 1.8999999999999782
  endloop
endfacet
facet normal 0.0 0.0 1.0
  outer loop
    vertex 191.86121926968417 180.2171270232227 1.8999999999999782
    vertex 194.12857147494978 187.09920051477297 1.8999999999999782
    vertex 189.8576284180464 182.82825745786954 1.8999999999999782
  endloop
endfacet
facet normal 0.0 0.0 1.0
  outer loop
    vertex 189.8576284180464 182.82825745786954 1.8999999999999782
    vertex 194.12857147494978 187.09920051477297 1.8999999999999782
    vertex 187.24649798339948 184.83184830950736 1.8999999999999782
  endloop
endfacet
facet normal 0.0 0.0 1.0
  outer loop
    vertex 187.24649798339948 184.83184830950736 1.8999999999999782
    vertex 194.12857147494978 187.09920051477297 1.8999999999999782
    vertex 184.20577218976766 186.09135817268736 1.8999999999999782
  endloop
endfacet
facet normal 0.0 0.0 1.0
  outer loop
    vertex 184.20577218976766 186.09135817268736 1.8999999999999782
    vertex 194.12857147494978 187.09920051477297 1.8999999999999782
    vertex 180.9426714749498 186.52095353167232 1.8999999999999782
  endloop
endfacet
facet normal 0.0 0.0 1.0
  outer loop
    vertex 167.7567714749498 160.72740051477297 1.8999999999999782
    vertex 168.33501845805037 173.913300514773 1.8999999999999782
    vertex 167.7567714749498 187.09920051477297 1.8999999999999782
  endloop
endfacet
facet normal 0.0 0.0 1.0
  outer loop
    vertex 168.33501845805037 173.913300514773 1.8999999999999782
    vertex 167.7567714749498 160.72740051477297 1.8999999999999782
    vertex 168.76461381703538 170.65019979995512 1.8999999999999782
  endloop
endfacet
facet normal 0.0 0.0 1.0
  outer loop
    vertex 168.76461381703538 170.65019979995512 1.8999999999999782
    vertex 167.7567714749498 160.72740051477297 1.8999999999999782
    vertex 170.02412368021538 167.6094740063233 1.8999999999999782
  endloop
endfacet
facet normal 0.0 0.0 1.0
  outer loop
    vertex 170.02412368021538 167.6094740063233 1.8999999999999782
    vertex 167.7567714749498 160.72740051477297 1.8999999999999782
    vertex 172.02771453185318 164.99834357167637 1.8999999999999782
  endloop
endfacet
facet normal 0.0 0.0 1.0
  outer loop
    vertex 172.02771453185318 164.99834357167637 1.8999999999999782
    vertex 167.7567714749498 160.72740051477297 1.8999999999999782
    vertex 174.6388449665001 162.99475272003855 1.8999999999999782
  endloop
endfacet
facet normal 0.0 0.0 1.0
  outer loop
    vertex 174.6388449665001 162.99475272003855 1.8999999999999782
    vertex 167.7567714749498 160.72740051477297 1.8999999999999782
    vertex 177.67957076013195 161.73524285685858 1.8999999999999782
  endloop
endfacet
facet normal 0.0 0.0 1.0
  outer loop
    vertex 177.67957076013195 161.73524285685858 1.8999999999999782
    vertex 167.7567714749498 160.72740051477297 1.8999999999999782
    vertex 180.94267147494983 161.30564749787354 1.8999999999999782
  endloop
endfacet
facet normal 0.0 0.0 1.0
  outer loop
    vertex 167.7567714749498 187.09920051477297 1.8999999999999782
    vertex 168.33501845805037 173.913300514773 1.8999999999999782
    vertex 168.76461381703538 177.1764012295908 1.8999999999999782
  endloop
endfacet
facet normal 0.0 0.0 1.0
  outer loop
    vertex 167.7567714749498 187.09920051477297 1.8999999999999782
    vertex 168.76461381703538 177.1764012295908 1.8999999999999782
    vertex 170.02412368021544 180.21712702322267 1.8999999999999782
  endloop
endfacet
facet normal 0.0 0.0 1.0
  outer loop
    vertex 167.7567714749498 187.09920051477297 1.8999999999999782
    vertex 170.02412368021544 180.21712702322267 1.8999999999999782
    vertex 172.02771453185318 182.82825745786957 1.8999999999999782
  endloop
endfacet
facet normal 0.0 0.0 1.0
  outer loop
    vertex 167.7567714749498 187.09920051477297 1.8999999999999782
    vertex 172.02771453185318 182.82825745786957 1.8999999999999782
    vertex 174.6388449665001 184.83184830950736 1.8999999999999782
  endloop
endfacet
facet normal 0.0 0.0 1.0
  outer loop
    vertex 167.7567714749498 187.09920051477297 1.8999999999999782
    vertex 174.6388449665001 184.83184830950736 1.8999999999999782
    vertex 177.67957076013195 186.09135817268736 1.8999999999999782
  endloop
endfacet
facet normal 0.0 0.0 1.0
  outer loop
    vertex 167.7567714749498 187.09920051477297 1.8999999999999782
    vertex 177.67957076013195 186.09135817268736 1.8999999999999782
    vertex 180.9426714749498 186.52095353167232 1.8999999999999782
  endloop
endfacet
facet normal 0.0 0.0 1.0
  outer loop
    vertex 167.7567714749498 187.09920051477297 1.8999999999999782
    vertex 180.9426714749498 186.52095353167232 1.8999999999999782
    vertex 194.12857147494978 187.09920051477297 1.8999999999999782
  endloop
endfacet
facet normal 1.0 4.440892098500626e-16 0.0
  outer loop
    vertex 167.7567714749498 177.35310051477293 7.099999999999977
    vertex 167.7567714749498 170.47350051477295 2.9399999999999777
    vertex 167.7567714749498 177.35310051477293 2.9399999999999777
  endloop
endfacet
facet normal 1.0 4.440892098500626e-16 0.0
  outer loop
    vertex 167.7567714749498 170.47350051477295 2.9399999999999777
    vertex 167.7567714749498 177.35310051477293 7.099999999999977
    vertex 167.7567714749498 170.47350051477295 7.099999999999977
  endloop
endfacet
facet normal 1.0 4.440892098500626e-16 0.0
  outer loop
    vertex 167.7567714749498 187.09920051477297 2.9399999999999777
    vertex 167.7567714749498 160.72740051477297 1.8999999999999782
    vertex 167.7567714749498 187.09920051477297 1.8999999999999782
  endloop
endfacet
facet normal 1.0 4.440892098500626e-16 0.0
  outer loop
    vertex 167.7567714749498 160.72740051477297 1.8999999999999782
    vertex 167.7567714749498 187.09920051477297 2.9399999999999777
    vertex 167.7567714749498 160.72740051477297 2.9399999999999777
  endloop
endfacet
facet normal 1.0 4.440892098500626e-16 0.0
  outer loop
    vertex 167.7567714749498 160.72740051477297 2.9399999999999777
    vertex 167.7567714749498 187.09920051477297 2.9399999999999777
    vertex 167.7567714749498 177.35310051477293 2.9399999999999777
  endloop
endfacet
facet normal 1.0 4.440892098500626e-16 0.0
  outer loop
    vertex 167.7567714749498 160.72740051477297 2.9399999999999777
    vertex 167.7567714749498 177.35310051477293 2.9399999999999777
    vertex 167.7567714749498 170.47350051477295 2.9399999999999777
  endloop
endfacet
facet normal 4.440892098500624e-16 -1.0 0.0
  outer loop
    vertex 167.7567714749498 187.09920051477297 2.9399999999999777
    vertex 194.12857147494978 187.09920051477297 1.8999999999999782
    vertex 194.12857147494978 187.09920051477297 2.9399999999999777
  endloop
endfacet
facet normal 4.440892098500624e-16 -1.0 0.0
  outer loop
    vertex 194.12857147494978 187.09920051477297 1.8999999999999782
    vertex 167.7567714749498 187.09920051477297 2.9399999999999777
    vertex 167.7567714749498 187.09920051477297 1.8999999999999782
  endloop
endfacet
facet normal -1.0 -4.440892098500626e-16 0.0
  outer loop
    vertex 194.1285714749498 170.47350051477292 7.099999999999974
    vertex 194.12857147494978 177.35310051477296 2.9399999999999777
    vertex 194.1285714749498 170.47350051477292 2.9399999999999777
  endloop
endfacet
facet normal -1.0 -4.440892098500626e-16 0.0
  outer loop
    vertex 194.12857147494978 177.35310051477296 2.9399999999999777
    vertex 194.1285714749498 170.47350051477292 7.099999999999974
    vertex 194.12857147494978 177.35310051477296 7.099999999999974
  endloop
endfacet
facet normal -1.0 -4.440892098500626e-16 0.0
  outer loop
    vertex 194.1285714749498 160.72740051477297 2.9399999999999777
    vertex 194.12857147494978 187.09920051477297 1.8999999999999782
    vertex 194.1285714749498 160.72740051477297 1.8999999999999782
  endloop
endfacet
facet normal -1.0 -4.440892098500626e-16 0.0
  outer loop
    vertex 194.12857147494978 187.09920051477297 1.8999999999999782
    vertex 194.1285714749498 160.72740051477297 2.9399999999999777
    vertex 194.12857147494978 187.09920051477297 2.9399999999999777
  endloop
endfacet
facet normal -1.0 -4.440892098500626e-16 0.0
  outer loop
    vertex 194.12857147494978 187.09920051477297 2.9399999999999777
    vertex 194.1285714749498 160.72740051477297 2.9399999999999777
    vertex 194.1285714749498 170.47350051477292 2.9399999999999777
  endloop
endfacet
facet normal -1.0 -4.440892098500626e-16 0.0
  outer loop
    vertex 194.12857147494978 187.09920051477297 2.9399999999999777
    vertex 194.1285714749498 170.47350051477292 2.9399999999999777
    vertex 194.12857147494978 177.35310051477296 2.9399999999999777
  endloop
endfacet
facet normal -4.440892098500624e-16 1.0 0.0
  outer loop
    vertex 167.7567714749498 160.72740051477297 1.8999999999999782
    vertex 194.1285714749498 160.72740051477297 2.9399999999999777
    vertex 194.1285714749498 160.72740051477297 1.8999999999999782
  endloop
endfacet
facet normal -4.440892098500624e-16 1.0 0.0
  outer loop
    vertex 194.1285714749498 160.72740051477297 2.9399999999999777
    vertex 167.7567714749498 160.72740051477297 1.8999999999999782
    vertex 167.7567714749498 160.72740051477297 2.9399999999999777
  endloop
endfacet
facet normal 1.9222601182147063e-16 0.891578868092577 0.4528654568089283
  outer loop
    vertex 184.38247147494974 197.18928051477292 2.939999999999963
    vertex 177.5028714749498 193.97880051477293 8.139999999999977
    vertex 184.3824714749498 193.97880051477296 8.139999999999977
  endloop
endfacet
facet normal 1.9222601182147063e-16 0.891578868092577 0.4528654568089283
  outer loop
    vertex 177.5028714749498 193.97880051477293 8.139999999999977
    vertex 184.38247147494974 197.18928051477292 2.939999999999963
    vertex 177.50287147494973 197.18928051477292 2.939999999999977
  endloop
endfacet
facet normal -1.0 -1.998497817851726e-15 5.994826706096705e-16
  outer loop
    vertex 177.5028714749498 190.539000514773 7.099999999999978
    vertex 177.5028714749498 191.68560051477294 6.059999999999979
    vertex 177.5028714749498 190.539000514773 6.059999999999979
  endloop
endfacet
facet normal -1.0 -1.998497817851726e-15 5.994826706096705e-16
  outer loop
    vertex 177.5028714749498 191.68560051477294 6.059999999999979
    vertex 177.50287147494973 197.18928051477292 2.939999999999977
    vertex 177.5028714749498 191.68560051477294 2.939999999999977
  endloop
endfacet
facet normal -1.0 -1.998497817851726e-15 5.994826706096705e-16
  outer loop
    vertex 177.50287147494973 197.18928051477292 2.939999999999977
    vertex 177.5028714749498 191.68560051477294 6.059999999999979
    vertex 177.5028714749498 193.97880051477293 8.139999999999977
  endloop
endfacet
facet normal -1.0 -1.998497817851726e-15 5.994826706096705e-16
  outer loop
    vertex 177.5028714749498 193.97880051477293 8.139999999999977
    vertex 177.5028714749498 191.68560051477294 6.059999999999979
    vertex 177.5028714749498 190.539000514773 7.099999999999978
  endloop
endfacet
facet normal 4.22153626052237e-16 -0.9506054564909805 0.3104017817113401
  outer loop
    vertex 177.50287147494984 152.70120051477303 8.139999999999976
    vertex 184.38247147494982 150.63732051477302 2.939999999999977
    vertex 184.38247147494982 152.70120051477303 8.139999999999976
  endloop
endfacet
facet normal 4.22153626052237e-16 -0.9506054564909805 0.3104017817113401
  outer loop
    vertex 184.38247147494982 150.63732051477302 2.939999999999977
    vertex 177.50287147494984 152.70120051477303 8.139999999999976
    vertex 177.50287147494984 150.63732051477302 2.939999999999977
  endloop
endfacet
facet normal -0.0 0.0 -1.0
  outer loop
    vertex 160.8771714749498 149.26140051477293 0.8599999999999782
    vertex 174.6388449665001 162.99475272003855 0.8599999999999782
    vertex 201.0081714749498 149.26140051477296 0.8599999999999782
  endloop
endfacet
facet normal -0.0 0.0 -1.0
  outer loop
    vertex 174.6388449665001 162.99475272003855 0.8599999999999782
    vertex 160.8771714749498 149.26140051477293 0.8599999999999782
    vertex 172.02771453185318 164.99834357167637 0.8599999999999782
  endloop
endfacet
facet normal -0.0 0.0 -1.0
  outer loop
    vertex 172.02771453185318 164.99834357167637 0.8599999999999782
    vertex 160.8771714749498 149.26140051477293 0.8599999999999782
    vertex 170.02412368021538 167.6094740063233 0.8599999999999782
  endloop
endfacet
facet normal -0.0 0.0 -1.0
  outer loop
    vertex 170.02412368021538 167.6094740063233 0.8599999999999782
    vertex 160.8771714749498 149.26140051477293 0.8599999999999782
    vertex 168.76461381703538 170.65019979995512 0.8599999999999782
  endloop
endfacet
facet normal -0.0 0.0 -1.0
  outer loop
    vertex 168.76461381703538 170.65019979995512 0.8599999999999782
    vertex 160.8771714749498 149.26140051477293 0.8599999999999782
    vertex 160.87717147494976 198.56520051477298 0.8599999999999782
  endloop
endfacet
facet normal -0.0 0.0 -1.0
  outer loop
    vertex 201.0081714749498 149.26140051477296 0.8599999999999782
    vertex 174.6388449665001 162.99475272003855 0.8599999999999782
    vertex 177.67957076013195 161.73524285685858 0.8599999999999782
  endloop
endfacet
facet normal -0.0 0.0 -1.0
  outer loop
    vertex 201.0081714749498 149.26140051477296 0.8599999999999782
    vertex 177.67957076013195 161.73524285685858 0.8599999999999782
    vertex 180.94267147494983 161.30564749787354 0.8599999999999782
  endloop
endfacet
facet normal -0.0 0.0 -1.0
  outer loop
    vertex 168.76461381703538 170.65019979995512 0.8599999999999782
    vertex 160.87717147494976 198.56520051477298 0.8599999999999782
    vertex 168.33501845805037 173.913300514773 0.8599999999999782
  endloop
endfacet
facet normal -0.0 0.0 -1.0
  outer loop
    vertex 168.33501845805037 173.913300514773 0.8599999999999782
    vertex 160.87717147494976 198.56520051477298 0.8599999999999782
    vertex 168.76461381703538 177.1764012295908 0.8599999999999782
  endloop
endfacet
facet normal -0.0 0.0 -1.0
  outer loop
    vertex 168.76461381703538 177.1764012295908 0.8599999999999782
    vertex 160.87717147494976 198.56520051477298 0.8599999999999782
    vertex 170.02412368021544 180.21712702322267 0.8599999999999782
  endloop
endfacet
facet normal -0.0 0.0 -1.0
  outer loop
    vertex 170.02412368021544 180.21712702322267 0.8599999999999782
    vertex 160.87717147494976 198.56520051477298 0.8599999999999782
    vertex 172.02771453185318 182.82825745786957 0.8599999999999782
  endloop
endfacet
facet normal -0.0 0.0 -1.0
  outer loop
    vertex 172.02771453185318 182.82825745786957 0.8599999999999782
    vertex 160.87717147494976 198.56520051477298 0.8599999999999782
    vertex 174.6388449665001 184.83184830950736 0.8599999999999782
  endloop
endfacet
facet normal -0.0 0.0 -1.0
  outer loop
    vertex 174.6388449665001 184.83184830950736 0.8599999999999782
    vertex 160.87717147494976 198.56520051477298 0.8599999999999782
    vertex 177.67957076013195 186.09135817268736 0.8599999999999782
  endloop
endfacet
facet normal -0.0 0.0 -1.0
  outer loop
    vertex 177.67957076013195 186.09135817268736 0.8599999999999782
    vertex 160.87717147494976 198.56520051477298 0.8599999999999782
    vertex 180.9426714749498 186.52095353167232 0.8599999999999782
  endloop
endfacet
facet normal -0.0 0.0 -1.0
  outer loop
    vertex 201.0081714749498 149.26140051477296 0.8599999999999782
    vertex 193.12072913286423 170.65019979995512 0.8599999999999782
    vertex 201.0081714749498 198.56520051477298 0.8599999999999782
  endloop
endfacet
facet normal -0.0 0.0 -1.0
  outer loop
    vertex 193.12072913286423 170.65019979995512 0.8599999999999782
    vertex 201.0081714749498 149.26140051477296 0.8599999999999782
    vertex 191.8612192696842 167.6094740063233 0.8599999999999782
  endloop
endfacet
facet normal -0.0 0.0 -1.0
  outer loop
    vertex 191.8612192696842 167.6094740063233 0.8599999999999782
    vertex 201.0081714749498 149.26140051477296 0.8599999999999782
    vertex 189.8576284180464 164.99834357167637 0.8599999999999782
  endloop
endfacet
facet normal -0.0 0.0 -1.0
  outer loop
    vertex 189.8576284180464 164.99834357167637 0.8599999999999782
    vertex 201.0081714749498 149.26140051477296 0.8599999999999782
    vertex 187.24649798339948 162.99475272003855 0.8599999999999782
  endloop
endfacet
facet normal -0.0 0.0 -1.0
  outer loop
    vertex 187.24649798339948 162.99475272003855 0.8599999999999782
    vertex 201.0081714749498 149.26140051477296 0.8599999999999782
    vertex 184.20577218976763 161.73524285685858 0.8599999999999782
  endloop
endfacet
facet normal -0.0 0.0 -1.0
  outer loop
    vertex 184.20577218976763 161.73524285685858 0.8599999999999782
    vertex 201.0081714749498 149.26140051477296 0.8599999999999782
    vertex 180.94267147494983 161.30564749787354 0.8599999999999782
  endloop
endfacet
facet normal -0.0 0.0 -1.0
  outer loop
    vertex 201.0081714749498 198.56520051477298 0.8599999999999782
    vertex 193.12072913286423 170.65019979995512 0.8599999999999782
    vertex 193.5503244918492 173.913300514773 0.8599999999999782
  endloop
endfacet
facet normal -0.0 0.0 -1.0
  outer loop
    vertex 201.0081714749498 198.56520051477298 0.8599999999999782
    vertex 193.5503244918492 173.913300514773 0.8599999999999782
    vertex 193.1207291328642 177.17640122959074 0.8599999999999782
  endloop
endfacet
facet normal -0.0 0.0 -1.0
  outer loop
    vertex 201.0081714749498 198.56520051477298 0.8599999999999782
    vertex 193.1207291328642 177.17640122959074 0.8599999999999782
    vertex 191.86121926968417 180.2171270232227 0.8599999999999782
  endloop
endfacet
facet normal -0.0 0.0 -1.0
  outer loop
    vertex 201.0081714749498 198.56520051477298 0.8599999999999782
    vertex 191.86121926968417 180.2171270232227 0.8599999999999782
    vertex 189.8576284180464 182.82825745786954 0.8599999999999782
  endloop
endfacet
facet normal -0.0 0.0 -1.0
  outer loop
    vertex 201.0081714749498 198.56520051477298 0.8599999999999782
    vertex 189.8576284180464 182.82825745786954 0.8599999999999782
    vertex 187.24649798339948 184.83184830950736 0.8599999999999782
  endloop
endfacet
facet normal -0.0 0.0 -1.0
  outer loop
    vertex 201.0081714749498 198.56520051477298 0.8599999999999782
    vertex 187.24649798339948 184.83184830950736 0.8599999999999782
    vertex 184.20577218976766 186.09135817268736 0.8599999999999782
  endloop
endfacet
facet normal -0.0 0.0 -1.0
  outer loop
    vertex 201.0081714749498 198.56520051477298 0.8599999999999782
    vertex 184.20577218976766 186.09135817268736 0.8599999999999782
    vertex 180.9426714749498 186.52095353167232 0.8599999999999782
  endloop
endfacet
facet normal -0.0 0.0 -1.0
  outer loop
    vertex 201.0081714749498 198.56520051477298 0.8599999999999782
    vertex 180.9426714749498 186.52095353167232 0.8599999999999782
    vertex 160.87717147494976 198.56520051477298 0.8599999999999782
  endloop
endfacet
facet normal -0.9914448613738098 -0.13052619222005502 8.966390814736772e-31
  outer loop
    vertex 193.5503244918492 173.913300514773 1.8999999999999782
    vertex 193.1207291328642 177.17640122959074 0.8599999999999782
    vertex 193.5503244918492 173.913300514773 0.8599999999999782
  endloop
endfacet
facet normal -0.9914448613738098 -0.13052619222005502 8.966390814736772e-31
  outer loop
    vertex 193.1207291328642 177.17640122959074 0.8599999999999782
    vertex 193.5503244918492 173.913300514773 1.8999999999999782
    vertex 193.1207291328642 177.17640122959074 1.8999999999999782
  endloop
endfacet
facet normal -0.9914448613738103 0.13052619222005324 0.0
  outer loop
    vertex 193.12072913286423 170.65019979995512 1.8999999999999782
    vertex 193.5503244918492 173.913300514773 0.8599999999999782
    vertex 193.12072913286423 170.65019979995512 0.8599999999999782
  endloop
endfacet
facet normal -0.9914448613738103 0.13052619222005324 0.0
  outer loop
    vertex 193.5503244918492 173.913300514773 0.8599999999999782
    vertex 193.12072913286423 170.65019979995512 1.8999999999999782
    vertex 193.5503244918492 173.913300514773 1.8999999999999782
  endloop
endfacet
facet normal -0.13052619222004389 -0.9914448613738114 -6.810649990733635e-30
  outer loop
    vertex 180.9426714749498 186.52095353167232 1.8999999999999782
    vertex 184.20577218976766 186.09135817268736 0.8599999999999782
    vertex 184.20577218976766 186.09135817268736 1.8999999999999782
  endloop
endfacet
facet normal -0.13052619222004389 -0.9914448613738114 -6.810649990733635e-30
  outer loop
    vertex 184.20577218976766 186.09135817268736 0.8599999999999782
    vertex 180.9426714749498 186.52095353167232 1.8999999999999782
    vertex 180.9426714749498 186.52095353167232 0.8599999999999782
  endloop
endfacet
facet normal 0.9914448613738112 0.13052619222004574 -5.914010909260019e-30
  outer loop
    vertex 168.33501845805037 173.913300514773 1.8999999999999782
    vertex 168.76461381703538 170.65019979995512 0.8599999999999782
    vertex 168.33501845805037 173.913300514773 0.8599999999999782
  endloop
endfacet
facet normal 0.9914448613738112 0.13052619222004574 -5.914010909260019e-30
  outer loop
    vertex 168.76461381703538 170.65019979995512 0.8599999999999782
    vertex 168.33501845805037 173.913300514773 1.8999999999999782
    vertex 168.76461381703538 170.65019979995512 1.8999999999999782
  endloop
endfacet
facet normal 0.3826834323650932 0.9238795325112854 4.624656337477466e-17
  outer loop
    vertex 174.6388449665001 162.99475272003855 0.8599999999999782
    vertex 177.67957076013195 161.73524285685858 1.8999999999999782
    vertex 177.67957076013195 161.73524285685858 0.8599999999999782
  endloop
endfacet
facet normal 0.3826834323650932 0.9238795325112854 4.624656337477466e-17
  outer loop
    vertex 177.67957076013195 161.73524285685858 1.8999999999999782
    vertex 174.6388449665001 162.99475272003855 0.8599999999999782
    vertex 174.6388449665001 162.99475272003855 1.8999999999999782
  endloop
endfacet
facet normal 0.1305261922200522 0.9914448613738104 8.966390814736641e-31
  outer loop
    vertex 177.67957076013195 161.73524285685858 0.8599999999999782
    vertex 180.94267147494983 161.30564749787354 1.8999999999999782
    vertex 180.94267147494983 161.30564749787354 0.8599999999999782
  endloop
endfacet
facet normal 0.1305261922200522 0.9914448613738104 8.966390814736641e-31
  outer loop
    vertex 180.94267147494983 161.30564749787354 1.8999999999999782
    vertex 177.67957076013195 161.73524285685858 0.8599999999999782
    vertex 177.67957076013195 161.73524285685858 1.8999999999999782
  endloop
endfacet
facet normal -0.7933533402912328 -0.608761429008724 5.4498763675227305e-30
  outer loop
    vertex 191.86121926968417 180.2171270232227 1.8999999999999782
    vertex 189.8576284180464 182.82825745786954 0.8599999999999782
    vertex 191.86121926968417 180.2171270232227 0.8599999999999782
  endloop
endfacet
facet normal -0.7933533402912328 -0.608761429008724 5.4498763675227305e-30
  outer loop
    vertex 189.8576284180464 182.82825745786954 0.8599999999999782
    vertex 191.86121926968417 180.2171270232227 1.8999999999999782
    vertex 189.8576284180464 182.82825745786954 1.8999999999999782
  endloop
endfacet
facet normal -0.6087614290087217 -0.7933533402912343 -4.7937619488264297e-17
  outer loop
    vertex 187.24649798339948 184.83184830950736 1.8999999999999782
    vertex 189.8576284180464 182.82825745786954 0.8599999999999782
    vertex 189.8576284180464 182.82825745786954 1.8999999999999782
  endloop
endfacet
facet normal -0.6087614290087217 -0.7933533402912343 -4.7937619488264297e-17
  outer loop
    vertex 189.8576284180464 182.82825745786954 0.8599999999999782
    vertex 187.24649798339948 184.83184830950736 1.8999999999999782
    vertex 187.24649798339948 184.83184830950736 0.8599999999999782
  endloop
endfacet
facet normal 0.382683432365094 -0.923879532511285 4.6246563374761956e-17
  outer loop
    vertex 174.6388449665001 184.83184830950736 1.8999999999999782
    vertex 177.67957076013195 186.09135817268736 0.8599999999999782
    vertex 177.67957076013195 186.09135817268736 1.8999999999999782
  endloop
endfacet
facet normal 0.382683432365094 -0.923879532511285 4.6246563374761956e-17
  outer loop
    vertex 177.67957076013195 186.09135817268736 0.8599999999999782
    vertex 174.6388449665001 184.83184830950736 1.8999999999999782
    vertex 174.6388449665001 184.83184830950736 0.8599999999999782
  endloop
endfacet
facet normal 0.6087614290087142 -0.79335334029124 0.0
  outer loop
    vertex 172.02771453185318 182.82825745786957 1.8999999999999782
    vertex 174.6388449665001 184.83184830950736 0.8599999999999782
    vertex 174.6388449665001 184.83184830950736 1.8999999999999782
  endloop
endfacet
facet normal 0.6087614290087142 -0.79335334029124 0.0
  outer loop
    vertex 174.6388449665001 184.83184830950736 0.8599999999999782
    vertex 172.02771453185318 182.82825745786957 1.8999999999999782
    vertex 172.02771453185318 182.82825745786957 0.8599999999999782
  endloop
endfacet
facet normal -0.9238795325112878 -0.3826834323650871 0.0
  outer loop
    vertex 193.1207291328642 177.17640122959074 1.8999999999999782
    vertex 191.86121926968417 180.2171270232227 0.8599999999999782
    vertex 193.1207291328642 177.17640122959074 0.8599999999999782
  endloop
endfacet
facet normal -0.9238795325112878 -0.3826834323650871 0.0
  outer loop
    vertex 191.86121926968417 180.2171270232227 0.8599999999999782
    vertex 193.1207291328642 177.17640122959074 1.8999999999999782
    vertex 191.86121926968417 180.2171270232227 1.8999999999999782
  endloop
endfacet
facet normal 0.13052619222004574 -0.9914448613738112 -5.914010909260019e-30
  outer loop
    vertex 177.67957076013195 186.09135817268736 1.8999999999999782
    vertex 180.9426714749498 186.52095353167232 0.8599999999999782
    vertex 180.9426714749498 186.52095353167232 1.8999999999999782
  endloop
endfacet
facet normal 0.13052619222004574 -0.9914448613738112 -5.914010909260019e-30
  outer loop
    vertex 180.9426714749498 186.52095353167232 0.8599999999999782
    vertex 177.67957076013195 186.09135817268736 1.8999999999999782
    vertex 177.67957076013195 186.09135817268736 0.8599999999999782
  endloop
endfacet
facet normal 0.9238795325112807 -0.38268343236510444 0.0
  outer loop
    vertex 170.02412368021544 180.21712702322267 1.8999999999999782
    vertex 168.76461381703538 177.1764012295908 0.8599999999999782
    vertex 170.02412368021544 180.21712702322267 0.8599999999999782
  endloop
endfacet
facet normal 0.9238795325112807 -0.38268343236510444 0.0
  outer loop
    vertex 168.76461381703538 177.1764012295908 0.8599999999999782
    vertex 170.02412368021544 180.21712702322267 1.8999999999999782
    vertex 168.76461381703538 177.1764012295908 1.8999999999999782
  endloop
endfacet
facet normal 0.9914448613738113 -0.1305261922200458 -6.810649990733634e-30
  outer loop
    vertex 168.76461381703538 177.1764012295908 1.8999999999999782
    vertex 168.33501845805037 173.913300514773 0.8599999999999782
    vertex 168.76461381703538 177.1764012295908 0.8599999999999782
  endloop
endfacet
facet normal 0.9914448613738113 -0.1305261922200458 -6.810649990733634e-30
  outer loop
    vertex 168.33501845805037 173.913300514773 0.8599999999999782
    vertex 168.76461381703538 177.1764012295908 1.8999999999999782
    vertex 168.33501845805037 173.913300514773 1.8999999999999782
  endloop
endfacet
facet normal 0.7933533402912395 -0.6087614290087148 4.1818372179489064e-30
  outer loop
    vertex 172.02771453185318 182.82825745786957 1.8999999999999782
    vertex 170.02412368021544 180.21712702322267 0.8599999999999782
    vertex 172.02771453185318 182.82825745786957 0.8599999999999782
  endloop
endfacet
facet normal 0.7933533402912395 -0.6087614290087148 4.1818372179489064e-30
  outer loop
    vertex 170.02412368021544 180.21712702322267 0.8599999999999782
    vertex 172.02771453185318 182.82825745786957 1.8999999999999782
    vertex 170.02412368021544 180.21712702322267 1.8999999999999782
  endloop
endfacet
facet normal 0.6087614290087134 0.7933533402912406 -4.793761948827432e-17
  outer loop
    vertex 172.02771453185318 164.99834357167637 0.8599999999999782
    vertex 174.6388449665001 162.99475272003855 1.8999999999999782
    vertex 174.6388449665001 162.99475272003855 0.8599999999999782
  endloop
endfacet
facet normal 0.6087614290087134 0.7933533402912406 -4.793761948827432e-17
  outer loop
    vertex 174.6388449665001 162.99475272003855 1.8999999999999782
    vertex 172.02771453185318 164.99834357167637 0.8599999999999782
    vertex 172.02771453185318 164.99834357167637 1.8999999999999782
  endloop
endfacet
facet normal 0.7933533402912373 0.6087614290087178 -4.1818372179489226e-30
  outer loop
    vertex 170.02412368021538 167.6094740063233 1.8999999999999782
    vertex 172.02771453185318 164.99834357167637 0.8599999999999782
    vertex 170.02412368021538 167.6094740063233 0.8599999999999782
  endloop
endfacet
facet normal 0.7933533402912373 0.6087614290087178 -4.1818372179489226e-30
  outer loop
    vertex 172.02771453185318 164.99834357167637 0.8599999999999782
    vertex 170.02412368021538 167.6094740063233 1.8999999999999782
    vertex 172.02771453185318 164.99834357167637 1.8999999999999782
  endloop
endfacet
facet normal -0.3826834323650887 0.9238795325112873 -4.624656337475607e-17
  outer loop
    vertex 184.20577218976763 161.73524285685858 0.8599999999999782
    vertex 187.24649798339948 162.99475272003855 1.8999999999999782
    vertex 187.24649798339948 162.99475272003855 0.8599999999999782
  endloop
endfacet
facet normal -0.3826834323650887 0.9238795325112873 -4.624656337475607e-17
  outer loop
    vertex 187.24649798339948 162.99475272003855 1.8999999999999782
    vertex 184.20577218976763 161.73524285685858 0.8599999999999782
    vertex 184.20577218976763 161.73524285685858 1.8999999999999782
  endloop
endfacet
facet normal -0.3826834323650932 -0.9238795325112854 -4.624656337477466e-17
  outer loop
    vertex 184.20577218976766 186.09135817268736 1.8999999999999782
    vertex 187.24649798339948 184.83184830950736 0.8599999999999782
    vertex 187.24649798339948 184.83184830950736 1.8999999999999782
  endloop
endfacet
facet normal -0.3826834323650932 -0.9238795325112854 -4.624656337477466e-17
  outer loop
    vertex 187.24649798339948 184.83184830950736 0.8599999999999782
    vertex 184.20577218976766 186.09135817268736 1.8999999999999782
    vertex 184.20577218976766 186.09135817268736 0.8599999999999782
  endloop
endfacet
facet normal -0.13052619222005407 0.99144486137381 0.0
  outer loop
    vertex 180.94267147494983 161.30564749787354 0.8599999999999782
    vertex 184.20577218976763 161.73524285685858 1.8999999999999782
    vertex 184.20577218976763 161.73524285685858 0.8599999999999782
  endloop
endfacet
facet normal -0.13052619222005407 0.99144486137381 0.0
  outer loop
    vertex 184.20577218976763 161.73524285685858 1.8999999999999782
    vertex 180.94267147494983 161.30564749787354 0.8599999999999782
    vertex 180.94267147494983 161.30564749787354 1.8999999999999782
  endloop
endfacet
facet normal 0.9238795325112834 0.3826834323650977 1.269303089799276e-29
  outer loop
    vertex 168.76461381703538 170.65019979995512 1.8999999999999782
    vertex 170.02412368021538 167.6094740063233 0.8599999999999782
    vertex 168.76461381703538 170.65019979995512 0.8599999999999782
  endloop
endfacet
facet normal 0.9238795325112834 0.3826834323650977 1.269303089799276e-29
  outer loop
    vertex 170.02412368021538 167.6094740063233 0.8599999999999782
    vertex 168.76461381703538 170.65019979995512 1.8999999999999782
    vertex 170.02412368021538 167.6094740063233 1.8999999999999782
  endloop
endfacet
facet normal -0.793353340291235 0.6087614290087207 -8.363674435897896e-30
  outer loop
    vertex 189.8576284180464 164.99834357167637 1.8999999999999782
    vertex 191.8612192696842 167.6094740063233 0.8599999999999782
    vertex 189.8576284180464 164.99834357167637 0.8599999999999782
  endloop
endfacet
facet normal -0.793353340291235 0.6087614290087207 -8.363674435897896e-30
  outer loop
    vertex 191.8612192696842 167.6094740063233 0.8599999999999782
    vertex 189.8576284180464 164.99834357167637 1.8999999999999782
    vertex 191.8612192696842 167.6094740063233 1.8999999999999782
  endloop
endfacet
facet normal -0.9238795325112849 0.38268343236509433 4.624656337476318e-17
  outer loop
    vertex 191.8612192696842 167.6094740063233 1.8999999999999782
    vertex 193.12072913286423 170.65019979995512 0.8599999999999782
    vertex 191.8612192696842 167.6094740063233 0.8599999999999782
  endloop
endfacet
facet normal -0.9238795325112849 0.38268343236509433 4.624656337476318e-17
  outer loop
    vertex 193.12072913286423 170.65019979995512 0.8599999999999782
    vertex 191.8612192696842 167.6094740063233 1.8999999999999782
    vertex 193.12072913286423 170.65019979995512 1.8999999999999782
  endloop
endfacet
facet normal -0.6087614290087214 0.7933533402912345 0.0
  outer loop
    vertex 187.24649798339948 162.99475272003855 0.8599999999999782
    vertex 189.8576284180464 164.99834357167637 1.8999999999999782
    vertex 189.8576284180464 164.99834357167637 0.8599999999999782
  endloop
endfacet
facet normal -0.6087614290087214 0.7933533402912345 0.0
  outer loop
    vertex 189.8576284180464 164.99834357167637 1.8999999999999782
    vertex 187.24649798339948 162.99475272003855 0.8599999999999782
    vertex 187.24649798339948 162.99475272003855 1.8999999999999782
  endloop
endfacet
endsolid Big shell
